<svg width="99" height="99" viewBox="0 0 99 99" fill="none" xmlns="http://www.w3.org/2000/svg">
<rect x="0.470703" y="0.0964355" width="98.5294" height="98.5294" rx="19.7059" fill="white"/>
<path d="M62.1622 30.0739C61.0826 29.5675 59.8793 29.3958 58.7036 29.5807C57.9196 29.7036 57.1677 29.9834 56.4916 30.4038C55.8156 30.8241 55.229 31.3765 54.7658 32.0287C54.7657 32.0288 54.7656 32.0289 54.7655 32.029L43.038 48.3844C42.4293 49.1561 41.5518 49.6604 40.5873 49.7938C39.6218 49.9273 38.6423 49.6789 37.8521 49.0996C37.0618 48.5202 36.5212 47.6542 36.3431 46.6807C36.1653 45.7085 36.3628 44.7043 36.8945 43.8761L49.0177 26.9266L49.1461 26.7471L48.9334 26.6886C48.3752 26.5351 47.8824 26.1982 47.5324 25.7303C47.496 25.6798 47.4657 25.6293 47.4315 25.5722C47.417 25.5481 47.4019 25.5228 47.3853 25.4959L47.2638 25.2988L47.129 25.4871L34.9831 42.4552C34.0237 43.7949 33.6286 45.4658 33.8843 47.1005C34.1399 48.7352 35.0256 50.2005 36.3471 51.1738C37.6687 52.1471 39.3178 52.5483 40.9316 52.2888C42.5454 52.0292 43.9908 51.1303 44.9502 49.7905L44.825 49.7009L44.9502 49.7905L56.6751 33.416L56.6754 33.4163L56.6817 33.406C56.9467 32.9669 57.2983 32.5885 57.7145 32.2943C58.1306 32.0002 58.6021 31.7968 59.0994 31.6968C59.5967 31.5968 60.1089 31.6023 60.604 31.7131C61.099 31.8238 61.5662 32.0374 61.9761 32.3405C62.3859 32.6436 62.7296 33.0295 62.9852 33.4742C63.2409 33.9189 63.403 34.4126 63.4613 34.9242C63.5195 35.4358 63.4726 35.9541 63.3235 36.4463C63.1745 36.9385 62.9265 37.394 62.5954 37.7839L62.595 37.7836L62.5876 37.7939L50.57 54.5746L50.4296 54.7707L50.6666 54.8155C51.3101 54.9372 51.8872 55.2955 52.287 55.8223L52.3181 55.8764L52.4375 56.0839L52.5768 55.8893L64.5276 39.1971L64.528 39.1965C65.2221 38.2177 65.6154 37.053 65.6587 35.8486C65.702 34.6442 65.3935 33.4535 64.7715 32.4261C64.1496 31.3987 63.2419 30.5802 62.1622 30.0739Z" fill="#FFB000" stroke="#FFB000" stroke-width="0.307904"/>
<path d="M53.1207 61.239C54.0995 60.5016 54.7517 59.4114 54.9383 58.2004C55.1249 56.9894 54.8312 55.7535 54.1197 54.7558L54.0595 54.6525C53.3603 53.7481 52.3508 53.1346 51.2259 52.9305C51.1397 52.9305 51.0536 52.8788 50.9675 52.8616C50.355 52.774 49.7313 52.8078 49.1319 52.9611C48.5325 53.1144 47.9692 53.3843 47.4742 53.7553C46.9791 54.1262 46.562 54.5911 46.2466 55.1232C45.9313 55.6553 45.7239 56.2443 45.6362 56.8566C45.6019 57.0788 45.5846 57.3033 45.5845 57.5282C45.5873 58.4013 45.8329 59.2565 46.2938 59.9982C46.7547 60.7399 47.4128 61.339 48.1946 61.7284C48.9763 62.1178 49.851 62.2823 50.7209 62.2035C51.5908 62.1247 52.4217 61.8056 53.1207 61.2821L53.1207 61.239ZM49.021 55.7804C49.0793 55.74 49.1397 55.7026 49.2019 55.6684C49.4975 55.4845 49.8343 55.3771 50.1818 55.3561C50.5294 55.3352 50.8767 55.4012 51.1922 55.5482C51.5078 55.6953 51.7817 55.9187 51.9891 56.1983C52.1965 56.4779 52.3308 56.8047 52.38 57.1493C52.443 57.5283 52.4009 57.9174 52.2581 58.2741C52.1154 58.6309 51.8775 58.9416 51.5704 59.1726C51.2951 59.3788 50.9722 59.5121 50.6316 59.5601C50.4205 59.5946 50.2053 59.5946 49.9943 59.5601C49.7154 59.5188 49.4479 59.4212 49.208 59.2732C48.9681 59.1251 48.7609 58.9298 48.599 58.6991C48.4301 58.4766 48.3073 58.2226 48.2378 57.9521C48.1683 57.6815 48.1535 57.3998 48.1942 57.1235L48.2373 56.9513C48.3546 56.4819 48.6317 56.0679 49.021 55.7804Z" fill="#1994FF"/>
<path d="M53.1207 26.9246C54.0995 26.1872 54.7517 25.0969 54.9383 23.8859C55.1249 22.675 54.8312 21.439 54.1197 20.4413L54.0595 20.338C53.3603 19.4336 52.3508 18.8202 51.2259 18.616C51.1397 18.616 51.0536 18.5644 50.9675 18.5472C50.355 18.4595 49.7313 18.4933 49.1319 18.6467C48.5325 18.8 47.9692 19.0698 47.4742 19.4408C46.9791 19.8118 46.562 20.2766 46.2466 20.8087C45.9313 21.3409 45.7239 21.9299 45.6362 22.5421C45.6019 22.7644 45.5846 22.9889 45.5845 23.2137C45.5873 24.0869 45.8329 24.9421 46.2938 25.6838C46.7547 26.4255 47.4128 27.0245 48.1946 27.4139C48.9763 27.8034 49.851 27.9678 50.7209 27.889C51.5908 27.8102 52.4217 27.4912 53.1207 26.9676L53.1207 26.9246ZM49.021 21.4659C49.0793 21.4255 49.1397 21.3881 49.2019 21.354C49.4975 21.17 49.8343 21.0627 50.1818 21.0417C50.5294 21.0207 50.8767 21.0867 51.1922 21.2338C51.5078 21.3808 51.7817 21.6043 51.9891 21.8838C52.1965 22.1634 52.3308 22.4903 52.38 22.8349C52.443 23.2139 52.4009 23.6029 52.2581 23.9597C52.1154 24.3164 51.8775 24.6272 51.5704 24.8582C51.2951 25.0643 50.9722 25.1976 50.6316 25.2456C50.4205 25.2802 50.2053 25.2802 49.9943 25.2456C49.7154 25.2044 49.4479 25.1067 49.208 24.9587C48.9681 24.8107 48.7609 24.6154 48.599 24.3846C48.4301 24.1621 48.3073 23.9081 48.2378 23.6376C48.1683 23.3671 48.1535 23.0854 48.1942 22.809L48.2373 22.6368C48.3546 22.1674 48.6317 21.7534 49.021 21.4659Z" fill="#1994FF"/>
<path d="M47.2458 40.6383C47.2458 42.1666 48.4847 43.4056 50.013 43.4056C51.5413 43.4056 52.7803 42.1666 52.7803 40.6383C52.7803 39.11 51.5413 37.8711 50.013 37.8711C48.4847 37.8711 47.2458 39.11 47.2458 40.6383Z" fill="#1994FF"/>
<path d="M24.9171 79.2228L22.0611 70.8228H22.7091L25.4211 78.8508H25.0971L27.8931 70.8228H28.4811L31.2531 78.8508H30.9411L33.6771 70.8228H34.2771L31.4331 79.2228H30.7851L28.0971 71.4588H28.2531L25.5651 79.2228H24.9171ZM37.8167 79.2708C37.2167 79.2708 36.6807 79.1348 36.2087 78.8628C35.7447 78.5908 35.3727 78.2148 35.0927 77.7348C34.8207 77.2548 34.6847 76.7068 34.6847 76.0908C34.6847 75.4668 34.8207 74.9188 35.0927 74.4468C35.3727 73.9668 35.7447 73.5908 36.2087 73.3188C36.6807 73.0468 37.2167 72.9108 37.8167 72.9108C38.4167 72.9108 38.9527 73.0468 39.4247 73.3188C39.8967 73.5908 40.2687 73.9668 40.5407 74.4468C40.8127 74.9188 40.9487 75.4668 40.9487 76.0908C40.9487 76.7068 40.8127 77.2548 40.5407 77.7348C40.2687 78.2148 39.8967 78.5908 39.4247 78.8628C38.9527 79.1348 38.4167 79.2708 37.8167 79.2708ZM37.8167 78.7308C38.2967 78.7308 38.7287 78.6228 39.1127 78.4068C39.4967 78.1828 39.7967 77.8708 40.0127 77.4708C40.2287 77.0708 40.3367 76.6108 40.3367 76.0908C40.3367 75.5628 40.2287 75.1028 40.0127 74.7108C39.7967 74.3108 39.4967 74.0028 39.1127 73.7868C38.7287 73.5628 38.2967 73.4508 37.8167 73.4508C37.3367 73.4508 36.9047 73.5628 36.5207 73.7868C36.1447 74.0028 35.8447 74.3108 35.6207 74.7108C35.4047 75.1028 35.2967 75.5628 35.2967 76.0908C35.2967 76.6108 35.4047 77.0708 35.6207 77.4708C35.8447 77.8708 36.1447 78.1828 36.5207 78.4068C36.9047 78.6228 37.3367 78.7308 37.8167 78.7308ZM42.8101 79.2228V72.9588H43.3861V74.6748L43.3261 74.4828C43.5021 73.9788 43.7981 73.5908 44.2141 73.3188C44.6301 73.0468 45.1501 72.9108 45.7741 72.9108V73.4988C45.7501 73.4988 45.7261 73.4988 45.7021 73.4988C45.6781 73.4908 45.6541 73.4868 45.6301 73.4868C44.9341 73.4868 44.3901 73.7068 43.9981 74.1468C43.6061 74.5788 43.4101 75.1828 43.4101 75.9588V79.2228H42.8101ZM47.8833 77.4948L47.8953 76.7388L52.0353 72.9588H52.8033L50.0553 75.5388L49.6953 75.8388L47.8833 77.4948ZM47.4273 79.2228V70.3188H48.0273V79.2228H47.4273ZM52.3233 79.2228L49.5873 75.7908L49.9953 75.3468L53.0673 79.2228H52.3233ZM54.602 79.2228V71.9988C54.602 71.4788 54.75 71.0628 55.046 70.7508C55.35 70.4308 55.782 70.2708 56.342 70.2708C56.574 70.2708 56.802 70.3068 57.026 70.3788C57.25 70.4428 57.434 70.5428 57.578 70.6788L57.338 71.1348C57.218 71.0148 57.074 70.9268 56.906 70.8708C56.738 70.8148 56.558 70.7868 56.366 70.7868C55.982 70.7868 55.69 70.8948 55.49 71.1108C55.29 71.3188 55.19 71.6308 55.19 72.0468V73.1028L55.202 73.3908V79.2228H54.602ZM53.45 73.4748V72.9588H57.194V73.4748H53.45ZM58.418 79.2228V70.3188H59.018V79.2228H58.418ZM63.9964 79.2708C63.3964 79.2708 62.8604 79.1348 62.3884 78.8628C61.9244 78.5908 61.5524 78.2148 61.2724 77.7348C61.0004 77.2548 60.8644 76.7068 60.8644 76.0908C60.8644 75.4668 61.0004 74.9188 61.2724 74.4468C61.5524 73.9668 61.9244 73.5908 62.3884 73.3188C62.8604 73.0468 63.3964 72.9108 63.9964 72.9108C64.5964 72.9108 65.1324 73.0468 65.6044 73.3188C66.0764 73.5908 66.4484 73.9668 66.7204 74.4468C66.9924 74.9188 67.1284 75.4668 67.1284 76.0908C67.1284 76.7068 66.9924 77.2548 66.7204 77.7348C66.4484 78.2148 66.0764 78.5908 65.6044 78.8628C65.1324 79.1348 64.5964 79.2708 63.9964 79.2708ZM63.9964 78.7308C64.4764 78.7308 64.9084 78.6228 65.2924 78.4068C65.6764 78.1828 65.9764 77.8708 66.1924 77.4708C66.4084 77.0708 66.5164 76.6108 66.5164 76.0908C66.5164 75.5628 66.4084 75.1028 66.1924 74.7108C65.9764 74.3108 65.6764 74.0028 65.2924 73.7868C64.9084 73.5628 64.4764 73.4508 63.9964 73.4508C63.5164 73.4508 63.0844 73.5628 62.7004 73.7868C62.3244 74.0028 62.0244 74.3108 61.8004 74.7108C61.5844 75.1028 61.4764 75.5628 61.4764 76.0908C61.4764 76.6108 61.5844 77.0708 61.8004 77.4708C62.0244 77.8708 62.3244 78.1828 62.7004 78.4068C63.0844 78.6228 63.5164 78.7308 63.9964 78.7308ZM70.038 79.2228L67.662 72.9588H68.238L70.446 78.8868H70.194L72.462 72.9588H72.978L75.234 78.8868H74.97L77.214 72.9588H77.766L75.39 79.2228H74.826L72.618 73.5348H72.81L70.59 79.2228H70.038Z" fill="#323232"/>
</svg>
