<svg width="99" height="100" viewBox="0 0 99 100" fill="none" xmlns="http://www.w3.org/2000/svg">
<rect x="0.470703" y="0.627686" width="98.5294" height="98.5294" rx="19.7059" fill="white"/>
<path d="M31.4906 50.3135L34.7404 36.485H63.7392L31.4906 50.3135Z" stroke="#1994FF" stroke-width="2.46324" stroke-linecap="round" stroke-linejoin="round"/>
<path fill-rule="evenodd" clip-rule="evenodd" d="M35.1457 32.5076L33.0167 23.5473L54.1428 32.5076H60.4513L32.3097 20.5718L29.4941 19.3777L30.2011 22.3532L32.6139 32.5076H35.1457ZM33.5738 36.5476L33.5738 36.5477H63.6684H69.9768L69.9766 36.5476H33.5738Z" fill="#FFB000"/>
<path d="M34.712 64.8711H39.26V65.4111H34.712V64.8711ZM34.784 68.8551H39.968V69.4071H34.172V61.0071H39.788V61.5591H34.784V68.8551ZM49.8074 63.0951C50.3114 63.0951 50.7474 63.1951 51.1154 63.3951C51.4914 63.5871 51.7834 63.8831 51.9914 64.2831C52.1994 64.6751 52.3034 65.1631 52.3034 65.7471V69.4071H51.7034V65.7951C51.7034 65.0911 51.5314 64.5551 51.1874 64.1871C50.8434 63.8191 50.3634 63.6351 49.7474 63.6351C49.2754 63.6351 48.8674 63.7351 48.5234 63.9351C48.1794 64.1351 47.9154 64.4151 47.7314 64.7751C47.5474 65.1351 47.4554 65.5671 47.4554 66.0711V69.4071H46.8554V65.7951C46.8554 65.0911 46.6834 64.5551 46.3394 64.1871C45.9954 63.8191 45.5154 63.6351 44.8994 63.6351C44.4274 63.6351 44.0194 63.7351 43.6754 63.9351C43.3314 64.1351 43.0674 64.4151 42.8834 64.7751C42.6994 65.1351 42.6074 65.5671 42.6074 66.0711V69.4071H42.0074V63.1431H42.5834V64.8711L42.4994 64.6791C42.6834 64.1911 42.9914 63.8071 43.4234 63.5271C43.8554 63.2391 44.3754 63.0951 44.9834 63.0951C45.6074 63.0951 46.1314 63.2551 46.5554 63.5751C46.9874 63.8871 47.2594 64.3551 47.3714 64.9791L47.1674 64.8951C47.3354 64.3591 47.6514 63.9271 48.1154 63.5991C48.5794 63.2631 49.1434 63.0951 49.8074 63.0951ZM58.7288 69.4071V67.9791L58.7048 67.7631V65.4111C58.7048 64.8271 58.5448 64.3831 58.2248 64.0791C57.9128 63.7751 57.4528 63.6231 56.8448 63.6231C56.4128 63.6231 56.0088 63.6991 55.6328 63.8511C55.2648 63.9951 54.9488 64.1831 54.6848 64.4151L54.3848 63.9831C54.6968 63.7031 55.0728 63.4871 55.5128 63.3351C55.9528 63.1751 56.4128 63.0951 56.8928 63.0951C57.6688 63.0951 58.2648 63.2911 58.6808 63.6831C59.0968 64.0751 59.3048 64.6591 59.3048 65.4351V69.4071H58.7288ZM56.4728 69.4551C56.0088 69.4551 55.6048 69.3831 55.2608 69.2391C54.9248 69.0871 54.6648 68.8751 54.4808 68.6031C54.3048 68.3311 54.2168 68.0191 54.2168 67.6671C54.2168 67.3471 54.2888 67.0591 54.4328 66.8031C54.5848 66.5391 54.8328 66.3271 55.1768 66.1671C55.5208 65.9991 55.9808 65.9151 56.5568 65.9151H58.8608V66.3831H56.5688C55.9208 66.3831 55.4648 66.5031 55.2008 66.7431C54.9448 66.9831 54.8168 67.2831 54.8168 67.6431C54.8168 68.0431 54.9688 68.3631 55.2728 68.6031C55.5768 68.8431 56.0048 68.9631 56.5568 68.9631C57.0848 68.9631 57.5288 68.8431 57.8888 68.6031C58.2568 68.3631 58.5288 68.0151 58.7048 67.5591L58.8728 67.9671C58.7048 68.4231 58.4168 68.7871 58.0088 69.0591C57.6088 69.3231 57.0968 69.4551 56.4728 69.4551ZM61.7769 69.4071V63.1431H62.3769V69.4071H61.7769ZM62.0769 61.6191C61.9409 61.6191 61.8249 61.5711 61.7289 61.4751C61.6329 61.3791 61.5849 61.2671 61.5849 61.1391C61.5849 61.0031 61.6329 60.8871 61.7289 60.7911C61.8249 60.6951 61.9409 60.6471 62.0769 60.6471C62.2209 60.6471 62.3369 60.6951 62.4249 60.7911C62.5209 60.8791 62.5689 60.9911 62.5689 61.1271C62.5689 61.2631 62.5209 61.3791 62.4249 61.4751C62.3369 61.5711 62.2209 61.6191 62.0769 61.6191ZM64.9058 69.4071V60.5031H65.5058V69.4071H64.9058ZM20.59 79.4071V71.0071H21.106L25.006 77.7391H24.73L28.618 71.0071H29.122L29.134 79.4071H28.534L28.522 71.9311H28.69L25.006 78.2911H24.706L21.01 71.9311H21.19V79.4071H20.59ZM35.8186 79.4071V77.9791L35.7946 77.7631V75.4111C35.7946 74.8271 35.6346 74.3831 35.3146 74.0791C35.0026 73.7751 34.5426 73.6231 33.9346 73.6231C33.5026 73.6231 33.0986 73.6991 32.7226 73.8511C32.3546 73.9951 32.0386 74.1831 31.7746 74.4151L31.4746 73.9831C31.7866 73.7031 32.1626 73.4871 32.6026 73.3351C33.0426 73.1751 33.5026 73.0951 33.9826 73.0951C34.7586 73.0951 35.3546 73.2911 35.7706 73.6831C36.1866 74.0751 36.3946 74.6591 36.3946 75.4351V79.4071H35.8186ZM33.5626 79.4551C33.0986 79.4551 32.6946 79.3831 32.3506 79.2391C32.0146 79.0871 31.7546 78.8751 31.5706 78.6031C31.3946 78.3311 31.3066 78.0191 31.3066 77.6671C31.3066 77.3471 31.3786 77.0591 31.5226 76.8031C31.6746 76.5391 31.9226 76.3271 32.2666 76.1671C32.6106 75.9991 33.0706 75.9151 33.6466 75.9151H35.9506V76.3831H33.6586C33.0106 76.3831 32.5546 76.5031 32.2906 76.7431C32.0346 76.9831 31.9066 77.2831 31.9066 77.6431C31.9066 78.0431 32.0586 78.3631 32.3626 78.6031C32.6666 78.8431 33.0946 78.9631 33.6466 78.9631C34.1746 78.9631 34.6186 78.8431 34.9786 78.6031C35.3466 78.3631 35.6186 78.0151 35.7946 77.5591L35.9626 77.9671C35.7946 78.4231 35.5066 78.7871 35.0986 79.0591C34.6986 79.3231 34.1866 79.4551 33.5626 79.4551ZM38.8667 79.4071V73.1431H39.4427V74.8591L39.3827 74.6671C39.5587 74.1631 39.8547 73.7751 40.2707 73.5031C40.6867 73.2311 41.2067 73.0951 41.8307 73.0951V73.6831C41.8067 73.6831 41.7827 73.6831 41.7587 73.6831C41.7347 73.6751 41.7107 73.6711 41.6867 73.6711C40.9907 73.6711 40.4467 73.8911 40.0547 74.3311C39.6627 74.7631 39.4667 75.3671 39.4667 76.1431V79.4071H38.8667ZM43.9399 77.6791L43.9519 76.9231L48.0919 73.1431H48.8599L46.1119 75.7231L45.7519 76.0231L43.9399 77.6791ZM43.4839 79.4071V70.5031H44.0839V79.4071H43.4839ZM48.3799 79.4071L45.6439 75.9751L46.0519 75.5311L49.1239 79.4071H48.3799ZM52.8365 79.4551C52.2045 79.4551 51.6445 79.3191 51.1565 79.0471C50.6765 78.7751 50.2965 78.3991 50.0165 77.9191C49.7445 77.4391 49.6085 76.8911 49.6085 76.2751C49.6085 75.6511 49.7365 75.1031 49.9925 74.6311C50.2565 74.1511 50.6165 73.7751 51.0725 73.5031C51.5285 73.2311 52.0405 73.0951 52.6085 73.0951C53.1765 73.0951 53.6845 73.2271 54.1325 73.4911C54.5885 73.7551 54.9445 74.1271 55.2005 74.6071C55.4645 75.0791 55.5965 75.6271 55.5965 76.2511C55.5965 76.2751 55.5925 76.3031 55.5845 76.3351C55.5845 76.3591 55.5845 76.3871 55.5845 76.4191H50.0525V75.9511H55.2605L55.0205 76.1791C55.0285 75.6911 54.9245 75.2551 54.7085 74.8711C54.5005 74.4791 54.2165 74.1751 53.8565 73.9591C53.4965 73.7351 53.0805 73.6231 52.6085 73.6231C52.1445 73.6231 51.7285 73.7351 51.3605 73.9591C51.0005 74.1751 50.7165 74.4791 50.5085 74.8711C50.3005 75.2551 50.1965 75.6951 50.1965 76.1911V76.2991C50.1965 76.8111 50.3085 77.2671 50.5325 77.6671C50.7645 78.0591 51.0805 78.3671 51.4805 78.5911C51.8805 78.8071 52.3365 78.9151 52.8485 78.9151C53.2485 78.9151 53.6205 78.8431 53.9645 78.6991C54.3165 78.5551 54.6125 78.3351 54.8525 78.0391L55.2005 78.4351C54.9285 78.7711 54.5845 79.0271 54.1685 79.2031C53.7605 79.3711 53.3165 79.4551 52.8365 79.4551ZM59.2767 79.4551C58.7247 79.4551 58.3007 79.3031 58.0047 78.9991C57.7167 78.6951 57.5727 78.2791 57.5727 77.7511V71.7751H58.1727V77.6911C58.1727 78.0911 58.2727 78.3991 58.4727 78.6151C58.6727 78.8311 58.9607 78.9391 59.3367 78.9391C59.7287 78.9391 60.0527 78.8231 60.3087 78.5911L60.5607 79.0111C60.4007 79.1631 60.2047 79.2751 59.9727 79.3471C59.7487 79.4191 59.5167 79.4551 59.2767 79.4551ZM56.4207 73.6591V73.1431H60.1647V73.6591H56.4207ZM62.2339 79.4071V73.1431H62.8339V79.4071H62.2339ZM62.5339 71.6191C62.3979 71.6191 62.2819 71.5711 62.1859 71.4751C62.0899 71.3791 62.0419 71.2671 62.0419 71.1391C62.0419 71.0031 62.0899 70.8871 62.1859 70.7911C62.2819 70.6951 62.3979 70.6471 62.5339 70.6471C62.6779 70.6471 62.7939 70.6951 62.8819 70.7911C62.9779 70.8791 63.0259 70.9911 63.0259 71.1271C63.0259 71.2631 62.9779 71.3791 62.8819 71.4751C62.7939 71.5711 62.6779 71.6191 62.5339 71.6191ZM68.4228 73.0951C68.9348 73.0951 69.3788 73.1951 69.7548 73.3951C70.1388 73.5871 70.4348 73.8831 70.6428 74.2831C70.8588 74.6751 70.9668 75.1631 70.9668 75.7471V79.4071H70.3668V75.7951C70.3668 75.0911 70.1868 74.5551 69.8268 74.1871C69.4748 73.8191 68.9788 73.6351 68.3388 73.6351C67.8508 73.6351 67.4268 73.7351 67.0668 73.9351C66.7068 74.1351 66.4308 74.4151 66.2388 74.7751C66.0548 75.1351 65.9628 75.5671 65.9628 76.0711V79.4071H65.3628V73.1431H65.9388V74.8831L65.8548 74.6911C66.0468 74.1951 66.3628 73.8071 66.8028 73.5271C67.2428 73.2391 67.7828 73.0951 68.4228 73.0951ZM76.041 81.7831C75.473 81.7831 74.933 81.6951 74.421 81.5191C73.909 81.3431 73.493 81.0991 73.173 80.7871L73.497 80.3311C73.809 80.6191 74.181 80.8431 74.613 81.0031C75.053 81.1631 75.525 81.2431 76.029 81.2431C76.869 81.2431 77.485 81.0471 77.877 80.6551C78.277 80.2631 78.477 79.6471 78.477 78.8071V77.0671L78.597 76.1311L78.501 75.1951V73.1431H79.077V78.7351C79.077 79.7831 78.821 80.5511 78.309 81.0391C77.805 81.5351 77.049 81.7831 76.041 81.7831ZM75.873 79.1791C75.281 79.1791 74.749 79.0511 74.277 78.7951C73.813 78.5311 73.441 78.1711 73.161 77.7151C72.889 77.2511 72.753 76.7231 72.753 76.1311C72.753 75.5311 72.889 75.0031 73.161 74.5471C73.441 74.0911 73.813 73.7351 74.277 73.4791C74.749 73.2231 75.281 73.0951 75.873 73.0951C76.441 73.0951 76.949 73.2191 77.397 73.4671C77.853 73.7071 78.213 74.0551 78.477 74.5111C78.741 74.9591 78.873 75.4991 78.873 76.1311C78.873 76.7551 78.741 77.2951 78.477 77.7511C78.213 78.2071 77.853 78.5591 77.397 78.8071C76.949 79.0551 76.441 79.1791 75.873 79.1791ZM75.921 78.6391C76.425 78.6391 76.869 78.5351 77.253 78.3271C77.637 78.1111 77.937 77.8151 78.153 77.4391C78.377 77.0551 78.489 76.6191 78.489 76.1311C78.489 75.6351 78.377 75.1991 78.153 74.8231C77.937 74.4471 77.637 74.1551 77.253 73.9471C76.869 73.7391 76.425 73.6351 75.921 73.6351C75.433 73.6351 74.993 73.7391 74.601 73.9471C74.217 74.1551 73.913 74.4471 73.689 74.8231C73.473 75.1991 73.365 75.6351 73.365 76.1311C73.365 76.6191 73.473 77.0551 73.689 77.4391C73.913 77.8151 74.217 78.1111 74.601 78.3271C74.993 78.5351 75.433 78.6391 75.921 78.6391Z" fill="#323232"/>
</svg>
