<svg width="99" height="100" viewBox="0 0 99 100" fill="none" xmlns="http://www.w3.org/2000/svg">
<rect y="0.627686" width="98.5294" height="98.5294" rx="19.7059" fill="white"/>
<path d="M41.8012 22.9795H37.323C35.7394 22.9795 34.2207 23.6086 33.1009 24.7283C31.9811 25.8481 31.3521 27.3668 31.3521 28.9504V33.4286C31.3521 35.0122 31.9811 36.5309 33.1009 37.6507C34.2207 38.7705 35.7394 39.3996 37.323 39.3996H41.8012C43.3848 39.3996 44.9035 38.7705 46.0233 37.6507C47.143 36.5309 47.7721 35.0122 47.7721 33.4286V28.9504C47.7721 27.3668 47.143 25.8481 46.0233 24.7283C44.9035 23.6086 43.3848 22.9795 41.8012 22.9795ZM44.7866 33.4286C44.7866 34.2204 44.4721 34.9798 43.9122 35.5397C43.3523 36.0995 42.593 36.4141 41.8012 36.4141H37.323C36.5312 36.4141 35.7718 36.0995 35.2119 35.5397C34.6521 34.9798 34.3375 34.2204 34.3375 33.4286V28.9504C34.3375 28.1586 34.6521 27.3993 35.2119 26.8394C35.7718 26.2795 36.5312 25.965 37.323 25.965H41.8012C42.593 25.965 43.3523 26.2795 43.9122 26.8394C44.4721 27.3993 44.7866 28.1586 44.7866 28.9504V33.4286Z" fill="#1994FF"/>
<path d="M61.2064 22.9795H56.7282C55.1446 22.9795 53.6259 23.6086 52.5061 24.7283C51.3863 25.8481 50.7572 27.3668 50.7572 28.9504V33.4286C50.7572 35.0122 51.3863 36.5309 52.5061 37.6507C53.6259 38.7705 55.1446 39.3996 56.7282 39.3996H61.2064C62.79 39.3996 64.3087 38.7705 65.4285 37.6507C66.5482 36.5309 67.1773 35.0122 67.1773 33.4286V28.9504C67.1773 27.3668 66.5482 25.8481 65.4285 24.7283C64.3087 23.6086 62.79 22.9795 61.2064 22.9795ZM64.1918 33.4286C64.1918 34.2204 63.8773 34.9798 63.3174 35.5397C62.7575 36.0995 61.9982 36.4141 61.2064 36.4141H56.7282C55.9364 36.4141 55.177 36.0995 54.6171 35.5397C54.0573 34.9798 53.7427 34.2204 53.7427 33.4286V28.9504C53.7427 28.1586 54.0573 27.3993 54.6171 26.8394C55.177 26.2795 55.9364 25.965 56.7282 25.965H61.2064C61.9982 25.965 62.7575 26.2795 63.3174 26.8394C63.8773 27.3993 64.1918 28.1586 64.1918 28.9504V33.4286Z" fill="#FFB000"/>
<path d="M41.8012 42.3853H37.323C35.7394 42.3853 34.2207 43.0144 33.1009 44.1341C31.9811 45.2539 31.3521 46.7726 31.3521 48.3562V52.8344C31.3521 54.418 31.9811 55.9367 33.1009 57.0565C34.2207 58.1763 35.7394 58.8054 37.323 58.8054H41.8012C43.3848 58.8054 44.9035 58.1763 46.0233 57.0565C47.143 55.9367 47.7721 54.418 47.7721 52.8344V48.3562C47.7721 46.7726 47.143 45.2539 46.0233 44.1341C44.9035 43.0144 43.3848 42.3853 41.8012 42.3853ZM44.7866 52.8344C44.7866 53.6262 44.4721 54.3856 43.9122 54.9455C43.3523 55.5053 42.593 55.8199 41.8012 55.8199H37.323C36.5312 55.8199 35.7718 55.5053 35.2119 54.9455C34.6521 54.3856 34.3375 53.6262 34.3375 52.8344V48.3562C34.3375 47.5644 34.6521 46.8051 35.2119 46.2452C35.7718 45.6853 36.5312 45.3708 37.323 45.3708H41.8012C42.593 45.3708 43.3523 45.6853 43.9122 46.2452C44.4721 46.8051 44.7866 47.5644 44.7866 48.3562V52.8344Z" fill="#FFB000"/>
<path d="M61.2064 42.3853H56.7282C55.1446 42.3853 53.6259 43.0144 52.5061 44.1341C51.3863 45.2539 50.7572 46.7726 50.7572 48.3562V52.8344C50.7572 54.418 51.3863 55.9367 52.5061 57.0565C53.6259 58.1763 55.1446 58.8054 56.7282 58.8054H61.2064C62.79 58.8054 64.3087 58.1763 65.4285 57.0565C66.5482 55.9367 67.1773 54.418 67.1773 52.8344V48.3562C67.1773 46.7726 66.5482 45.2539 65.4285 44.1341C64.3087 43.0144 62.79 42.3853 61.2064 42.3853ZM64.1918 52.8344C64.1918 53.6262 63.8773 54.3856 63.3174 54.9455C62.7575 55.5053 61.9982 55.8199 61.2064 55.8199H56.7282C55.9364 55.8199 55.177 55.5053 54.6171 54.9455C54.0573 54.3856 53.7427 53.6262 53.7427 52.8344V48.3562C53.7427 47.5644 54.0573 46.8051 54.6171 46.2452C55.177 45.6853 55.9364 45.3708 56.7282 45.3708H61.2064C61.9982 45.3708 62.7575 45.6853 63.3174 46.2452C63.8773 46.8051 64.1918 47.5644 64.1918 48.3562V52.8344Z" fill="#1994FF"/>
<path d="M12.4633 75.8053L16.3273 67.4053H16.9393L20.8033 75.8053H20.1433L16.4953 67.7893H16.7593L13.1233 75.8053H12.4633ZM13.8793 73.4413L14.0833 72.9253H19.1113L19.3153 73.4413H13.8793ZM25.2803 75.8533C24.7283 75.8533 24.2283 75.7253 23.7803 75.4693C23.3403 75.2133 22.9883 74.8493 22.7243 74.3773C22.4683 73.8973 22.3403 73.3293 22.3403 72.6733C22.3403 72.0173 22.4683 71.4533 22.7243 70.9813C22.9883 70.5013 23.3403 70.1333 23.7803 69.8773C24.2283 69.6213 24.7283 69.4933 25.2803 69.4933C25.8723 69.4933 26.4003 69.6293 26.8643 69.9013C27.3363 70.1653 27.7043 70.5373 27.9683 71.0173C28.2403 71.4973 28.3763 72.0493 28.3763 72.6733C28.3763 73.2973 28.2403 73.8493 27.9683 74.3293C27.7043 74.8093 27.3363 75.1853 26.8643 75.4573C26.4003 75.7213 25.8723 75.8533 25.2803 75.8533ZM22.1363 78.1333V69.5413H22.7123V71.5933L22.6163 72.6853L22.7363 73.7773V78.1333H22.1363ZM25.2443 75.3133C25.7243 75.3133 26.1563 75.2053 26.5403 74.9893C26.9243 74.7653 27.2243 74.4533 27.4403 74.0533C27.6643 73.6533 27.7763 73.1933 27.7763 72.6733C27.7763 72.1453 27.6643 71.6853 27.4403 71.2933C27.2243 70.8933 26.9243 70.5853 26.5403 70.3693C26.1563 70.1453 25.7243 70.0333 25.2443 70.0333C24.7643 70.0333 24.3323 70.1453 23.9483 70.3693C23.5723 70.5853 23.2723 70.8933 23.0483 71.2933C22.8323 71.6853 22.7243 72.1453 22.7243 72.6733C22.7243 73.1933 22.8323 73.6533 23.0483 74.0533C23.2723 74.4533 23.5723 74.7653 23.9483 74.9893C24.3323 75.2053 24.7643 75.3133 25.2443 75.3133ZM33.3779 75.8533C32.8259 75.8533 32.3259 75.7253 31.8779 75.4693C31.4379 75.2133 31.0859 74.8493 30.8219 74.3773C30.5659 73.8973 30.4379 73.3293 30.4379 72.6733C30.4379 72.0173 30.5659 71.4533 30.8219 70.9813C31.0859 70.5013 31.4379 70.1333 31.8779 69.8773C32.3259 69.6213 32.8259 69.4933 33.3779 69.4933C33.9699 69.4933 34.4979 69.6293 34.9619 69.9013C35.4339 70.1653 35.8019 70.5373 36.0659 71.0173C36.3379 71.4973 36.4739 72.0493 36.4739 72.6733C36.4739 73.2973 36.3379 73.8493 36.0659 74.3293C35.8019 74.8093 35.4339 75.1853 34.9619 75.4573C34.4979 75.7213 33.9699 75.8533 33.3779 75.8533ZM30.2339 78.1333V69.5413H30.8099V71.5933L30.7139 72.6853L30.8339 73.7773V78.1333H30.2339ZM33.3419 75.3133C33.8219 75.3133 34.2539 75.2053 34.6379 74.9893C35.0219 74.7653 35.3219 74.4533 35.5379 74.0533C35.7619 73.6533 35.8739 73.1933 35.8739 72.6733C35.8739 72.1453 35.7619 71.6853 35.5379 71.2933C35.3219 70.8933 35.0219 70.5853 34.6379 70.3693C34.2539 70.1453 33.8219 70.0333 33.3419 70.0333C32.8619 70.0333 32.4299 70.1453 32.0459 70.3693C31.6699 70.5853 31.3699 70.8933 31.1459 71.2933C30.9299 71.6853 30.8219 72.1453 30.8219 72.6733C30.8219 73.1933 30.9299 73.6533 31.1459 74.0533C31.3699 74.4533 31.6699 74.7653 32.0459 74.9893C32.4299 75.2053 32.8619 75.3133 33.3419 75.3133ZM38.3316 75.8053V66.9013H38.9316V75.8053H38.3316ZM41.4605 75.8053V69.5413H42.0605V75.8053H41.4605ZM41.7605 68.0173C41.6245 68.0173 41.5085 67.9693 41.4125 67.8733C41.3165 67.7773 41.2685 67.6653 41.2685 67.5373C41.2685 67.4013 41.3165 67.2853 41.4125 67.1893C41.5085 67.0933 41.6245 67.0453 41.7605 67.0453C41.9045 67.0453 42.0205 67.0933 42.1085 67.1893C42.2045 67.2773 42.2525 67.3893 42.2525 67.5253C42.2525 67.6613 42.2045 67.7773 42.1085 67.8733C42.0205 67.9693 41.9045 68.0173 41.7605 68.0173ZM47.0734 75.8533C46.4654 75.8533 45.9214 75.7173 45.4414 75.4453C44.9694 75.1733 44.5934 74.7973 44.3134 74.3173C44.0414 73.8373 43.9054 73.2893 43.9054 72.6733C43.9054 72.0493 44.0414 71.4973 44.3134 71.0173C44.5934 70.5373 44.9694 70.1653 45.4414 69.9013C45.9214 69.6293 46.4654 69.4933 47.0734 69.4933C47.5774 69.4933 48.0334 69.5893 48.4414 69.7813C48.8574 69.9733 49.1934 70.2613 49.4494 70.6453L49.0054 70.9693C48.7814 70.6493 48.5014 70.4133 48.1654 70.2613C47.8294 70.1093 47.4654 70.0333 47.0734 70.0333C46.5854 70.0333 46.1454 70.1453 45.7534 70.3693C45.3694 70.5853 45.0654 70.8933 44.8414 71.2933C44.6254 71.6853 44.5174 72.1453 44.5174 72.6733C44.5174 73.2013 44.6254 73.6653 44.8414 74.0653C45.0654 74.4573 45.3694 74.7653 45.7534 74.9893C46.1454 75.2053 46.5854 75.3133 47.0734 75.3133C47.4654 75.3133 47.8294 75.2373 48.1654 75.0853C48.5014 74.9333 48.7814 74.6973 49.0054 74.3773L49.4494 74.7013C49.1934 75.0853 48.8574 75.3733 48.4414 75.5653C48.0334 75.7573 47.5774 75.8533 47.0734 75.8533ZM55.1936 75.8053V74.3773L55.1696 74.1613V71.8093C55.1696 71.2253 55.0096 70.7813 54.6896 70.4773C54.3776 70.1733 53.9176 70.0213 53.3096 70.0213C52.8776 70.0213 52.4736 70.0973 52.0976 70.2493C51.7296 70.3933 51.4136 70.5813 51.1496 70.8133L50.8496 70.3813C51.1616 70.1013 51.5376 69.8853 51.9776 69.7333C52.4176 69.5733 52.8776 69.4933 53.3576 69.4933C54.1336 69.4933 54.7296 69.6893 55.1456 70.0813C55.5616 70.4733 55.7696 71.0573 55.7696 71.8333V75.8053H55.1936ZM52.9376 75.8533C52.4736 75.8533 52.0696 75.7813 51.7256 75.6373C51.3896 75.4853 51.1296 75.2733 50.9456 75.0013C50.7696 74.7293 50.6816 74.4173 50.6816 74.0653C50.6816 73.7453 50.7536 73.4573 50.8976 73.2013C51.0496 72.9373 51.2976 72.7253 51.6416 72.5653C51.9856 72.3973 52.4456 72.3133 53.0216 72.3133H55.3256V72.7813H53.0336C52.3856 72.7813 51.9296 72.9013 51.6656 73.1413C51.4096 73.3813 51.2816 73.6813 51.2816 74.0413C51.2816 74.4413 51.4336 74.7613 51.7376 75.0013C52.0416 75.2413 52.4696 75.3613 53.0216 75.3613C53.5496 75.3613 53.9936 75.2413 54.3536 75.0013C54.7216 74.7613 54.9936 74.4133 55.1696 73.9573L55.3376 74.3653C55.1696 74.8213 54.8816 75.1853 54.4736 75.4573C54.0736 75.7213 53.5616 75.8533 52.9376 75.8533ZM60.0657 75.8533C59.5137 75.8533 59.0897 75.7013 58.7937 75.3973C58.5057 75.0933 58.3617 74.6773 58.3617 74.1493V68.1733H58.9617V74.0893C58.9617 74.4893 59.0617 74.7973 59.2617 75.0133C59.4617 75.2293 59.7497 75.3373 60.1257 75.3373C60.5177 75.3373 60.8417 75.2213 61.0977 74.9893L61.3497 75.4093C61.1897 75.5613 60.9937 75.6733 60.7617 75.7453C60.5377 75.8173 60.3057 75.8533 60.0657 75.8533ZM57.2097 70.0573V69.5413H60.9537V70.0573H57.2097ZM63.023 75.8053V69.5413H63.623V75.8053H63.023ZM63.323 68.0173C63.187 68.0173 63.071 67.9693 62.975 67.8733C62.879 67.7773 62.831 67.6653 62.831 67.5373C62.831 67.4013 62.879 67.2853 62.975 67.1893C63.071 67.0933 63.187 67.0453 63.323 67.0453C63.467 67.0453 63.583 67.0933 63.671 67.1893C63.767 67.2773 63.815 67.3893 63.815 67.5253C63.815 67.6613 63.767 67.7773 63.671 67.8733C63.583 67.9693 63.467 68.0173 63.323 68.0173ZM68.5999 75.8533C67.9999 75.8533 67.4639 75.7173 66.9919 75.4453C66.5279 75.1733 66.1559 74.7973 65.8759 74.3173C65.6039 73.8373 65.4679 73.2893 65.4679 72.6733C65.4679 72.0493 65.6039 71.5013 65.8759 71.0293C66.1559 70.5493 66.5279 70.1733 66.9919 69.9013C67.4639 69.6293 67.9999 69.4933 68.5999 69.4933C69.1999 69.4933 69.7359 69.6293 70.2079 69.9013C70.6799 70.1733 71.0519 70.5493 71.3239 71.0293C71.5959 71.5013 71.7319 72.0493 71.7319 72.6733C71.7319 73.2893 71.5959 73.8373 71.3239 74.3173C71.0519 74.7973 70.6799 75.1733 70.2079 75.4453C69.7359 75.7173 69.1999 75.8533 68.5999 75.8533ZM68.5999 75.3133C69.0799 75.3133 69.5119 75.2053 69.8959 74.9893C70.2799 74.7653 70.5799 74.4533 70.7959 74.0533C71.0119 73.6533 71.1199 73.1933 71.1199 72.6733C71.1199 72.1453 71.0119 71.6853 70.7959 71.2933C70.5799 70.8933 70.2799 70.5853 69.8959 70.3693C69.5119 70.1453 69.0799 70.0333 68.5999 70.0333C68.1199 70.0333 67.6879 70.1453 67.3039 70.3693C66.9279 70.5853 66.6279 70.8933 66.4039 71.2933C66.1879 71.6853 66.0799 72.1453 66.0799 72.6733C66.0799 73.1933 66.1879 73.6533 66.4039 74.0533C66.6279 74.4533 66.9279 74.7653 67.3039 74.9893C67.6879 75.2053 68.1199 75.3133 68.5999 75.3133ZM76.6533 69.4933C77.1653 69.4933 77.6093 69.5933 77.9853 69.7933C78.3693 69.9853 78.6653 70.2813 78.8733 70.6813C79.0893 71.0733 79.1973 71.5613 79.1973 72.1453V75.8053H78.5973V72.1933C78.5973 71.4893 78.4173 70.9533 78.0573 70.5853C77.7053 70.2173 77.2093 70.0333 76.5693 70.0333C76.0813 70.0333 75.6573 70.1333 75.2973 70.3333C74.9373 70.5333 74.6613 70.8133 74.4693 71.1733C74.2853 71.5333 74.1933 71.9653 74.1933 72.4693V75.8053H73.5933V69.5413H74.1693V71.2813L74.0853 71.0893C74.2773 70.5933 74.5933 70.2053 75.0333 69.9253C75.4733 69.6373 76.0133 69.4933 76.6533 69.4933ZM83.2515 75.8533C82.7315 75.8533 82.2435 75.7773 81.7875 75.6253C81.3395 75.4733 80.9915 75.2813 80.7435 75.0493L81.0195 74.5693C81.2595 74.7773 81.5795 74.9573 81.9795 75.1093C82.3795 75.2533 82.8115 75.3253 83.2755 75.3253C83.9315 75.3253 84.4035 75.2173 84.6915 75.0013C84.9795 74.7853 85.1235 74.5013 85.1235 74.1493C85.1235 73.8933 85.0475 73.6933 84.8955 73.5493C84.7515 73.3973 84.5555 73.2813 84.3075 73.2013C84.0595 73.1213 83.7875 73.0573 83.4915 73.0093C83.1955 72.9533 82.8995 72.8933 82.6035 72.8293C82.3075 72.7653 82.0355 72.6733 81.7875 72.5533C81.5395 72.4333 81.3395 72.2693 81.1875 72.0613C81.0435 71.8453 80.9715 71.5613 80.9715 71.2093C80.9715 70.8893 81.0595 70.6013 81.2355 70.3453C81.4115 70.0893 81.6755 69.8853 82.0275 69.7333C82.3795 69.5733 82.8195 69.4933 83.3475 69.4933C83.7395 69.4933 84.1315 69.5493 84.5235 69.6613C84.9235 69.7733 85.2475 69.9213 85.4955 70.1053L85.2195 70.5853C84.9555 70.3853 84.6595 70.2413 84.3315 70.1533C84.0035 70.0653 83.6715 70.0213 83.3355 70.0213C82.7275 70.0213 82.2795 70.1333 81.9915 70.3573C81.7115 70.5813 81.5715 70.8613 81.5715 71.1973C81.5715 71.4613 81.6435 71.6733 81.7875 71.8333C81.9395 71.9853 82.1395 72.1053 82.3875 72.1933C82.6355 72.2733 82.9075 72.3413 83.2035 72.3973C83.4995 72.4453 83.7955 72.5013 84.0915 72.5653C84.3875 72.6293 84.6595 72.7213 84.9075 72.8413C85.1555 72.9533 85.3515 73.1133 85.4955 73.3213C85.6475 73.5213 85.7235 73.7933 85.7235 74.1373C85.7235 74.4813 85.6275 74.7813 85.4355 75.0373C85.2515 75.2933 84.9755 75.4933 84.6075 75.6373C84.2395 75.7813 83.7875 75.8533 83.2515 75.8533Z" fill="#323232"/>
</svg>
