<svg width="99" height="99" viewBox="0 0 99 99" fill="none" xmlns="http://www.w3.org/2000/svg">
<rect y="0.0964355" width="98.5294" height="98.5294" rx="19.7059" fill="white"/>
<path fill-rule="evenodd" clip-rule="evenodd" d="M39.2197 44.4745L31.9307 56.7334L34.5772 58.307L41.9614 45.8883C41.0245 45.4833 40.1081 45.0117 39.2197 44.4745ZM40.7913 41.8315C41.6824 42.3726 42.6047 42.8357 43.5476 43.2204L48.125 35.5221L45.4785 33.9485L40.7913 41.8315ZM53.051 34.2564L60.2997 46.4473C59.435 46.9855 58.5194 47.4602 57.5595 47.8636L50.4044 35.83L53.051 34.2564ZM59.1439 50.5282C60.0918 50.1082 61.0028 49.6271 61.8712 49.0904L66.5988 57.0413L63.9522 58.6149L59.1439 50.5282Z" fill="#FFB000"/>
<path fill-rule="evenodd" clip-rule="evenodd" d="M50.7083 22.1072V25.3802C53.3644 26.0638 55.3269 28.4749 55.3269 31.3443C55.3269 34.7453 52.5698 37.5024 49.1688 37.5024C45.7678 37.5024 43.0107 34.7453 43.0107 31.3443C43.0107 28.4749 44.9733 26.0638 47.6293 25.3802V22.1072H50.7083ZM49.1688 34.4234C50.8693 34.4234 52.2479 33.0448 52.2479 31.3443C52.2479 29.6438 50.8693 28.2653 49.1688 28.2653C47.4683 28.2653 46.0898 29.6438 46.0898 31.3443C46.0898 33.0448 47.4683 34.4234 49.1688 34.4234ZM49.2303 46.758C54.7924 46.758 59.7989 44.3793 63.2881 40.5836L65.4031 42.8308C61.3585 47.1431 55.609 49.837 49.2303 49.837C42.9519 49.837 37.283 47.2271 33.2495 43.0329L35.4272 40.8552C38.9031 44.4924 43.8021 46.758 49.2303 46.758Z" fill="#1994FF"/>
<path d="M37.4128 75.615V67.767H34.3888V67.215H41.0488V67.767H38.0248V75.615H37.4128ZM44.1663 75.663C43.5663 75.663 43.0303 75.527 42.5583 75.255C42.0943 74.983 41.7223 74.607 41.4423 74.127C41.1703 73.647 41.0343 73.099 41.0343 72.483C41.0343 71.859 41.1703 71.311 41.4423 70.839C41.7223 70.359 42.0943 69.983 42.5583 69.711C43.0303 69.439 43.5663 69.303 44.1663 69.303C44.7663 69.303 45.3023 69.439 45.7743 69.711C46.2463 69.983 46.6183 70.359 46.8903 70.839C47.1623 71.311 47.2983 71.859 47.2983 72.483C47.2983 73.099 47.1623 73.647 46.8903 74.127C46.6183 74.607 46.2463 74.983 45.7743 75.255C45.3023 75.527 44.7663 75.663 44.1663 75.663ZM44.1663 75.123C44.6463 75.123 45.0783 75.015 45.4623 74.799C45.8463 74.575 46.1463 74.263 46.3623 73.863C46.5783 73.463 46.6863 73.003 46.6863 72.483C46.6863 71.955 46.5783 71.495 46.3623 71.103C46.1463 70.703 45.8463 70.395 45.4623 70.179C45.0783 69.955 44.6463 69.843 44.1663 69.843C43.6863 69.843 43.2543 69.955 42.8703 70.179C42.4943 70.395 42.1943 70.703 41.9703 71.103C41.7543 71.495 41.6463 71.955 41.6463 72.483C41.6463 73.003 41.7543 73.463 41.9703 73.863C42.1943 74.263 42.4943 74.575 42.8703 74.799C43.2543 75.015 43.6863 75.123 44.1663 75.123ZM51.6077 75.663C51.0077 75.663 50.4717 75.527 49.9997 75.255C49.5357 74.983 49.1637 74.607 48.8837 74.127C48.6117 73.647 48.4757 73.099 48.4757 72.483C48.4757 71.859 48.6117 71.311 48.8837 70.839C49.1637 70.359 49.5357 69.983 49.9997 69.711C50.4717 69.439 51.0077 69.303 51.6077 69.303C52.2077 69.303 52.7437 69.439 53.2157 69.711C53.6877 69.983 54.0597 70.359 54.3317 70.839C54.6037 71.311 54.7397 71.859 54.7397 72.483C54.7397 73.099 54.6037 73.647 54.3317 74.127C54.0597 74.607 53.6877 74.983 53.2157 75.255C52.7437 75.527 52.2077 75.663 51.6077 75.663ZM51.6077 75.123C52.0877 75.123 52.5197 75.015 52.9037 74.799C53.2877 74.575 53.5877 74.263 53.8037 73.863C54.0197 73.463 54.1277 73.003 54.1277 72.483C54.1277 71.955 54.0197 71.495 53.8037 71.103C53.5877 70.703 53.2877 70.395 52.9037 70.179C52.5197 69.955 52.0877 69.843 51.6077 69.843C51.1277 69.843 50.6957 69.955 50.3117 70.179C49.9357 70.395 49.6357 70.703 49.4117 71.103C49.1957 71.495 49.0877 71.955 49.0877 72.483C49.0877 73.003 49.1957 73.463 49.4117 73.863C49.6357 74.263 49.9357 74.575 50.3117 74.799C50.6957 75.015 51.1277 75.123 51.6077 75.123ZM56.6011 75.615V66.711H57.2011V75.615H56.6011ZM61.314 75.663C60.794 75.663 60.306 75.587 59.85 75.435C59.402 75.283 59.054 75.091 58.806 74.859L59.082 74.379C59.322 74.587 59.642 74.767 60.042 74.919C60.442 75.063 60.874 75.135 61.338 75.135C61.994 75.135 62.466 75.027 62.754 74.811C63.042 74.595 63.186 74.311 63.186 73.959C63.186 73.703 63.11 73.503 62.958 73.359C62.814 73.207 62.618 73.091 62.37 73.011C62.122 72.931 61.85 72.867 61.554 72.819C61.258 72.763 60.962 72.703 60.666 72.639C60.37 72.575 60.098 72.483 59.85 72.363C59.602 72.243 59.402 72.079 59.25 71.871C59.106 71.655 59.034 71.371 59.034 71.019C59.034 70.699 59.122 70.411 59.298 70.155C59.474 69.899 59.738 69.695 60.09 69.543C60.442 69.383 60.882 69.303 61.41 69.303C61.802 69.303 62.194 69.359 62.586 69.471C62.986 69.583 63.31 69.731 63.558 69.915L63.282 70.395C63.018 70.195 62.722 70.051 62.394 69.963C62.066 69.875 61.734 69.831 61.398 69.831C60.79 69.831 60.342 69.943 60.054 70.167C59.774 70.391 59.634 70.671 59.634 71.007C59.634 71.271 59.706 71.483 59.85 71.643C60.002 71.795 60.202 71.915 60.45 72.003C60.698 72.083 60.97 72.151 61.266 72.207C61.562 72.255 61.858 72.311 62.154 72.375C62.45 72.439 62.722 72.531 62.97 72.651C63.218 72.763 63.414 72.923 63.558 73.131C63.71 73.331 63.786 73.603 63.786 73.947C63.786 74.291 63.69 74.591 63.498 74.847C63.314 75.103 63.038 75.303 62.67 75.447C62.302 75.591 61.85 75.663 61.314 75.663Z" fill="#323232"/>
</svg>
