<svg width="99" height="100" viewBox="0 0 99 100" fill="none" xmlns="http://www.w3.org/2000/svg">
<rect x="0.470703" y="0.862061" width="98.5294" height="98.5294" rx="19.7059" fill="white"/>
<path fill-rule="evenodd" clip-rule="evenodd" d="M66.9789 26.9626H33.1094V32.5049H30.6462V26.9626C30.6462 25.6022 31.749 24.4994 33.1094 24.4994H66.9789C68.3393 24.4994 69.4422 25.6022 69.4422 26.9626V49.1317C69.4422 50.4921 68.3393 51.595 66.9789 51.595H33.1094C31.749 51.595 30.6462 50.4921 30.6462 49.1317V47.2843H33.1094V49.1317H66.9789L66.9789 26.9626ZM30.6462 34.9681H33.1094V38.663H30.6462V34.9681ZM30.6462 41.1262V44.8211H33.1094V41.1262H30.6462ZM24.4873 57.7542H74.9836V55.291H24.4873V57.7542Z" fill="#1994FF"/>
<path fill-rule="evenodd" clip-rule="evenodd" d="M63.2833 30.9658H57.4938C57.1744 30.4136 56.5774 30.0421 55.8936 30.0421C55.2097 30.0421 54.6127 30.4136 54.2933 30.9658H24.4873V32.8133H54.2933C54.6127 33.3655 55.2097 33.737 55.8936 33.737C56.5774 33.737 57.1744 33.3655 57.4938 32.8133H63.2833V30.9658ZM57.4938 38.9713H63.2833V37.1239H57.4938C57.1744 36.5717 56.5774 36.2002 55.8936 36.2002C55.2097 36.2002 54.6127 36.5717 54.2933 37.1239H24.4873V38.9713H54.2933C54.6127 39.5235 55.2097 39.8951 55.8936 39.8951C56.5774 39.8951 57.1744 39.5235 57.4938 38.9713ZM57.4938 45.1294C57.1744 45.6816 56.5774 46.0531 55.8936 46.0531C55.2097 46.0531 54.6127 45.6816 54.2933 45.1294H24.4873V43.282H54.2933C54.6127 42.7298 55.2097 42.3583 55.8936 42.3583C56.5774 42.3583 57.1744 42.7298 57.4938 43.282H63.2833V45.1294H57.4938Z" fill="#FFB000"/>
<path d="M16.5499 74.7543L13.6939 66.3543H14.3419L17.0539 74.3823H16.7299L19.5259 66.3543H20.1139L22.8859 74.3823H22.5739L25.3099 66.3543H25.9099L23.0659 74.7543H22.4179L19.7299 66.9903H19.8859L17.1979 74.7543H16.5499ZM29.5455 74.8023C28.9135 74.8023 28.3535 74.6663 27.8655 74.3943C27.3855 74.1223 27.0055 73.7463 26.7255 73.2663C26.4535 72.7863 26.3175 72.2383 26.3175 71.6223C26.3175 70.9983 26.4455 70.4503 26.7015 69.9783C26.9655 69.4983 27.3255 69.1223 27.7815 68.8503C28.2375 68.5783 28.7495 68.4423 29.3175 68.4423C29.8855 68.4423 30.3935 68.5743 30.8415 68.8383C31.2975 69.1023 31.6535 69.4743 31.9095 69.9543C32.1735 70.4263 32.3055 70.9743 32.3055 71.5983C32.3055 71.6223 32.3015 71.6503 32.2935 71.6823C32.2935 71.7063 32.2935 71.7343 32.2935 71.7663H26.7615V71.2983H31.9695L31.7295 71.5263C31.7375 71.0383 31.6335 70.6023 31.4175 70.2183C31.2095 69.8263 30.9255 69.5223 30.5655 69.3063C30.2055 69.0823 29.7895 68.9703 29.3175 68.9703C28.8535 68.9703 28.4375 69.0823 28.0695 69.3063C27.7095 69.5223 27.4255 69.8263 27.2175 70.2183C27.0095 70.6023 26.9055 71.0423 26.9055 71.5383V71.6463C26.9055 72.1583 27.0175 72.6143 27.2415 73.0143C27.4735 73.4063 27.7895 73.7143 28.1895 73.9383C28.5895 74.1543 29.0455 74.2623 29.5575 74.2623C29.9575 74.2623 30.3295 74.1903 30.6735 74.0463C31.0255 73.9023 31.3215 73.6823 31.5615 73.3863L31.9095 73.7823C31.6375 74.1183 31.2935 74.3743 30.8775 74.5503C30.4695 74.7183 30.0255 74.8023 29.5455 74.8023ZM37.3056 74.8023C36.7536 74.8023 36.2536 74.6743 35.8056 74.4183C35.3656 74.1623 35.0136 73.7943 34.7496 73.3143C34.4936 72.8343 34.3656 72.2703 34.3656 71.6223C34.3656 70.9583 34.4936 70.3903 34.7496 69.9183C35.0136 69.4463 35.3656 69.0823 35.8056 68.8263C36.2536 68.5703 36.7536 68.4423 37.3056 68.4423C37.8976 68.4423 38.4256 68.5783 38.8896 68.8503C39.3616 69.1143 39.7296 69.4863 39.9936 69.9663C40.2656 70.4383 40.4016 70.9903 40.4016 71.6223C40.4016 72.2463 40.2656 72.7983 39.9936 73.2783C39.7296 73.7583 39.3616 74.1343 38.8896 74.4063C38.4256 74.6703 37.8976 74.8023 37.3056 74.8023ZM34.1616 74.7543V65.8503H34.7616V70.5183L34.6416 71.6103L34.7376 72.7023V74.7543H34.1616ZM37.2696 74.2623C37.7496 74.2623 38.1816 74.1543 38.5656 73.9383C38.9496 73.7143 39.2496 73.4023 39.4656 73.0023C39.6896 72.6023 39.8016 72.1423 39.8016 71.6223C39.8016 71.0943 39.6896 70.6343 39.4656 70.2423C39.2496 69.8423 38.9496 69.5343 38.5656 69.3183C38.1816 69.0943 37.7496 68.9823 37.2696 68.9823C36.7896 68.9823 36.3576 69.0943 35.9736 69.3183C35.5976 69.5343 35.2976 69.8423 35.0736 70.2423C34.8576 70.6343 34.7496 71.0943 34.7496 71.6223C34.7496 72.1423 34.8576 72.6023 35.0736 73.0023C35.2976 73.4023 35.5976 73.7143 35.9736 73.9383C36.3576 74.1543 36.7896 74.2623 37.2696 74.2623ZM45.5333 74.7543V66.3543H48.8573C49.7453 66.3543 50.5253 66.5343 51.1973 66.8943C51.8693 67.2543 52.3893 67.7503 52.7573 68.3823C53.1333 69.0143 53.3213 69.7383 53.3213 70.5543C53.3213 71.3703 53.1333 72.0943 52.7573 72.7263C52.3893 73.3583 51.8693 73.8543 51.1973 74.2143C50.5253 74.5743 49.7453 74.7543 48.8573 74.7543H45.5333ZM46.1453 74.2023H48.8093C49.6013 74.2023 50.2893 74.0463 50.8733 73.7343C51.4573 73.4223 51.9093 72.9943 52.2293 72.4503C52.5493 71.8983 52.7093 71.2663 52.7093 70.5543C52.7093 69.8423 52.5493 69.2143 52.2293 68.6703C51.9093 68.1183 51.4573 67.6863 50.8733 67.3743C50.2893 67.0623 49.6013 66.9063 48.8093 66.9063H46.1453V74.2023ZM57.7994 74.8023C57.1674 74.8023 56.6074 74.6663 56.1194 74.3943C55.6394 74.1223 55.2594 73.7463 54.9794 73.2663C54.7074 72.7863 54.5714 72.2383 54.5714 71.6223C54.5714 70.9983 54.6994 70.4503 54.9554 69.9783C55.2194 69.4983 55.5794 69.1223 56.0354 68.8503C56.4914 68.5783 57.0034 68.4423 57.5714 68.4423C58.1394 68.4423 58.6474 68.5743 59.0954 68.8383C59.5514 69.1023 59.9074 69.4743 60.1634 69.9543C60.4274 70.4263 60.5594 70.9743 60.5594 71.5983C60.5594 71.6223 60.5554 71.6503 60.5474 71.6823C60.5474 71.7063 60.5474 71.7343 60.5474 71.7663H55.0154V71.2983H60.2234L59.9834 71.5263C59.9914 71.0383 59.8874 70.6023 59.6714 70.2183C59.4634 69.8263 59.1794 69.5223 58.8194 69.3063C58.4594 69.0823 58.0434 68.9703 57.5714 68.9703C57.1074 68.9703 56.6914 69.0823 56.3234 69.3063C55.9634 69.5223 55.6794 69.8263 55.4714 70.2183C55.2634 70.6023 55.1594 71.0423 55.1594 71.5383V71.6463C55.1594 72.1583 55.2714 72.6143 55.4954 73.0143C55.7274 73.4063 56.0434 73.7143 56.4434 73.9383C56.8434 74.1543 57.2994 74.2623 57.8114 74.2623C58.2114 74.2623 58.5834 74.1903 58.9274 74.0463C59.2794 73.9023 59.5754 73.6823 59.8154 73.3863L60.1634 73.7823C59.8914 74.1183 59.5474 74.3743 59.1314 74.5503C58.7234 74.7183 58.2794 74.8023 57.7994 74.8023ZM63.9996 74.8023C63.4796 74.8023 62.9916 74.7263 62.5356 74.5743C62.0876 74.4223 61.7396 74.2303 61.4916 73.9983L61.7676 73.5183C62.0076 73.7263 62.3276 73.9063 62.7276 74.0583C63.1276 74.2023 63.5596 74.2743 64.0236 74.2743C64.6796 74.2743 65.1516 74.1663 65.4396 73.9503C65.7276 73.7343 65.8716 73.4503 65.8716 73.0983C65.8716 72.8423 65.7956 72.6423 65.6436 72.4983C65.4996 72.3463 65.3036 72.2303 65.0556 72.1503C64.8076 72.0703 64.5356 72.0063 64.2396 71.9583C63.9436 71.9023 63.6476 71.8423 63.3516 71.7783C63.0556 71.7143 62.7836 71.6223 62.5356 71.5023C62.2876 71.3823 62.0876 71.2183 61.9356 71.0103C61.7916 70.7943 61.7196 70.5103 61.7196 70.1583C61.7196 69.8383 61.8076 69.5503 61.9836 69.2943C62.1596 69.0383 62.4236 68.8343 62.7756 68.6823C63.1276 68.5223 63.5676 68.4423 64.0956 68.4423C64.4876 68.4423 64.8796 68.4983 65.2716 68.6103C65.6716 68.7223 65.9956 68.8703 66.2436 69.0543L65.9676 69.5343C65.7036 69.3343 65.4076 69.1903 65.0796 69.1023C64.7516 69.0143 64.4196 68.9703 64.0836 68.9703C63.4756 68.9703 63.0276 69.0823 62.7396 69.3063C62.4596 69.5303 62.3196 69.8103 62.3196 70.1463C62.3196 70.4103 62.3916 70.6223 62.5356 70.7823C62.6876 70.9343 62.8876 71.0543 63.1356 71.1423C63.3836 71.2223 63.6556 71.2903 63.9516 71.3463C64.2476 71.3943 64.5436 71.4503 64.8396 71.5143C65.1356 71.5783 65.4076 71.6703 65.6556 71.7903C65.9036 71.9023 66.0996 72.0623 66.2436 72.2703C66.3956 72.4703 66.4716 72.7423 66.4716 73.0863C66.4716 73.4303 66.3756 73.7303 66.1836 73.9863C65.9996 74.2423 65.7236 74.4423 65.3556 74.5863C64.9876 74.7303 64.5356 74.8023 63.9996 74.8023ZM68.146 74.7543V68.4903H68.746V74.7543H68.146ZM68.446 66.9663C68.31 66.9663 68.194 66.9183 68.098 66.8223C68.002 66.7263 67.954 66.6143 67.954 66.4863C67.954 66.3503 68.002 66.2343 68.098 66.1383C68.194 66.0423 68.31 65.9943 68.446 65.9943C68.59 65.9943 68.706 66.0423 68.794 66.1383C68.89 66.2263 68.938 66.3383 68.938 66.4743C68.938 66.6103 68.89 66.7263 68.794 66.8223C68.706 66.9183 68.59 66.9663 68.446 66.9663ZM73.8789 77.1303C73.3109 77.1303 72.7709 77.0423 72.2589 76.8663C71.7469 76.6903 71.3309 76.4463 71.0109 76.1343L71.3349 75.6783C71.6469 75.9663 72.0189 76.1903 72.4509 76.3503C72.8909 76.5103 73.3629 76.5903 73.8669 76.5903C74.7069 76.5903 75.3229 76.3943 75.7149 76.0023C76.1149 75.6103 76.3149 74.9943 76.3149 74.1543V72.4143L76.4349 71.4783L76.3389 70.5423V68.4903H76.9149V74.0823C76.9149 75.1303 76.6589 75.8983 76.1469 76.3863C75.6429 76.8823 74.8869 77.1303 73.8789 77.1303ZM73.7109 74.5263C73.1189 74.5263 72.5869 74.3983 72.1149 74.1423C71.6509 73.8783 71.2789 73.5183 70.9989 73.0623C70.7269 72.5983 70.5909 72.0703 70.5909 71.4783C70.5909 70.8783 70.7269 70.3503 70.9989 69.8943C71.2789 69.4383 71.6509 69.0823 72.1149 68.8263C72.5869 68.5703 73.1189 68.4423 73.7109 68.4423C74.2789 68.4423 74.7869 68.5663 75.2349 68.8143C75.6909 69.0543 76.0509 69.4023 76.3149 69.8583C76.5789 70.3063 76.7109 70.8463 76.7109 71.4783C76.7109 72.1023 76.5789 72.6423 76.3149 73.0983C76.0509 73.5543 75.6909 73.9063 75.2349 74.1543C74.7869 74.4023 74.2789 74.5263 73.7109 74.5263ZM73.7589 73.9863C74.2629 73.9863 74.7069 73.8823 75.0909 73.6743C75.4749 73.4583 75.7749 73.1623 75.9909 72.7863C76.2149 72.4023 76.3269 71.9663 76.3269 71.4783C76.3269 70.9823 76.2149 70.5463 75.9909 70.1703C75.7749 69.7943 75.4749 69.5023 75.0909 69.2943C74.7069 69.0863 74.2629 68.9823 73.7589 68.9823C73.2709 68.9823 72.8309 69.0863 72.4389 69.2943C72.0549 69.5023 71.7509 69.7943 71.5269 70.1703C71.3109 70.5463 71.2029 70.9823 71.2029 71.4783C71.2029 71.9663 71.3109 72.4023 71.5269 72.7863C71.7509 73.1623 72.0549 73.4583 72.4389 73.6743C72.8309 73.8823 73.2709 73.9863 73.7589 73.9863ZM82.5146 68.4423C83.0266 68.4423 83.4706 68.5423 83.8466 68.7423C84.2306 68.9343 84.5266 69.2303 84.7346 69.6303C84.9506 70.0223 85.0586 70.5103 85.0586 71.0943V74.7543H84.4586V71.1423C84.4586 70.4383 84.2786 69.9023 83.9186 69.5343C83.5666 69.1663 83.0706 68.9823 82.4306 68.9823C81.9426 68.9823 81.5186 69.0823 81.1586 69.2823C80.7986 69.4823 80.5226 69.7623 80.3306 70.1223C80.1466 70.4823 80.0546 70.9143 80.0546 71.4183V74.7543H79.4546V68.4903H80.0306V70.2303L79.9466 70.0383C80.1386 69.5423 80.4546 69.1543 80.8946 68.8743C81.3346 68.5863 81.8746 68.4423 82.5146 68.4423Z" fill="#323232"/>
</svg>
