<svg width="99" height="100" viewBox="0 0 99 100" fill="none" xmlns="http://www.w3.org/2000/svg">
<rect x="0.234375" y="0.862061" width="98.5294" height="98.5294" rx="19.7059" fill="white"/>
<path fill-rule="evenodd" clip-rule="evenodd" d="M68.7149 23.5762H70.4033V57.2053C72.3825 57.1015 74.3477 56.8236 76.2741 56.375L76.6217 57.7493C73.9827 58.3657 71.276 58.6773 68.5596 58.6773C63.6366 58.6775 58.7728 57.6501 54.3066 55.6666V54.1081C55.7934 54.8019 57.5183 55.4521 59.0989 55.9183V37.7866C59.0989 37.7545 59.0987 37.7225 59.0985 37.6906V37.6905C59.098 37.6177 59.0976 37.5458 59.0996 37.4753V36.0704H62.0743V56.6302C63.8078 56.9575 65.6758 57.1213 67.428 57.1899C67.428 57.1899 67.4283 57.1649 67.4286 57.1271V56.9099C67.4285 56.8963 67.4283 56.8832 67.428 56.8709L67.4286 56.6753V23.5762H68.7149ZM37.5979 46.1324C32.8941 43.8769 27.5824 43.0537 22.376 43.7734L22.5831 45.1902C26.0445 44.7192 29.5702 44.966 32.9217 45.9128V56.8927H35.8964V46.9114C36.1333 47.0197 36.4211 47.1557 36.656 47.2667L36.656 47.2667C36.7655 47.3185 36.8636 47.3648 36.9396 47.4004L44.1142 50.829V49.2493L37.5979 46.1324ZM51.6627 56.8927H53.1498V45.5889H51.4958H50.1752V52.1331L45.4159 49.9314V51.5111L50.1752 53.9179V56.8927H51.6627Z" fill="#FFB000"/>
<path fill-rule="evenodd" clip-rule="evenodd" d="M51.0026 28.0139C52.017 29.568 52.5552 31.3754 52.5532 33.2211C52.5503 35.5252 51.7069 37.7522 50.1756 39.4986C48.6484 41.2405 46.5378 42.3895 44.2241 42.7391V56.8917H41.2495V42.7348C39.4073 42.4576 37.6831 41.6714 36.279 40.4675C34.8627 39.2533 33.8316 37.6654 33.3083 35.8927C32.7849 34.1199 32.7913 32.2369 33.3268 30.4676C33.8622 28.6984 34.9041 27.1173 36.3286 25.9124C37.7531 24.7075 39.5002 23.9296 41.3621 23.6711C43.224 23.4127 45.1224 23.6845 46.8315 24.4544C48.5405 25.2243 49.9883 26.4598 51.0026 28.0139ZM38.899 38.8586C40.035 39.6036 41.3706 40.0012 42.7368 40.0012C44.5689 40.0012 46.3259 39.2869 47.6214 38.0154C48.9169 36.7439 49.6447 35.0193 49.6447 33.2211C49.6447 31.8801 49.2395 30.5693 48.4805 29.4543C47.7214 28.3393 46.6426 27.4702 45.3803 26.9571C44.1181 26.4439 42.7292 26.3096 41.3892 26.5712C40.0492 26.8329 38.8183 27.4786 37.8522 28.4268C36.8862 29.375 36.2282 30.5831 35.9617 31.8984C35.6952 33.2136 35.832 34.5768 36.3548 35.8158C36.8776 37.0547 37.763 38.1136 38.899 38.8586Z" fill="#1994FF"/>
<path d="M40.4913 75.7372C39.8673 75.7372 39.2753 75.6332 38.7153 75.4252C38.1633 75.2092 37.7353 74.9332 37.4313 74.5972L37.7073 74.1412C37.9953 74.4372 38.3873 74.6892 38.8833 74.8972C39.3873 75.0972 39.9193 75.1972 40.4793 75.1972C41.0393 75.1972 41.4953 75.1252 41.8473 74.9812C42.2073 74.8292 42.4713 74.6292 42.6393 74.3812C42.8153 74.1332 42.9033 73.8572 42.9033 73.5532C42.9033 73.1932 42.8073 72.9052 42.6153 72.6892C42.4233 72.4732 42.1713 72.3012 41.8593 72.1732C41.5473 72.0452 41.2073 71.9372 40.8393 71.8492C40.4713 71.7612 40.0993 71.6692 39.7233 71.5732C39.3473 71.4692 39.0033 71.3372 38.6913 71.1772C38.3793 71.0172 38.1273 70.8012 37.9353 70.5292C37.7513 70.2492 37.6593 69.8892 37.6593 69.4492C37.6593 69.0492 37.7633 68.6812 37.9713 68.3452C38.1793 68.0092 38.5033 67.7372 38.9433 67.5292C39.3833 67.3212 39.9473 67.2172 40.6353 67.2172C41.0993 67.2172 41.5553 67.2852 42.0033 67.4212C42.4593 67.5572 42.8473 67.7412 43.1673 67.9732L42.9393 68.4652C42.5873 68.2252 42.2073 68.0492 41.7993 67.9372C41.3993 67.8172 41.0113 67.7572 40.6353 67.7572C40.0993 67.7572 39.6553 67.8332 39.3033 67.9852C38.9513 68.1372 38.6913 68.3412 38.5233 68.5972C38.3553 68.8452 38.2713 69.1252 38.2713 69.4372C38.2713 69.7972 38.3633 70.0852 38.5473 70.3012C38.7393 70.5172 38.9913 70.6892 39.3033 70.8172C39.6153 70.9452 39.9593 71.0532 40.3353 71.1412C40.7113 71.2292 41.0833 71.3252 41.4513 71.4292C41.8193 71.5252 42.1593 71.6532 42.4713 71.8132C42.7833 71.9732 43.0353 72.1892 43.2273 72.4612C43.4193 72.7332 43.5153 73.0852 43.5153 73.5172C43.5153 73.9092 43.4073 74.2772 43.1913 74.6212C42.9753 74.9572 42.6433 75.2292 42.1953 75.4372C41.7553 75.6372 41.1873 75.7372 40.4913 75.7372ZM46.1358 71.1412H50.6838V71.6812H46.1358V71.1412ZM46.2078 75.1252H51.3918V75.6772H45.5958V67.2772H51.2118V67.8292H46.2078V75.1252ZM57.152 75.7372C56.528 75.7372 55.948 75.6332 55.412 75.4252C54.884 75.2092 54.42 74.9092 54.02 74.5252C53.628 74.1332 53.324 73.6812 53.108 73.1692C52.892 72.6492 52.784 72.0852 52.784 71.4772C52.784 70.8692 52.892 70.3092 53.108 69.7972C53.324 69.2772 53.628 68.8252 54.02 68.4412C54.42 68.0492 54.884 67.7492 55.412 67.5412C55.948 67.3252 56.528 67.2172 57.152 67.2172C57.776 67.2172 58.352 67.3252 58.88 67.5412C59.416 67.7492 59.88 68.0452 60.272 68.4292C60.664 68.8132 60.968 69.2652 61.184 69.7852C61.408 70.2972 61.52 70.8612 61.52 71.4772C61.52 72.0932 61.408 72.6612 61.184 73.1812C60.968 73.6932 60.664 74.1412 60.272 74.5252C59.88 74.9092 59.416 75.2092 58.88 75.4252C58.352 75.6332 57.776 75.7372 57.152 75.7372ZM57.152 75.1732C57.688 75.1732 58.184 75.0812 58.64 74.8972C59.096 74.7132 59.492 74.4532 59.828 74.1172C60.164 73.7812 60.424 73.3892 60.608 72.9412C60.8 72.4932 60.896 72.0052 60.896 71.4772C60.896 70.9412 60.8 70.4532 60.608 70.0132C60.424 69.5652 60.164 69.1732 59.828 68.8372C59.492 68.5012 59.096 68.2412 58.64 68.0572C58.184 67.8732 57.688 67.7812 57.152 67.7812C56.616 67.7812 56.12 67.8732 55.664 68.0572C55.208 68.2412 54.808 68.5012 54.464 68.8372C54.128 69.1732 53.864 69.5652 53.672 70.0132C53.488 70.4532 53.396 70.9412 53.396 71.4772C53.396 72.0052 53.488 72.4932 53.672 72.9412C53.864 73.3892 54.128 73.7812 54.464 74.1172C54.808 74.4532 55.208 74.7132 55.664 74.8972C56.12 75.0812 56.616 75.1732 57.152 75.1732Z" fill="#323232"/>
</svg>
