<svg width="99" height="99" viewBox="0 0 99 99" fill="none" xmlns="http://www.w3.org/2000/svg">
<rect x="0.234375" y="0.0964355" width="98.5294" height="98.5294" rx="19.7059" fill="white"/>
<path fill-rule="evenodd" clip-rule="evenodd" d="M58.7222 18.0101C59.4834 21.9246 57.5476 25.7782 55.2473 27.5288C53.2789 29.0268 51.9992 30.3329 51.2244 31.6548C50.4252 33.0182 50.2179 34.3042 50.2179 35.6335C50.2179 38.6262 52.1369 40.9348 55.3401 42.9384C56.9731 43.9599 57.9516 45.6033 58.4573 47.4534C58.965 49.311 58.9664 51.2839 58.7165 52.7753L61.1459 53.1824C61.4463 51.3895 61.4477 49.0518 60.8334 46.8039C60.2169 44.5486 58.9512 42.2918 56.6463 40.8501C53.7211 39.0203 52.6811 37.3619 52.6811 35.6335C52.6811 34.6022 52.8331 33.7814 53.3495 32.9004C53.8902 31.9779 54.8824 30.9019 56.7391 29.4889C59.7206 27.2199 62.0954 22.4521 61.1401 17.5399L58.7222 18.0101Z" fill="#FFB000"/>
<path fill-rule="evenodd" clip-rule="evenodd" d="M40.2758 18.0101C39.5146 21.9246 41.4505 25.7782 43.7507 27.5288C45.7191 29.0268 46.9988 30.3329 47.7736 31.6548C48.5728 33.0182 48.7801 34.3042 48.7801 35.6335C48.7801 38.6262 46.8612 40.9348 43.658 42.9384C42.0249 43.9599 41.0464 45.6033 40.5408 47.4534C40.0331 49.311 40.0316 51.2839 40.2816 52.7753L37.8522 53.1824C37.5517 51.3895 37.5503 49.0518 38.1647 46.8039C38.7811 44.5486 40.0468 42.2918 42.3517 40.8501C45.277 39.0203 46.3169 37.3619 46.3169 35.6335C46.3169 34.6022 46.1649 33.7814 45.6486 32.9004C45.1078 31.9779 44.1156 30.9019 42.259 29.4889C39.2774 27.2199 36.9027 22.4521 37.8579 17.5399L40.2758 18.0101Z" fill="#FFB000"/>
<path d="M43.8015 22.0864H54.8861C54.8861 24.8576 50.8833 25.7813 49.6517 28.5524M49.6517 43.9476V48.5662M49.6517 48.5662H42.5698M49.6517 48.5662H56.4255" stroke="#1994FF" stroke-width="2.46324"/>
<path d="M37.6589 70.1824V62.3344H34.6349V61.7824H41.2949V62.3344H38.2709V70.1824H37.6589ZM42.6206 70.1824V63.9184H43.2206V70.1824H42.6206ZM42.9206 62.3944C42.7846 62.3944 42.6686 62.3464 42.5726 62.2504C42.4766 62.1544 42.4286 62.0424 42.4286 61.9144C42.4286 61.7784 42.4766 61.6624 42.5726 61.5664C42.6686 61.4704 42.7846 61.4224 42.9206 61.4224C43.0646 61.4224 43.1806 61.4704 43.2686 61.5664C43.3646 61.6544 43.4126 61.7664 43.4126 61.9024C43.4126 62.0384 43.3646 62.1544 43.2686 62.2504C43.1806 62.3464 43.0646 62.3944 42.9206 62.3944ZM53.5495 63.8704C54.0535 63.8704 54.4895 63.9704 54.8575 64.1704C55.2335 64.3624 55.5255 64.6584 55.7335 65.0584C55.9415 65.4504 56.0455 65.9384 56.0455 66.5224V70.1824H55.4455V66.5704C55.4455 65.8664 55.2735 65.3304 54.9295 64.9624C54.5855 64.5944 54.1055 64.4104 53.4895 64.4104C53.0175 64.4104 52.6095 64.5104 52.2655 64.7104C51.9215 64.9104 51.6575 65.1904 51.4735 65.5504C51.2895 65.9104 51.1975 66.3424 51.1975 66.8464V70.1824H50.5975V66.5704C50.5975 65.8664 50.4255 65.3304 50.0815 64.9624C49.7375 64.5944 49.2575 64.4104 48.6415 64.4104C48.1695 64.4104 47.7615 64.5104 47.4175 64.7104C47.0735 64.9104 46.8095 65.1904 46.6255 65.5504C46.4415 65.9104 46.3495 66.3424 46.3495 66.8464V70.1824H45.7495V63.9184H46.3255V65.6464L46.2415 65.4544C46.4255 64.9664 46.7335 64.5824 47.1655 64.3024C47.5975 64.0144 48.1175 63.8704 48.7255 63.8704C49.3495 63.8704 49.8735 64.0304 50.2975 64.3504C50.7295 64.6624 51.0015 65.1304 51.1135 65.7544L50.9095 65.6704C51.0775 65.1344 51.3935 64.7024 51.8575 64.3744C52.3215 64.0384 52.8855 63.8704 53.5495 63.8704ZM61.067 70.2304C60.435 70.2304 59.875 70.0944 59.387 69.8224C58.907 69.5504 58.527 69.1744 58.247 68.6944C57.975 68.2144 57.839 67.6664 57.839 67.0504C57.839 66.4264 57.967 65.8784 58.223 65.4064C58.487 64.9264 58.847 64.5504 59.303 64.2784C59.759 64.0064 60.271 63.8704 60.839 63.8704C61.407 63.8704 61.915 64.0024 62.363 64.2664C62.819 64.5304 63.175 64.9024 63.431 65.3824C63.695 65.8544 63.827 66.4024 63.827 67.0264C63.827 67.0504 63.823 67.0784 63.815 67.1104C63.815 67.1344 63.815 67.1624 63.815 67.1944H58.283V66.7264H63.491L63.251 66.9544C63.259 66.4664 63.155 66.0304 62.939 65.6464C62.731 65.2544 62.447 64.9504 62.087 64.7344C61.727 64.5104 61.311 64.3984 60.839 64.3984C60.375 64.3984 59.959 64.5104 59.591 64.7344C59.231 64.9504 58.947 65.2544 58.739 65.6464C58.531 66.0304 58.427 66.4704 58.427 66.9664V67.0744C58.427 67.5864 58.539 68.0424 58.763 68.4424C58.995 68.8344 59.311 69.1424 59.711 69.3664C60.111 69.5824 60.567 69.6904 61.079 69.6904C61.479 69.6904 61.851 69.6184 62.195 69.4744C62.547 69.3304 62.843 69.1104 63.083 68.8144L63.431 69.2104C63.159 69.5464 62.815 69.8024 62.399 69.9784C61.991 70.1464 61.547 70.2304 61.067 70.2304ZM10.129 80.1824V71.7824H10.645L14.545 78.5144H14.269L18.157 71.7824H18.661L18.673 80.1824H18.073L18.061 72.7064H18.229L14.545 79.0664H14.245L10.549 72.7064H10.729V80.1824H10.129ZM25.3577 80.1824V78.7544L25.3337 78.5384V76.1864C25.3337 75.6024 25.1737 75.1584 24.8537 74.8544C24.5417 74.5504 24.0817 74.3984 23.4737 74.3984C23.0417 74.3984 22.6377 74.4744 22.2617 74.6264C21.8937 74.7704 21.5777 74.9584 21.3137 75.1904L21.0137 74.7584C21.3257 74.4784 21.7017 74.2624 22.1417 74.1104C22.5817 73.9504 23.0417 73.8704 23.5217 73.8704C24.2977 73.8704 24.8937 74.0664 25.3097 74.4584C25.7257 74.8504 25.9337 75.4344 25.9337 76.2104V80.1824H25.3577ZM23.1017 80.2304C22.6377 80.2304 22.2337 80.1584 21.8897 80.0144C21.5537 79.8624 21.2937 79.6504 21.1097 79.3784C20.9337 79.1064 20.8457 78.7944 20.8457 78.4424C20.8457 78.1224 20.9177 77.8344 21.0617 77.5784C21.2137 77.3144 21.4617 77.1024 21.8057 76.9424C22.1497 76.7744 22.6097 76.6904 23.1857 76.6904H25.4897V77.1584H23.1977C22.5497 77.1584 22.0937 77.2784 21.8297 77.5184C21.5737 77.7584 21.4457 78.0584 21.4457 78.4184C21.4457 78.8184 21.5977 79.1384 21.9017 79.3784C22.2057 79.6184 22.6337 79.7384 23.1857 79.7384C23.7137 79.7384 24.1577 79.6184 24.5177 79.3784C24.8857 79.1384 25.1577 78.7904 25.3337 78.3344L25.5017 78.7424C25.3337 79.1984 25.0457 79.5624 24.6377 79.8344C24.2377 80.0984 23.7257 80.2304 23.1017 80.2304ZM31.4658 73.8704C31.9778 73.8704 32.4218 73.9704 32.7978 74.1704C33.1818 74.3624 33.4778 74.6584 33.6858 75.0584C33.9018 75.4504 34.0098 75.9384 34.0098 76.5224V80.1824H33.4098V76.5704C33.4098 75.8664 33.2298 75.3304 32.8698 74.9624C32.5178 74.5944 32.0218 74.4104 31.3818 74.4104C30.8938 74.4104 30.4698 74.5104 30.1098 74.7104C29.7498 74.9104 29.4738 75.1904 29.2818 75.5504C29.0978 75.9104 29.0058 76.3424 29.0058 76.8464V80.1824H28.4058V73.9184H28.9818V75.6584L28.8978 75.4664C29.0898 74.9704 29.4058 74.5824 29.8458 74.3024C30.2858 74.0144 30.8258 73.8704 31.4658 73.8704ZM40.428 80.1824V78.7544L40.404 78.5384V76.1864C40.404 75.6024 40.244 75.1584 39.924 74.8544C39.612 74.5504 39.152 74.3984 38.544 74.3984C38.112 74.3984 37.708 74.4744 37.332 74.6264C36.964 74.7704 36.648 74.9584 36.384 75.1904L36.084 74.7584C36.396 74.4784 36.772 74.2624 37.212 74.1104C37.652 73.9504 38.112 73.8704 38.592 73.8704C39.368 73.8704 39.964 74.0664 40.38 74.4584C40.796 74.8504 41.004 75.4344 41.004 76.2104V80.1824H40.428ZM38.172 80.2304C37.708 80.2304 37.304 80.1584 36.96 80.0144C36.624 79.8624 36.364 79.6504 36.18 79.3784C36.004 79.1064 35.916 78.7944 35.916 78.4424C35.916 78.1224 35.988 77.8344 36.132 77.5784C36.284 77.3144 36.532 77.1024 36.876 76.9424C37.22 76.7744 37.68 76.6904 38.256 76.6904H40.56V77.1584H38.268C37.62 77.1584 37.164 77.2784 36.9 77.5184C36.644 77.7584 36.516 78.0584 36.516 78.4184C36.516 78.8184 36.668 79.1384 36.972 79.3784C37.276 79.6184 37.704 79.7384 38.256 79.7384C38.784 79.7384 39.228 79.6184 39.588 79.3784C39.956 79.1384 40.228 78.7904 40.404 78.3344L40.572 78.7424C40.404 79.1984 40.116 79.5624 39.708 79.8344C39.308 80.0984 38.796 80.2304 38.172 80.2304ZM46.0801 82.5584C45.5121 82.5584 44.9721 82.4704 44.4601 82.2944C43.9481 82.1184 43.5321 81.8744 43.2121 81.5624L43.5361 81.1064C43.8481 81.3944 44.2201 81.6184 44.6521 81.7784C45.0921 81.9384 45.5641 82.0184 46.0681 82.0184C46.9081 82.0184 47.5241 81.8224 47.9161 81.4304C48.3161 81.0384 48.5161 80.4224 48.5161 79.5824V77.8424L48.6361 76.9064L48.5401 75.9704V73.9184H49.1161V79.5104C49.1161 80.5584 48.8601 81.3264 48.3481 81.8144C47.8441 82.3104 47.0881 82.5584 46.0801 82.5584ZM45.9121 79.9544C45.3201 79.9544 44.7881 79.8264 44.3161 79.5704C43.8521 79.3064 43.4801 78.9464 43.2001 78.4904C42.9281 78.0264 42.7921 77.4984 42.7921 76.9064C42.7921 76.3064 42.9281 75.7784 43.2001 75.3224C43.4801 74.8664 43.8521 74.5104 44.3161 74.2544C44.7881 73.9984 45.3201 73.8704 45.9121 73.8704C46.4801 73.8704 46.9881 73.9944 47.4361 74.2424C47.8921 74.4824 48.2521 74.8304 48.5161 75.2864C48.7801 75.7344 48.9121 76.2744 48.9121 76.9064C48.9121 77.5304 48.7801 78.0704 48.5161 78.5264C48.2521 78.9824 47.8921 79.3344 47.4361 79.5824C46.9881 79.8304 46.4801 79.9544 45.9121 79.9544ZM45.9601 79.4144C46.4641 79.4144 46.9081 79.3104 47.2921 79.1024C47.6761 78.8864 47.9761 78.5904 48.1921 78.2144C48.4161 77.8304 48.5281 77.3944 48.5281 76.9064C48.5281 76.4104 48.4161 75.9744 48.1921 75.5984C47.9761 75.2224 47.6761 74.9304 47.2921 74.7224C46.9081 74.5144 46.4641 74.4104 45.9601 74.4104C45.4721 74.4104 45.0321 74.5144 44.6401 74.7224C44.2561 74.9304 43.9521 75.2224 43.7281 75.5984C43.5121 75.9744 43.4041 76.4104 43.4041 76.9064C43.4041 77.3944 43.5121 77.8304 43.7281 78.2144C43.9521 78.5904 44.2561 78.8864 44.6401 79.1024C45.0321 79.3104 45.4721 79.4144 45.9601 79.4144ZM54.1998 80.2304C53.5678 80.2304 53.0078 80.0944 52.5198 79.8224C52.0398 79.5504 51.6598 79.1744 51.3798 78.6944C51.1078 78.2144 50.9718 77.6664 50.9718 77.0504C50.9718 76.4264 51.0998 75.8784 51.3558 75.4064C51.6198 74.9264 51.9798 74.5504 52.4358 74.2784C52.8918 74.0064 53.4038 73.8704 53.9718 73.8704C54.5398 73.8704 55.0478 74.0024 55.4958 74.2664C55.9518 74.5304 56.3078 74.9024 56.5638 75.3824C56.8278 75.8544 56.9598 76.4024 56.9598 77.0264C56.9598 77.0504 56.9558 77.0784 56.9478 77.1104C56.9478 77.1344 56.9478 77.1624 56.9478 77.1944H51.4158V76.7264H56.6238L56.3838 76.9544C56.3918 76.4664 56.2878 76.0304 56.0718 75.6464C55.8638 75.2544 55.5798 74.9504 55.2198 74.7344C54.8598 74.5104 54.4438 74.3984 53.9718 74.3984C53.5078 74.3984 53.0918 74.5104 52.7238 74.7344C52.3638 74.9504 52.0798 75.2544 51.8718 75.6464C51.6638 76.0304 51.5598 76.4704 51.5598 76.9664V77.0744C51.5598 77.5864 51.6718 78.0424 51.8958 78.4424C52.1278 78.8344 52.4438 79.1424 52.8438 79.3664C53.2438 79.5824 53.6998 79.6904 54.2118 79.6904C54.6118 79.6904 54.9838 79.6184 55.3278 79.4744C55.6798 79.3304 55.9758 79.1104 56.2158 78.8144L56.5638 79.2104C56.2918 79.5464 55.9478 79.8024 55.5318 79.9784C55.1238 80.1464 54.6798 80.2304 54.1998 80.2304ZM66.6159 73.8704C67.1199 73.8704 67.5559 73.9704 67.9239 74.1704C68.2999 74.3624 68.5919 74.6584 68.7999 75.0584C69.0079 75.4504 69.1119 75.9384 69.1119 76.5224V80.1824H68.5119V76.5704C68.5119 75.8664 68.3399 75.3304 67.9959 74.9624C67.6519 74.5944 67.1719 74.4104 66.5559 74.4104C66.0839 74.4104 65.6759 74.5104 65.3319 74.7104C64.9879 74.9104 64.7239 75.1904 64.5399 75.5504C64.3559 75.9104 64.2639 76.3424 64.2639 76.8464V80.1824H63.6639V76.5704C63.6639 75.8664 63.4919 75.3304 63.1479 74.9624C62.8039 74.5944 62.3239 74.4104 61.7079 74.4104C61.2359 74.4104 60.8279 74.5104 60.4839 74.7104C60.1399 74.9104 59.8759 75.1904 59.6919 75.5504C59.5079 75.9104 59.4159 76.3424 59.4159 76.8464V80.1824H58.8159V73.9184H59.3919V75.6464L59.3079 75.4544C59.4919 74.9664 59.7999 74.5824 60.2319 74.3024C60.6639 74.0144 61.1839 73.8704 61.7919 73.8704C62.4159 73.8704 62.9399 74.0304 63.3639 74.3504C63.7959 74.6624 64.0679 75.1304 64.1799 75.7544L63.9759 75.6704C64.1439 75.1344 64.4599 74.7024 64.9239 74.3744C65.3879 74.0384 65.9519 73.8704 66.6159 73.8704ZM74.1334 80.2304C73.5014 80.2304 72.9414 80.0944 72.4534 79.8224C71.9734 79.5504 71.5934 79.1744 71.3134 78.6944C71.0414 78.2144 70.9054 77.6664 70.9054 77.0504C70.9054 76.4264 71.0334 75.8784 71.2894 75.4064C71.5534 74.9264 71.9134 74.5504 72.3694 74.2784C72.8254 74.0064 73.3374 73.8704 73.9054 73.8704C74.4734 73.8704 74.9814 74.0024 75.4294 74.2664C75.8854 74.5304 76.2414 74.9024 76.4974 75.3824C76.7614 75.8544 76.8934 76.4024 76.8934 77.0264C76.8934 77.0504 76.8894 77.0784 76.8814 77.1104C76.8814 77.1344 76.8814 77.1624 76.8814 77.1944H71.3494V76.7264H76.5574L76.3174 76.9544C76.3254 76.4664 76.2214 76.0304 76.0054 75.6464C75.7974 75.2544 75.5134 74.9504 75.1534 74.7344C74.7934 74.5104 74.3774 74.3984 73.9054 74.3984C73.4414 74.3984 73.0254 74.5104 72.6574 74.7344C72.2974 74.9504 72.0134 75.2544 71.8054 75.6464C71.5974 76.0304 71.4934 76.4704 71.4934 76.9664V77.0744C71.4934 77.5864 71.6054 78.0424 71.8294 78.4424C72.0614 78.8344 72.3774 79.1424 72.7774 79.3664C73.1774 79.5824 73.6334 79.6904 74.1454 79.6904C74.5454 79.6904 74.9174 79.6184 75.2614 79.4744C75.6134 79.3304 75.9094 79.1104 76.1494 78.8144L76.4974 79.2104C76.2254 79.5464 75.8814 79.8024 75.4654 79.9784C75.0574 80.1464 74.6134 80.2304 74.1334 80.2304ZM81.8095 73.8704C82.3215 73.8704 82.7655 73.9704 83.1415 74.1704C83.5255 74.3624 83.8215 74.6584 84.0295 75.0584C84.2455 75.4504 84.3535 75.9384 84.3535 76.5224V80.1824H83.7535V76.5704C83.7535 75.8664 83.5735 75.3304 83.2135 74.9624C82.8615 74.5944 82.3655 74.4104 81.7255 74.4104C81.2375 74.4104 80.8135 74.5104 80.4535 74.7104C80.0935 74.9104 79.8175 75.1904 79.6255 75.5504C79.4415 75.9104 79.3495 76.3424 79.3495 76.8464V80.1824H78.7495V73.9184H79.3255V75.6584L79.2415 75.4664C79.4335 74.9704 79.7495 74.5824 80.1895 74.3024C80.6295 74.0144 81.1695 73.8704 81.8095 73.8704ZM88.6478 80.2304C88.0958 80.2304 87.6718 80.0784 87.3758 79.7744C87.0878 79.4704 86.9438 79.0544 86.9438 78.5264V72.5504H87.5438V78.4664C87.5438 78.8664 87.6438 79.1744 87.8438 79.3904C88.0438 79.6064 88.3318 79.7144 88.7078 79.7144C89.0998 79.7144 89.4238 79.5984 89.6798 79.3664L89.9318 79.7864C89.7718 79.9384 89.5758 80.0504 89.3438 80.1224C89.1198 80.1944 88.8878 80.2304 88.6478 80.2304ZM85.7918 74.4344V73.9184H89.5358V74.4344H85.7918Z" fill="#323232"/>
</svg>
