<svg width="99" height="100" viewBox="0 0 99 100" fill="none" xmlns="http://www.w3.org/2000/svg">
<rect y="0.862061" width="98.5294" height="98.5294" rx="19.7059" fill="white"/>
<path fill-rule="evenodd" clip-rule="evenodd" d="M43.7242 22.8144C38.0188 22.8144 33.3937 27.4395 33.3937 33.1448C33.3937 37.7596 36.4196 41.6676 40.5954 42.993L41.1328 45.9115C35.1811 44.71 30.6997 39.4507 30.6997 33.1448C30.6997 25.9516 36.531 20.1204 43.7242 20.1204C50.9174 20.1204 56.7487 25.9516 56.7487 33.1448C56.7487 34.841 56.4245 36.4614 55.8346 37.9475L53.5342 36.3914C53.8719 35.3704 54.0547 34.279 54.0547 33.1448C54.0547 27.4395 49.4296 22.8144 43.7242 22.8144Z" fill="#1994FF"/>
<path fill-rule="evenodd" clip-rule="evenodd" d="M41.3652 30.7863L67.8299 49.0663H57.0227V46.4003H59.2795L45.1269 36.6247L48.2632 54.0184L51.0798 48.6483L48.0652 44.1454L50.2805 42.6623L54.1771 48.4826L47.0175 62.1333L41.3652 30.7863Z" fill="#FFB000"/>
<path d="M37.9142 79.1333V70.7333H40.9262C41.6302 70.7333 42.2342 70.8453 42.7382 71.0693C43.2422 71.2933 43.6302 71.6173 43.9022 72.0413C44.1742 72.4573 44.3102 72.9653 44.3102 73.5653C44.3102 74.1493 44.1742 74.6533 43.9022 75.0773C43.6302 75.5013 43.2422 75.8253 42.7382 76.0493C42.2342 76.2733 41.6302 76.3853 40.9262 76.3853H38.2502L38.5262 76.0973V79.1333H37.9142ZM38.5262 76.1333L38.2502 75.8333H40.9262C41.8302 75.8333 42.5142 75.6373 42.9782 75.2453C43.4502 74.8453 43.6862 74.2853 43.6862 73.5653C43.6862 72.8373 43.4502 72.2773 42.9782 71.8853C42.5142 71.4853 41.8302 71.2853 40.9262 71.2853H38.2502L38.5262 70.9853V76.1333ZM46.3751 79.1333V70.7333H49.3871C50.0911 70.7333 50.6951 70.8453 51.1991 71.0693C51.7031 71.2933 52.0911 71.6173 52.3631 72.0413C52.6351 72.4573 52.7711 72.9653 52.7711 73.5653C52.7711 74.1493 52.6351 74.6533 52.3631 75.0773C52.0911 75.5013 51.7031 75.8253 51.1991 76.0493C50.6951 76.2733 50.0911 76.3853 49.3871 76.3853H46.7111L46.9871 76.0973V79.1333H46.3751ZM46.9871 76.1333L46.7111 75.8333H49.3871C50.2911 75.8333 50.9751 75.6373 51.4391 75.2453C51.9111 74.8453 52.1471 74.2853 52.1471 73.5653C52.1471 72.8373 51.9111 72.2773 51.4391 71.8853C50.9751 71.4853 50.2911 71.2853 49.3871 71.2853H46.7111L46.9871 70.9853V76.1333ZM58.5053 79.1933C57.8813 79.1933 57.3013 79.0893 56.7653 78.8813C56.2373 78.6653 55.7773 78.3653 55.3853 77.9813C54.9933 77.5973 54.6893 77.1493 54.4733 76.6373C54.2573 76.1173 54.1493 75.5493 54.1493 74.9333C54.1493 74.3173 54.2573 73.7533 54.4733 73.2413C54.6893 72.7213 54.9933 72.2693 55.3853 71.8853C55.7853 71.5013 56.2493 71.2053 56.7773 70.9973C57.3053 70.7813 57.8813 70.6733 58.5053 70.6733C59.0973 70.6733 59.6493 70.7693 60.1613 70.9613C60.6813 71.1533 61.1253 71.4453 61.4933 71.8373L61.1093 72.2333C60.7493 71.8813 60.3493 71.6293 59.9093 71.4773C59.4773 71.3173 59.0173 71.2373 58.5293 71.2373C57.9933 71.2373 57.4933 71.3293 57.0293 71.5133C56.5733 71.6973 56.1733 71.9573 55.8293 72.2933C55.4933 72.6293 55.2293 73.0213 55.0373 73.4693C54.8533 73.9173 54.7613 74.4053 54.7613 74.9333C54.7613 75.4613 54.8533 75.9493 55.0373 76.3973C55.2293 76.8453 55.4933 77.2373 55.8293 77.5733C56.1733 77.9093 56.5733 78.1693 57.0293 78.3533C57.4933 78.5373 57.9933 78.6293 58.5293 78.6293C59.0173 78.6293 59.4773 78.5533 59.9093 78.4013C60.3493 78.2413 60.7493 77.9813 61.1093 77.6213L61.4933 78.0173C61.1253 78.4093 60.6813 78.7053 60.1613 78.9053C59.6493 79.0973 59.0973 79.1933 58.5053 79.1933Z" fill="#323232"/>
</svg>
