<svg width="99" height="100" viewBox="0 0 99 100" fill="none" xmlns="http://www.w3.org/2000/svg">
<rect x="0.234375" y="0.627686" width="98.5294" height="98.5294" rx="19.7059" fill="white"/>
<path fill-rule="evenodd" clip-rule="evenodd" d="M50.7501 38.0541C55.2717 35.3412 63.6123 31.1827 74.6165 32.3723L74.8812 29.9234C63.6205 28.706 54.99 32.7297 50.1317 35.5583C40.791 29.8862 31.2129 29.3057 24.0898 30.2549L24.4152 32.6965C31.292 31.7802 40.5261 32.382 49.4575 38.0385L50.099 38.4448L50.7501 38.0541ZM50.8779 43.8162C55.0184 40.563 63.6324 36.1134 73.9937 37.2976L74.2734 34.8503C63.6531 33.6365 54.7866 37.8853 50.0798 41.3307C39.9213 34.5268 31.1982 34.3453 24.7153 35.1598L25.0223 37.6038C31.2358 36.8232 39.5667 36.9958 49.4127 43.8582L50.1608 44.3796L50.8779 43.8162Z" fill="#FFB000"/>
<path fill-rule="evenodd" clip-rule="evenodd" d="M23.6351 41.924C23.6351 42.7743 22.9458 43.4635 22.0955 43.4635C21.2453 43.4635 20.556 42.7743 20.556 41.924C20.556 41.0738 21.2453 40.3845 22.0955 40.3845C22.9458 40.3845 23.6351 41.0738 23.6351 41.924ZM26.0661 42.4337C25.8158 44.4037 24.1335 45.9268 22.0955 45.9268C19.8849 45.9268 18.0928 44.1347 18.0928 41.924C18.0928 39.7134 19.8849 37.9213 22.0955 37.9213C23.6113 37.9213 24.9303 38.7638 25.6098 40.0061C31.6851 39.3227 40.0701 39.7507 48.7049 46.2679C49.1273 46.0499 49.6067 45.9268 50.1148 45.9268C50.6103 45.9268 51.0785 46.0438 51.4932 46.2518C56.0243 42.871 64.0998 38.8619 73.4033 39.9789C74.0871 38.7515 75.3978 37.9213 76.9025 37.9213C79.1132 37.9213 80.9053 39.7134 80.9053 41.924C80.9053 44.1347 79.1132 45.9268 76.9025 45.9268C74.8542 45.9268 73.1653 44.3883 72.9282 42.4038C64.5677 41.4669 57.2258 45.0743 53.072 48.1453C53.1513 48.4184 53.1939 48.7071 53.1939 49.0058C53.1939 50.7063 51.8153 52.0849 50.1148 52.0849C48.4143 52.0849 47.0358 50.7063 47.0358 49.0058C47.0358 48.7195 47.0749 48.4423 47.148 48.1793C39.2762 42.2723 31.6949 41.8259 26.0661 42.4337ZM78.442 41.924C78.442 42.7743 77.7528 43.4635 76.9025 43.4635C76.0523 43.4635 75.363 42.7743 75.363 41.924C75.363 41.0738 76.0523 40.3845 76.9025 40.3845C77.7528 40.3845 78.442 41.0738 78.442 41.924Z" fill="#1994FF"/>
<path d="M32.7111 69.085V60.685H36.2151C37.1191 60.685 37.8271 60.869 38.3391 61.237C38.8511 61.605 39.1071 62.137 39.1071 62.833C39.1071 63.289 38.9991 63.673 38.7831 63.985C38.5671 64.297 38.2671 64.533 37.8831 64.693C37.5071 64.845 37.0831 64.921 36.6111 64.921L36.8271 64.681C37.4031 64.681 37.8951 64.765 38.3031 64.933C38.7111 65.101 39.0191 65.345 39.2271 65.665C39.4431 65.985 39.5511 66.385 39.5511 66.865C39.5511 67.569 39.2951 68.117 38.7831 68.509C38.2711 68.893 37.4951 69.085 36.4551 69.085H32.7111ZM33.3231 68.557H36.4551C37.2631 68.557 37.8791 68.421 38.3031 68.149C38.7271 67.869 38.9391 67.425 38.9391 66.817C38.9391 66.217 38.7271 65.781 38.3031 65.509C37.8791 65.229 37.2631 65.089 36.4551 65.089H33.2511V64.561H36.1911C36.9191 64.561 37.4831 64.421 37.8831 64.141C38.2831 63.861 38.4831 63.441 38.4831 62.881C38.4831 62.329 38.2831 61.913 37.8831 61.633C37.4831 61.353 36.9191 61.213 36.1911 61.213H33.3231V68.557ZM43.9905 69.133C43.3905 69.133 42.8545 68.997 42.3825 68.725C41.9185 68.453 41.5465 68.077 41.2665 67.597C40.9945 67.117 40.8585 66.569 40.8585 65.953C40.8585 65.329 40.9945 64.781 41.2665 64.309C41.5465 63.829 41.9185 63.453 42.3825 63.181C42.8545 62.909 43.3905 62.773 43.9905 62.773C44.5905 62.773 45.1265 62.909 45.5985 63.181C46.0705 63.453 46.4425 63.829 46.7145 64.309C46.9865 64.781 47.1225 65.329 47.1225 65.953C47.1225 66.569 46.9865 67.117 46.7145 67.597C46.4425 68.077 46.0705 68.453 45.5985 68.725C45.1265 68.997 44.5905 69.133 43.9905 69.133ZM43.9905 68.593C44.4705 68.593 44.9025 68.485 45.2865 68.269C45.6705 68.045 45.9705 67.733 46.1865 67.333C46.4025 66.933 46.5105 66.473 46.5105 65.953C46.5105 65.425 46.4025 64.965 46.1865 64.573C45.9705 64.173 45.6705 63.865 45.2865 63.649C44.9025 63.425 44.4705 63.313 43.9905 63.313C43.5105 63.313 43.0785 63.425 42.6945 63.649C42.3185 63.865 42.0185 64.173 41.7945 64.573C41.5785 64.965 41.4705 65.425 41.4705 65.953C41.4705 66.473 41.5785 66.933 41.7945 67.333C42.0185 67.733 42.3185 68.045 42.6945 68.269C43.0785 68.485 43.5105 68.593 43.9905 68.593ZM51.4319 69.133C50.8319 69.133 50.2959 68.997 49.8239 68.725C49.3599 68.453 48.9879 68.077 48.7079 67.597C48.4359 67.117 48.2999 66.569 48.2999 65.953C48.2999 65.329 48.4359 64.781 48.7079 64.309C48.9879 63.829 49.3599 63.453 49.8239 63.181C50.2959 62.909 50.8319 62.773 51.4319 62.773C52.0319 62.773 52.5679 62.909 53.0399 63.181C53.5119 63.453 53.8839 63.829 54.1559 64.309C54.4279 64.781 54.5639 65.329 54.5639 65.953C54.5639 66.569 54.4279 67.117 54.1559 67.597C53.8839 68.077 53.5119 68.453 53.0399 68.725C52.5679 68.997 52.0319 69.133 51.4319 69.133ZM51.4319 68.593C51.9119 68.593 52.3439 68.485 52.7279 68.269C53.1119 68.045 53.4119 67.733 53.6279 67.333C53.8439 66.933 53.9519 66.473 53.9519 65.953C53.9519 65.425 53.8439 64.965 53.6279 64.573C53.4119 64.173 53.1119 63.865 52.7279 63.649C52.3439 63.425 51.9119 63.313 51.4319 63.313C50.9519 63.313 50.5199 63.425 50.1359 63.649C49.7599 63.865 49.4599 64.173 49.2359 64.573C49.0199 64.965 48.9119 65.425 48.9119 65.953C48.9119 66.473 49.0199 66.933 49.2359 67.333C49.4599 67.733 49.7599 68.045 50.1359 68.269C50.5199 68.485 50.9519 68.593 51.4319 68.593ZM56.8813 67.357L56.8933 66.601L61.0333 62.821H61.8013L59.0533 65.401L58.6933 65.701L56.8813 67.357ZM56.4253 69.085V60.181H57.0253V69.085H56.4253ZM61.3213 69.085L58.5853 65.653L58.9933 65.209L62.0653 69.085H61.3213ZM64.8765 69.133C64.3565 69.133 63.8685 69.057 63.4125 68.905C62.9645 68.753 62.6165 68.561 62.3685 68.329L62.6445 67.849C62.8845 68.057 63.2045 68.237 63.6045 68.389C64.0045 68.533 64.4365 68.605 64.9005 68.605C65.5565 68.605 66.0285 68.497 66.3165 68.281C66.6045 68.065 66.7485 67.781 66.7485 67.429C66.7485 67.173 66.6725 66.973 66.5205 66.829C66.3765 66.677 66.1805 66.561 65.9325 66.481C65.6845 66.401 65.4125 66.337 65.1165 66.289C64.8205 66.233 64.5245 66.173 64.2285 66.109C63.9325 66.045 63.6605 65.953 63.4125 65.833C63.1645 65.713 62.9645 65.549 62.8125 65.341C62.6685 65.125 62.5965 64.841 62.5965 64.489C62.5965 64.169 62.6845 63.881 62.8605 63.625C63.0365 63.369 63.3005 63.165 63.6525 63.013C64.0045 62.853 64.4445 62.773 64.9725 62.773C65.3645 62.773 65.7565 62.829 66.1485 62.941C66.5485 63.053 66.8725 63.201 67.1205 63.385L66.8445 63.865C66.5805 63.665 66.2845 63.521 65.9565 63.433C65.6285 63.345 65.2965 63.301 64.9605 63.301C64.3525 63.301 63.9045 63.413 63.6165 63.637C63.3365 63.861 63.1965 64.141 63.1965 64.477C63.1965 64.741 63.2685 64.953 63.4125 65.113C63.5645 65.265 63.7645 65.385 64.0125 65.473C64.2605 65.553 64.5325 65.621 64.8285 65.677C65.1245 65.725 65.4205 65.781 65.7165 65.845C66.0125 65.909 66.2845 66.001 66.5325 66.121C66.7805 66.233 66.9765 66.393 67.1205 66.601C67.2725 66.801 67.3485 67.073 67.3485 67.417C67.3485 67.761 67.2525 68.061 67.0605 68.317C66.8765 68.573 66.6005 68.773 66.2325 68.917C65.8645 69.061 65.4125 69.133 64.8765 69.133Z" fill="#323232"/>
</svg>
