<svg width="150" height="151" viewBox="0 0 150 151" fill="none" xmlns="http://www.w3.org/2000/svg">
<rect y="0.838867" width="150" height="150" rx="24" fill="#F9F9F9"/>
<path d="M124.5 68.3881C124.5 76.6741 117.782 83.3912 109.496 83.3912C101.21 83.3912 94.4934 76.6741 94.4934 68.3881C94.4934 60.1021 101.21 53.385 109.496 53.385C117.782 53.385 124.5 60.1021 124.5 68.3881Z" fill="#A4E7ED"/>
<path d="M58.9731 68.3881C58.9731 76.6741 52.256 83.3912 43.97 83.3912C35.684 83.3912 28.9669 76.6741 28.9669 68.3881C28.9669 60.1021 35.684 53.385 43.97 53.385C52.256 53.385 58.9731 60.1021 58.9731 68.3881Z" fill="#73C3F4"/>
<path d="M50.198 88.5968C50.198 93.9517 45.857 98.2927 40.5022 98.2927C35.1473 98.2927 30.8063 93.9517 30.8063 88.5968C30.8063 83.2419 35.1473 78.9009 40.5022 78.9009C45.857 78.9009 50.198 83.2419 50.198 88.5968Z" fill="#DD71C6"/>
<path d="M36.7249 81.2476C36.7249 84.5732 34.029 87.2692 30.7033 87.2692C27.3776 87.2692 24.6816 84.5732 24.6816 81.2476C24.6816 77.9219 27.3776 75.2259 30.7033 75.2259C34.029 75.2259 36.7249 77.9219 36.7249 81.2476Z" fill="#FFD900"/>
<path d="M41.9128 81.295C41.9878 81.0792 42.0391 80.8558 42.0655 80.6288C42.0655 80.6288 42.8104 81.35 43.1766 82.7228C43.5428 84.0956 43.963 84.5708 44.6044 85.1729C45.2459 85.7751 47.1882 87.0176 49.1946 89.2778C51.1594 91.4954 53.7275 94.5095 53.8208 94.6185C53.7578 94.4893 51.702 90.3069 50.5741 88.7981C49.4294 87.2658 48.6071 85.9773 47.5129 85.4617C46.4187 84.946 45.5964 83.6575 45.6031 81.632C45.6099 79.6065 44.5393 78.7539 43.8866 78.3741C43.2339 77.9944 41.2061 76.1858 42.2734 73.4312C43.3406 70.6766 48.7498 68.7669 50.1282 68.3995C51.5066 68.0322 54.597 66.9829 54.597 66.9829C54.597 66.9829 51.4369 67.129 49.4833 67.803C47.5612 68.4624 45.4256 68.9983 45.3593 69.0151C45.393 68.9792 46.0233 68.2647 45.8525 67.5547C45.7852 67.227 45.5984 66.9361 45.3285 66.7384C45.0586 66.5408 44.7248 66.4505 44.3921 66.4852C43.8776 66.5571 43.7315 66.6493 43.7091 66.6661C43.7731 66.5965 44.8325 65.5236 45.4897 65.0934C46.1468 64.6631 46.904 63.9284 47.1557 63.4936C47.1557 63.4936 44.5943 64.9136 43.5439 65.5247C42.4936 66.1359 41.3117 67.0784 40.0884 68.6927C38.865 70.307 38.6504 71.9809 38.8942 73.5716C39.138 75.1624 39.8592 76.2183 40.1614 76.8003C40.4636 77.3822 40.7388 78.4101 40.3692 78.9504C39.9996 79.4908 38.6538 81.2107 38.5662 82.6678C38.4785 84.1248 39.0885 85.1763 39.8199 86.12C40.5512 87.0636 42.0667 89.8586 43.1395 92.6244C44.2124 95.3902 44.8549 95.8823 44.8549 95.8823C44.8549 95.8823 43.9686 90.0878 43.2822 88.4679C42.5958 86.8479 41.6915 84.9943 41.4847 84.7607C41.278 84.527 40.6422 83.8091 41.0253 83.0441C41.4084 82.2791 41.7735 81.7331 41.9128 81.295ZM41.451 70.3509C41.451 70.3509 41.4129 69.1151 42.1251 68.4782C42.1251 68.4782 42.288 69.5004 43.29 69.6746C43.2923 69.6746 42.1307 70.2745 41.451 70.3509Z" fill="#4D85B0"/>
<path d="M53.116 77.5115C52.9733 76.2241 52.8239 74.9715 52.6666 73.7897C52.5093 72.6079 52.3228 71.4879 52.1049 70.4824L52.0757 70.3488H50.6714L50.6209 70.4207C50.2726 70.9161 49.9188 71.4317 49.5694 71.9563C49.22 72.481 48.8673 73.0326 48.5123 73.6055C48.1573 74.1784 47.7899 74.7862 47.4158 75.4186C47.0418 76.0511 46.6463 76.7308 46.2352 77.4408L46.0857 77.6958H47.8484L47.8955 77.6059C48.0517 77.3138 48.2067 77.0285 48.3584 76.7566L48.7594 76.0365H51.3657C51.3871 76.2511 51.4084 76.4701 51.4286 76.696C51.4545 76.9746 51.4758 77.2577 51.4915 77.5363L51.5005 77.6958H53.1328L53.116 77.5115ZM49.5099 74.6896C49.8053 74.1795 50.0895 73.7077 50.358 73.2853C50.5745 72.9423 50.7782 72.6225 50.9691 72.3259C51.0186 72.6922 51.0646 73.0528 51.1051 73.4044C51.1568 73.838 51.1994 74.2694 51.2331 74.6896H49.5099Z" fill="#FFD900"/>
<path d="M62.0897 73.1295C62.301 72.8011 62.4137 72.4191 62.4144 72.0286C62.4274 71.7087 62.3359 71.3932 62.1537 71.1299C61.986 70.9021 61.766 70.718 61.5123 70.5929C61.2457 70.4626 60.9595 70.3769 60.6652 70.339C60.3698 70.2971 60.0717 70.276 59.7733 70.2761C59.4295 70.2761 59.0824 70.2896 58.742 70.3165C58.4111 70.3426 58.0823 70.3911 57.7579 70.4615L57.6557 70.485L55.9593 77.5422L56.1256 77.5793C56.4686 77.6549 56.8166 77.7052 57.167 77.7298C57.5512 77.7613 57.9219 77.777 58.2679 77.777C59.4632 77.777 60.3945 77.5523 61.0371 77.103C61.6999 76.6401 62.0358 75.9796 62.0358 75.1337C62.0414 74.8128 61.9459 74.4984 61.7628 74.2349C61.642 74.0662 61.4893 73.9227 61.3134 73.8125C61.627 73.656 61.8945 73.4206 62.0897 73.1295ZM59.944 73.1576C59.7559 73.1962 59.5643 73.2154 59.3722 73.2149H58.6117L58.9824 71.6848C59.0543 71.6781 59.1374 71.6702 59.2318 71.6646C59.3823 71.6545 59.5373 71.6523 59.6868 71.65C59.9816 71.6366 60.2757 71.6896 60.5473 71.805C60.6596 71.859 60.8023 71.9679 60.8023 72.2915C60.8077 72.4332 60.7714 72.5735 60.6978 72.6948C60.6207 72.8115 60.5191 72.91 60.4001 72.9835C60.2597 73.0683 60.1052 73.1273 59.944 73.1576ZM60.2383 75.8223C60.1259 75.9731 59.9787 76.0945 59.8092 76.1762C59.6166 76.2664 59.4112 76.3263 59.2003 76.3537C58.977 76.3847 58.7518 76.4008 58.5263 76.402C58.342 76.402 58.1713 76.402 58.0208 76.3874L57.8444 76.3739L58.2937 74.5338H59.3138C59.7216 74.5338 60.0114 74.6034 60.1754 74.7416C60.2502 74.8023 60.3101 74.8793 60.3504 74.9667C60.3907 75.0542 60.4104 75.1497 60.408 75.246C60.416 75.4515 60.3564 75.6539 60.2383 75.8223Z" fill="#FFD900"/>
<path d="M67.1744 72.382C66.8609 72.0899 66.4206 71.9416 65.8667 71.9416C65.392 71.9351 64.9226 72.0417 64.4973 72.2528C64.0982 72.4547 63.7443 72.7356 63.457 73.0785C63.1681 73.4272 62.9454 73.8258 62.7999 74.2547C62.6502 74.6945 62.5743 75.1561 62.5752 75.6207C62.5733 75.9078 62.6173 76.1934 62.7055 76.4666C62.7919 76.7402 62.9393 76.9906 63.1366 77.1988C63.334 77.4071 63.5761 77.5677 63.8446 77.6687C64.175 77.7916 64.5257 77.8507 64.8781 77.8428C65.2315 77.8483 65.5843 77.8106 65.9285 77.7305C66.1744 77.6749 66.4146 77.5971 66.6464 77.4979L66.7587 77.4474L66.6228 76.1117L66.4138 76.197C65.9988 76.3724 65.5534 76.4644 65.1028 76.4678C64.2299 76.4678 64.112 76.0566 64.1075 75.7364C64.4917 75.7196 64.8759 75.6881 65.2511 75.6398C65.6576 75.5921 66.055 75.4854 66.4307 75.323C66.7711 75.1746 67.0703 74.9456 67.3024 74.6557C67.5462 74.3274 67.6692 73.9251 67.6507 73.5166C67.6571 73.3044 67.6178 73.0933 67.5357 72.8976C67.4535 72.7019 67.3303 72.526 67.1744 72.382ZM65.6836 73.2807C65.8735 73.2807 66.006 73.3178 66.0701 73.3863C66.1349 73.4541 66.1715 73.5441 66.1723 73.6379C66.1723 73.9098 66.0285 74.1019 65.7229 74.2434C65.4174 74.385 64.9163 74.476 64.2479 74.5119C64.288 74.386 64.3399 74.2641 64.4029 74.148C64.493 73.9789 64.6064 73.8235 64.74 73.6862C64.8654 73.5604 65.0132 73.4591 65.1758 73.3874C65.3357 73.3165 65.5087 73.2802 65.6836 73.2807Z" fill="#FFD900"/>
<path d="M69.4957 75.7414C69.4842 75.8225 69.4782 75.9044 69.4778 75.9863C69.4774 76.0543 69.4846 76.1221 69.4991 76.1885C69.5082 76.2357 69.53 76.2796 69.562 76.3155C69.6052 76.3594 69.6584 76.3922 69.717 76.411C69.826 76.4452 69.94 76.4604 70.0541 76.4559C70.2161 76.4564 70.3775 76.4349 70.5338 76.3919C70.6785 76.3523 70.8207 76.3039 70.9595 76.2469L71.1707 76.1582L71.2943 77.4894L71.182 77.5377C70.9838 77.6205 70.7794 77.6877 70.5708 77.7388C70.2854 77.8071 69.9925 77.8395 69.6991 77.8354C69.0756 77.8354 68.6161 77.6905 68.3353 77.4052C68.0544 77.1198 67.9129 76.7311 67.9129 76.2492C67.9132 76.074 67.9256 75.8991 67.9499 75.7257C67.9776 75.5348 68.0151 75.3454 68.0623 75.1584L69.1216 70.6985L70.7584 70.439L70.3619 72.0724H72.0942L71.7695 73.4205H70.0361L69.5643 75.3887C69.5294 75.528 69.5081 75.647 69.4957 75.7414Z" fill="#FFD900"/>
<path d="M73.5532 75.7414C73.5421 75.823 73.5361 75.9051 73.5352 75.9874C73.5355 76.055 73.5426 76.1224 73.5566 76.1885C73.5661 76.2356 73.5878 76.2793 73.6195 76.3155C73.6633 76.3592 73.7168 76.3919 73.7756 76.411C73.8846 76.4452 73.9986 76.4604 74.1126 76.4559C74.2751 76.4565 74.4368 76.435 74.5935 76.3919C74.7379 76.3523 74.8797 76.3039 75.0181 76.2469L75.2304 76.1582L75.354 77.4894L75.2417 77.5388C75.0428 77.6207 74.8382 77.6875 74.6294 77.7388C74.3443 77.8071 74.0519 77.8395 73.7588 77.8354C73.1342 77.8354 72.6758 77.6905 72.395 77.4052C72.1141 77.1198 71.9715 76.7311 71.9726 76.2492C71.9729 76.074 71.9853 75.8991 72.0097 75.7257C72.0373 75.5348 72.0748 75.3454 72.122 75.1584L73.1814 70.6985L74.817 70.439L74.4205 72.0713H76.1516L75.8281 73.4193H74.0936L73.6184 75.3842C73.588 75.528 73.5656 75.647 73.5532 75.7414Z" fill="#FFD900"/>
<path d="M80.5836 72.3856C80.4224 72.2365 80.2308 72.1242 80.0219 72.0564C79.7813 71.9792 79.5298 71.9412 79.2771 71.9441C78.8017 71.9376 78.3315 72.0442 77.9055 72.2553C77.506 72.4577 77.1521 72.7394 76.8652 73.0832C76.5759 73.4319 76.3528 73.8305 76.2069 74.2594C76.0568 74.6988 75.9808 75.1601 75.9822 75.6244C75.9802 75.9118 76.0242 76.1978 76.1125 76.4714C76.1993 76.7447 76.3469 76.9949 76.5442 77.2031C76.7415 77.4113 76.9834 77.5721 77.2517 77.6734C77.582 77.7964 77.9328 77.8555 78.2852 77.8476C78.6385 77.8525 78.9912 77.8148 79.3356 77.7352C79.5812 77.6788 79.8214 77.601 80.0534 77.5027L80.1657 77.4521L80.0253 76.1164L79.8164 76.2029C79.4015 76.3774 78.9565 76.469 78.5065 76.4725C77.6336 76.4725 77.5156 76.0614 77.5112 75.7412C77.8965 75.7255 78.2796 75.6929 78.6536 75.6446C79.06 75.5976 79.4574 75.4916 79.8332 75.33C80.1757 75.1825 80.4772 74.9539 80.7117 74.6639C80.9556 74.3364 81.0794 73.9349 81.0622 73.527C81.0691 73.3135 81.0299 73.1011 80.9473 72.9041C80.8647 72.7072 80.7407 72.5303 80.5836 72.3856ZM79.0929 73.2843C79.2816 73.2843 79.4153 73.3214 79.4782 73.3967C79.5441 73.4639 79.5812 73.5542 79.5816 73.6483C79.5816 73.919 79.4378 74.1123 79.1322 74.2538C78.8267 74.3954 78.3256 74.4807 77.6516 74.5156C77.6914 74.3899 77.7433 74.2684 77.8066 74.1527C77.8962 73.9831 78.0097 73.8272 78.1436 73.6899C78.269 73.5644 78.4163 73.4631 78.5784 73.391C78.7403 73.3193 78.9157 73.2829 79.0929 73.2843Z" fill="#FFD900"/>
<path d="M85.6749 72.2168L85.2143 73.5447L85.0559 73.4896C84.9223 73.4432 84.7852 73.4079 84.6458 73.384C84.4738 73.3574 84.2998 73.345 84.1257 73.3469C84.0111 73.3475 83.8967 73.3554 83.7831 73.3705C83.714 73.379 83.6454 73.391 83.5775 73.4065L82.5518 77.7068H80.9791L82.2665 72.3595L82.3552 72.3291C82.6634 72.2279 82.9769 72.1439 83.2944 72.0775C83.6579 72.0013 84.0284 71.9636 84.3998 71.9652C84.4886 71.9652 84.5852 71.9708 84.6919 71.9809C84.7986 71.991 84.8964 72.0034 84.9963 72.0168C85.0963 72.0303 85.1986 72.0505 85.2862 72.0708C85.3705 72.0901 85.4529 72.1172 85.5322 72.1517L85.6749 72.2168Z" fill="#FFD900"/>
<path d="M61.3626 79.6947L61.2671 79.9272C60.7357 81.2259 60.1909 82.4706 59.6472 83.6345C59.1035 84.7983 58.5238 85.9138 57.9126 86.9653L57.8643 87.0496H56.3826L56.3612 86.9058C56.3073 86.5418 56.2556 86.1834 56.2051 85.8329C56.1545 85.4824 56.1074 85.1196 56.0647 84.7612C56.022 84.4029 55.9804 84.0299 55.9433 83.6547C55.9242 83.4581 55.904 83.2525 55.886 83.0413C55.5546 83.6468 55.2255 84.2377 54.9042 84.8039C54.493 85.5296 54.0504 86.2643 53.5898 86.9732L53.5404 87.0496H52.0541L52.0407 86.8968C51.9879 86.3115 51.9497 85.7195 51.9283 85.1376C51.907 84.5556 51.8946 83.9569 51.8946 83.3502C51.8946 82.2448 51.9328 81.0709 52.007 79.8587L52.0171 79.7003H53.6303L53.619 79.8801C53.5786 80.5283 53.5438 81.1765 53.5179 81.8044C53.4921 82.4324 53.4775 83.0851 53.4775 83.7344V84.468C53.4775 84.5242 53.4775 84.5804 53.4775 84.6377C53.5898 84.4422 53.7134 84.2422 53.8314 84.0389C54.056 83.6603 54.274 83.2727 54.4897 82.884C54.7054 82.4953 54.9166 82.0977 55.1221 81.7135C55.3277 81.3293 55.5221 80.9484 55.7041 80.5901L55.7512 80.4979H57.1274L57.1353 80.6575C57.1555 81.0214 57.1813 81.4056 57.2105 81.7966C57.2397 82.1875 57.2768 82.5897 57.3161 82.9818C57.3554 83.3738 57.397 83.7614 57.4375 84.1389C57.4554 84.3119 57.4745 84.4759 57.4925 84.6433C57.6048 84.4253 57.7172 84.1939 57.8295 83.9591C58.0317 83.5311 58.2362 83.0851 58.4361 82.6324C58.6361 82.1797 58.8395 81.7 59.0327 81.2248C59.2259 80.7496 59.4158 80.2733 59.5944 79.8059L59.6359 79.6936L61.3626 79.6947Z" fill="#FFD900"/>
<path d="M65.0916 81.723C64.7771 81.4309 64.3367 81.2826 63.7829 81.2826C63.3074 81.2765 62.8372 81.3835 62.4112 81.5949C62.0121 81.7969 61.6585 82.0783 61.3721 82.4218C61.0827 82.7702 60.8599 83.1689 60.7149 83.5979C60.5648 84.0373 60.4888 84.4986 60.4902 84.9629C60.4882 85.2504 60.5322 85.5363 60.6205 85.8099C60.707 86.0832 60.8541 86.3335 61.051 86.5418C61.2479 86.7502 61.4894 86.9113 61.7574 87.0131C62.088 87.1351 62.4386 87.1938 62.7909 87.1861C63.145 87.191 63.4984 87.1533 63.8435 87.0737C64.0894 87.0175 64.3296 86.9393 64.5614 86.8401L64.6737 86.7906L64.5367 85.4538L64.3277 85.5403C63.9127 85.7157 63.4673 85.8077 63.0167 85.811C62.1438 85.811 62.0259 85.3999 62.0214 85.0797C62.4056 85.0629 62.7898 85.0303 63.1639 84.9831C63.5706 84.9347 63.9683 84.828 64.3446 84.6663C64.687 84.5186 64.9882 84.2896 65.222 83.999C65.4664 83.6698 65.5895 83.2661 65.5702 82.8565C65.5761 82.6443 65.5364 82.4334 65.4538 82.2379C65.3713 82.0423 65.2478 81.8668 65.0916 81.723ZM63.6009 82.6217C63.7896 82.6217 63.9233 82.6588 63.9873 82.7341C64.0525 82.8017 64.0891 82.8918 64.0896 82.9857C64.0896 83.2564 63.9458 83.4497 63.6402 83.5912C63.3346 83.7328 62.8336 83.8237 62.1663 83.8597C62.206 83.7338 62.2576 83.6119 62.3202 83.4957C62.41 83.3265 62.5235 83.171 62.6572 83.034C62.7829 82.9082 62.9307 82.8065 63.0931 82.7341C63.2526 82.6612 63.4256 82.623 63.6009 82.6217Z" fill="#FFD900"/>
<path d="M68.8569 79.9366C68.8607 80.0751 68.8342 80.2129 68.7793 80.3401C68.7244 80.4674 68.6424 80.5812 68.539 80.6735C68.3468 80.8541 68.0928 80.9546 67.829 80.9544C67.6181 80.9583 67.4125 80.8879 67.2482 80.7555C67.1587 80.6808 67.0879 80.586 67.0416 80.4789C66.9954 80.3718 66.975 80.2553 66.982 80.1388C66.9783 80.0004 67.0042 79.8628 67.0578 79.7351C67.1115 79.6075 67.1917 79.4927 67.2932 79.3985C67.4818 79.2126 67.7362 79.1088 68.0009 79.1098C68.2143 79.1071 68.4218 79.1795 68.5873 79.3142C68.6776 79.3899 68.7489 79.4855 68.7957 79.5935C68.8425 79.7016 68.8635 79.819 68.8569 79.9366Z" fill="#FFD900"/>
<path d="M68.4035 81.4152L67.0476 87.0434H65.4771L66.833 81.4152H68.4035Z" fill="#FFD900"/>
<path d="M73.9783 81.6781C73.7143 81.5377 73.4306 81.4381 73.1368 81.3827C72.8546 81.3256 72.5676 81.2959 72.2797 81.2939C71.7681 81.2879 71.2598 81.3775 70.7811 81.5579C70.3474 81.7227 69.9516 81.9733 69.6172 82.2949C69.2923 82.6138 69.0365 82.9962 68.8657 83.4183C68.6857 83.8663 68.5953 84.3453 68.5994 84.8281C68.5994 85.4011 68.759 85.8695 69.0724 86.22C69.3858 86.5705 69.8779 86.757 70.5193 86.757C70.7381 86.7578 70.9557 86.7264 71.1653 86.6638C71.2327 86.6436 71.2978 86.6222 71.3596 86.5997C71.2854 86.8575 71.143 87.0903 70.9473 87.2738C70.7227 87.4737 70.3856 87.5748 69.9363 87.5748C69.6736 87.5785 69.4117 87.5464 69.1578 87.4794C68.9506 87.4239 68.7516 87.3415 68.5657 87.2345L68.4017 87.1367L67.8277 88.4455L67.9659 88.5196C68.2161 88.6488 68.4798 88.7502 68.7522 88.8218C69.0825 88.9063 69.4224 88.9471 69.7633 88.9431C70.2058 88.952 70.6473 88.8952 71.0732 88.7746C71.4168 88.6735 71.7355 88.5017 72.009 88.2702C72.2686 88.0411 72.4775 87.7602 72.6223 87.4457C72.7832 87.0962 72.9074 86.731 72.993 86.356L74.0951 81.7377L73.9783 81.6781ZM70.8204 85.4314C70.571 85.4314 70.4036 85.3707 70.3081 85.2449C70.1927 85.0687 70.1375 84.8598 70.1509 84.6495C70.1489 84.385 70.1966 84.1225 70.2913 83.8755C70.381 83.6429 70.514 83.4294 70.6833 83.2464C70.8586 83.0582 71.0715 82.9089 71.3082 82.8082C71.5449 82.7076 71.8001 82.6579 72.0573 82.6622C72.1407 82.6623 72.224 82.668 72.3067 82.6791L71.7113 85.1506C71.5921 85.2327 71.462 85.2977 71.3248 85.3438C71.1628 85.4012 70.9923 85.4308 70.8204 85.4314Z" fill="#FFD900"/>
<path d="M79.4471 83.172C79.4446 83.4965 79.4023 83.8195 79.3213 84.1336L78.6225 87.0432H77.0498L77.7362 84.1842C77.7687 84.0337 77.8024 83.8753 77.8361 83.7135C77.8662 83.5754 77.882 83.4346 77.8833 83.2934C77.89 83.1287 77.8396 82.9668 77.7407 82.835C77.6362 82.7002 77.389 82.6721 77.2003 82.6721C77.0742 82.6724 76.9483 82.6833 76.824 82.7047C76.733 82.7215 76.6487 82.7395 76.5712 82.7597L75.5601 87.0432H73.9874L75.8972 79.0772L77.5317 78.8177L76.9138 81.4016L77.0947 81.3656C77.2598 81.3335 77.4276 81.3173 77.5957 81.3173C77.8768 81.3111 78.1566 81.358 78.4203 81.4555C78.6426 81.5402 78.843 81.6738 79.0067 81.8464C79.1636 82.0183 79.2789 82.2239 79.3437 82.4474C79.4142 82.6825 79.449 82.9267 79.4471 83.172Z" fill="#FFD900"/>
<path d="M81.5986 85.3609L81.584 85.5417C81.5388 86.1144 81.3779 86.672 81.1111 87.1808C80.8481 87.6921 80.5289 88.1725 80.1596 88.6131L80.0865 88.6985L78.8991 88.3266L79.0182 88.1402C79.2773 87.7331 79.4923 87.2997 79.6597 86.8471C79.8225 86.4201 79.9246 85.9724 79.963 85.517L79.9753 85.3609H81.5986Z" fill="#FFD900"/>
<path d="M87.1021 79.6936L85.3417 87.0428H83.7206L85.481 79.6936H87.1021Z" fill="#FFD900"/>
<path d="M92.0305 83.1521C92.0298 83.3108 92.0174 83.4693 91.9934 83.6262C91.9698 83.788 91.9406 83.9553 91.9058 84.1261L91.2059 87.0469H89.6332L90.3072 84.189C90.3398 84.043 90.3735 83.8913 90.4072 83.7397C90.4375 83.6025 90.4566 83.4631 90.4645 83.3229C90.4774 83.1531 90.4305 82.9842 90.3319 82.8454C90.2488 82.7331 90.0556 82.6792 89.7702 82.6792C89.566 82.6764 89.3621 82.6967 89.1625 82.7398L88.1402 87.0503H86.5674L87.8537 81.6793L87.947 81.6513C88.2199 81.5693 88.5367 81.4917 88.8872 81.4198C89.2731 81.3433 89.6656 81.3057 90.0589 81.3075C90.7251 81.3075 91.225 81.4771 91.5474 81.8142C91.8699 82.1512 92.0305 82.5972 92.0305 83.1521Z" fill="#FFD900"/>
<path d="M97.4521 81.6301L96.8803 82.9186L96.7264 82.8501C96.6028 82.7969 96.4755 82.7526 96.3456 82.7176C96.1812 82.6777 96.0125 82.6592 95.8434 82.6625C95.5982 82.6589 95.3556 82.7135 95.1357 82.822C94.9274 82.9265 94.7442 83.0748 94.5987 83.2568C94.4441 83.4551 94.3272 83.6802 94.2538 83.9207C94.1704 84.1895 94.1287 84.4695 94.1302 84.7509C94.1286 84.8985 94.1456 85.0457 94.1808 85.189C94.2088 85.3066 94.2608 85.4172 94.3336 85.5137C94.4059 85.6061 94.5023 85.6769 94.6122 85.7181C94.7701 85.7753 94.9375 85.802 95.1053 85.7968C95.3135 85.7972 95.5207 85.7684 95.721 85.7114C95.8788 85.6701 96.0323 85.6137 96.1793 85.5429L96.404 85.4306L96.5422 86.7988L96.4354 86.8494C96.2275 86.9431 96.0117 87.0182 95.7906 87.0741C95.4919 87.1527 95.1839 87.1905 94.875 87.1864C94.5251 87.1938 94.1771 87.1327 93.8505 87.0067C93.5733 86.8967 93.3233 86.7276 93.118 86.5113C92.9218 86.2986 92.7745 86.0455 92.6867 85.7698C92.5945 85.4793 92.549 85.1759 92.5519 84.8711C92.5493 84.4063 92.6252 83.9445 92.7765 83.5051C92.9204 83.085 93.1423 82.6959 93.4304 82.3581C93.7194 82.0239 94.0768 81.7558 94.4785 81.5717C94.9202 81.3741 95.4 81.276 95.8839 81.2841C96.1375 81.2824 96.3908 81.3058 96.6399 81.3538C96.8665 81.3985 97.0873 81.4686 97.2982 81.5627L97.4521 81.6301Z" fill="#FFD900"/>
<path d="M56.6438 90.8071C56.682 90.8767 56.7258 90.9621 56.7752 91.0632C56.8247 91.1655 56.8764 91.2756 56.9303 91.3946C56.9842 91.5137 57.037 91.6339 57.0898 91.7586C57.1426 91.8833 57.1909 91.999 57.2381 92.108L57.3864 91.7586C57.4392 91.6339 57.492 91.5126 57.5459 91.3946C57.5998 91.2767 57.6504 91.17 57.7009 91.0632C57.7515 90.9565 57.793 90.8767 57.8312 90.8071H58.2806C58.3019 90.952 58.321 91.1138 58.339 91.2935C58.357 91.4733 58.3727 91.6598 58.3862 91.8552C58.3997 92.0507 58.4132 92.2439 58.4244 92.4394C58.4356 92.6349 58.4457 92.818 58.4536 92.991H57.975C57.9694 92.7787 57.9604 92.5472 57.9503 92.2978C57.9402 92.0485 57.9245 91.7957 57.9031 91.5418C57.8649 91.6305 57.8234 91.7272 57.7762 91.835C57.729 91.9428 57.6841 92.0484 57.6391 92.1563C57.5942 92.2641 57.5504 92.3652 57.5077 92.463L57.3954 92.7135H57.0516L56.9449 92.463C56.9022 92.3649 56.8584 92.2626 56.8134 92.1563C56.7674 92.044 56.7224 91.9417 56.6753 91.835L56.5494 91.5418C56.5285 91.7957 56.5127 92.0477 56.5023 92.2978C56.4921 92.5472 56.4832 92.7787 56.4775 92.991H55.9979C56.0068 92.818 56.017 92.6349 56.0282 92.4394C56.0394 92.2439 56.0529 92.0496 56.0664 91.8552C56.0799 91.6609 56.0956 91.4744 56.1136 91.2935C56.1315 91.1127 56.1506 90.9565 56.172 90.8071H56.6438Z" fill="#55A301"/>
<path d="M58.7797 92.1734C58.7769 92.0414 58.7998 91.9102 58.8471 91.7869C58.8873 91.684 58.9481 91.5903 59.0257 91.5117C59.0974 91.4389 59.1835 91.3818 59.2785 91.3443C59.3723 91.3074 59.4721 91.2884 59.5728 91.2881C59.6764 91.2823 59.78 91.2986 59.8768 91.3357C59.9736 91.3729 60.0615 91.4302 60.1345 91.5038C60.2823 91.681 60.3556 91.9085 60.339 92.1385C60.339 92.1655 60.339 92.1958 60.339 92.2284C60.339 92.261 60.339 92.2891 60.3323 92.3149H59.2684C59.273 92.36 59.2874 92.4035 59.3107 92.4423C59.334 92.4812 59.3656 92.5144 59.4032 92.5396C59.4987 92.601 59.6111 92.6309 59.7245 92.625C59.8097 92.6251 59.8947 92.6172 59.9784 92.6014C60.0482 92.5897 60.1164 92.5701 60.1817 92.543L60.2446 92.9238C60.2123 92.94 60.1785 92.9528 60.1435 92.962C60.0974 92.9756 60.0505 92.9864 60.0031 92.9946C59.9485 93.0053 59.8934 93.0131 59.838 93.0182C59.7794 93.0249 59.7205 93.0283 59.6616 93.0283C59.529 93.0309 59.3971 93.0084 59.2729 92.962C59.1695 92.9223 59.076 92.8606 58.9988 92.7811C58.9257 92.7031 58.8709 92.6099 58.8381 92.5082C58.8009 92.4004 58.7812 92.2874 58.7797 92.1734ZM59.8818 91.9936C59.8793 91.9555 59.8725 91.9179 59.8616 91.8813C59.8507 91.8443 59.8323 91.8099 59.8076 91.7802C59.7827 91.7501 59.7517 91.7256 59.7166 91.7083C59.6739 91.6881 59.6269 91.6785 59.5796 91.6802C59.533 91.6793 59.4867 91.6881 59.4436 91.706C59.4075 91.7231 59.3754 91.7476 59.3493 91.7779C59.3239 91.8081 59.3045 91.8428 59.292 91.8802C59.2783 91.9166 59.2681 91.9542 59.2617 91.9925L59.8818 91.9936Z" fill="#55A301"/>
<path d="M62.1592 92.9358C62.1176 92.9482 62.0693 92.9605 62.0143 92.9718C61.9592 92.983 61.9019 92.9931 61.8424 93.0021C61.7829 93.0111 61.7222 93.0167 61.6604 93.0223C61.5986 93.0279 61.5391 93.0302 61.4818 93.0302C61.3575 93.032 61.2339 93.0118 61.1167 92.9706C61.015 92.9337 60.9226 92.875 60.846 92.7988C60.7712 92.7215 60.7138 92.6292 60.6774 92.528C60.6368 92.4134 60.617 92.2924 60.619 92.1708C60.6174 92.0476 60.6344 91.9249 60.6696 91.8068C60.6992 91.7064 60.7485 91.6128 60.8145 91.5316C60.8768 91.4561 60.9561 91.3964 61.0459 91.3574C61.1452 91.3164 61.2519 91.2961 61.3593 91.2979C61.4183 91.2974 61.4771 91.3038 61.5346 91.317C61.5878 91.3301 61.6397 91.3481 61.6896 91.3709V90.6216L62.1592 90.5452V92.9358ZM61.0976 92.1494C61.0915 92.2734 61.1258 92.396 61.1953 92.4988C61.2291 92.5429 61.2732 92.578 61.3238 92.6009C61.3743 92.6238 61.4298 92.6339 61.4852 92.6302C61.5267 92.6302 61.566 92.6302 61.5975 92.6302C61.629 92.6302 61.6627 92.6235 61.6851 92.619V91.7652C61.6501 91.7442 61.6123 91.7283 61.5728 91.718C61.5259 91.7056 61.4775 91.6991 61.429 91.6989C61.2081 91.6959 61.0976 91.8457 61.0976 92.1483V92.1494Z" fill="#55A301"/>
<path d="M63.114 90.854C63.1161 90.892 63.1098 90.9299 63.0954 90.9651C63.081 91.0002 63.059 91.0318 63.0309 91.0574C62.9766 91.1052 62.9067 91.1315 62.8343 91.1315C62.7619 91.1315 62.6921 91.1052 62.6377 91.0574C62.5838 91.0034 62.5535 90.9303 62.5535 90.854C62.5535 90.7778 62.5838 90.7046 62.6377 90.6507C62.6921 90.6029 62.7619 90.5765 62.8343 90.5765C62.9067 90.5765 62.9766 90.6029 63.0309 90.6507C63.059 90.6763 63.081 90.7078 63.0954 90.743C63.1098 90.7782 63.1161 90.8161 63.114 90.854ZM63.0702 92.9885H62.5984V91.3326H63.068L63.0702 92.9885Z" fill="#55A301"/>
<path d="M63.4306 92.1603C63.43 92.0455 63.4494 91.9314 63.4879 91.8233C63.5242 91.7195 63.5819 91.6245 63.6571 91.5444C63.7324 91.4643 63.8236 91.4009 63.9249 91.3582C64.0383 91.3106 64.1604 91.2873 64.2833 91.2897C64.3648 91.2889 64.4461 91.2968 64.5259 91.3133C64.5994 91.3289 64.6713 91.3515 64.7405 91.3807L64.6428 91.7559C64.5954 91.7381 64.547 91.7231 64.4979 91.7109C64.4399 91.6982 64.3808 91.6922 64.3215 91.693C64.2633 91.6885 64.2048 91.6978 64.1509 91.7203C64.097 91.7428 64.0492 91.7777 64.0114 91.8221C63.9397 91.9194 63.9036 92.0384 63.9092 92.1592C63.9014 92.2823 63.935 92.4045 64.0047 92.5063C64.0476 92.5513 64.1004 92.5858 64.1588 92.607C64.2173 92.6283 64.2799 92.6357 64.3417 92.6287C64.4027 92.6281 64.4635 92.6229 64.5237 92.613C64.5855 92.604 64.6459 92.587 64.7034 92.5625L64.7697 92.9467C64.7039 92.9738 64.6353 92.9937 64.5653 93.0062C64.4761 93.0239 64.3854 93.0326 64.2945 93.032C64.1611 93.0353 64.0283 93.0124 63.9036 92.9646C63.8014 92.9236 63.7093 92.8607 63.634 92.7804C63.5629 92.7007 63.5104 92.6064 63.4801 92.5041C63.4465 92.3926 63.4298 92.2767 63.4306 92.1603Z" fill="#55A301"/>
<path d="M65.6021 91.2886C65.7196 91.2856 65.8368 91.3016 65.9492 91.3358C66.0341 91.3614 66.1113 91.4077 66.1739 91.4706C66.2287 91.5316 66.2674 91.6054 66.2863 91.6852C66.3106 91.7767 66.3223 91.8712 66.3211 91.966V92.9422C66.2537 92.9568 66.1604 92.9737 66.0413 92.9939C65.8975 93.0154 65.7521 93.0252 65.6066 93.0231C65.5085 93.0242 65.4106 93.0148 65.3145 92.995C65.2345 92.9789 65.1582 92.9476 65.0898 92.9029C65.0278 92.8602 64.9779 92.8021 64.9449 92.7344C64.909 92.6539 64.8917 92.5664 64.8944 92.4783C64.8916 92.3929 64.9118 92.3083 64.9528 92.2334C64.9904 92.1675 65.0442 92.1122 65.1089 92.0727C65.1782 92.031 65.2542 92.0017 65.3336 91.9862C65.4197 91.968 65.5074 91.959 65.5954 91.9593C65.6494 91.9587 65.7034 91.9614 65.7571 91.9671C65.795 91.9713 65.8325 91.9781 65.8695 91.9873V91.9435C65.8712 91.9083 65.8657 91.8731 65.8533 91.8401C65.8409 91.807 65.822 91.7769 65.7976 91.7514C65.7259 91.6953 65.6353 91.6691 65.5448 91.6784C65.4658 91.6787 65.387 91.6847 65.3089 91.6964C65.2404 91.7057 65.1731 91.7219 65.1078 91.7447L65.0483 91.3672C65.0818 91.3564 65.116 91.3474 65.1505 91.3403C65.1909 91.3313 65.2359 91.3223 65.2842 91.3156C65.3325 91.3088 65.383 91.301 65.437 91.2965C65.4918 91.2909 65.547 91.2883 65.6021 91.2886ZM65.6403 92.6614C65.6864 92.6614 65.7302 92.6614 65.7729 92.6614C65.8063 92.6603 65.8397 92.6573 65.8728 92.6524V92.2929C65.8537 92.2929 65.8257 92.285 65.7886 92.2806C65.7539 92.2763 65.719 92.274 65.6841 92.2738C65.6424 92.274 65.6008 92.2767 65.5594 92.2817C65.5239 92.2863 65.4894 92.2965 65.4572 92.312C65.428 92.3255 65.4035 92.3473 65.3867 92.3747C65.3699 92.4021 65.3616 92.4338 65.3628 92.4659C65.3595 92.4958 65.3648 92.526 65.3779 92.553C65.391 92.58 65.4115 92.6028 65.437 92.6187C65.4998 92.6506 65.5699 92.6653 65.6403 92.6614Z" fill="#55A301"/>
<path d="M67.4092 93.0212C67.2971 93.0226 67.1855 93.0074 67.0778 92.9762C67.0024 92.9555 66.933 92.917 66.8756 92.8639C66.826 92.8144 66.791 92.7522 66.7745 92.6842C66.756 92.6065 66.7474 92.5269 66.7487 92.4471V90.6216L67.2171 90.5452V92.3505C67.2167 92.3882 67.2201 92.4258 67.2272 92.4629C67.2317 92.4939 67.2441 92.5233 67.2632 92.5482C67.2836 92.5737 67.3104 92.5934 67.3407 92.6055C67.3838 92.6221 67.4293 92.6316 67.4755 92.6336L67.4092 93.0212Z" fill="#55A301"/>
<path d="M69.9943 91.0399C70.019 91.1264 70.0471 91.223 70.0775 91.332C70.1078 91.4409 70.1404 91.551 70.1752 91.669C70.21 91.787 70.2449 91.9004 70.2797 92.0161C70.3145 92.1318 70.3504 92.2408 70.3842 92.3374C70.4111 92.2251 70.4392 92.1127 70.4673 91.9869C70.4954 91.8611 70.5235 91.7308 70.5482 91.5971C70.5729 91.4634 70.5987 91.3286 70.6223 91.1949C70.6459 91.0612 70.6695 90.9332 70.6908 90.8096H71.2009C71.126 91.1751 71.041 91.5454 70.9459 91.9206C70.8507 92.2959 70.7466 92.6531 70.6335 92.9924H70.1842C70.11 92.7901 70.0393 92.579 69.9696 92.3576C69.9 92.1363 69.8326 91.9139 69.7652 91.6915C69.6978 91.9161 69.6315 92.1408 69.5641 92.3576C69.4967 92.5745 69.4259 92.7901 69.3529 92.9924H68.9035C68.7912 92.6546 68.6875 92.2973 68.5923 91.9206C68.4972 91.5439 68.4122 91.1736 68.3373 90.8096H68.8698C68.8912 90.9332 68.9136 91.0624 68.9395 91.1949C68.9653 91.3275 68.9911 91.4623 69.0181 91.5971C69.0451 91.7319 69.0731 91.8611 69.1024 91.9869C69.1316 92.1127 69.1596 92.2296 69.1889 92.3374C69.2271 92.2341 69.2641 92.1251 69.3012 92.0094C69.3383 91.8937 69.3708 91.778 69.4045 91.6634C69.4383 91.5488 69.4697 91.4387 69.4978 91.3264C69.5259 91.214 69.5517 91.1242 69.5753 91.0399H69.9943Z" fill="#55A301"/>
<path d="M71.2996 92.1734C71.2968 92.0414 71.3197 91.9102 71.367 91.787C71.4076 91.6842 71.4683 91.5906 71.5456 91.5117C71.6177 91.4389 71.7042 91.3818 71.7995 91.3443C71.8933 91.3074 71.9931 91.2883 72.0939 91.2882C72.1974 91.2823 72.3011 91.2985 72.3979 91.3357C72.4947 91.3729 72.5825 91.4302 72.6556 91.5039C72.8033 91.681 72.8766 91.9085 72.86 92.1386C72.86 92.1655 72.86 92.1959 72.86 92.2284C72.86 92.261 72.86 92.2891 72.8544 92.315H71.7894C71.7942 92.3601 71.8088 92.4036 71.8323 92.4424C71.8558 92.4813 71.8876 92.5145 71.9254 92.5396C72.0208 92.6012 72.1332 92.6311 72.2466 92.625C72.3315 92.6251 72.4161 92.6172 72.4994 92.6014C72.5692 92.5897 72.6374 92.5701 72.7027 92.543L72.7657 92.9238C72.7334 92.94 72.6995 92.9528 72.6645 92.962C72.6188 92.9756 72.5723 92.9865 72.5252 92.9946C72.4736 93.0043 72.4185 93.0122 72.3601 93.0182C72.3016 93.0249 72.2427 93.0283 72.1837 93.0283C72.0508 93.031 71.9185 93.0085 71.7939 92.962C71.6905 92.9223 71.597 92.8606 71.5198 92.7812C71.4468 92.7031 71.3919 92.6099 71.3592 92.5082C71.3221 92.4003 71.302 92.2874 71.2996 92.1734ZM72.4017 91.9937C72.3997 91.9555 72.3929 91.9178 72.3815 91.8813C72.3705 91.8445 72.3526 91.8102 72.3287 91.7802C72.303 91.7504 72.2717 91.7259 72.2365 91.7083C72.1938 91.688 72.1468 91.6784 72.0995 91.6802C72.0532 91.6792 72.0073 91.688 71.9647 91.7061C71.9282 91.7226 71.8959 91.7472 71.8703 91.778C71.8442 91.8078 71.8243 91.8426 71.8119 91.8802C71.7987 91.9167 71.7885 91.9543 71.7816 91.9925L72.4017 91.9937Z" fill="#55A301"/>
<path d="M73.7344 90.854C73.7365 90.892 73.7301 90.9299 73.7157 90.9651C73.7014 91.0002 73.6793 91.0318 73.6513 91.0574C73.5969 91.1052 73.527 91.1315 73.4547 91.1315C73.3823 91.1315 73.3124 91.1052 73.2581 91.0574C73.2042 91.0034 73.1739 90.9303 73.1739 90.854C73.1739 90.7778 73.2042 90.7046 73.2581 90.6507C73.3124 90.6029 73.3823 90.5765 73.4547 90.5765C73.527 90.5765 73.5969 90.6029 73.6513 90.6507C73.6793 90.6763 73.7014 90.7078 73.7157 90.743C73.7301 90.7782 73.7365 90.8161 73.7344 90.854ZM73.6906 92.9885H73.221V91.3326H73.6906V92.9885Z" fill="#55A301"/>
<path d="M75.5601 92.7817C75.5601 93.0521 75.4916 93.2528 75.3545 93.3838C75.2175 93.5149 75.0048 93.5808 74.7165 93.5816C74.6151 93.5815 74.514 93.5725 74.4143 93.5546C74.319 93.5381 74.2251 93.5144 74.1334 93.4838L74.2154 93.0895C74.2903 93.1198 74.3677 93.1431 74.4468 93.1592C74.5379 93.1768 74.6305 93.1851 74.7232 93.1839C74.774 93.1891 74.8254 93.184 74.8742 93.169C74.923 93.1539 74.9683 93.1292 75.0074 93.0963C75.0641 93.0354 75.0944 92.9547 75.0917 92.8716V92.812C75.0416 92.8348 74.9893 92.8521 74.9355 92.8637C74.8779 92.8757 74.8191 92.8817 74.7603 92.8817C74.6631 92.8878 74.5659 92.8727 74.4751 92.8376C74.3844 92.8025 74.3023 92.7482 74.2345 92.6784C74.1048 92.5183 74.0399 92.3155 74.0525 92.1099C74.0501 91.9951 74.0691 91.8808 74.1087 91.7729C74.1448 91.6764 74.2011 91.5886 74.2738 91.5156C74.3502 91.4428 74.4409 91.3865 74.5401 91.3505C74.6545 91.3104 74.775 91.2906 74.8962 91.2921C74.9524 91.2921 75.0085 91.2921 75.0703 91.2999C75.1321 91.3078 75.1905 91.3123 75.2489 91.3213C75.3074 91.3303 75.3613 91.3393 75.4174 91.3505C75.4736 91.3617 75.5186 91.3741 75.5601 91.3876V92.7817ZM74.5311 92.1077C74.5311 92.3698 74.6371 92.5009 74.849 92.5009C74.8947 92.5016 74.9402 92.4952 74.9838 92.4818C75.0229 92.4716 75.0606 92.4569 75.0962 92.4379V91.6886C75.0726 91.6886 75.0456 91.6808 75.0142 91.6774C74.9767 91.6754 74.9392 91.6754 74.9018 91.6774C74.8491 91.6734 74.7961 91.6825 74.7477 91.7038C74.6993 91.7252 74.6569 91.7582 74.6243 91.7999C74.561 91.8898 74.5283 91.9977 74.5311 92.1077Z" fill="#55A301"/>
<path d="M76.0006 92.9897V90.6216L76.4702 90.5452V91.3395C76.5555 91.3117 76.6445 91.2965 76.7342 91.2945C76.849 91.2913 76.9634 91.31 77.0712 91.3496C77.1547 91.3823 77.2282 91.4361 77.2847 91.5057C77.3397 91.576 77.3781 91.6578 77.397 91.745C77.4204 91.8463 77.4317 91.95 77.4307 92.0539V92.9897H76.9611V92.1112C76.9697 92.0009 76.9496 91.8902 76.9027 91.7899C76.8785 91.7562 76.8458 91.7296 76.8079 91.7128C76.7699 91.696 76.7282 91.6897 76.687 91.6945C76.6474 91.6946 76.608 91.6984 76.5691 91.7057L76.4702 91.7293V92.9897H76.0006Z" fill="#55A301"/>
<path d="M77.8401 90.9212L78.3096 90.8459V91.3335H78.8713V91.7244H78.3096V92.3064C78.3056 92.3885 78.3235 92.4703 78.3613 92.5434C78.3853 92.5752 78.4172 92.6001 78.4539 92.6155C78.4907 92.6309 78.5308 92.6362 78.5703 92.631C78.6227 92.6311 78.6749 92.6262 78.7264 92.6164C78.7766 92.6081 78.8259 92.5949 78.8736 92.5771L78.9387 92.9433C78.8773 92.9676 78.8143 92.9875 78.75 93.0029C78.6663 93.0211 78.5807 93.0294 78.495 93.0276C78.3867 93.0311 78.2787 93.0135 78.1771 92.9759C78.0988 92.9455 78.0296 92.8957 77.976 92.831C77.9234 92.7655 77.8872 92.6885 77.8704 92.6063C77.8494 92.51 77.8392 92.4117 77.8401 92.3131V90.9212Z" fill="#55A301"/>
<path d="M81.5007 92.5675V92.9899H80.0403V90.8071H80.5312V92.5675H81.5007Z" fill="#55A301"/>
<path d="M83.3321 92.159C83.3332 92.2804 83.3142 92.4011 83.276 92.5163C83.2409 92.6187 83.1851 92.7128 83.112 92.7926C83.0399 92.8698 82.9522 92.9307 82.8547 92.9713C82.6402 93.0551 82.4019 93.0551 82.1874 92.9713C82.0901 92.931 82.0027 92.87 81.9313 92.7926C81.8572 92.7129 81.8002 92.6189 81.7639 92.5163C81.7229 92.4017 81.7027 92.2807 81.7043 92.159C81.7028 92.0376 81.7233 91.917 81.765 91.8029C81.8027 91.7009 81.8608 91.6076 81.9358 91.5288C82.0086 91.4526 82.0966 91.3926 82.1941 91.3524C82.2974 91.3099 82.4082 91.2885 82.5199 91.2895C82.6327 91.2885 82.7446 91.3099 82.8491 91.3524C82.946 91.3923 83.0334 91.4524 83.1052 91.5288C83.1791 91.6078 83.2361 91.7011 83.2726 91.8029C83.3134 91.9172 83.3335 92.0378 83.3321 92.159ZM82.8536 92.159C82.86 92.0387 82.8299 91.9193 82.7671 91.8164C82.7397 91.7766 82.7027 91.7443 82.6595 91.7227C82.6162 91.7011 82.5682 91.6908 82.5199 91.6928C82.4713 91.6908 82.423 91.7011 82.3794 91.7227C82.3358 91.7443 82.2984 91.7765 82.2705 91.8164C82.2069 91.9189 82.1763 92.0386 82.1829 92.159C82.1766 92.2802 82.2072 92.4004 82.2705 92.5039C82.2979 92.5446 82.3351 92.5776 82.3787 92.5998C82.4224 92.622 82.471 92.6327 82.5199 92.6309C82.5686 92.6327 82.6169 92.622 82.6601 92.5998C82.7034 92.5776 82.7403 92.5445 82.7671 92.5039C82.8295 92.4001 82.8596 92.28 82.8536 92.159Z" fill="#55A301"/>
<path d="M84.1667 92.652C84.2285 92.6557 84.2904 92.6469 84.3487 92.6262C84.3666 92.6173 84.3813 92.6032 84.391 92.5857C84.4006 92.5683 84.4047 92.5483 84.4026 92.5284C84.4008 92.5073 84.3933 92.487 84.3811 92.4696C84.3689 92.4522 84.3523 92.4384 84.333 92.4296C84.266 92.3913 84.1957 92.3594 84.1229 92.3341C84.0487 92.306 83.9825 92.2779 83.9229 92.2487C83.8666 92.222 83.815 92.1863 83.7701 92.1431C83.7273 92.1021 83.694 92.0523 83.6724 91.9971C83.6475 91.9314 83.6357 91.8616 83.6376 91.7915C83.6354 91.7208 83.6499 91.6506 83.68 91.5865C83.71 91.5225 83.7548 91.4665 83.8106 91.423C83.9494 91.3261 84.1167 91.2787 84.2858 91.2882C84.383 91.2878 84.4801 91.2969 84.5756 91.3152C84.6519 91.3282 84.7271 91.3474 84.8003 91.3724L84.7194 91.7387C84.6608 91.7186 84.6012 91.7017 84.5408 91.6881C84.4699 91.6726 84.3976 91.6651 84.3251 91.6657C84.1779 91.6657 84.1004 91.7072 84.1004 91.7892C84.1004 91.8061 84.1034 91.8229 84.1094 91.8387C84.1179 91.8562 84.1311 91.871 84.1476 91.8813C84.1722 91.8984 84.1981 91.9134 84.2251 91.9263C84.2577 91.942 84.2993 91.9589 84.3487 91.978C84.4364 92.0089 84.5217 92.0464 84.6037 92.0903C84.6629 92.1212 84.7168 92.1614 84.7632 92.2094C84.801 92.2505 84.8291 92.2997 84.8452 92.3532C84.862 92.4124 84.8699 92.4737 84.8688 92.5352C84.8726 92.6076 84.8576 92.6798 84.8254 92.7447C84.7931 92.8097 84.7446 92.8652 84.6846 92.9059C84.5273 92.999 84.3457 93.0428 84.1633 93.0317C84.0398 93.0345 83.9163 93.0217 83.796 92.9935C83.727 92.9778 83.6594 92.9568 83.5938 92.9306L83.6724 92.5498C83.7519 92.5811 83.8338 92.6059 83.9173 92.6239C83.9992 92.642 84.0828 92.6514 84.1667 92.652Z" fill="#55A301"/>
<path d="M85.7004 92.6521C85.7625 92.6557 85.8248 92.647 85.8835 92.6262C85.9014 92.6174 85.9161 92.6033 85.9258 92.5858C85.9354 92.5684 85.9395 92.5484 85.9374 92.5285C85.9356 92.5073 85.9281 92.487 85.9159 92.4697C85.9037 92.4523 85.8871 92.4385 85.8677 92.4296C85.8004 92.3915 85.7297 92.3595 85.6565 92.3342C85.5835 92.3061 85.5161 92.278 85.4566 92.2488C85.4006 92.2215 85.3491 92.1859 85.3038 92.1432C85.2617 92.1016 85.2285 92.0519 85.2061 91.9971C85.1817 91.9314 85.1699 91.8617 85.1712 91.7916C85.1692 91.7208 85.1839 91.6505 85.2141 91.5864C85.2444 91.5224 85.2894 91.4664 85.3454 91.4231C85.484 91.3259 85.6515 91.2784 85.8206 91.2883C85.9178 91.2879 86.0149 91.2969 86.1104 91.3152C86.1867 91.3284 86.2618 91.3476 86.3351 91.3725L86.2531 91.7388C86.1949 91.7185 86.1357 91.7016 86.0756 91.6882C86.0047 91.6727 85.9324 91.6651 85.8599 91.6657C85.7127 91.6657 85.6352 91.7073 85.6352 91.7893C85.6344 91.8063 85.6375 91.8232 85.6442 91.8387C85.6526 91.8563 85.6659 91.8711 85.6824 91.8814C85.7064 91.8988 85.732 91.9138 85.7588 91.9264C85.7914 91.9421 85.8329 91.9589 85.8835 91.978C85.9711 92.0092 86.0563 92.0467 86.1385 92.0904C86.1977 92.1212 86.2516 92.1614 86.298 92.2095C86.335 92.2512 86.363 92.3001 86.38 92.3533C86.3967 92.4124 86.4047 92.4738 86.4036 92.5352C86.4074 92.6077 86.3924 92.6798 86.3602 92.7448C86.3279 92.8097 86.2794 92.8653 86.2194 92.906C86.062 92.9989 85.8805 93.0427 85.6981 93.0318C85.5745 93.0346 85.4511 93.0217 85.3308 92.9936C85.2615 92.9777 85.1935 92.9567 85.1274 92.9307L85.2061 92.5498C85.2859 92.5813 85.3682 92.6061 85.4521 92.624C85.5336 92.6421 85.6168 92.6515 85.7004 92.6521Z" fill="#55A301"/>
<path d="M88.5328 93.0331C88.1789 93.0331 87.9082 92.9342 87.7228 92.7365C87.5375 92.5388 87.4431 92.259 87.4431 91.8962C87.4406 91.7312 87.4696 91.5673 87.5285 91.4131C87.5814 91.2795 87.6613 91.1583 87.7633 91.057C87.863 90.9572 87.9834 90.8805 88.116 90.8323C88.2582 90.7809 88.4085 90.7554 88.5598 90.757C88.6441 90.7564 88.7283 90.7632 88.8114 90.7773C88.8786 90.7888 88.945 90.8046 89.0102 90.8245C89.0586 90.8397 89.1058 90.8581 89.1518 90.8795C89.1889 90.8986 89.2169 90.9132 89.2338 90.9244L89.0922 91.321C89.0175 91.2823 88.9388 91.2517 88.8575 91.23C88.7583 91.2031 88.6558 91.1903 88.553 91.1918C88.4765 91.1912 88.4004 91.2041 88.3283 91.23C88.2558 91.2546 88.19 91.2957 88.1362 91.3502C88.0764 91.4121 88.0304 91.486 88.0014 91.567C87.9662 91.67 87.9495 91.7784 87.952 91.8872C87.9509 91.9822 87.9618 92.0769 87.9846 92.1692C88.0041 92.2507 88.0404 92.3272 88.0913 92.3938C88.1433 92.4584 88.2099 92.5096 88.2856 92.5433C88.3771 92.5825 88.476 92.6012 88.5755 92.5983C88.6397 92.5985 88.7039 92.5944 88.7676 92.5859C88.8238 92.577 88.8799 92.5668 88.9181 92.5556C88.9565 92.5454 88.9941 92.5322 89.0305 92.5163L89.1215 92.4758L89.2574 92.869C89.1653 92.9198 89.0666 92.9576 88.9642 92.9814C88.8232 93.017 88.6782 93.0343 88.5328 93.0331Z" fill="#55A301"/>
<path d="M89.4279 92.1734C89.425 92.0413 89.4483 91.91 89.4965 91.787C89.5367 91.6843 89.597 91.5907 89.674 91.5117C89.746 91.4389 89.8325 91.3818 89.9279 91.3443C90.0216 91.3074 90.1214 91.2883 90.2222 91.2882C90.3258 91.2823 90.4294 91.2985 90.5262 91.3357C90.623 91.3729 90.7109 91.4302 90.7839 91.5039C90.9316 91.681 91.0049 91.9085 90.9883 92.1386C90.9883 92.1655 90.9883 92.1959 90.9883 92.2284C90.9883 92.261 90.9883 92.2891 90.9827 92.315H89.9177C89.9227 92.36 89.9375 92.4035 89.9609 92.4423C89.9844 92.4811 90.0161 92.5143 90.0537 92.5396C90.1491 92.6012 90.2616 92.6311 90.375 92.625C90.4598 92.6251 90.5444 92.6172 90.6277 92.6014C90.6975 92.5899 90.7658 92.5703 90.8311 92.543L90.894 92.9238C90.862 92.9399 90.8285 92.9527 90.794 92.962C90.7478 92.9755 90.7009 92.9863 90.6536 92.9946C90.6019 93.0043 90.5468 93.0122 90.4884 93.0182C90.4299 93.0249 90.371 93.0283 90.3121 93.0283C90.1791 93.0309 90.0469 93.0084 89.9222 92.962C89.819 92.9226 89.7258 92.8608 89.6493 92.7812C89.5754 92.7037 89.5204 92.6103 89.4886 92.5082C89.4506 92.4005 89.4302 92.2875 89.4279 92.1734ZM90.5311 91.9937C90.5287 91.9555 90.5216 91.9177 90.5098 91.8813C90.4988 91.8445 90.4809 91.8102 90.457 91.7802C90.4314 91.7504 90.4 91.7259 90.3649 91.7083C90.3221 91.688 90.2751 91.6784 90.2278 91.6802C90.1816 91.6795 90.1357 91.6883 90.093 91.7061C90.0565 91.7226 90.0242 91.7472 89.9986 91.778C89.9725 91.8078 89.9527 91.8426 89.9402 91.8802C89.927 91.9167 89.9169 91.9543 89.9099 91.9925L90.5311 91.9937Z" fill="#55A301"/>
<path d="M91.3456 91.3953C91.4468 91.3673 91.5496 91.3455 91.6534 91.3302C91.785 91.3095 91.918 91.2994 92.0511 91.2999C92.1703 91.2967 92.2891 91.3154 92.4016 91.3549C92.4888 91.3866 92.5662 91.4404 92.6263 91.5111C92.6803 91.5819 92.7186 91.6635 92.7386 91.7503C92.7621 91.8516 92.7734 91.9553 92.7723 92.0593V92.9951H92.3039V92.1166C92.3126 92.006 92.2916 91.8951 92.2432 91.7953C92.2176 91.7608 92.1833 91.7338 92.1438 91.7171C92.1043 91.7003 92.0611 91.6943 92.0185 91.6998C91.9848 91.6998 91.95 91.6998 91.9118 91.7054C91.8736 91.711 91.8399 91.7121 91.8107 91.7155V92.9906H91.3423L91.3456 91.3953Z" fill="#55A301"/>
<path d="M93.1867 90.9212L93.6552 90.8459V91.3335H94.2169V91.7244H93.6552V92.3064C93.6515 92.3886 93.6697 92.4704 93.708 92.5434C93.7319 92.5752 93.7639 92.6001 93.8006 92.6155C93.8373 92.6309 93.8774 92.6362 93.9169 92.631C93.9693 92.631 94.0216 92.6261 94.0731 92.6164C94.1229 92.6083 94.1719 92.5951 94.2191 92.5771L94.2854 92.9433C94.224 92.9676 94.1609 92.9875 94.0967 93.0029C94.0129 93.021 93.9273 93.0293 93.8416 93.0276C93.7333 93.0312 93.6253 93.0137 93.5237 92.9759C93.4453 92.9453 93.3757 92.8954 93.3215 92.831C93.2694 92.7653 93.2332 92.6884 93.2159 92.6063C93.1958 92.5099 93.1861 92.4116 93.1867 92.3131V90.9212Z" fill="#55A301"/>
<path d="M94.46 92.1734C94.457 92.0413 94.4803 91.91 94.5285 91.787C94.5687 91.6843 94.629 91.5907 94.706 91.5117C94.778 91.4389 94.8645 91.3819 94.9599 91.3444C95.0536 91.3074 95.1535 91.2883 95.2542 91.2882C95.3578 91.2822 95.4614 91.2984 95.5583 91.3356C95.6551 91.3728 95.7429 91.4301 95.8159 91.5039C95.9637 91.681 96.0369 91.9085 96.0204 92.1386C96.0204 92.1656 96.0204 92.1959 96.0204 92.2285C96.0204 92.2611 96.0204 92.2891 96.0147 92.315H94.9419C94.9469 92.3601 94.9616 92.4035 94.9851 92.4423C95.0086 92.4811 95.0402 92.5143 95.0778 92.5397C95.1737 92.6035 95.2875 92.635 95.4025 92.6295C95.4873 92.6296 95.5719 92.6217 95.6553 92.6059C95.7251 92.5944 95.7933 92.5748 95.8586 92.5475L95.9215 92.9284C95.8895 92.9444 95.856 92.9572 95.8215 92.9665C95.7754 92.98 95.7285 92.9909 95.6811 92.9991C95.6294 93.0089 95.5744 93.0167 95.516 93.0227C95.4574 93.0294 95.3985 93.0328 95.3396 93.0328C95.2066 93.0354 95.0744 93.013 94.9498 92.9665C94.8465 92.9271 94.7533 92.8654 94.6768 92.7857C94.603 92.7083 94.548 92.6148 94.5161 92.5127C94.4792 92.4034 94.4602 92.2888 94.46 92.1734ZM95.5631 91.9937C95.5608 91.9555 95.5536 91.9178 95.5418 91.8813C95.5308 91.8446 95.5129 91.8103 95.489 91.7802C95.4634 91.7504 95.4321 91.7259 95.3969 91.7083C95.3541 91.688 95.3071 91.6784 95.2598 91.6803C95.2136 91.6795 95.1677 91.6883 95.125 91.7061C95.0885 91.7226 95.0562 91.7472 95.0307 91.778C95.0045 91.8078 94.9847 91.8426 94.9722 91.8802C94.959 91.9168 94.9489 91.9543 94.9419 91.9926L95.5631 91.9937Z" fill="#55A301"/>
<path d="M97.3719 91.7483C97.3303 91.7382 97.2809 91.727 97.2247 91.7157C97.1645 91.7032 97.1031 91.6972 97.0416 91.6977C97.0063 91.6985 96.971 91.7012 96.936 91.7056C96.9045 91.7092 96.8733 91.7152 96.8427 91.7236V92.9897H96.3743V91.4169C96.4718 91.3831 96.5712 91.355 96.672 91.3326C96.7974 91.3054 96.9256 91.2922 97.0539 91.2933C97.0798 91.2933 97.1101 91.2933 97.1449 91.2933C97.1798 91.2933 97.2168 91.3012 97.2573 91.3068C97.2977 91.3124 97.328 91.318 97.3696 91.3248C97.4007 91.3312 97.4311 91.3402 97.4606 91.3517L97.3719 91.7483Z" fill="#55A301"/>
<path d="M86.5783 57.468C86.5783 57.468 83.6968 60.6596 83.1733 63.7219C82.6498 66.7843 84.9382 70.3904 88.7633 72.317C88.7633 72.317 92.1268 68.8345 91.0899 65.1363C90.053 61.4381 86.3997 61.7639 86.5783 57.468Z" fill="#55A301"/>
<path d="M88.8851 71.4427C88.9438 70.758 88.9464 70.0697 88.8929 69.3846C88.8443 68.7099 88.7478 68.0394 88.6042 67.3783C88.5728 67.2131 88.5233 67.0502 88.4851 66.8862L88.4256 66.6402L88.3526 66.3975C88.3043 66.2346 88.2548 66.0729 88.2088 65.9089C88.1627 65.7448 88.0964 65.5898 88.0391 65.428L87.9571 65.1854C87.9291 65.1045 87.8931 65.0281 87.8628 64.9472C87.7987 64.7888 87.737 64.6293 87.6752 64.4675C87.6134 64.3058 87.537 64.1519 87.4718 63.9901C87.4067 63.8283 87.337 63.6699 87.2741 63.5037C87.3865 63.6362 87.4988 63.7733 87.6111 63.9115C87.6662 63.98 87.7179 64.0519 87.7718 64.1215C87.826 64.1912 87.8766 64.2635 87.9234 64.3383C88.0167 64.4866 88.1099 64.6372 88.1998 64.7877C88.2459 64.863 88.293 64.9382 88.3335 65.0124L88.4458 65.2505C88.5233 65.4089 88.5986 65.5696 88.6705 65.7302C88.7424 65.8909 88.7952 66.0673 88.857 66.229C88.8884 66.3122 88.9176 66.3964 88.9457 66.4807L89.0188 66.7368C89.0626 66.9087 89.1154 67.0738 89.1502 67.2536C89.3042 67.9502 89.3661 68.664 89.3344 69.3768C89.3136 70.0873 89.1612 70.7877 88.8851 71.4427Z" fill="white"/>
<path d="M107.251 69.5814C107.251 69.5814 105.5 74.8613 102.387 77.4047C99.2738 79.9481 93.7568 79.6728 89.1486 76.5992C89.1486 76.5992 90.9168 70.5936 95.7429 69.3983C100.569 68.203 102.53 72.5213 107.251 69.5814Z" fill="#55A301"/>
<path d="M89.9806 75.8913C90.5423 75.178 91.2736 74.6062 92.0488 74.1287L92.342 73.949C92.4397 73.8895 92.543 73.8367 92.6441 73.7872C92.8464 73.6827 93.0475 73.5727 93.2598 73.4862C93.4721 73.3996 93.6788 73.3019 93.8934 73.221L94.5427 72.9963C94.6494 72.957 94.7617 72.9334 94.8718 72.9031L95.2089 72.8166L95.5459 72.7324C95.6582 72.7099 95.7706 72.6908 95.8829 72.6706C96.1076 72.6324 96.3323 72.5931 96.5569 72.5582C96.7816 72.5234 97.0063 72.5178 97.2388 72.5009L97.5759 72.4751C97.6882 72.4751 97.8005 72.4751 97.9129 72.4751L98.5937 72.4852C98.6498 72.4852 98.706 72.4852 98.7633 72.4919L98.9329 72.5099C99.0453 72.5223 99.1576 72.5324 99.2699 72.547C99.4946 72.574 99.7193 72.602 99.944 72.6369C99.7193 72.6649 99.4946 72.684 99.2699 72.7031C99.1576 72.7133 99.0453 72.7189 98.9329 72.7267L98.7667 72.7391C98.7105 72.7391 98.6543 72.7537 98.6004 72.7604L97.9376 72.8424C97.8253 72.8582 97.7129 72.8638 97.6073 72.8818L97.2804 72.9391C97.0625 72.978 96.8445 73.0154 96.6266 73.0514L95.9818 73.1974L95.6593 73.2671L95.3425 73.3581C95.1313 73.4187 94.9168 73.4704 94.7078 73.5378C93.868 73.7999 93.0496 74.1262 92.2599 74.5141C91.4594 74.902 90.6964 75.3631 89.9806 75.8913Z" fill="white"/>
</svg>
