<svg width="150" height="151" viewBox="0 0 150 151" fill="none" xmlns="http://www.w3.org/2000/svg">
<rect y="0.838867" width="150" height="150" rx="24" fill="#F9F9F9"/>
<g clip-path="url(#clip0_5_2528)">
<path d="M129.344 89.6899C129.156 90.0276 128.887 90.1351 128.482 90.1416C125.27 90.1954 122.058 90.2878 118.849 90.3438C118.491 90.3502 117.915 90.6298 117.91 89.8598C117.908 89.3113 117.847 88.9134 118.667 88.7736C120.331 88.4918 120.962 87.6143 120.973 85.9194C120.99 83.1275 120.962 80.3356 120.99 77.5438C120.996 76.892 120.888 76.5995 120.116 76.606C115.57 76.6447 111.021 76.6361 106.474 76.6146C105.581 76.6103 105.282 76.9652 105.291 77.8341C105.323 80.8045 105.321 83.7749 105.282 86.7453C105.26 88.494 105.217 88.4918 107.048 88.636C107.443 88.6661 107.837 88.7198 108.229 88.7822C108.541 88.8317 109.031 88.694 108.856 89.3264C108.752 89.7071 108.88 90.1394 108.175 90.1459C104.892 90.1782 101.609 90.2792 98.3252 90.3545C97.9373 90.3631 97.4735 90.4621 97.5472 89.8147C97.5949 89.4017 97.3543 88.9543 98.1064 88.7801C100.068 88.3241 100.562 87.6143 100.562 85.6032C100.566 79.0881 100.568 72.5752 100.562 66.0601C100.56 63.55 100.523 63.4919 98.1367 62.7757C97.6361 62.6251 97.4454 62.4122 97.48 61.8917C97.5212 61.2937 97.9417 61.4507 98.2646 61.4507C101.032 61.4421 103.8 61.4443 106.587 61.4443C104.402 65.417 105.618 69.7855 105.301 74.0034C105.269 74.4336 105.458 74.5519 105.867 74.5497C110.596 74.5411 115.323 74.5433 120.051 74.5433C120.749 74.5433 120.988 74.1561 120.983 73.5108C120.964 70.7555 120.992 67.9981 120.942 65.2428C120.914 63.621 120.613 63.3156 119.005 62.8746C118.762 62.808 118.521 62.7155 118.274 62.6854C117.702 62.6144 117.884 62.1907 117.86 61.8659C117.83 61.4335 118.14 61.4464 118.439 61.4464C121.285 61.4464 124.132 61.4464 127.08 61.4464C125.476 63.7694 125.699 66.4387 125.697 69.0692C125.693 74.8315 125.682 80.5937 125.701 86.356C125.704 87.0443 125.259 87.9283 125.749 88.3585C126.169 88.7284 127.054 88.5779 127.732 88.6553C128.27 88.7155 128.807 88.7736 129.344 88.8317V89.6899Z" fill="#0F206C"/>
<path d="M69.5711 90.7644C69.3674 90.4031 68.9903 90.5558 68.6956 90.4934C61.3661 88.9276 56.7521 83.5073 56.6416 76.3104C56.5289 69.1049 61.3444 63.0372 68.4745 61.3552C69.1984 61.1853 69.9699 61.2563 70.6526 60.9121H70.8693C71.3742 61.0885 71.8792 61.0885 72.3863 60.9121H74.3346C74.7507 61.1767 75.2384 60.8971 75.6631 61.0885C77.7675 61.3724 79.8675 61.6907 81.9762 61.9209C82.635 61.994 82.622 62.2801 82.5245 62.7533C82.1669 64.502 81.7833 66.2463 81.4951 68.0079C81.3824 68.6984 80.9836 68.679 80.5047 68.6381C80.1904 68.6123 79.7678 68.8167 79.7353 68.1994C79.5554 64.7278 76.6189 63.1404 73.6108 62.8651C66.964 62.2586 62.1463 66.384 61.6045 73.3034C61.184 78.657 62.8181 83.2578 67.7897 85.9056C72.5727 88.4544 77.4164 88.0973 81.9697 85.0129C82.1994 84.8581 82.375 84.2816 82.8127 84.7806C83.1465 85.1592 83.3047 85.4969 82.8908 85.9744C80.6304 88.5791 77.7675 90.0675 74.3628 90.573C73.9424 90.7945 73.4461 90.4934 73.0343 90.7623H69.569L69.5711 90.7644Z" fill="#0F206C"/>
<path d="M20.6245 72.9386C21.214 71.5491 22.3691 70.6264 23.4137 69.609C24.6729 68.3787 25.9233 67.1398 27.163 65.888C27.7373 65.3094 28.4004 64.8104 29.211 64.7975C32.3036 64.748 35.3962 64.7781 38.6687 64.7781C37.7021 65.9289 36.9544 66.9204 35.29 66.7505C33.5757 66.5741 31.829 66.7247 30.0974 66.7053C29.4797 66.6989 29.0008 66.8989 28.563 67.3377C26.8617 69.0412 25.1475 70.7318 23.4115 72.3988C22.8524 72.9365 22.5988 73.5387 22.6053 74.3001C22.6205 76.5909 22.6183 78.8816 22.6053 81.1701C22.601 81.8885 22.8199 82.4757 23.3509 82.9898C25.0521 84.6417 26.736 86.3129 28.4048 87.9992C28.8924 88.4918 29.419 88.7413 30.1234 88.7348C32.5766 88.7133 35.0321 88.7155 37.4854 88.7348C38.1009 88.7391 38.5863 88.5649 39.0284 88.124C40.7817 86.371 42.5545 84.6374 44.3294 82.908C44.7737 82.4757 44.9362 81.9789 44.9254 81.368C44.8994 79.8301 45.0446 78.2772 44.882 76.7565C44.7 75.0401 45.3957 73.9065 46.9582 72.93C46.9214 76.3284 47.4285 79.6494 46.683 82.8994C46.3341 84.4223 44.7628 85.2611 43.7031 86.371C42.8362 87.2787 41.8761 88.1003 41.0092 89.008C40.2572 89.7931 39.4402 90.4448 38.3848 90.7674H28.8556C27.8868 90.5373 27.1283 90.0017 26.4413 89.2919C25.0283 87.8315 23.5849 86.4011 22.1134 84.9987C21.396 84.3169 20.8564 83.5641 20.6267 82.6048V72.9386H20.6245Z" fill="#0F206C"/>
<path d="M47.6976 60.9128C47.806 62.7819 48.2654 64.636 47.9317 66.5245C47.8276 67.116 47.806 67.7225 47.5025 68.2624C46.9694 67.9204 46.9651 67.3655 46.9499 66.8321C46.9152 65.619 46.9304 64.4059 46.9391 63.1927C46.9456 62.541 46.8914 61.9108 46.5771 61.3258C46.8069 61.1881 47.0344 61.0505 47.2642 60.9106C47.4094 60.9106 47.5524 60.9106 47.6976 60.9106V60.9128Z" fill="#B1CD33"/>
<path d="M72.3862 60.9121C71.8812 61.2347 71.3763 61.2735 70.8691 60.9121H72.3862Z" fill="#2E3C7F"/>
<path d="M75.6654 61.0885C75.2103 61.1186 74.7422 61.252 74.3369 60.9121H75.6372C75.6524 60.9702 75.6632 61.0283 75.6676 61.0885H75.6654Z" fill="#858EB4"/>
<path d="M73.0361 90.7645C73.4349 90.4053 73.9074 90.5322 74.3646 90.5752C74.3278 90.6333 74.317 90.6978 74.3365 90.7645H73.0361Z" fill="#606C9E"/>
<path d="M93.8223 61.4438C92.5502 63.199 92.4136 65.1843 92.3963 67.1975C92.34 74.0696 92.5307 80.9417 92.2814 87.8117C92.2619 88.3645 92.4635 88.4936 92.9208 88.5344C93.7833 88.6097 94.6459 88.6871 95.5041 88.7925C95.7685 88.8248 96.2474 88.6742 96.1109 89.2507C96.0155 89.6593 96.1369 90.1476 95.3762 90.1497C92.9945 90.154 90.6127 90.2573 88.2331 90.3154C87.2947 90.339 86.3563 90.3476 85.4179 90.3541C85.0798 90.3541 84.6074 90.4853 84.7027 89.8873C84.7634 89.5045 84.4015 89.0076 85.1687 88.7947C87.3684 88.1817 87.7043 87.6655 87.7043 85.364C87.7043 79.1006 87.7043 72.8372 87.7043 66.5737C87.7043 66.1436 87.7065 65.7134 87.674 65.2854C87.5418 63.5904 87.3034 63.313 85.6411 62.857C85.3291 62.771 84.9866 62.7279 84.7222 62.5623C84.4448 62.3902 84.5597 62.0375 84.5857 61.7643C84.6182 61.4116 84.9238 61.4503 85.1708 61.4503C88.0164 61.446 90.8641 61.4481 93.8245 61.4481L93.8223 61.4438Z" fill="#0F206C"/>
<path d="M38.6036 84.1151C38.4064 84.6722 38.155 85.2336 37.4377 85.1432C36.6662 85.0443 36.3476 84.4291 36.3346 83.7538C36.2934 81.5792 36.2891 79.4003 36.3324 77.2258C36.3454 76.6085 36.6077 75.9675 37.3618 75.918C38.0488 75.8729 38.4368 76.3439 38.6167 76.9784C38.7619 79.3573 38.7792 81.7384 38.6058 84.1173L38.6036 84.1151Z" fill="#99C23A"/>
<path d="M32.7219 74.6871C32.7219 73.6891 32.7046 72.6911 32.7284 71.693C32.7457 70.9833 33.0535 70.4154 33.8315 70.3509C34.6572 70.2821 35.043 70.9101 35.0625 71.5618C35.1253 73.6977 35.1188 75.8357 35.0452 77.9715C35.0235 78.6254 34.6356 79.247 33.8012 79.1567C33.021 79.0706 32.7392 78.4942 32.7262 77.7865C32.7067 76.7541 32.7219 75.7195 32.7219 74.6871Z" fill="#90BE38"/>
<path d="M44.8952 71.8991C44.4595 72.297 43.9199 72.4927 43.3651 72.6605C42.9382 72.226 43.0422 71.6689 43.0335 71.1484C42.9858 68.4533 43.1072 65.7582 42.9512 63.0632C43.4583 62.6566 44.0044 62.3168 44.6394 62.1426C45.1574 62.377 45.1986 62.8588 45.2072 63.3191C45.2506 65.8077 45.2332 68.2963 45.2202 70.7827C45.2181 71.1871 45.0707 71.5463 44.8952 71.8969V71.8991Z" fill="#A9C932"/>
<path d="M42.9513 63.0668C43.6036 63.2174 43.3522 63.7465 43.3544 64.1186C43.3739 66.9664 43.3652 69.8142 43.3652 72.662C42.8776 72.8512 42.3878 73.0233 41.8503 72.9588C41.4104 72.4856 41.5317 71.8962 41.5144 71.3392C41.4429 69.0033 41.6509 66.6631 41.3735 64.3315C41.7983 63.7831 42.3314 63.3701 42.9513 63.0625V63.0668Z" fill="#A4C733"/>
<path d="M46.5767 61.3262C47.1641 61.2918 47.2789 61.623 47.2703 62.1306C47.2486 63.5825 47.2789 65.0365 47.2551 66.4883C47.2442 67.097 47.3136 67.6842 47.5 68.2628C47.2464 69.3211 46.813 70.2804 45.9634 71.0095C45.6123 70.7536 45.4823 70.3707 45.4715 69.9792C45.3956 67.239 45.3176 64.4966 45.504 61.7564C45.8226 61.5155 46.1953 61.4101 46.5767 61.3262Z" fill="#AECB31"/>
<path d="M30.5872 82.9975C29.7528 83.3008 29.094 82.9566 29.0745 82.0296C29.0203 79.1797 29.042 76.3254 29.0745 73.4755C29.0788 73.013 29.3107 72.5742 29.8785 72.4861C30.6197 72.2903 30.6327 72.8582 30.6782 73.2948C30.7736 74.2175 30.7129 75.1467 30.7194 76.0738C30.7346 78.0719 30.6934 80.068 30.7433 82.0662C30.7519 82.3866 30.7844 82.7114 30.5894 82.9975H30.5872Z" fill="#86B93A"/>
<path d="M27.7372 78.9074C27.6679 79.43 27.6527 80.0065 27.5054 80.5485C27.3667 81.0497 26.9896 81.4411 26.4153 81.411C25.8691 81.3809 25.4725 81.0561 25.3663 80.5012C25.1561 79.4128 25.1583 78.3137 25.3663 77.2254C25.4704 76.6855 25.8258 76.3435 26.4109 76.3327C27.0524 76.322 27.41 76.7134 27.5379 77.277C27.6549 77.791 27.6701 78.3288 27.7351 78.9074H27.7372Z" fill="#80B63C"/>
<path d="M30.5876 82.9973C30.3123 82.3499 30.373 81.668 30.373 80.9926C30.373 78.4933 30.3774 75.9918 30.3665 73.4925C30.3665 73.0967 30.5334 72.5848 29.8789 72.4858C30.6764 72.0987 31.1727 72.6665 31.2356 73.215C31.5715 76.2284 31.5173 79.2569 31.2746 82.2767C31.2486 82.6123 31.021 82.9478 30.5876 82.9973Z" fill="#89BB3A"/>
<path d="M39.9259 76.3866C39.9194 76.1478 39.8934 75.608 40.1404 75.109C40.342 74.7024 40.6302 74.4121 41.133 74.4078C41.6748 74.4035 42.0476 74.6809 42.1993 75.1563C42.5309 76.2016 42.5244 77.2749 42.2231 78.3224C42.0888 78.787 41.7138 79.1225 41.1915 79.1397C40.6606 79.1591 40.3442 78.8128 40.1274 78.3697C39.863 77.832 39.9454 77.2534 39.9281 76.3866H39.9259Z" fill="#A1C635"/>
<path d="M41.3734 64.3332C42.0365 64.4408 41.8415 64.9613 41.8437 65.3506C41.8567 67.8865 41.8502 70.4224 41.8502 72.9583C41.4471 73.253 40.9941 73.1476 40.5498 73.1218C40.2378 72.4378 40.474 71.7237 40.448 71.0247C40.3808 69.2157 40.565 67.3982 40.2529 65.5979C40.5108 65.0753 40.9009 64.6666 41.3734 64.3311V64.3332Z" fill="#A1C634"/>
<path d="M40.2526 65.5981C40.5647 65.7702 40.7467 66.0713 40.7381 66.3897C40.6839 68.6331 40.996 70.8894 40.5495 73.122C40.4433 73.122 40.2786 73.165 40.2418 73.1134C38.7573 71.0894 38.7681 67.7297 40.2526 65.5981Z" fill="#9FC435"/>
<path d="M45.5044 61.7559C45.8836 62.0548 45.7384 62.4743 45.7428 62.8464C45.7558 64.6897 45.7579 66.5352 45.7428 68.3785C45.7363 69.2646 45.7471 70.1444 45.9638 71.009C45.7146 71.4328 45.3288 71.6952 44.8932 71.8995C44.8889 69.0947 44.8824 66.29 44.8824 63.4852C44.8824 63.0206 44.8932 62.5603 44.6396 62.1452C44.8889 61.9279 45.1619 61.7709 45.5044 61.7559Z" fill="#ACCA32"/>
<path d="M38.6035 84.1144C38.6079 81.7355 38.61 79.3545 38.6144 76.9756C38.8961 79.3545 38.9156 81.7355 38.6035 84.1144Z" fill="#9CC339"/>
</g>
<defs>
<clipPath id="clip0_5_2528">
<rect width="108.794" height="29.8975" fill="white" transform="translate(20.603 60.8901)"/>
</clipPath>
</defs>
</svg>
