<svg width="150" height="151" viewBox="0 0 150 151" fill="none" xmlns="http://www.w3.org/2000/svg">
<rect y="0.838867" width="150" height="150" rx="24" fill="#FAFAFA"/>
<path d="M63.741 70.5098C62.7612 70.5098 62.4328 70.6522 62.4328 71.0244C62.4328 71.3528 62.7612 71.3966 62.9966 71.4459C63.232 71.4951 63.7465 71.4951 63.9764 71.4951C70.616 71.4951 75.4767 66.8205 75.4767 60.1809C75.4767 57.7013 74.1685 55.5994 73.1394 54.6196C72.3895 53.9189 70.2876 51.9539 64.4417 51.9539C62.2905 51.9539 59.581 52.0962 57.6652 52.0962C56.6799 52.0962 47.2486 52.0962 46.4823 52.0962C45.2671 52.0962 42.3223 51.9539 39.8427 51.9539C39.142 51.9539 38.8136 52.0469 38.8136 52.3753C38.8136 52.7038 39.0928 52.7968 39.6073 52.7968C40.2641 52.7968 41.0578 52.8461 41.43 52.9391C42.9736 53.2676 43.3459 54.012 43.4389 55.6048C43.532 57.0992 43.532 58.4074 43.532 65.5178V79.4923C43.532 88.6553 43.5812 93.3299 40.0233 96.9316C39.0873 97.8676 38.3866 98.3821 37.7791 98.7106C36.9854 99.132 36.75 99.3181 36.75 99.5535C36.75 99.7889 36.9361 99.9257 37.1222 99.9257C37.3576 99.9257 37.7298 99.8327 38.0582 99.6466C39.038 99.1813 39.7879 98.8036 40.3955 98.4314C44.884 95.6726 47.3034 92.4486 48.2886 89.5968C49.2247 86.9803 49.356 83.9862 49.356 81.3205C49.356 78.9832 49.3287 76.739 49.3287 74.7301V65.5123C49.3287 58.4074 49.3287 57.0992 49.4217 55.5994C49.5148 53.9627 49.887 53.3497 51.1514 53.1198C51.4087 53.076 52.3447 53.076 52.5144 53.1198C54.058 53.4482 54.4302 54.012 54.5232 55.5994C54.6163 57.0937 54.6163 58.4019 54.6163 65.5123V73.7393C54.6163 78.0417 54.6163 81.731 54.3809 83.6961C54.1948 85.0536 53.9594 86.0826 53.0234 86.2687C52.602 86.3618 52.0436 86.4549 51.343 86.4549C50.7792 86.4549 50.5931 86.5972 50.5931 86.8271C50.5931 87.1555 50.9215 87.2923 51.5291 87.2923C53.4011 87.2923 56.346 87.15 57.4189 87.15C58.634 87.15 61.5789 87.2923 64.6661 87.2923C65.1806 87.2923 65.5528 87.15 65.5528 86.8271C65.5528 86.5917 65.3175 86.4549 64.8029 86.4549C64.1023 86.4549 63.0732 86.3618 62.4164 86.2687C61.0151 86.0826 60.7359 85.0536 60.5936 83.7454C60.3583 81.7365 60.3583 78.0417 60.3583 73.7393V55.0356C60.3583 54.521 60.5006 54.2419 60.7305 54.1488C61.1519 54.0065 61.8526 53.9627 62.5532 53.9627C63.6261 53.9627 65.5474 54.2419 67.2278 55.7855C69.8442 58.1228 69.9866 61.2537 69.9866 62.7973C70.0085 67.565 66.3629 70.5098 63.741 70.5098Z" fill="#015297"/>
<path d="M59.0888 94.7526H48.6066C48.4588 94.7526 48.3384 94.6322 48.3384 94.4844V94.1122C48.3384 93.9644 48.4588 93.844 48.6066 93.844H59.0833C59.2311 93.844 59.3515 93.9644 59.3515 94.1122V94.4844C59.3515 94.6377 59.2311 94.7526 59.0888 94.7526Z" fill="#015297"/>
<path d="M112.895 94.7534H102.413C102.265 94.7534 102.145 94.6329 102.145 94.4852V94.1129C102.145 93.9651 102.265 93.8447 102.413 93.8447H112.89C113.038 93.8447 113.158 93.9651 113.158 94.1129V94.4852C113.158 94.6384 113.043 94.7534 112.895 94.7534Z" fill="#015297"/>
<path d="M112.588 86.5862C112.21 86.5862 111.783 86.5369 111.258 86.4439C110.546 86.3015 107.864 86.1975 105.571 83.1596C103.091 79.8754 101.4 76.7444 98.9037 70.7178C103.94 67.3733 104.985 63.7662 104.985 60.2903C104.985 57.1429 103.086 54.7509 101.761 53.8587C99.1992 52.1235 96.019 51.8389 93.0303 51.8389C91.5579 51.8389 85.8926 51.9757 85.5806 51.9648L86.6808 55.2107L89.0017 61.4289C89.1221 61.7518 89.4231 61.9708 89.7735 61.9817L97.2068 62.2718L91.8918 66.4209C91.5907 66.6563 91.4813 67.0668 91.6345 67.4171C92.5541 69.5574 95.7234 76.8648 97.2068 79.536C99.3799 83.4552 100.179 85.4531 102.221 86.5314C103.452 87.1883 104.64 87.4237 107.295 87.4237H111.8C112.369 87.4237 113.157 87.3306 113.157 86.9529C113.157 86.7285 112.971 86.5862 112.588 86.5862Z" fill="#015297"/>
<path d="M82.3192 61.8503C82.675 61.8394 82.987 61.6204 83.1074 61.2975L84.9466 56.2671L83.4139 52.4026C83.1676 51.817 82.3082 51.817 82.0619 52.4026L78.0059 62.0145L82.3192 61.8503Z" fill="#015297"/>
<path d="M97.6998 86.4657L92.664 75.2719L86.5553 71.0954C86.2707 70.9038 85.893 70.8983 85.5974 71.0735L78.6129 75.2171L80.879 67.9535C80.983 67.6196 80.8626 67.2638 80.5835 67.0448L77.0529 64.3682L67.7311 86.4657C67.6435 86.6791 67.6709 86.9036 67.7749 87.0787C67.9555 87.3798 68.3606 87.4564 68.6507 87.2648L83.3477 77.7131C83.5338 77.5818 83.7911 77.5818 83.9772 77.7131L96.7474 87.2265C97.0923 87.4838 97.6013 87.336 97.7272 86.9255C97.771 86.7777 97.7655 86.6189 97.6998 86.4657Z" fill="#015297"/>
<path d="M63.849 94.6546L63.4823 94.6382V98.1688H62.3438V90.6917H64.2322C64.6263 90.6917 64.9164 90.7683 65.108 90.927C65.2996 91.0858 65.4255 91.3047 65.4912 91.5839C65.5514 91.8685 65.5842 92.2352 65.5842 92.6896C65.5842 93.1439 65.5349 93.4887 65.4419 93.7296C65.3434 93.9649 65.1682 94.1292 64.9055 94.2113C65.1627 94.2551 65.3434 94.4302 65.4474 94.7367C65.5514 95.0378 65.6006 95.6728 65.6006 96.6307C65.6006 97.5886 65.617 98.1031 65.6444 98.1743H64.5004C64.473 98.1195 64.4566 97.2218 64.4566 95.4921C64.4566 95.1582 64.4183 94.9393 64.3362 94.8298C64.2541 94.7203 64.0899 94.6601 63.849 94.6546ZM63.4878 93.7569H63.9421C64.0844 93.7569 64.1939 93.7241 64.265 93.6584C64.3362 93.5927 64.3855 93.4833 64.4074 93.3245C64.4347 93.1658 64.4457 92.9249 64.4457 92.5965V92.5473C64.4457 92.1422 64.4128 91.8795 64.3417 91.7536C64.276 91.6277 64.1172 91.5674 63.8709 91.5674H63.4823V93.7569H63.4878Z" fill="#015297"/>
<path d="M66.646 98.1688V90.6917H69.1584V91.6715H67.7845V93.85H69.0873V94.8079H67.7845V97.189H69.2077V98.1688H66.646Z" fill="#015297"/>
<path d="M69.7764 98.1691L70.8437 90.6865H72.349L73.4876 98.1691H72.4202L72.2396 96.8335H71.0299L70.8656 98.1691H69.7764ZM72.1301 95.9249L71.6265 92.1699H71.6101L71.1503 95.9249H72.1301Z" fill="#015297"/>
<path d="M74.2764 98.1688V90.6917H75.4204V97.2054H76.8654V98.1743H74.2764V98.1688Z" fill="#015297"/>
<path d="M79.0825 98.1688V90.6917H81.595V91.6715H80.2211V93.85H81.5238V94.8079H80.2211V97.189H81.6442V98.1688H79.0825Z" fill="#015297"/>
<path d="M82.4059 96.0669V95.3991H83.4897V96.149C83.4897 96.565 83.5225 96.8606 83.5937 97.0248C83.6648 97.1945 83.7962 97.2766 83.9932 97.2766C84.1903 97.2766 84.3217 97.2054 84.3819 97.0686C84.4476 96.9318 84.4804 96.7019 84.4804 96.3899C84.4804 96.0779 84.4257 95.7987 84.3107 95.5688C84.1958 95.3334 84.0151 95.0926 83.7688 94.8353L83.216 94.266C82.9587 93.9978 82.7562 93.7187 82.6139 93.4286C82.4716 93.1384 82.4004 92.8046 82.4004 92.4269C82.4004 91.8083 82.5208 91.3485 82.7562 91.0475C82.997 90.7464 83.4076 90.5986 83.9878 90.5986C84.568 90.5986 84.9621 90.7738 85.1701 91.1241C85.3781 91.4744 85.4766 91.9835 85.4766 92.6568V93.122H84.4257V92.5856C84.4257 92.2243 84.3928 91.9616 84.3326 91.8083C84.2724 91.6496 84.152 91.573 83.9714 91.573C83.7907 91.573 83.6648 91.6332 83.5882 91.7536C83.5116 91.874 83.4732 92.0492 83.4732 92.29C83.4732 92.5254 83.5116 92.717 83.5937 92.8593C83.6758 93.0016 83.8181 93.1822 84.0261 93.4012L84.6446 94.069C84.9566 94.4029 85.1865 94.7423 85.3453 95.0871C85.504 95.4319 85.5806 95.8042 85.5806 96.2092C85.5806 96.9099 85.4602 97.4244 85.2248 97.7583C84.9895 98.0922 84.5789 98.2619 83.9878 98.2619C83.3966 98.2619 82.9861 98.0758 82.7562 97.7036C82.5263 97.3259 82.4059 96.7785 82.4059 96.0669Z" fill="#015297"/>
<path d="M86.7947 98.1688V91.6769H85.9189V90.6917H88.7762V91.6769H87.9333V98.1743H86.7947V98.1688Z" fill="#015297"/>
<path d="M89.0669 98.1691L90.1343 90.6865H91.6396L92.7781 98.1691H91.7107L91.5301 96.8335H90.3204L90.1562 98.1691H89.0669ZM91.4151 95.9249L90.9115 92.1699H90.8951L90.4353 95.9249H91.4151Z" fill="#015297"/>
<path d="M93.8612 98.1688V91.6769H92.9854V90.6917H95.8426V91.6769H94.9997V98.1743H93.8612V98.1688Z" fill="#015297"/>
<path d="M96.4731 98.1688V90.6917H98.9856V91.6715H97.6117V93.85H98.9144V94.8079H97.6117V97.189H99.0349V98.1688H96.4731Z" fill="#015297"/>
<path d="M108.921 55.2761C108.817 55.0954 108.768 54.8984 108.768 54.6794C108.768 54.4605 108.817 54.2634 108.921 54.0828C109.025 53.9022 109.162 53.7653 109.342 53.6613C109.523 53.5573 109.72 53.5081 109.939 53.5081C110.158 53.5081 110.355 53.5573 110.536 53.6613C110.716 53.7653 110.853 53.9022 110.957 54.0828C111.061 54.2634 111.11 54.4605 111.11 54.6794C111.11 54.8984 111.061 55.0954 110.957 55.2761C110.853 55.4567 110.716 55.5936 110.536 55.6976C110.355 55.8016 110.158 55.8508 109.939 55.8508C109.72 55.8508 109.523 55.8016 109.342 55.6976C109.162 55.5936 109.025 55.4512 108.921 55.2761ZM109.939 53.738C109.594 53.738 109.337 53.8748 109.167 54.143C109.069 54.3017 109.019 54.4769 109.019 54.6794C109.019 54.9914 109.129 55.2378 109.348 55.4239C109.501 55.5552 109.698 55.6209 109.939 55.6209C110.224 55.6209 110.453 55.5279 110.612 55.3418C110.776 55.1557 110.859 54.9367 110.859 54.6794C110.859 54.3674 110.749 54.1211 110.53 53.935C110.371 53.8036 110.174 53.738 109.939 53.738ZM110.284 54.3017V54.351C110.284 54.4331 110.278 54.4879 110.267 54.5043C110.256 54.5207 110.24 54.5426 110.224 54.5645C110.207 54.5864 110.169 54.6028 110.109 54.6138C110.163 54.6192 110.202 54.6356 110.229 54.6685C110.256 54.7013 110.267 54.7561 110.267 54.8272V55.4458H110.037V54.8546C110.037 54.7999 110.027 54.7615 109.999 54.7396C109.972 54.7123 109.923 54.7013 109.84 54.7013V55.4458H109.605V53.9295H109.983C110.103 53.9295 110.185 53.9569 110.224 54.0116C110.267 54.0664 110.284 54.1649 110.284 54.3017ZM110.037 54.4824C110.054 54.4605 110.059 54.4386 110.065 54.4167C110.065 54.3948 110.07 54.351 110.07 54.2799C110.07 54.2087 110.059 54.1649 110.032 54.143C110.005 54.1211 109.944 54.1047 109.846 54.1047V54.5316C109.901 54.5316 109.944 54.5262 109.972 54.5207C110.005 54.5152 110.027 54.5043 110.037 54.4824Z" fill="#015297"/>
</svg>
