<svg width="150" height="151" viewBox="0 0 150 151" fill="none" xmlns="http://www.w3.org/2000/svg">
<rect y="0.838867" width="150" height="150" rx="24" fill="#F9F9F9"/>
<path d="M85.0533 70.3658C84.6416 71.1628 84.0206 71.8307 83.2578 72.2967C82.4951 72.7627 81.6199 73.009 80.7277 73.0088C80.6814 73.0088 80.6345 73.0088 80.5882 73.0088C79.3198 72.9721 78.1155 72.4389 77.2313 71.5224C76.3471 70.606 75.8527 69.3786 75.8531 68.1009V60.3918C75.8531 60.3794 75.8531 60.3665 75.8531 60.3536V58.406C75.8447 56.5243 75.5111 54.4829 73.7073 53.519C72.9926 53.137 72.1836 52.9634 71.3768 52.8977C70.6859 52.8333 69.9892 52.8792 69.3125 53.0337C68.6429 53.1949 68.003 53.4898 67.4802 53.9414C67.3798 54.0279 67.2838 54.1195 67.1912 54.2144C67.0865 54.3163 66.9929 54.4293 66.9122 54.5515C66.8436 54.6638 66.7633 54.8143 66.7677 54.9447C66.8124 54.7975 66.953 54.6891 67.0852 54.6256C67.2431 54.5512 67.4192 54.5246 67.5918 54.5492C68.0465 54.6054 68.4376 54.8733 68.7227 55.2233C68.9955 55.5696 69.1888 55.9725 69.2885 56.4029C69.3528 56.6584 69.3858 56.9208 69.3867 57.1843C69.3867 58.7245 68.1146 59.9733 66.5457 59.9733C64.9768 59.9733 63.7053 58.7245 63.7053 57.1843C63.7053 56.1956 64.2922 55.2312 64.9695 54.5526C65.3052 54.2216 65.6691 53.9208 66.0569 53.6538C66.7975 53.1254 67.738 52.6918 68.8784 52.3528C70.0182 52.013 71.2658 51.8389 72.6227 51.8389C75.0262 51.8389 76.8434 52.4135 78.0742 53.5628C78.8314 54.2525 79.3706 55.1511 79.6247 56.1468C79.671 56.3321 79.7173 56.5254 79.7519 56.7304C79.8263 57.115 79.8847 57.537 79.9271 57.9965C79.9869 58.6332 80.0167 59.3423 80.0163 60.1238V65.0468C80.0163 65.1187 80.0163 65.1912 80.0191 65.2636C80.0325 65.7625 80.028 66.2618 80.0191 66.7606C80.0191 66.8118 80.0191 66.8629 80.0191 66.9146C80.0191 67.0213 80.0191 67.1269 80.0264 67.2314C80.0264 67.2875 80.0325 67.3488 80.037 67.4072C80.1486 68.9626 80.7852 70.2535 81.6449 70.7838L81.6522 70.7888C81.7662 70.8657 81.8877 70.9306 82.0148 70.9826L82.0249 71.0568C82.0249 71.0371 82.0249 71.0309 82.0193 71.0068V70.9832C82.4952 71.1916 82.5839 71.2079 83.1106 71.2079C83.8889 71.2056 84.5919 70.8781 85.0533 70.3658Z" fill="#454545"/>
<path d="M72.6328 78.4728C72.4598 78.4801 72.2863 78.484 72.1111 78.484C66.8175 78.484 62.5264 75.0732 62.5264 70.8658C62.5264 66.6585 66.8175 63.2477 72.1111 63.2477C72.2863 63.2477 72.4598 63.2516 72.6328 63.2589C69.1736 64.5031 66.7433 67.4404 66.7433 70.8658C66.7433 74.2913 69.1736 77.2302 72.6328 78.4728Z" fill="#454545"/>
<path d="M87.4543 70.5267C87.4632 70.66 87.4692 70.7941 87.4721 70.9289C87.548 75.0149 84.5709 78.3847 80.825 78.456C77.079 78.5274 73.9781 75.2716 73.9022 71.1856C73.9022 71.0502 73.9022 70.916 73.9022 70.7828C74.4849 72.1186 75.4473 73.2508 76.668 74.0369C77.8886 74.8231 79.3131 75.2279 80.7619 75.2006C82.2107 75.1732 83.619 74.7147 84.8096 73.883C86.0001 73.0513 86.9195 71.8835 87.4521 70.5267H87.4543Z" fill="#454545"/>
<path d="M15.6787 94.1351H19.3182L20.6096 98.0429C20.9031 98.9705 20.5901 99.3257 19.8074 99.3849L19.1812 99.4244L19.1225 99.5428H24.2492L24.1905 99.4244L23.6426 99.3849C22.7425 99.3257 22.5272 99.0099 22.0185 97.4705L18.4572 86.9906H18.2811C18.0659 87.4642 17.7724 87.8392 17.2832 88.0168L17.4789 88.5695L15.0525 95.3785C13.7611 98.9902 13.5654 99.227 12.3718 99.3849L12.0587 99.4244L12 99.5428H16.2461L16.1874 99.4244L15.7765 99.3849C13.9763 99.227 14.0154 98.9705 14.7394 96.7995L15.6787 94.1351ZM19.2399 93.9377H15.7569L17.5571 88.8852H17.5767C17.9093 89.8326 18.1833 90.6812 18.4181 91.4115L19.2399 93.9377Z" fill="#454545"/>
<path d="M29.5903 93.6614L25.5007 93.7009C25.8138 92.2996 26.8117 91.1154 27.8879 91.1154C29.0815 91.1154 29.5903 92.3194 29.5903 93.6614ZM27.7901 99.7994C29.375 99.7994 30.4317 98.8521 31.3122 97.2929L31.1752 97.2337C30.4121 98.4179 29.649 98.8126 28.4554 98.8126C26.7335 98.8126 25.3833 97.2732 25.3833 94.9443C25.3833 94.6482 25.4029 94.1746 25.4616 93.8785L31.0774 93.8983C31.097 93.7601 31.1165 93.7206 31.1165 93.6219C31.1165 92.122 30.0012 90.9181 28.0249 90.9181C25.5398 90.9181 23.8962 93.0299 23.8962 95.5561C23.8962 97.9244 25.579 99.7994 27.7901 99.7994Z" fill="#454545"/>
<path d="M31.9205 99.4244L31.8618 99.5428H36.0688L36.0101 99.4244L35.3839 99.4047C34.5229 99.3849 34.4642 99.306 34.4642 99.1481V94.8061C35.0121 92.7733 35.423 91.9049 36.2644 91.7273C36.3231 92.5759 36.7928 92.9312 37.2819 92.9312C37.8885 92.9312 38.2212 92.418 38.2212 91.9444C38.2212 91.4115 37.7516 90.9378 37.0667 90.9378C35.8144 90.9378 34.973 92.2009 34.4447 94.2535H34.4251L34.4838 90.9773L31.8618 91.6681L31.8422 91.747L32.2923 91.8259C32.9771 91.9246 33.0945 92.1812 33.0945 93.3851V99.1086C33.0945 99.3455 32.8793 99.3455 32.2727 99.4047L31.9205 99.4244Z" fill="#454545"/>
<path d="M40.3678 89.1813C41.0526 89.1813 41.3266 88.6089 41.3266 88.2142C41.3266 87.8195 41.0526 87.2274 40.3678 87.2274C39.6829 87.2274 39.3894 87.8195 39.3894 88.2142C39.3894 88.6089 39.6829 89.1813 40.3678 89.1813ZM38.685 99.4244L38.6263 99.5428H42.5397L42.481 99.4244L42.2071 99.4047C41.3461 99.3455 41.2287 99.306 41.2287 99.1481V90.9773L38.6263 91.6681L38.6067 91.747L39.0568 91.8259C39.7416 91.9246 39.859 92.1615 39.859 93.3654V99.1086C39.859 99.3455 39.6438 99.3455 39.0372 99.4047L38.685 99.4244Z" fill="#454545"/>
<path d="M43.1028 99.4244L43.0441 99.5428H47.251L47.1923 99.4244L46.5466 99.4047C45.6857 99.3849 45.627 99.306 45.627 99.1481V91.9246H47.4859L47.7598 91.2141H45.627V90.3063C45.627 88.4905 45.8422 87.2471 46.8401 86.8721L47.0945 86.9116L47.1336 87.0498C47.2706 87.6616 47.7207 88.1353 48.249 88.1353C48.7186 88.1353 49.0904 87.7603 49.0904 87.3656C49.0904 86.8919 48.7186 86.4774 47.8772 86.4774C46.3118 86.4774 44.5312 87.7603 44.2768 90.701L44.2377 91.2141H43.1028L42.8288 91.9049L44.2572 91.9246V99.1284C44.2572 99.3652 44.042 99.3455 43.4354 99.4047L43.1028 99.4244Z" fill="#454545"/>
<path d="M52.4332 99.6415C51.7875 99.6415 51.22 99.4047 50.77 98.9507C50.0068 98.181 49.6546 96.7797 49.6546 95.1416C49.6546 93.0101 50.6917 91.076 52.3745 91.076C53.0789 91.076 53.6072 91.3918 54.0573 91.8062C54.8204 92.5759 55.1335 93.9772 55.1335 95.4969C55.1335 97.7074 54.0573 99.6415 52.4332 99.6415ZM52.4136 99.7994C54.8791 99.7994 56.7771 97.8455 56.7771 95.3193C56.7771 92.8325 54.8987 90.9181 52.4136 90.9181C49.909 90.9181 48.0305 92.9312 48.0305 95.3982C48.0305 97.885 49.909 99.7994 52.4136 99.7994Z" fill="#454545"/>
<path d="M57.4689 99.4244L57.4102 99.5428H61.6172L61.5584 99.4244L60.9323 99.4047C60.0713 99.3849 60.0126 99.306 60.0126 99.1481V94.8061C60.5605 92.7733 60.9714 91.9049 61.8128 91.7273C61.8715 92.5759 62.3411 92.9312 62.8303 92.9312C63.4369 92.9312 63.7696 92.418 63.7696 91.9444C63.7696 91.4115 63.2999 90.9378 62.6151 90.9378C61.3628 90.9378 60.5214 92.2009 59.9931 94.2535H59.9735L60.0322 90.9773L57.4102 91.6681L57.3906 91.747L57.8407 91.8259C58.5255 91.9246 58.6429 92.1812 58.6429 93.3851V99.1086C58.6429 99.3455 58.4277 99.3455 57.8211 99.4047L57.4689 99.4244Z" fill="#454545"/>
<path d="M64.1952 99.4244L64.1365 99.5428H68.0499L67.9912 99.4244L67.7173 99.4047C66.8563 99.3455 66.7389 99.306 66.7389 99.1481V92.8522C67.3064 92.3194 67.9717 91.9246 68.8326 91.9246C69.9871 91.9246 70.4567 92.4772 70.4567 93.6614V99.1086C70.4567 99.2665 70.3589 99.3455 69.674 99.4047L69.3218 99.4244L69.2631 99.5428H73.1374L73.0787 99.4244L72.8048 99.4047C71.8264 99.306 71.8264 99.2468 71.8264 99.1284V93.0101L71.8656 92.9114C72.1199 92.3786 73.0592 91.9246 73.9006 91.9246C75.0746 91.9246 75.5442 92.4772 75.5442 93.6614V99.1086C75.5442 99.2665 75.4268 99.3455 74.742 99.4047L74.3897 99.4244L74.331 99.5428H78.225L78.1662 99.4244L77.9119 99.4047C76.9335 99.306 76.9335 99.2468 76.9335 99.1284V93.4443C76.9335 92.6746 76.7378 91.9444 76.3269 91.5299C75.9356 91.1352 75.4855 90.9378 74.8007 90.9378C73.4505 90.9378 72.433 91.9641 71.7677 92.6943L71.7482 92.6746C71.6895 92.1812 71.4742 91.7865 71.2394 91.5299C70.8676 91.1549 70.398 90.9378 69.7131 90.9378C68.363 90.9378 67.3651 92.0036 66.7193 92.6549L66.6802 92.6351L66.7585 90.9773L64.1365 91.6681L64.1169 91.747L64.5669 91.8259C65.2518 91.9246 65.3692 92.1812 65.3692 93.3851V99.1086C65.3692 99.3455 65.154 99.3455 64.5474 99.4047L64.1952 99.4244Z" fill="#454545"/>
<path d="M88.1115 99.8389C89.5204 99.8389 91.1249 99.3849 91.8489 99.0099L92.5142 98.8718L93.2186 95.8719H93.1012L92.612 96.7008C91.5749 98.5363 90.4596 99.6218 88.1702 99.6218C85.196 99.6218 83.0436 97.0561 83.0436 93.2667C83.0436 89.8523 84.922 87.109 88.2093 87.109C89.4617 87.109 90.5183 87.4642 91.0466 87.8787L92.6707 90.8786H92.7881L92.6316 87.2471L91.5749 87.7603C90.8509 87.3656 89.5791 86.8919 88.2289 86.8919C84.1002 86.8919 81.3216 89.6352 81.3216 93.4246C81.3216 97.2929 84.1589 99.8389 88.1115 99.8389Z" fill="#454545"/>
<path d="M95.7258 89.1813C96.4107 89.1813 96.6846 88.6089 96.6846 88.2142C96.6846 87.8195 96.4107 87.2274 95.7258 87.2274C95.041 87.2274 94.7474 87.8195 94.7474 88.2142C94.7474 88.6089 95.041 89.1813 95.7258 89.1813ZM94.043 99.4244L93.9843 99.5428H97.8978L97.8391 99.4244L97.5651 99.4047C96.7042 99.3455 96.5868 99.306 96.5868 99.1481V90.9773L93.9843 91.6681L93.9647 91.747L94.4148 91.8259C95.0996 91.9246 95.2171 92.1615 95.2171 93.3654V99.1086C95.2171 99.3455 95.0018 99.3455 94.3952 99.4047L94.043 99.4244Z" fill="#454545"/>
<path d="M98.3043 99.4244L98.2456 99.5428H102.159L102.1 99.4244L101.826 99.4047C100.965 99.3455 100.848 99.306 100.848 99.1481V92.9509C101.474 92.3391 102.257 91.9246 103.177 91.9246C104.331 91.9246 104.898 92.497 104.898 93.6614V99.1086C104.898 99.2665 104.781 99.3455 104.096 99.4047L103.744 99.4244L103.685 99.5428H107.579L107.52 99.4244L107.247 99.4047C106.268 99.306 106.268 99.2468 106.268 99.1284V93.4048C106.268 92.5562 106.053 91.9049 105.642 91.4904C105.29 91.1154 104.801 90.9378 104.174 90.9378C102.785 90.9378 101.631 92.0628 100.868 92.7141L100.809 92.6746L100.868 90.9773L98.2456 91.6681L98.226 91.747L98.676 91.8259C99.3609 91.9246 99.4783 92.1812 99.4783 93.3851V99.1086C99.4783 99.3455 99.2631 99.3455 98.6565 99.4047L98.3043 99.4244Z" fill="#454545"/>
<path d="M113.669 93.6614L109.579 93.7009C109.892 92.2996 110.89 91.1154 111.966 91.1154C113.16 91.1154 113.669 92.3194 113.669 93.6614ZM111.869 99.7994C113.454 99.7994 114.51 98.8521 115.391 97.2929L115.254 97.2337C114.491 98.4179 113.727 98.8126 112.534 98.8126C110.812 98.8126 109.462 97.2732 109.462 94.9443C109.462 94.6482 109.481 94.1746 109.54 93.8785L115.156 93.8983C115.175 93.7601 115.195 93.7206 115.195 93.6219C115.195 92.122 114.08 90.9181 112.103 90.9181C109.618 90.9181 107.975 93.0299 107.975 95.5561C107.975 97.9244 109.657 99.7994 111.869 99.7994Z" fill="#454545"/>
<path d="M115.999 99.4244L115.94 99.5428H119.854L119.795 99.4244L119.521 99.4047C118.66 99.3455 118.543 99.306 118.543 99.1481V92.8522C119.11 92.3194 119.775 91.9246 120.636 91.9246C121.791 91.9246 122.261 92.4772 122.261 93.6614V99.1086C122.261 99.2665 122.163 99.3455 121.478 99.4047L121.126 99.4244L121.067 99.5428H124.941L124.883 99.4244L124.609 99.4047C123.63 99.306 123.63 99.2468 123.63 99.1284V93.0101L123.669 92.9114C123.924 92.3786 124.863 91.9246 125.704 91.9246C126.878 91.9246 127.348 92.4772 127.348 93.6614V99.1086C127.348 99.2665 127.231 99.3455 126.546 99.4047L126.194 99.4244L126.135 99.5428H130.029L129.97 99.4244L129.716 99.4047C128.737 99.306 128.737 99.2468 128.737 99.1284V93.4443C128.737 92.6746 128.542 91.9444 128.131 91.5299C127.739 91.1352 127.289 90.9378 126.604 90.9378C125.254 90.9378 124.237 91.9641 123.572 92.6943L123.552 92.6746C123.493 92.1812 123.278 91.7865 123.043 91.5299C122.671 91.1549 122.202 90.9378 121.517 90.9378C120.167 90.9378 119.169 92.0036 118.523 92.6549L118.484 92.6351L118.562 90.9773L115.94 91.6681L115.921 91.747L116.371 91.8259C117.056 91.9246 117.173 92.1812 117.173 93.3851V99.1086C117.173 99.3455 116.958 99.3455 116.351 99.4047L115.999 99.4244Z" fill="#454545"/>
<path d="M133.304 98.9113C132.541 98.9113 131.973 98.3389 131.973 97.4508C131.973 96.4837 132.404 95.6548 135.182 94.964L135.065 98.1021C134.537 98.635 133.95 98.9113 133.304 98.9113ZM136.278 99.7402C137.1 99.7402 137.648 98.8915 138 98.4771L137.902 98.4179C137.609 98.7139 137.335 98.9507 137.022 98.9507C136.572 98.9507 136.317 98.7139 136.376 98.0626L136.572 93.7996C136.669 91.5102 135.848 90.9181 134.224 90.9181C132.736 90.9181 130.486 92.0825 130.486 93.0891C130.486 93.5627 130.838 93.8588 131.328 93.8588C131.856 93.8588 132.169 93.4838 132.169 93.0891C132.169 92.5562 131.68 92.2404 131.68 92.1023C131.68 91.8654 132.521 91.372 133.304 91.372C134.321 91.372 135.3 91.9246 135.202 93.8983L135.182 94.7666C131.523 95.6548 130.584 96.6021 130.584 97.885C130.584 98.8915 131.367 99.7205 132.541 99.7205C133.46 99.7205 134.282 99.0494 135.045 98.3389V98.3586C135.104 99.2073 135.593 99.7402 136.278 99.7402Z" fill="#454545"/>
</svg>
