<svg width="150" height="151" viewBox="0 0 150 151" fill="none" xmlns="http://www.w3.org/2000/svg">
<rect y="0.838867" width="150" height="150" rx="24" fill="#F9F9F9"/>
<path d="M14.9028 66.9026H17.0545V77.9031C17.0545 79.1627 17.3732 80.1431 18.0108 80.8446C18.6642 81.5302 19.5567 81.8729 20.6883 81.8729C21.8678 81.8729 22.7922 81.5381 23.4616 80.8685C24.131 80.1829 24.4657 79.1945 24.4657 77.9031C24.4657 76.6756 24.0991 75.711 23.3659 75.0095C22.6487 74.2921 21.7004 73.9334 20.521 73.9334C19.5169 73.9334 18.6483 74.2203 17.9151 74.7943V72.642C18.7917 72.1637 19.74 71.9246 20.7601 71.9246C22.4495 71.9246 23.8441 72.4746 24.9438 73.5747C26.0595 74.6588 26.6173 76.1016 26.6173 77.9031C26.6173 79.8003 26.0356 81.275 24.8721 82.3273C23.7245 83.3635 22.2742 83.8817 20.521 83.8817C18.8475 83.8817 17.4928 83.3396 16.4568 82.2555C15.4208 81.1715 14.9028 79.7206 14.9028 77.9031V66.9026ZM29.7186 83.6425V77.114C29.7186 75.2805 30.0614 74.0131 30.7466 73.3116C31.0813 72.9609 31.4878 72.6978 31.9659 72.5224C32.444 72.3471 32.8585 72.2434 33.2091 72.2115C33.5757 72.1797 34.0697 72.1637 34.6913 72.1637H36.7951V74.1725H34.261C33.9423 74.1725 33.6953 74.1805 33.5199 74.1964C33.3446 74.2124 33.1373 74.2682 32.8983 74.3638C32.6592 74.4595 32.4521 74.6109 32.2767 74.8182C31.974 75.2008 31.8225 75.9661 31.8225 77.114V83.6425H29.7186ZM44.9165 71.9246C47.6259 72.0362 48.9807 73.1602 48.9807 75.2965C48.9807 77.9589 47.2355 79.2902 43.7451 79.2902H42.7649V77.4488H43.9124C44.9802 77.4488 45.7213 77.2893 46.1358 76.9705C46.5501 76.6357 46.7574 76.0857 46.7574 75.3204C46.7574 74.8262 46.574 74.4595 46.2075 74.2203C45.8408 73.9653 45.3707 73.8377 44.797 73.8377C43.6653 73.8377 42.7728 74.2363 42.1194 75.0334C41.4818 75.8306 41.1631 76.7871 41.1631 77.9031C41.1631 79.0829 41.5057 80.0394 42.1911 80.7728C42.8923 81.5063 43.8008 81.8729 44.9165 81.8729C45.9206 81.8729 46.7414 81.6258 47.3789 81.1316L48.8134 82.5425C47.7136 83.4352 46.4146 83.8817 44.9165 83.8817C43.0996 83.8817 41.6492 83.3477 40.5654 82.2794C39.4815 81.2112 38.9397 79.8323 38.9397 78.1423C38.9397 76.261 39.4736 74.7385 40.5415 73.5747C41.6093 72.4108 43.0676 71.8608 44.9165 71.9246ZM58.708 76.8987V79.051C58.1024 78.5887 57.3613 78.3575 56.4847 78.3575C55.7357 78.3575 55.1538 78.5089 54.7395 78.8119C54.3251 79.0988 54.1179 79.5133 54.1179 80.0554C54.1179 81.1076 54.8989 81.6338 56.4608 81.6338H59.6165V77.0661C59.6165 75.137 58.6762 74.1725 56.7955 74.1725H52.9703V72.1637H56.915C58.4611 72.1637 59.6483 72.5463 60.4772 73.3116C61.306 74.0769 61.7203 75.1769 61.7203 76.6118V83.6425H56.3891C55.0343 83.6425 53.9585 83.3396 53.1616 82.7338C52.3648 82.128 51.9663 81.2432 51.9663 80.0793C51.9663 78.9155 52.3887 78.0306 53.2333 77.4248C54.078 76.8191 55.138 76.5161 56.413 76.5161C57.1302 76.5161 57.8952 76.6436 58.708 76.8987ZM73.1463 81.1316L74.5807 82.5425C73.481 83.4352 72.2218 83.8817 70.8034 83.8817C69.0343 83.8817 67.6157 83.3157 66.5479 82.1838C65.48 81.0359 64.9461 79.609 64.9461 77.9031C64.9461 76.2291 65.5039 74.8182 66.6196 73.6703C67.7512 72.5065 69.1457 71.9246 70.8034 71.9246C72.2218 71.9246 73.481 72.371 74.5807 73.2638L73.1702 74.6986C72.5008 74.1885 71.7118 73.9334 70.8034 73.9334C69.7037 73.9334 68.827 74.3001 68.1736 75.0334C67.536 75.7509 67.2173 76.7074 67.2173 77.9031C67.2173 79.0988 67.536 80.0633 68.1736 80.7968C68.827 81.5142 69.7037 81.8729 70.8034 81.8729C71.7277 81.8729 72.5087 81.6258 73.1463 81.1316ZM79.6647 66.9026V72.1637H81.6968C83.4659 72.1637 84.733 72.4268 85.498 72.9529C86.1832 73.4152 86.6136 73.9732 86.789 74.6269C86.9802 75.2646 87.0759 76.1096 87.0759 77.1618V83.6425H84.9721V77.1857C84.9721 76.8987 84.964 76.6596 84.9482 76.4683C84.9322 76.261 84.8764 76.0059 84.7808 75.703C84.6852 75.3842 84.5496 75.1291 84.3744 74.9378C84.199 74.7305 83.944 74.5551 83.6093 74.4117C83.2747 74.2522 82.8682 74.1725 82.3901 74.1725H79.6647V83.6425H77.5609V66.9026H79.6647ZM90.8908 79.0988V66.9026H93.0425V79.0988C93.0425 79.6728 93.1063 80.1431 93.2337 80.5098C93.3772 80.8606 93.5923 81.1156 93.8792 81.275C94.1661 81.4185 94.4451 81.5142 94.716 81.562C94.987 81.6098 95.3456 81.6338 95.7918 81.6338V83.6425C94.0068 83.6425 92.7398 83.2998 91.9906 82.6142C91.2575 81.9286 90.8908 80.7568 90.8908 79.0988ZM121.717 81.1316L123.152 82.5425C122.052 83.4352 120.793 83.8817 119.374 83.8817C117.605 83.8817 116.187 83.3157 115.119 82.1838C114.051 81.0359 113.517 79.609 113.517 77.9031C113.517 76.2291 114.075 74.8182 115.191 73.6703C116.322 72.5065 117.717 71.9246 119.374 71.9246C120.793 71.9246 122.052 72.371 123.152 73.2638L121.741 74.6986C121.072 74.1885 120.283 73.9334 119.374 73.9334C118.275 73.9334 117.398 74.3001 116.744 75.0334C116.107 75.7509 115.788 76.7074 115.788 77.9031C115.788 79.0988 116.107 80.0633 116.744 80.7968C117.398 81.5142 118.275 81.8729 119.374 81.8729C120.299 81.8729 121.08 81.6258 121.717 81.1316ZM132.73 72.1637H135.049L132.156 77.1618C134.117 77.6879 135.097 79.2742 135.097 81.9207V83.6425H132.993V81.8968C132.993 80.8286 132.674 80.0076 132.037 79.4336C131.415 78.8437 130.523 78.5488 129.359 78.5488C128.993 78.5488 128.618 78.5727 128.236 78.6206V83.6425H126.132V66.9026H128.236V76.7313C128.905 76.6357 129.574 76.6357 130.244 76.7313L132.73 72.1637Z" fill="#1C173D"/>
<path d="M108.298 72.2827C108.242 72.3712 108.153 72.4336 108.051 72.4564C107.948 72.4792 107.841 72.4605 107.753 72.4043C105.922 71.239 103.601 71.5325 102.627 71.8508C102.154 72.0053 101.698 72.2091 101.268 72.4586C101.283 72.5621 101.28 72.6675 101.259 72.77C101.224 72.9402 101.139 73.0963 101.015 73.2183C100.891 73.3403 100.734 73.4229 100.563 73.4556C100.393 73.4882 100.216 73.4695 100.056 73.4018C99.8958 73.334 99.7594 73.2203 99.6639 73.0751C99.5684 72.9298 99.5182 72.7595 99.5196 72.5856C99.5209 72.4118 99.5738 72.2423 99.6715 72.0985C99.7693 71.9548 99.9074 71.8432 100.069 71.778C100.23 71.7128 100.407 71.6968 100.577 71.7322C100.656 71.7481 100.733 71.7754 100.804 71.8132C101.304 71.5183 101.834 71.279 102.386 71.0996C103.562 70.7141 106.106 70.4156 108.182 71.7371C108.269 71.7941 108.331 71.8836 108.352 71.9858C108.374 72.0881 108.355 72.1948 108.298 72.2827Z" fill="url(#paint0_linear_5_2527)"/>
<path d="M110.254 81.9146C110.06 82.2972 109.836 82.6632 109.582 83.0088C109.685 83.1773 109.728 83.3755 109.704 83.5715C109.68 83.7674 109.591 83.9497 109.451 84.0888C109.311 84.2279 109.128 84.3157 108.932 84.3381C108.736 84.3605 108.538 84.3161 108.37 84.2121C108.203 84.1082 108.075 83.9507 108.008 83.7651C107.94 83.5795 107.938 83.3767 108 83.1894C108.062 83.002 108.186 82.8412 108.351 82.7327C108.516 82.6243 108.712 82.5746 108.909 82.5917C109.149 82.2701 109.361 81.9285 109.542 81.5707L109.559 81.539C111.075 78.8704 111.018 75.9447 109.409 73.8928C109.345 73.8101 109.317 73.7057 109.33 73.6023C109.343 73.4989 109.397 73.4048 109.479 73.3406C109.561 73.2764 109.665 73.2471 109.769 73.2593C109.872 73.2715 109.967 73.324 110.032 73.4055C111.839 75.7134 111.924 78.9751 110.254 81.9146Z" fill="url(#paint1_linear_5_2527)"/>
<path d="M101.769 84.4567C101.675 84.4561 101.584 84.4217 101.513 84.3599C101.441 84.298 101.395 84.2127 101.381 84.1194C101.367 84.026 101.387 83.9308 101.437 83.8509C101.487 83.771 101.565 83.7118 101.655 83.6838C101.683 83.6749 104.58 82.7606 106.201 80.1938C106.227 80.1467 106.263 80.1055 106.306 80.0727C106.348 80.0399 106.397 80.0161 106.449 80.0028C106.501 79.9895 106.556 79.987 106.609 79.9954C106.662 80.0038 106.713 80.023 106.758 80.0518C106.804 80.0805 106.843 80.1183 106.873 80.1627C106.904 80.2071 106.925 80.2572 106.935 80.31C106.945 80.3628 106.945 80.4172 106.933 80.4698C106.922 80.5223 106.9 80.572 106.868 80.6158C105.089 83.4377 102.015 84.4004 101.885 84.4399C101.847 84.4512 101.808 84.4569 101.769 84.4567ZM107.32 79.1411C107.284 79.141 107.248 79.1361 107.212 79.1263C107.162 79.1122 107.116 79.0883 107.075 79.0561C107.034 79.0239 107 78.984 106.975 78.9387C106.95 78.8933 106.933 78.8434 106.927 78.7919C106.921 78.7403 106.925 78.688 106.94 78.638C107.049 78.2852 107.084 77.9138 107.044 77.5468C107.003 77.1797 106.888 76.8248 106.705 76.5041C106.508 76.1677 106.234 75.8825 105.906 75.6713C105.578 75.4601 105.205 75.329 104.817 75.2883C104.764 75.2839 104.712 75.2688 104.665 75.2441C104.618 75.2194 104.577 75.1854 104.543 75.1443C104.51 75.1032 104.485 75.0558 104.47 75.0049C104.455 74.954 104.451 74.9006 104.457 74.8479C104.463 74.7952 104.48 74.7443 104.506 74.6983C104.533 74.6522 104.568 74.6119 104.61 74.5798C104.652 74.5477 104.701 74.5244 104.752 74.5113C104.804 74.4982 104.857 74.4955 104.909 74.5036C105.421 74.5586 105.913 74.7333 106.344 75.0135C106.776 75.2937 107.136 75.6716 107.394 76.1166C107.627 76.5282 107.774 76.9825 107.826 77.4523C107.879 77.9221 107.836 78.3977 107.701 78.8505C107.678 78.9339 107.628 79.0075 107.559 79.06C107.491 79.1125 107.407 79.141 107.32 79.1411ZM98.5976 78.8278C98.3174 78.8311 98.0377 78.8042 97.7634 78.7477C97.6642 78.7205 97.5795 78.6557 97.5273 78.5671C97.4751 78.4784 97.4596 78.373 97.4839 78.273C97.5082 78.1731 97.5705 78.0866 97.6575 78.0318C97.7446 77.9771 97.8496 77.9584 97.9502 77.9797C98.049 78.0035 100.304 78.5046 101.48 76.3469C101.498 76.3143 101.515 76.2817 101.532 76.2481C101.619 76.0739 101.722 75.9084 101.84 75.7539C102.217 75.2822 102.712 74.9178 103.274 74.6973C103.372 74.6595 103.48 74.6622 103.576 74.7048C103.672 74.7473 103.747 74.8262 103.785 74.9241C103.823 75.022 103.82 75.1309 103.778 75.2268C103.735 75.3228 103.656 75.3979 103.558 75.4356C103.127 75.6076 102.747 75.8881 102.455 76.2501C102.369 76.3665 102.294 76.4905 102.23 76.6207L102.175 76.7245C101.194 78.5234 99.578 78.8278 98.5976 78.8278Z" fill="url(#paint2_linear_5_2527)"/>
<path d="M104.951 84.7732C104.866 84.773 104.783 84.7451 104.714 84.6936C104.646 84.642 104.596 84.5697 104.572 84.4875C104.549 84.4053 104.552 84.3176 104.583 84.2376C104.613 84.1576 104.668 84.0896 104.741 84.0438C109.364 81.1389 108.731 77.0153 108.723 76.9748C108.512 75.8549 108.084 74.7015 106.393 73.8524L106.381 73.8455C105.088 73.1388 103.004 73.379 101.735 74.3812C101.694 74.4137 101.648 74.4378 101.598 74.4522C101.547 74.4666 101.495 74.4709 101.443 74.4651C101.391 74.4592 101.341 74.4432 101.296 74.4179C101.25 74.3927 101.21 74.3587 101.178 74.318C101.145 74.2772 101.121 74.2305 101.107 74.1804C101.092 74.1303 101.088 74.0779 101.094 74.0262C101.1 73.9744 101.116 73.9243 101.141 73.8787C101.166 73.8331 101.2 73.793 101.241 73.7605C102.764 72.5616 105.182 72.2937 106.754 73.1448C108.752 74.1509 109.264 75.5693 109.5 76.8246C109.509 76.87 110.309 81.47 105.161 84.709C105.099 84.7502 105.026 84.7725 104.951 84.7732ZM98.592 77.0687C98.1818 77.0575 97.7746 76.9944 97.3802 76.8809C97.2786 76.8547 97.1916 76.7892 97.1383 76.6988C97.085 76.6085 97.0698 76.5006 97.096 76.399C97.1223 76.2975 97.1878 76.2105 97.2781 76.1572C97.3685 76.1039 97.4763 76.0887 97.5779 76.1149C98.7877 76.4302 99.4835 76.3709 100.164 75.1868C100.189 75.1418 100.224 75.1024 100.265 75.0708C100.306 75.0391 100.353 75.016 100.404 75.0025C100.454 74.9891 100.506 74.9856 100.558 74.9924C100.609 74.9992 100.659 75.016 100.704 75.042C100.749 75.0679 100.788 75.1025 100.82 75.1437C100.851 75.1849 100.875 75.2319 100.888 75.2821C100.901 75.3322 100.905 75.3845 100.898 75.436C100.891 75.4875 100.874 75.5372 100.848 75.5821C100.181 76.7455 99.3847 77.0687 98.592 77.0687Z" fill="url(#paint3_linear_5_2527)"/>
<path d="M99.4373 73.6723C99.3479 73.6175 99.2405 73.6005 99.1385 73.6249C99.0366 73.6494 98.9485 73.7134 98.8937 73.8027L98.7781 73.9935C98.6051 74.2782 98.6002 74.2851 98.5102 74.3721C98.4203 74.459 98.2888 74.463 98.0585 74.4116L97.9933 74.3977C97.9418 74.3853 97.8883 74.3834 97.836 74.3921C97.7837 74.4008 97.7337 74.4199 97.689 74.4483C97.6442 74.4766 97.6056 74.5137 97.5755 74.5573C97.5454 74.6009 97.5243 74.6501 97.5136 74.702C97.5028 74.7539 97.5026 74.8074 97.513 74.8594C97.5234 74.9114 97.5441 74.9607 97.5739 75.0045C97.6037 75.0484 97.642 75.0857 97.6865 75.1144C97.7311 75.1431 97.781 75.1626 97.8332 75.1717L97.8856 75.1835C98.0243 75.2181 98.1666 75.237 98.3096 75.2399C98.4479 75.2427 98.5854 75.218 98.714 75.167C98.8427 75.1161 98.9599 75.0401 99.0588 74.9433C99.2248 74.7832 99.2733 74.7032 99.4541 74.4057L99.5688 74.2179C99.5962 74.1735 99.6145 74.1241 99.6227 74.0726C99.6309 74.021 99.6289 73.9684 99.6167 73.9177C99.6044 73.867 99.5823 73.8192 99.5515 73.7771C99.5207 73.7349 99.4819 73.6993 99.4373 73.6723Z" fill="url(#paint4_linear_5_2527)"/>
<path d="M105.602 77.1513C105.512 77.0108 105.394 76.89 105.257 76.796C105.119 76.7019 104.963 76.6367 104.8 76.604C104.636 76.5714 104.468 76.5721 104.305 76.6061C104.141 76.6401 103.987 76.7066 103.85 76.8018C103.713 76.8969 103.596 77.0187 103.507 77.1599C103.419 77.301 103.359 77.4587 103.333 77.6233C103.306 77.788 103.313 77.9563 103.353 78.1182C103.393 78.2801 103.465 78.4323 103.566 78.5657C102.874 79.47 101.154 80.8805 98.5791 81.0871C98.4742 81.0912 98.3753 81.1369 98.3042 81.214C98.233 81.2911 98.1953 81.3934 98.1995 81.4982C98.2037 81.6031 98.2494 81.702 98.3265 81.7732C98.4036 81.8443 98.5059 81.882 98.6107 81.8778H98.6423C101.509 81.6485 103.434 80.0453 104.213 79.0243C104.246 79.0342 104.279 79.0431 104.312 79.05C104.395 79.0667 104.479 79.0753 104.564 79.0757C104.85 79.0756 105.127 78.977 105.349 78.7967C105.57 78.6163 105.723 78.3651 105.782 78.0853C105.815 77.9255 105.816 77.7606 105.785 77.6002C105.755 77.4399 105.692 77.2872 105.602 77.1513ZM105.009 77.9232C104.993 77.9947 104.96 78.0612 104.913 78.1171C104.865 78.1729 104.805 78.2163 104.737 78.2435C104.669 78.2707 104.595 78.2808 104.523 78.2731C104.45 78.2653 104.38 78.2398 104.319 78.1989C104.259 78.158 104.209 78.1029 104.175 78.0383C104.14 77.9737 104.122 77.9017 104.122 77.8285C104.121 77.7553 104.139 77.6832 104.173 77.6184C104.207 77.5536 104.256 77.498 104.317 77.4567C104.39 77.4081 104.475 77.3823 104.563 77.3825C104.594 77.3824 104.625 77.3857 104.655 77.3924C104.713 77.4042 104.768 77.4273 104.816 77.4604C104.865 77.4935 104.907 77.5359 104.94 77.5852C104.972 77.6346 104.994 77.6898 105.005 77.7478C105.016 77.8058 105.016 77.8654 105.004 77.9232H105.009Z" fill="url(#paint5_linear_5_2527)"/>
<path d="M98.6072 80.3426C98.2775 80.3434 97.9486 80.3103 97.6257 80.2438C97.5251 80.2204 97.4376 80.1586 97.382 80.0715C97.3264 79.9845 97.3071 79.8792 97.3281 79.7781C97.3492 79.677 97.4089 79.5881 97.4947 79.5305C97.5804 79.4729 97.6852 79.4511 97.7868 79.4698C98.8987 79.7001 99.895 79.3997 100.308 79.1852C100.354 79.1612 100.405 79.1466 100.456 79.1421C100.508 79.1376 100.56 79.1434 100.61 79.159C100.659 79.1747 100.705 79.1999 100.745 79.2333C100.785 79.2667 100.817 79.3076 100.841 79.3537C100.865 79.3998 100.88 79.4501 100.885 79.5019C100.889 79.5536 100.883 79.6057 100.868 79.6552C100.852 79.7047 100.827 79.7507 100.793 79.7905C100.76 79.8302 100.719 79.863 100.673 79.8869C100.028 80.1943 99.3215 80.3502 98.6072 80.3426Z" fill="url(#paint6_linear_5_2527)"/>
<path d="M100.005 83.2992C99.9077 83.2994 99.8141 83.264 99.7416 83.1997C99.669 83.1355 99.6226 83.0468 99.6112 82.9506C99.5997 82.8544 99.624 82.7573 99.6794 82.6778C99.7348 82.5983 99.8174 82.5419 99.9117 82.5193C102.239 81.9589 103.122 81.1623 103.904 80.4575C103.942 80.4202 103.987 80.391 104.037 80.3716C104.086 80.3522 104.139 80.3431 104.193 80.3447C104.246 80.3463 104.298 80.3586 104.346 80.381C104.395 80.4033 104.438 80.4352 104.474 80.4747C104.51 80.5143 104.537 80.5606 104.554 80.6109C104.572 80.6613 104.579 80.7147 104.575 80.7678C104.571 80.8209 104.557 80.8728 104.532 80.9202C104.508 80.9676 104.475 81.0096 104.434 81.0437C103.627 81.7731 102.623 82.6804 100.1 83.2873C100.069 83.2954 100.037 83.2993 100.005 83.2992Z" fill="url(#paint7_linear_5_2527)"/>
<defs>
<linearGradient id="paint0_linear_5_2527" x1="99.5195" y1="72.1215" x2="108.361" y2="72.1215" gradientUnits="userSpaceOnUse">
<stop stop-color="#FCBC5E"/>
<stop offset="1" stop-color="#FFA234"/>
</linearGradient>
<linearGradient id="paint1_linear_5_2527" x1="107.955" y1="78.8002" x2="111.45" y2="78.8002" gradientUnits="userSpaceOnUse">
<stop stop-color="#FCBC5E"/>
<stop offset="1" stop-color="#FFA234"/>
</linearGradient>
<linearGradient id="paint2_linear_5_2527" x1="97.4727" y1="79.4779" x2="107.848" y2="79.4779" gradientUnits="userSpaceOnUse">
<stop stop-color="#FCBC5E"/>
<stop offset="1" stop-color="#FFA234"/>
</linearGradient>
<linearGradient id="paint3_linear_5_2527" x1="97.0835" y1="78.7108" x2="109.55" y2="78.7108" gradientUnits="userSpaceOnUse">
<stop stop-color="#FCBC5E"/>
<stop offset="1" stop-color="#FFA234"/>
</linearGradient>
<linearGradient id="paint4_linear_5_2527" x1="97.5054" y1="74.427" x2="99.6277" y2="74.427" gradientUnits="userSpaceOnUse">
<stop stop-color="#FCBC5E"/>
<stop offset="1" stop-color="#FFA234"/>
</linearGradient>
<linearGradient id="paint5_linear_5_2527" x1="98.1992" y1="79.2291" x2="105.808" y2="79.2291" gradientUnits="userSpaceOnUse">
<stop stop-color="#FCBC5E"/>
<stop offset="1" stop-color="#FFA234"/>
</linearGradient>
<linearGradient id="paint6_linear_5_2527" x1="97.3198" y1="79.7417" x2="100.886" y2="79.7417" gradientUnits="userSpaceOnUse">
<stop stop-color="#FCBC5E"/>
<stop offset="1" stop-color="#FFA234"/>
</linearGradient>
<linearGradient id="paint7_linear_5_2527" x1="99.6084" y1="81.8218" x2="104.576" y2="81.8218" gradientUnits="userSpaceOnUse">
<stop stop-color="#FCBC5E"/>
<stop offset="1" stop-color="#FFA234"/>
</linearGradient>
</defs>
</svg>
