<svg width="150" height="151" viewBox="0 0 150 151" fill="none" xmlns="http://www.w3.org/2000/svg">
<rect y="0.838867" width="150" height="150" rx="24" fill="#F9F9F9"/>
<path d="M84.7446 68.1516V70.6799L90.7348 70.6839L90.7278 82.6549L93.4906 82.6589L93.4977 70.6839L99.5021 70.6919V68.1637L84.7446 68.1516Z" fill="#242021"/>
<path d="M36.5157 68.1182H33.7529V82.6174H36.5157V68.1182Z" fill="#242021"/>
<path d="M46.8039 74.1896V76.3125H53.9397V80.0728H47.1728C46.504 80.0821 45.8386 79.9641 45.2044 79.7237C44.6374 79.5034 44.1109 79.1675 43.651 78.7324C43.2178 78.3195 42.8713 77.8027 42.6366 77.2195C42.3892 76.6287 42.2609 75.9831 42.2609 75.3293C42.2609 74.6756 42.3892 74.03 42.6366 73.4392C42.8766 72.8721 43.2227 72.3709 43.651 71.9704C44.1092 71.5374 44.6365 71.2077 45.2044 70.9992C45.8391 70.7614 46.5041 70.6434 47.1728 70.6501H55.7343V68.1218H47.1763C46.1396 68.1108 45.1076 68.2786 44.1156 68.6195C43.2367 68.9282 42.4147 69.415 41.6897 70.0562C40.9995 70.6661 40.443 71.448 40.0634 72.341C39.6839 73.234 39.4916 74.2141 39.5014 75.2049C39.4905 76.2177 39.6884 77.2194 40.0795 78.1305C40.4574 79.0374 41.0042 79.841 41.6826 80.4861C42.4062 81.1559 43.227 81.6786 44.1085 82.0312C45.0903 82.4285 46.1266 82.6255 47.1692 82.6131H56.7203V74.1856L46.8039 74.1896Z" fill="#242021"/>
<path d="M73.4897 68.0247V78.6273L62.332 68.4702C62.1552 68.3008 61.9551 68.1653 61.7397 68.0689C61.4711 67.9544 61.1808 67.9208 60.8973 67.9714C60.6138 68.0221 60.3468 68.1552 60.1225 68.3578C59.9974 68.5027 59.9011 68.6761 59.8399 68.8664C59.7788 69.0566 59.7542 69.2595 59.7678 69.4614V82.6283H62.3887V72.0178L73.4826 82.2631C73.8311 82.6085 74.2783 82.7995 74.7416 82.8009C74.9218 82.8111 75.102 82.7808 75.2718 82.712C75.4416 82.6431 75.5977 82.5369 75.7311 82.3996C75.8587 82.2568 75.9579 82.0848 76.0221 81.8952C76.0863 81.7056 76.1141 81.5027 76.1035 81.3V68.0207L73.4897 68.0247Z" fill="#242021"/>
<path d="M82.2355 68.1484H79.4727V82.6477H82.2355V68.1484Z" fill="#242021"/>
<path d="M84.2024 76.6776C84.1575 76.608 84.115 76.5398 84.0748 76.4729L84.0322 76.5412C83.7698 76.9184 83.5002 77.2715 83.2307 77.6247V83.7848H78.4676V67.0221H83.2271V75.8148C83.9779 74.5443 84.6282 73.2014 85.1707 71.8017H83.752V67.0141H86.3233C88.5932 54.7461 90.9339 52.9683 92.1292 51.8687C92.7712 51.2703 93.4884 50.7834 94.2571 50.424C95.0198 50.0723 95.8288 49.8662 96.6511 49.814C95.8557 49.9736 95.0888 50.28 94.3813 50.721C93.6869 51.154 93.0543 51.7033 92.5051 52.3503C92.1857 52.7262 91.8917 53.1286 91.6255 53.5542C92.9094 52.7877 94.4628 52.5229 96.3106 52.8198C98.9245 53.2212 101.336 54.6578 103.943 55.1434C105.53 55.4443 107.157 55.3197 108.694 54.7795C110.231 54.2393 111.634 53.2987 112.791 52.0333C113.948 50.7678 114.826 49.2129 115.356 47.4934C115.885 45.7739 116.05 43.9379 115.838 42.133C115.598 43.5747 115.044 44.9262 114.228 46.0659C113.411 47.2056 112.357 48.0978 111.16 48.6623C109.768 49.3785 108.257 49.7519 106.727 49.7579C106.901 49.8622 107.082 49.9545 107.245 50.0508C107.909 50.4142 108.611 50.6838 109.334 50.8534C110.067 51.0281 110.823 51.0444 111.561 50.9016C110.827 51.1526 110.059 51.2465 109.295 51.1785C108.525 51.1004 107.766 50.9226 107.032 50.6488C101.769 48.7907 98.3003 45.7849 94.6402 44.5649C89.9728 43.0119 84.7699 45.7689 81.9645 50.2756C80.4514 52.7974 79.4309 55.6554 78.9712 58.6589C78.7335 60.0835 78.5917 61.5523 78.0597 62.8766C77.5277 64.2009 76.2013 65.5574 74.8252 65.5654C73.4491 65.5734 72.1156 64.1889 71.5942 62.8726C71.0728 61.5563 70.9239 60.0635 70.6898 58.6508C70.2338 55.6482 69.217 52.7901 67.7071 50.2675C64.9053 45.7689 59.7024 42.9878 55.0386 44.5368C51.3749 45.7408 47.9027 48.7546 42.6254 50.6006C41.8903 50.8745 41.1299 51.0522 40.3591 51.1303C39.5946 51.1957 38.826 51.099 38.0928 50.8454C38.8319 50.9928 39.589 50.9792 40.3236 50.8053C41.0458 50.6333 41.7471 50.3638 42.4126 50.0027C42.5828 49.9063 42.7672 49.814 42.9304 49.7097C41.4018 49.7085 39.8908 49.3405 38.4971 48.6302C37.3038 48.0599 36.2539 47.164 35.4413 46.0225C34.6287 44.8811 34.0787 43.5296 33.8404 42.0889C33.6278 43.8916 33.7915 45.7256 34.3185 47.4438C34.8454 49.1619 35.721 50.7164 36.8748 51.9826C38.0286 53.2488 39.4286 54.1913 40.9625 54.7347C42.4964 55.278 44.1215 55.407 45.7074 55.1113C48.3142 54.6297 50.7258 53.2091 53.3433 52.7958C55.1946 52.5028 56.7409 52.7717 58.0319 53.5382C57.7666 53.1118 57.4725 52.7093 57.1523 52.3343C56.6031 51.6879 55.972 51.1374 55.2797 50.7009C54.5715 50.2574 53.8034 49.9496 53.0063 49.79C53.8297 49.8431 54.6397 50.0492 55.4038 50.4C56.1715 50.7635 56.8883 51.2515 57.5318 51.8487C58.7519 52.9683 61.1778 54.8103 63.4795 67.8769L63.5221 68.1097L72.4738 76.2643V66.8937H77.0844V81.3047C77.0937 81.6649 77.0353 82.0233 76.913 82.3561C76.7907 82.6888 76.6073 82.9884 76.375 83.235C75.923 83.7096 75.3245 83.9646 74.7081 83.9453C74.0113 83.9426 73.3382 83.6579 72.8107 83.1427L67.4269 78.1624C67.2921 78.3791 66.9481 78.347 66.5757 77.8615C66.2033 77.3759 65.9161 76.9906 65.5969 76.5291L65.5508 76.4609C65.5129 76.5278 65.4703 76.596 65.4231 76.6656C64.9301 77.3919 64.0328 77.9136 63.3483 78.5517V83.7687H63.2986C63.3465 84.3775 63.3465 84.9899 63.2986 85.5987C63.2603 86.4023 63.4225 87.2019 63.7668 87.9062C63.8729 88.1591 64.0321 88.3788 64.2306 88.546C64.429 88.7132 64.6607 88.8229 64.9053 88.8653C65.5791 89.07 66.4268 88.8653 67.0581 89.1783C68.3881 89.8084 68.3632 91.9153 68.1611 93.2396C67.9873 94.3392 67.4517 95.3986 67.5156 96.5383C67.6181 97.2744 67.8601 97.9767 68.2249 98.597C69.2605 100.716 70.2961 102.836 71.3317 104.958C71.3849 104.492 71.4346 104.027 71.4807 103.565C71.5126 103.232 71.5445 102.895 71.5694 102.554L71.6261 100.8C71.6244 100.143 71.52 99.4904 71.3175 98.8739C71.6473 99.5926 71.8531 100.376 71.924 101.181C72.0127 101.984 72.0411 102.787 72.0588 103.589C72.0765 104.392 72.0233 105.195 72.1049 105.977C72.339 108.128 73.1689 109.312 74.2081 109.589C73.9503 108.203 74.1617 106.758 74.8003 105.54C75.4453 106.749 75.6655 108.188 75.4175 109.573C76.446 109.3 77.2865 108.12 77.5206 105.961C77.6057 105.187 77.5525 104.38 77.5702 103.553C77.579 102.748 77.6264 101.944 77.7121 101.145C77.7818 100.339 77.9877 99.556 78.3186 98.8378C78.1147 99.4554 78.0091 100.109 78.0065 100.768L78.0597 102.522C78.0916 102.859 78.1164 103.196 78.1483 103.533C78.1945 103.995 78.2477 104.46 78.2938 104.922L81.4113 98.5649C81.7729 97.9442 82.0146 97.244 82.1206 96.5102C82.2021 95.3705 81.6489 94.3071 81.4786 93.2115C81.28 91.8872 81.2587 89.7763 82.5852 89.1503C83.2165 88.8533 84.0641 89.0459 84.738 88.8412C84.9824 88.7999 85.2141 88.6911 85.4126 88.5245C85.6111 88.358 85.7704 88.1387 85.8765 87.8861C86.2246 87.182 86.3882 86.3802 86.3481 85.5746C86.2796 84.8767 86.2855 84.172 86.3659 83.4758C86.5412 82.6726 86.7786 81.8883 87.0752 81.1321C87.8342 78.7885 85.192 78.1424 84.2024 76.6776Z" fill="#82C341"/>
<path d="M104.609 80.1187V70.692H115.958V68.1758H101.843V82.675L116.015 82.663V80.1147L104.609 80.1187ZM106.631 76.3544H115.38V74.2355H106.631V76.3544Z" fill="#242021"/>
</svg>
