<svg width="150" height="151" viewBox="0 0 150 151" fill="none" xmlns="http://www.w3.org/2000/svg">
<rect y="0.838867" width="150" height="150" rx="24" fill="#F9F9F9"/>
<g clip-path="url(#clip0_5_2530)">
<path d="M34.8775 60.2547C34.7195 61.186 34.3403 62.0065 33.9699 62.8703C33.9013 63.0368 33.8328 63.2033 33.7622 63.3748C33.6944 63.5328 33.6267 63.6908 33.5569 63.8537C33.4652 64.0707 33.4652 64.0707 33.3716 64.2921C33.1598 64.6271 33.1598 64.6271 32.8454 64.7579C32.4567 64.7897 32.1591 64.7105 31.7836 64.6076C30.9637 64.4313 30.5892 64.4859 29.8804 64.9394C28.7467 66.1677 28.7149 68.1239 28.6732 69.7096C28.667 69.8872 28.6607 70.0648 28.6542 70.2478C28.6349 70.8077 28.6183 71.3676 28.6019 71.9276C28.5891 72.3103 28.5762 72.6929 28.5631 73.0756C28.5313 74.0072 28.5032 74.9389 28.475 75.8706C26.4652 75.8706 24.4554 75.8706 22.3848 75.8706C22.3848 70.5628 22.3848 65.2549 22.3848 59.7862C24.2915 59.7862 26.1982 59.7862 28.1627 59.7862C28.24 60.7138 28.24 60.7138 28.3188 61.6601C28.4573 61.4668 28.5958 61.2736 28.7385 61.0745C30.3166 58.9827 32.7015 59.1146 34.8775 60.2547Z" fill="#640832"/>
<path d="M52.9719 61.0706C54.6956 62.5203 55.4382 64.3264 55.7834 66.5301C55.8418 67.4653 55.8224 68.4039 55.8224 69.341C49.8704 69.4183 49.8704 69.4183 43.7981 69.4971C44.2707 71.1048 44.2707 71.1048 45.3597 71.9957C46.2904 72.3514 47.0913 72.3785 48.0145 71.9957C48.5872 71.6669 48.8969 71.4528 49.2637 70.9026C49.9046 70.9512 50.5455 71 51.1864 71.049C51.3657 71.0626 51.545 71.0761 51.7296 71.0901C52.0876 71.1175 52.4455 71.1455 52.8033 71.1739C53.1435 71.2007 53.4839 71.2258 53.8243 71.2491C54.0534 71.2663 54.0534 71.2663 54.2871 71.2838C54.4218 71.2932 54.5565 71.3026 54.6953 71.3122C55.0416 71.3711 55.0416 71.3711 55.5101 71.6834C55.2405 72.0735 54.9694 72.4624 54.6958 72.8497C54.5056 73.1193 54.3184 73.3911 54.134 73.6646C52.6656 75.2169 50.6466 75.9673 48.546 76.0881C48.019 76.1008 47.4933 76.1068 46.9663 76.1051C46.6404 76.1046 46.3148 76.1083 45.989 76.1123C43.4297 76.1244 41.3846 75.5984 39.4928 73.8245C37.6233 71.7386 37.2425 69.2893 37.37 66.5753C37.511 64.6068 38.4255 62.7048 39.8942 61.3768C43.4524 58.7054 49.3178 58.3573 52.9719 61.0706ZM44.7833 63.8107C44.0785 64.5885 43.7981 65.1478 43.7981 66.2178C45.6533 66.2178 47.5085 66.2178 49.4199 66.2178C49.2622 64.9559 49.0825 64.2503 48.1413 63.4167C46.9626 62.9714 45.759 62.8959 44.7833 63.8107Z" fill="#640832"/>
<path d="M58.2959 59.613C60.4087 59.613 62.5216 59.613 64.6984 59.613C65.4012 61.3698 65.4012 61.3698 65.609 62.0687C65.6793 62.303 65.6793 62.303 65.751 62.542C65.799 62.7047 65.847 62.8675 65.8965 63.0351C65.9476 63.2062 65.9987 63.3773 66.0514 63.5536C66.2127 64.0943 66.373 64.6352 66.5333 65.1762C66.6433 65.5453 66.7533 65.9143 66.8633 66.2834C67.1315 67.1829 67.3988 68.0827 67.6655 68.9826C67.9718 68.5231 68.1073 68.1671 68.2713 67.6439C68.3557 67.3766 68.3557 67.3766 68.4417 67.1039C68.5016 66.9117 68.5615 66.7194 68.6232 66.5213C68.6857 66.3224 68.7483 66.1235 68.8109 65.9246C68.9753 65.4018 69.1389 64.8788 69.3023 64.3558C69.4692 63.8217 69.637 63.288 69.8047 62.7542C70.1336 61.7074 70.4611 60.6602 70.7887 59.613C72.85 59.613 74.9113 59.613 77.0351 59.613C76.8594 60.6671 76.8594 60.6671 76.6359 61.1899C76.586 61.3081 76.536 61.4263 76.4846 61.5481C76.4299 61.6747 76.3753 61.8012 76.3189 61.9316C76.2613 62.0673 76.2036 62.2031 76.1443 62.3429C75.9541 62.79 75.7626 63.2364 75.5711 63.6829C75.4383 63.9945 75.3056 64.3062 75.173 64.6178C74.8954 65.2703 74.6174 65.9225 74.339 66.5746C73.7108 68.0476 73.0892 69.5235 72.4672 70.9991C72.1568 71.7353 71.8461 72.4714 71.5353 73.2075C71.4557 73.3961 71.4557 73.3961 71.3745 73.5886C71.3246 73.7068 71.2747 73.8249 71.2233 73.9467C71.1592 74.0985 71.1592 74.0985 71.0938 74.2534C70.8892 74.7353 70.6826 75.2163 70.4764 75.6975C68.6212 75.6975 66.766 75.6975 64.8546 75.6975C63.7804 73.3701 63.7804 73.3701 63.3961 72.4029C63.3518 72.2927 63.3074 72.1826 63.2618 72.0691C63.1675 71.8348 63.0735 71.6004 62.9796 71.3659C62.7262 70.733 62.471 70.1009 62.2157 69.4688C62.1633 69.3389 62.1108 69.2089 62.0568 69.0751C61.3943 67.4376 60.7123 65.8084 60.0292 64.1794C59.5796 63.1065 59.1331 62.0323 58.6967 60.9538C58.6195 60.7635 58.5423 60.5731 58.4628 60.377C58.2959 59.9254 58.2959 59.9254 58.2959 59.613Z" fill="#640832"/>
<path d="M94.0975 60.4538C94.2139 60.5176 94.3302 60.5814 94.4501 60.6471C95.976 61.5653 96.9596 63.001 97.5331 64.6701C97.8454 66.0755 97.8454 66.0755 98.0015 69.3549C93.982 69.3549 89.9624 69.3549 85.8211 69.3549C86.3452 71.0107 86.3452 71.0107 87.5388 72.0096C88.4498 72.4024 89.1856 72.3318 90.1222 72.0584C90.5063 71.8532 90.6443 71.6979 90.9168 71.3718C91.3368 70.9461 91.4197 70.9189 92.0578 70.8506C92.2882 70.8692 92.5182 70.8933 92.7476 70.922C92.9311 70.939 92.9311 70.939 93.1184 70.9564C93.5072 70.9937 93.8949 71.038 94.283 71.0824C94.5455 71.1084 94.8081 71.1339 95.0708 71.1589C96.9416 71.344 96.9416 71.344 97.5331 71.5411C97.3289 72.3251 96.9794 72.8368 96.4302 73.415C96.3532 73.4969 96.2762 73.5787 96.1968 73.663C94.7178 75.1957 92.894 75.9938 90.7538 76.0949C90.2333 76.1008 89.713 76.1058 89.1925 76.1073C88.8611 76.1088 88.5299 76.1136 88.1985 76.1185C85.7734 76.1376 83.6025 75.713 81.7902 74.0006C79.8202 71.8899 79.4333 69.6032 79.5155 66.8106C79.6266 64.6755 80.4783 62.9066 82.0244 61.42C85.067 58.8586 90.609 58.4651 94.0975 60.4538ZM86.7971 63.9381C86.1664 64.6914 85.9841 65.2538 85.8211 66.2317C87.7278 66.2317 89.6345 66.2317 91.599 66.2317C91.3455 64.635 91.3455 64.635 90.418 63.5379C89.1128 62.8734 87.93 62.9854 86.7971 63.9381Z" fill="#640832"/>
<path d="M116.595 61.0268C117.857 62.2913 118.168 64.1223 118.183 65.8332C118.182 66.0252 118.182 66.2172 118.181 66.415C118.184 66.7238 118.186 67.0326 118.189 67.3414C118.194 67.9868 118.195 68.6323 118.197 69.2778C118.198 69.8111 118.201 70.3445 118.205 70.8779C118.209 71.2759 118.21 71.6739 118.209 72.0719C118.219 73.2014 118.367 74.1366 118.742 75.1989C118.794 75.4051 118.845 75.6112 118.899 75.8236C116.94 75.8236 114.982 75.8236 112.964 75.8236C112.437 74.7695 112.437 74.7695 112.496 74.1058C112.39 74.1888 112.284 74.2717 112.175 74.3571C110.335 75.7534 108.819 76.1647 106.542 76.1847C106.29 76.1915 106.29 76.1915 106.032 76.1984C104.336 76.2117 102.803 75.7816 101.565 74.5743C100.723 73.6363 100.531 72.5275 100.472 71.295C100.54 70.0802 100.962 69.0755 101.833 68.2206C103.461 66.8866 105.717 66.6375 107.716 66.2198C109.143 65.9201 110.519 65.6086 111.871 65.0486C111.794 64.3529 111.794 64.3529 111.715 63.6431C110.38 63.2683 109.086 63.1268 107.811 63.7993C107.584 64.1045 107.584 64.1045 107.421 64.4532C107.256 64.7692 107.256 64.7692 107.03 65.0486C106.731 65.1149 106.731 65.1149 106.368 65.1004C106.159 65.0924 106.159 65.0924 105.946 65.0841C105.023 65.0154 104.104 64.9194 103.185 64.8143C102.983 64.792 102.782 64.7696 102.574 64.7466C102.082 64.6919 101.589 64.6363 101.096 64.5801C101.217 63.0666 101.67 61.9698 102.807 60.9201C106.027 58.4622 113.467 58.5104 116.595 61.0268ZM110.101 68.8855C109.806 68.9806 109.511 69.0729 109.215 69.1651C109.028 69.226 108.841 69.2869 108.648 69.3497C108.477 69.4045 108.305 69.4592 108.128 69.5157C107.469 69.8189 106.997 70.2161 106.718 70.8948C106.718 71.4618 106.871 71.7632 107.187 72.2319C107.869 72.6973 108.401 72.7955 109.217 72.7004C110.317 72.4065 111.11 71.9661 111.715 70.9826C112.016 70.3737 112.062 69.8918 112.047 69.2161C112.044 69.0492 112.041 68.8823 112.038 68.7104C112.035 68.5842 112.031 68.458 112.027 68.3279C111.401 68.3279 110.693 68.6933 110.101 68.8855Z" fill="#640832"/>
<path d="M121.368 53.9956C123.429 53.9956 125.491 53.9956 127.615 53.9956C127.615 61.2617 127.615 68.5278 127.615 76.0141C125.553 76.0141 123.492 76.0141 121.368 76.0141C121.368 68.748 121.368 61.4819 121.368 53.9956Z" fill="#640832"/>
<path d="M22.3848 81.3337C22.3848 81.1276 22.3848 80.9215 22.3848 80.7091C57.4608 80.6605 92.5446 80.7858 127.615 81.0214C127.615 81.2275 127.615 81.4337 127.615 81.646C108.391 81.667 89.1688 81.6437 69.9453 81.5827C68.3979 81.5778 66.8505 81.5731 65.3032 81.5684C50.9949 81.5248 36.6904 81.4444 22.3848 81.3337Z" fill="#494847"/>
<path d="M23.384 86.1773C23.7784 86.2847 23.7784 86.2847 23.9445 86.4408C23.9705 86.6615 23.9861 86.8833 23.9971 87.1051C24.0075 87.3051 24.0075 87.3051 24.0182 87.5092C24.0247 87.6494 24.0312 87.7896 24.038 87.9341C24.0451 88.0749 24.0523 88.2157 24.0597 88.3608C24.0774 88.7098 24.0943 89.0588 24.1106 89.4079C24.2329 89.3334 24.3551 89.2589 24.4811 89.1822C25.2226 88.7908 25.9604 88.7009 26.7985 88.846C27.6625 89.1056 28.0887 89.4886 28.595 90.1886C29.1221 91.2025 29.1271 92.4681 28.813 93.5485C28.415 94.3654 27.7927 94.9383 26.9341 95.3419C26.0765 95.4223 25.2331 95.5008 24.4947 95.0296C24.368 94.9265 24.2412 94.8235 24.1106 94.7173C24.0455 94.8203 23.9804 94.9234 23.9134 95.0296C23.6124 95.3419 23.6124 95.3419 23.1868 95.4005C22.7819 95.3419 22.7819 95.3419 22.4497 95.0296C22.4064 94.6681 22.4064 94.6681 22.4041 94.2107C22.4025 94.0398 22.401 93.8688 22.3993 93.6927C22.3995 93.5075 22.3996 93.3222 22.3998 93.1313C22.3991 92.9418 22.3984 92.7524 22.3976 92.5572C22.3967 92.156 22.3966 91.7548 22.3973 91.3537C22.3978 90.7378 22.3939 90.122 22.3897 89.5061C22.3893 89.1171 22.3892 88.7281 22.3894 88.3391C22.3879 88.1539 22.3863 87.9686 22.3848 87.7777C22.3858 87.6068 22.3868 87.4358 22.3879 87.2597C22.3878 87.1088 22.3877 86.9579 22.3876 86.8023C22.4081 86.683 22.4286 86.5637 22.4497 86.4408C22.948 86.1285 22.948 86.1285 23.384 86.1773ZM24.1106 90.8133C23.8545 91.5357 23.8597 92.2451 23.9445 92.9995C24.275 93.6102 24.5035 93.8704 25.1072 94.2488C25.79 94.3201 26.1477 94.3202 26.7369 93.9755C27.3323 93.3997 27.4807 92.9599 27.4843 92.1602C27.4701 91.4446 27.3773 90.9466 26.9341 90.3448C25.8851 89.6873 24.8637 89.8618 24.1106 90.8133Z" fill="#4C4D4D"/>
<path d="M91.9287 89.1429C92.8997 89.872 93.2679 90.6464 93.4151 91.7891C93.4623 92.7683 93.307 93.7855 92.597 94.5384C91.9048 95.1149 91.3583 95.3633 90.4216 95.3893C90.2173 95.3981 90.2173 95.3981 90.009 95.407C89.3621 95.3134 88.9408 95.041 88.387 94.7159C88.3789 94.9039 88.3707 95.0919 88.3624 95.2856C88.3499 95.5317 88.3374 95.7777 88.3247 96.0237C88.317 96.2097 88.317 96.2097 88.3092 96.3995C88.2586 97.3352 88.2586 97.3352 87.8887 97.6829C87.1321 97.5962 87.1321 97.5962 86.8922 97.3706C86.8758 97.1126 86.871 96.854 86.8707 96.5956C86.8702 96.4304 86.8697 96.2652 86.8691 96.095C86.8696 95.8254 86.8696 95.8254 86.8702 95.5504C86.87 95.3673 86.8698 95.1841 86.8697 94.9955C86.8696 94.6074 86.8699 94.2194 86.8706 93.8313C86.8715 93.235 86.8706 92.6386 86.8695 92.0423C86.8696 91.6663 86.8698 91.2903 86.8702 90.9144C86.8698 90.7346 86.8695 90.5549 86.8691 90.3697C86.8697 90.2045 86.8702 90.0393 86.8707 89.8691C86.8709 89.7229 86.871 89.5767 86.8711 89.4261C86.8922 89.0941 86.8922 89.0941 87.0583 88.938C87.3904 88.9316 87.7227 88.9313 88.0548 88.938C88.1645 89.1441 88.2741 89.3502 88.387 89.5626C88.5103 89.4628 88.6337 89.3629 88.7607 89.2601C89.6892 88.6053 90.9179 88.6063 91.9287 89.1429ZM88.5531 90.6557C88.1626 91.5069 88.1708 92.266 88.387 93.1543C88.603 93.6088 88.7603 93.85 89.1863 94.1401C89.8442 94.3345 90.3513 94.3198 90.9925 94.0815C91.6629 93.5534 91.8459 92.9398 91.9372 92.1393C91.8505 91.3792 91.6351 90.7787 91.0963 90.197C90.122 89.7761 89.2513 89.9027 88.5531 90.6557Z" fill="#4C4D4D"/>
<path d="M103.927 89.2815C104.608 90.0204 104.706 90.7373 104.708 91.6947C104.708 91.9839 104.708 91.9839 104.709 92.2791C104.708 92.4783 104.707 92.6776 104.705 92.883C104.707 93.1855 104.707 93.1855 104.709 93.4942C104.709 93.6862 104.708 93.8783 104.708 94.0761C104.707 94.2517 104.707 94.4273 104.707 94.6082C104.664 95.0302 104.664 95.0302 104.332 95.3425C103.927 95.3913 103.927 95.3913 103.501 95.3425C103.2 95.1082 103.2 95.1082 103.003 94.874C102.9 94.9513 102.797 95.0286 102.691 95.1082C101.958 95.4391 101.311 95.4522 100.511 95.3425C99.8725 95.0366 99.3344 94.7072 99.0167 94.0932C98.9293 93.6075 98.9191 93.1726 99.0167 92.6878C99.5296 92.0211 100.014 91.8035 100.844 91.5946C101.45 91.5641 101.45 91.5641 102.069 91.5751C102.275 91.5779 102.482 91.5808 102.695 91.5837C102.852 91.5873 103.008 91.5909 103.169 91.5946C103.114 90.8114 103.114 90.8114 102.671 90.1892C101.545 90.0351 100.553 90.2614 99.515 90.6577C99.4053 90.5546 99.2957 90.4516 99.1828 90.3454C99.1932 89.9647 99.1932 89.9647 99.3489 89.5646C100.512 88.6701 102.678 88.3915 103.927 89.2815ZM100.511 92.8439C100.468 93.3122 100.439 93.6528 100.678 94.0737C101.22 94.3603 101.746 94.3826 102.338 94.2494C102.916 93.7744 103.15 93.5087 103.221 92.7854C103.204 92.6501 103.187 92.5148 103.169 92.3754C101.749 92.2996 101.749 92.2996 100.511 92.8439Z" fill="#4C4D4D"/>
<path d="M48.9511 89.2815C49.6322 90.0204 49.7302 90.7373 49.7322 91.6947C49.7329 91.9839 49.7329 91.9839 49.7335 92.2791C49.7322 92.4783 49.731 92.6776 49.7296 92.883C49.7316 93.1855 49.7316 93.1855 49.7335 93.4942C49.7331 93.6862 49.7327 93.8783 49.7322 94.0761C49.7319 94.2517 49.7315 94.4273 49.7311 94.6082C49.6881 95.0302 49.6881 95.0302 49.3559 95.3425C48.9511 95.3913 48.9511 95.3913 48.5255 95.3425C48.2245 95.1082 48.2245 95.1082 48.0272 94.874C47.9245 94.9513 47.8217 95.0286 47.7158 95.1082C46.9827 95.4391 46.3359 95.4522 45.5359 95.3425C44.8969 95.0366 44.3588 94.7072 44.0411 94.0932C43.9537 93.6075 43.9435 93.1726 44.0411 92.6878C44.5541 92.0211 45.0387 91.8035 45.8681 91.5946C46.474 91.5641 46.474 91.5641 47.093 91.5751C47.2998 91.5779 47.5066 91.5808 47.7197 91.5837C47.876 91.5873 48.0323 91.5909 48.1933 91.5946C48.1386 90.8114 48.1386 90.8114 47.6951 90.1892C46.5693 90.0351 45.5779 90.2614 44.5394 90.6577C44.4298 90.5546 44.3201 90.4516 44.2072 90.3454C44.2176 89.9647 44.2176 89.9647 44.3733 89.5646C45.536 88.6701 47.7022 88.3915 48.9511 89.2815ZM45.5359 92.8439C45.4926 93.3122 45.4633 93.6528 45.702 94.0737C46.244 94.3603 46.7709 94.3826 47.3629 94.2494C47.9401 93.7744 48.174 93.5087 48.2452 92.7854C48.2281 92.6501 48.211 92.5148 48.1933 92.3754C46.7735 92.2996 46.7735 92.2996 45.5359 92.8439Z" fill="#4C4D4D"/>
<path d="M126.27 89.1159C127.01 89.656 127.392 90.2668 127.584 91.1258C127.625 91.7407 127.625 91.7407 127.584 92.2189C127.418 92.3751 127.418 92.3751 126.987 92.3928C126.8 92.392 126.613 92.3912 126.42 92.3903C126.219 92.3898 126.017 92.3893 125.809 92.3888C125.596 92.3875 125.384 92.3862 125.165 92.3848C124.952 92.3841 124.739 92.3834 124.519 92.3827C123.991 92.3809 123.462 92.3783 122.933 92.3751C123.027 92.6038 123.125 92.8313 123.224 93.0583C123.278 93.1851 123.332 93.3119 123.387 93.4426C123.636 93.8426 123.801 93.9422 124.262 94.0928C125.237 94.1668 125.716 94.0611 126.587 93.6244C127.065 93.5951 127.065 93.5951 127.418 93.6244C127.553 93.8879 127.553 93.8879 127.584 94.249C126.966 94.9669 126.389 95.2938 125.416 95.3946C123.311 95.4183 123.311 95.4183 122.435 94.7175C121.659 93.8252 121.374 92.9717 121.392 91.8297C121.499 90.9239 121.842 90.0317 122.57 89.408C123.694 88.7449 125.054 88.4984 126.27 89.1159ZM123.432 90.345C123.048 90.9321 123.048 90.9321 122.933 91.5943C124.029 91.5943 125.126 91.5943 126.255 91.5943C126.146 90.6683 126.146 90.6683 125.591 90.0327C124.707 89.8318 124.148 89.7481 123.432 90.345Z" fill="#4C4D4D"/>
<path d="M68.7674 89.1155C69.4144 89.6523 69.5938 90.2217 69.6637 91.01C69.6796 91.6122 69.6784 92.2123 69.6705 92.8146C69.6709 93.0251 69.6714 93.2357 69.6721 93.4462C69.663 94.9884 69.663 94.9884 69.2864 95.3424C68.8712 95.3814 68.8712 95.3814 68.456 95.3424C68.0081 94.9213 68.0752 94.688 68.0609 94.0992C68.0552 93.9128 68.0495 93.7264 68.0437 93.5344C68.0393 93.3387 68.0349 93.143 68.0304 92.9415C68.0204 92.5563 68.0099 92.1712 67.9986 91.7861C67.9946 91.6147 67.9907 91.4434 67.9866 91.2668C67.9621 90.8821 67.9092 90.5565 67.7916 90.1891C66.6833 90.086 66.6833 90.086 65.7052 90.4819C65.3152 91.024 65.2757 91.3469 65.2594 91.9996C65.254 92.1733 65.2485 92.3471 65.2429 92.526C65.2327 92.8941 65.2232 93.2621 65.2143 93.6301C65.2087 93.8039 65.203 93.9776 65.1972 94.1566C65.193 94.3165 65.1888 94.4764 65.1845 94.6412C65.1342 95.0301 65.1342 95.0301 64.802 95.3424C64.3868 95.3814 64.3868 95.3814 63.9716 95.3424C63.5379 94.9346 63.5999 94.6492 63.5975 94.094C63.5987 93.9663 63.5999 93.8386 63.6011 93.707C63.6012 93.5761 63.6013 93.4452 63.6014 93.3103C63.6019 93.0335 63.6032 92.7566 63.6052 92.4798C63.6083 92.0545 63.6087 91.6292 63.6086 91.2039C63.6094 90.9354 63.6104 90.6669 63.6115 90.3984C63.6117 90.2704 63.6119 90.1423 63.6121 90.0104C63.6202 89.1141 63.6202 89.1141 63.8055 88.9399C64.3764 88.9008 64.3764 88.9008 64.9681 88.9399C65.0778 89.0945 65.1874 89.2491 65.3003 89.4083C65.4236 89.3343 65.547 89.2602 65.674 89.1839C66.6834 88.6446 67.7024 88.7237 68.7674 89.1155Z" fill="#4C4D4D"/>
<path d="M80.1865 89.2131C80.6201 89.5994 80.7144 89.7922 80.7471 90.3453C80.4772 90.5307 80.4772 90.5307 80.0827 90.6576C79.9354 90.5868 79.7881 90.5159 79.6364 90.4429C78.9387 90.1211 78.3566 90.1143 77.5914 90.1891C77.427 90.2664 77.427 90.2664 77.2592 90.3453C77.2592 90.603 77.2592 90.8606 77.2592 91.1261C77.4673 91.1847 77.6754 91.2432 77.8898 91.3036C78.1641 91.3842 78.4383 91.4649 78.7125 91.5458C78.8495 91.5839 78.9865 91.6221 79.1277 91.6614C79.9497 91.9075 80.4639 92.1078 80.9132 92.8438C81.0045 93.445 81.0611 93.8338 80.7549 94.3707C80.3213 94.8983 79.9166 95.1472 79.2523 95.3424C77.8714 95.4758 76.7741 95.4331 75.5983 94.7178C75.4323 94.5616 75.4323 94.5616 75.4219 94.1614C75.4253 94.0358 75.4287 93.9102 75.4323 93.7808C76.1236 93.5641 76.4566 93.6944 77.0983 93.9815C77.6823 94.1808 78.3119 94.2062 78.9201 94.0931C79.2123 93.8691 79.2123 93.8691 79.4184 93.6246C79.3636 93.47 79.3088 93.3155 79.2523 93.1562C78.7476 92.9748 78.2459 92.8341 77.726 92.6987C76.9011 92.4659 76.3802 92.1673 75.7644 91.5946C75.5573 90.9646 75.5533 90.6286 75.7748 90.0037C76.1999 89.4236 76.6849 89.0675 77.4013 88.8435C78.306 88.6916 79.3879 88.763 80.1865 89.2131Z" fill="#4C4D4D"/>
<path d="M115.957 89.409C116.289 89.8775 116.289 89.8775 116.227 90.2191C116.193 90.3125 116.159 90.4059 116.123 90.5021C115.843 90.6095 115.843 90.6095 115.459 90.6583C115.339 90.5842 115.219 90.5101 115.096 90.4338C114.439 90.0909 113.869 90.0797 113.134 90.1898C112.646 90.4486 112.52 90.6717 112.345 91.1652C112.094 92.1305 112.095 92.8828 112.656 93.7619C113.17 94.0518 113.708 94.1158 114.296 94.0938C114.822 93.8791 114.822 93.8791 115.293 93.6253C115.77 93.596 115.77 93.596 116.123 93.6253C116.248 93.9766 116.248 93.9766 116.289 94.4061C115.874 94.932 115.445 95.1382 114.795 95.343C113.729 95.4619 112.697 95.4559 111.753 94.938C110.964 94.3199 110.556 93.4752 110.437 92.5309C110.397 91.4667 110.639 90.4595 111.366 89.6164C112.643 88.522 114.552 88.5499 115.957 89.409Z" fill="#4C4D4D"/>
<path d="M35.5812 88.93C35.8227 88.9348 35.8227 88.9348 36.0691 88.9398C36.1787 89.1459 36.2884 89.352 36.4013 89.5644C36.5349 89.4613 36.6685 89.3583 36.8061 89.2521C37.4609 88.8353 38.1257 88.8472 38.8926 88.9398C39.0587 89.0959 39.0587 89.0959 39.0691 89.4961C39.0657 89.6217 39.0623 89.7473 39.0587 89.8767C38.9183 89.9186 38.7778 89.9605 38.6331 90.0036C37.4389 90.346 37.4389 90.346 36.5674 91.126C36.5117 91.5265 36.5117 91.5265 36.5103 91.9751C36.5054 92.1406 36.5005 92.306 36.4954 92.4765C36.4917 92.6492 36.4881 92.822 36.4844 92.9999C36.4772 93.3415 36.4686 93.6831 36.4584 94.0247C36.4553 94.1763 36.4522 94.3279 36.449 94.484C36.4013 94.8738 36.4013 94.8738 36.0691 95.3423C35.6855 95.2908 35.3018 95.2392 34.9065 95.1861C34.9024 94.3217 34.8994 93.4572 34.8974 92.5927C34.8966 92.2984 34.8954 92.004 34.894 91.7097C34.892 91.2876 34.891 90.8655 34.8903 90.4434C34.8894 90.311 34.8886 90.1786 34.8877 90.0422C34.8877 89.7267 34.8962 89.4112 34.9065 89.0959C35.0726 88.9398 35.0726 88.9398 35.5812 88.93Z" fill="#4C4D4D"/>
<path d="M56.6642 88.9207C57.1625 88.9402 57.1625 88.9402 57.3286 89.0963C57.3453 89.5449 57.3518 89.9897 57.3506 90.4383C57.3508 90.5729 57.3509 90.7075 57.3511 90.8462C57.3512 91.1313 57.3509 91.4164 57.3502 91.7016C57.3493 92.1396 57.3502 92.5776 57.3513 93.0156C57.3511 93.2919 57.3509 93.5682 57.3506 93.8446C57.3509 93.9765 57.3513 94.1084 57.3516 94.2443C57.3476 95.1686 57.3476 95.1686 57.1625 95.3427C56.6642 95.3622 56.6642 95.3622 56.1659 95.3427C55.8554 95.0508 55.9784 94.6327 55.9768 94.2443C55.9771 94.1124 55.9774 93.9805 55.9778 93.8446C55.9776 93.71 55.9775 93.5754 55.9773 93.4367C55.9772 93.1516 55.9775 92.8665 55.9782 92.5813C55.9791 92.1433 55.9782 91.7053 55.9771 91.2673C55.9772 90.991 55.9775 90.7147 55.9778 90.4383C55.9774 90.3064 55.9771 90.1745 55.9768 90.0386C55.9815 88.9474 55.9815 88.9474 56.6642 88.9207Z" fill="#4C4D4D"/>
<path d="M56.8508 86.1773C57.3283 86.2847 57.3283 86.2847 57.4944 86.4408C57.5012 86.8051 57.5014 87.1696 57.4944 87.5339C56.9991 87.7668 56.545 87.7087 55.9996 87.6901C55.8335 87.5339 55.8335 87.5339 55.792 86.9971C55.8057 86.8136 55.8194 86.63 55.8335 86.4408C56.3318 86.1285 56.3318 86.1285 56.8508 86.1773Z" fill="#4C4D4D"/>
</g>
<defs>
<clipPath id="clip0_5_2530">
<rect width="105.23" height="48.6278" fill="white" transform="translate(22.3848 51.5254)"/>
</clipPath>
</defs>
</svg>
