<svg width="150" height="151" viewBox="0 0 150 151" fill="none" xmlns="http://www.w3.org/2000/svg">
<rect y="0.838867" width="150" height="150" rx="24" fill="#F9F9F9"/>
<path d="M23.7104 88.8387C23.8365 88.694 23.9948 88.5813 24.1724 88.5095C24.3501 88.4378 24.5421 88.4091 24.7329 88.4257H25.1444V88.1128H20.25V88.4257H20.6521C20.9239 88.4263 21.191 88.4963 21.4284 88.629C21.5823 88.7059 21.7047 88.8343 21.7744 88.992C21.8683 89.367 21.9051 89.7541 21.8835 90.1402V97.5489C21.8835 98.2341 21.815 98.669 21.6809 98.8473C21.5548 98.9938 21.3956 99.108 21.2167 99.1803C21.0378 99.2527 20.8442 99.2812 20.6521 99.2635H20.25V99.5763H25.1444V99.2635H24.7329C24.464 99.2632 24.1999 99.1931 23.966 99.0601C23.809 98.9843 23.6834 98.856 23.6106 98.6972C23.517 98.3221 23.4802 97.935 23.5015 97.5489V90.1402C23.5015 89.4519 23.5732 89.0326 23.7104 88.8387Z" fill="#454545"/>
<path d="M33.3526 99.1541C33.215 99.0827 33.1052 98.9671 33.0409 98.8256C32.9435 98.5025 32.9044 98.1645 32.9255 97.8276V94.5206C32.9481 93.9924 32.8849 93.4641 32.7385 92.9562C32.6084 92.5425 32.3562 92.1781 32.0153 91.9113C31.6935 91.6967 31.3134 91.5874 30.9273 91.5984C30.1084 91.5984 29.2459 92.1449 28.3398 93.2378V91.5984H27.9906L25.665 92.537L25.7929 92.8499C25.9718 92.7737 26.1629 92.7302 26.3571 92.7216C26.4827 92.7156 26.6064 92.7544 26.7063 92.8311C26.8139 92.9452 26.8817 93.0912 26.8995 93.2472C26.9595 93.8114 26.9803 94.379 26.9619 94.9461V97.8213C26.9969 98.2136 26.9258 98.6081 26.7561 98.9633C26.6599 99.0776 26.5369 99.166 26.3981 99.2206C26.2593 99.2753 26.1092 99.2943 25.9612 99.2762H25.7929V99.589H29.6086V99.2762C29.3241 99.2974 29.0383 99.258 28.77 99.1604C28.6303 99.0771 28.521 98.951 28.4583 98.8006C28.3692 98.4856 28.3365 98.1572 28.3616 97.8307V93.7415C29.0267 93.0094 29.6928 92.6434 30.3599 92.6434C30.5449 92.6262 30.7311 92.662 30.8966 92.7468C31.0622 92.8315 31.2003 92.9616 31.2951 93.1221C31.5037 93.6078 31.5904 94.1374 31.5476 94.6645V97.837C31.5574 98.1013 31.546 98.366 31.5133 98.6285C31.4688 98.8225 31.3586 98.995 31.2016 99.1166C30.9729 99.2478 30.7096 99.3057 30.4472 99.2824H30.3007V99.5953H34.1164V99.2824C33.8554 99.2989 33.5941 99.255 33.3526 99.1541Z" fill="#454545"/>
<path d="M41.0378 96.516C40.8447 97.0472 40.537 97.529 40.1368 97.927C39.729 98.2935 39.2003 98.4952 38.6529 98.4933C38.2812 98.4971 37.9153 98.4007 37.5935 98.2142C37.2716 98.0276 37.0055 97.7577 36.823 97.4327C36.362 96.6984 36.1257 95.8445 36.1434 94.9767C36.1057 94.1886 36.3476 93.4126 36.8261 92.7866C36.988 92.5844 37.1945 92.4226 37.4293 92.314C37.664 92.2055 37.9207 92.153 38.1791 92.1609C38.474 92.1426 38.7654 92.2326 38.999 92.4143C39.2066 92.6139 39.3294 92.8863 39.3419 93.1746C39.344 93.4124 39.4085 93.6455 39.5289 93.8504C39.6206 93.9584 39.7365 94.0431 39.8671 94.0974C39.9977 94.1518 40.1393 94.1744 40.2802 94.1632C40.3848 94.1698 40.4896 94.1555 40.5886 94.1211C40.6876 94.0867 40.7788 94.033 40.857 93.963C40.9258 93.8959 40.9798 93.815 41.0153 93.7254C41.0507 93.6359 41.0669 93.5399 41.0627 93.4436C41.0627 93.0087 40.8195 92.5926 40.3301 92.1922C39.7977 91.7747 39.1347 91.5607 38.4596 91.5883C37.9704 91.583 37.4856 91.6821 37.0374 91.8789C36.5892 92.0758 36.1878 92.366 35.8597 92.7303C35.1218 93.5361 34.7327 94.6028 34.778 95.6963C34.778 96.9478 35.1043 97.9458 35.7568 98.6904C36.0337 99.0333 36.3827 99.3103 36.7789 99.5018C37.175 99.6933 37.6085 99.7944 38.0481 99.798C38.7999 99.7909 39.5205 99.4954 40.062 98.972C40.7103 98.3401 41.1379 97.5149 41.2809 96.6193L41.0378 96.516Z" fill="#454545"/>
<path d="M48.9739 92.9376C48.6437 92.5097 48.2175 92.166 47.73 91.9344C47.2425 91.7028 46.7074 91.5899 46.1682 91.6048C45.5207 91.6004 44.8845 91.7746 44.329 92.1086C43.7226 92.48 43.2407 93.0247 42.9448 93.6729C42.6046 94.3282 42.4241 95.0552 42.418 95.7941C42.4161 96.7422 42.725 97.6646 43.2971 98.4191C43.6081 98.8635 44.0241 99.2235 44.5077 99.467C44.9914 99.7105 45.5276 99.8299 46.0685 99.8145C46.7708 99.8276 47.4611 99.6301 48.0509 99.2471C48.6407 98.8642 49.1032 98.3134 49.3792 97.6651C49.6993 97.0103 49.8697 96.292 49.878 95.5626C49.8892 94.6089 49.5696 93.6809 48.9739 92.9376ZM47.7768 98.538C47.6223 98.75 47.4194 98.9218 47.185 99.0388C46.9507 99.1559 46.6918 99.2148 46.4301 99.2107C45.7006 99.2107 45.1146 98.8039 44.6656 97.9873C44.1998 97.0869 43.9692 96.0825 43.9954 95.0683C43.9764 94.4841 44.0707 93.9019 44.2728 93.3538C44.4089 92.9693 44.6661 92.6398 45.0054 92.4152C45.272 92.2538 45.5764 92.1663 45.8877 92.1617C46.1887 92.1598 46.4856 92.2328 46.7516 92.3742C47.0176 92.5156 47.2446 92.721 47.4121 92.9721C48.0044 93.7605 48.2995 94.842 48.2975 96.2165C48.3099 97.3116 48.1322 98.0843 47.7768 98.538Z" fill="#454545"/>
<path d="M63.0782 99.1411C62.9443 99.0721 62.8353 98.9627 62.7665 98.8283C62.6746 98.5041 62.6377 98.1667 62.6574 97.8302V94.4951C62.6817 93.975 62.6185 93.4546 62.4703 92.9557C62.3325 92.5401 62.0688 92.178 61.7159 91.9201C61.3931 91.708 61.0138 91.5989 60.6279 91.6073C60.1979 91.6071 59.7747 91.7147 59.3966 91.9201C58.8342 92.275 58.3383 92.7261 57.9314 93.253C57.8471 92.7746 57.599 92.3408 57.2299 92.0265C56.8771 91.7422 56.4353 91.5926 55.983 91.6041C55.6841 91.605 55.3885 91.6657 55.1132 91.7825C54.8166 91.9042 54.5409 92.0721 54.2964 92.2799C54.1967 92.3644 53.8631 92.6898 53.302 93.253V91.6041H52.9404L50.6147 92.5427L50.7426 92.8556C50.9214 92.7791 51.1126 92.7357 51.3068 92.7273C51.4303 92.7192 51.5524 92.7571 51.6497 92.8337C51.753 92.9376 51.8188 93.073 51.8368 93.2185C51.905 93.7653 51.93 94.3166 51.9116 94.8674V97.8271C51.933 98.1533 51.896 98.4807 51.8025 98.7939C51.7432 98.9472 51.6331 99.0753 51.4907 99.1568C51.2549 99.2495 51.0016 99.289 50.7488 99.2725V99.5854H54.5645V99.2725C54.28 99.2941 53.9941 99.2546 53.7259 99.1568C53.5869 99.0814 53.4771 98.9613 53.4142 98.8158C53.3214 98.495 53.2855 98.1603 53.3082 97.8271V93.6753C53.61 93.3281 53.9764 93.0433 54.3868 92.8368C54.6618 92.6804 54.9717 92.5965 55.2878 92.5928C55.4923 92.5851 55.6952 92.6309 55.8767 92.7258C56.0582 92.8207 56.2119 92.9614 56.3228 93.1341C56.5424 93.552 56.6397 94.0239 56.6033 94.4951V97.8271C56.615 98.1063 56.6004 98.386 56.5597 98.6625C56.5095 98.8513 56.3905 99.0144 56.2261 99.1192C55.9511 99.2455 55.6483 99.2983 55.347 99.2725V99.5854H59.2469V99.2725C58.9622 99.2917 58.6767 99.2468 58.4114 99.1411C58.2707 99.0752 58.1548 98.9655 58.081 98.8283C58.0009 98.5053 57.9714 98.1717 57.9937 97.8396V94.1321L57.975 93.7692L57.9937 93.6753C58.3164 93.348 58.6825 93.0669 59.0817 92.84C59.3602 92.6982 59.6673 92.6222 59.9795 92.6178C60.1877 92.6027 60.396 92.6452 60.5818 92.7406C60.7676 92.836 60.9237 92.9808 61.0332 93.1591C61.2163 93.5792 61.2944 94.0378 61.2608 94.4951V97.8271C61.2697 98.1008 61.2583 98.3748 61.2265 98.6468C61.1865 98.8186 61.0884 98.9711 60.949 99.0786C60.7167 99.2198 60.4472 99.2874 60.1759 99.2725H60.0138V99.5854H63.8202V99.2725C63.5659 99.2903 63.3111 99.2452 63.0782 99.1411Z" fill="#454545"/>
<path d="M69.8604 98.0164C69.4808 98.2996 69.0177 98.4471 68.5449 98.4357C68.1623 98.4331 67.7853 98.3434 67.4424 98.1732C67.0995 98.003 66.7995 97.7568 66.5653 97.4532C66.001 96.8025 65.7236 95.8889 65.7298 94.7501H71.0637C71.0836 94.3308 71.02 93.9117 70.8765 93.5174C70.733 93.1231 70.5127 92.7614 70.2283 92.4536C69.9522 92.1701 69.6202 91.9475 69.2536 91.7999C68.8871 91.6523 68.4938 91.583 68.0991 91.5964C67.6188 91.5857 67.142 91.6794 66.7013 91.8712C66.2606 92.0629 65.8664 92.348 65.5459 92.707C64.8725 93.4496 64.5348 94.4821 64.5327 95.8044C64.5327 97.0309 64.8632 98.006 65.5241 98.7298C65.8186 99.0727 66.1839 99.3473 66.5946 99.5348C67.0052 99.7222 67.4515 99.818 67.9027 99.8154C68.3062 99.8242 68.7067 99.7432 69.0754 99.5782C69.4441 99.4132 69.7718 99.1683 70.035 98.8612C70.5792 98.2765 70.9373 97.5424 71.0637 96.7524L70.8019 96.5866C70.6303 97.1436 70.3037 97.6397 69.8604 98.0164ZM66.3751 92.7414C66.5356 92.5709 66.7288 92.4347 66.9431 92.3412C67.1574 92.2476 67.3884 92.1986 67.6221 92.1971C67.9319 92.1998 68.2343 92.2933 68.4919 92.4661C68.7687 92.6468 68.9857 92.906 69.1153 93.2107C69.2309 93.5481 69.2909 93.9021 69.293 94.2589H65.7298C65.7567 93.6918 65.9858 93.1533 66.3751 92.7414Z" fill="#454545"/>
<path d="M82.6963 88.1128V88.4257C82.9783 88.4164 83.2598 88.4555 83.5287 88.5414C83.655 88.5872 83.764 88.6714 83.8404 88.7823C83.9195 88.8867 83.9622 89.0142 83.962 89.1453C83.9069 89.6443 83.782 90.133 83.591 90.597L81.4088 96.9138L79.2266 90.6815C79.0286 90.2007 78.9005 89.6939 78.8463 89.1766C78.841 89.0749 78.8578 88.9733 78.8955 88.8788C78.9332 88.7842 78.9908 88.699 79.0645 88.629C79.2621 88.4776 79.5087 88.4051 79.7566 88.4257H80.0683V88.1128H75.6104V88.4257C75.7802 88.4184 75.9503 88.4352 76.1154 88.4757C76.2676 88.5253 76.4107 88.5993 76.5394 88.6947C76.6451 88.7675 76.7361 88.8599 76.8075 88.9669C76.9637 89.2003 77.0963 89.4487 77.2034 89.7084L77.4746 90.4781L77.8113 91.4417L75.9159 96.9138L73.6651 90.4781C73.4872 90.0411 73.3626 89.5841 73.2941 89.1171C73.2945 89.0231 73.3161 88.9304 73.3571 88.8459C73.3981 88.7614 73.4576 88.6873 73.531 88.629C73.7269 88.4811 73.9692 88.4089 74.2138 88.4257H74.4164V88.1128H70.186V88.4257C70.4578 88.4117 70.7287 88.4654 70.9747 88.5821C71.1722 88.6901 71.3321 88.856 71.433 89.0577C71.5016 89.1891 71.6606 89.6083 71.9131 90.3091L75.308 99.8297H75.6197L78.2072 92.4992L80.804 99.8391H81.1407L84.3205 90.597C84.462 90.1136 84.6402 89.6419 84.8536 89.1859C84.9752 88.9429 85.1578 88.7358 85.3835 88.5852C85.6067 88.47 85.856 88.415 86.1068 88.4257V88.1128H82.6963Z" fill="#454545"/>
<path d="M88.6522 87.8039C88.5743 87.7232 88.4807 87.6593 88.3772 87.6163C88.2737 87.5732 88.1625 87.5519 88.0505 87.5536C87.935 87.55 87.82 87.5703 87.7127 87.6134C87.6054 87.6565 87.5082 87.7213 87.427 87.8039C87.3081 87.926 87.2278 88.0806 87.1964 88.2484C87.165 88.4162 87.1839 88.5895 87.2506 88.7465C87.3173 88.9035 87.4289 89.0372 87.5713 89.1306C87.7137 89.224 87.8804 89.273 88.0505 89.2713C88.1628 89.2732 88.2743 89.2516 88.3779 89.208C88.4815 89.1644 88.5749 89.0996 88.6522 89.0179C88.7355 88.9371 88.801 88.8396 88.8445 88.7318C88.888 88.6241 88.9085 88.5083 88.9047 88.3921C88.9043 88.2821 88.8817 88.1732 88.8383 88.0721C88.7949 87.9711 88.7316 87.8798 88.6522 87.8039ZM89.1666 99.1548C89.0256 99.0731 88.9158 98.9465 88.8548 98.795C88.7639 98.4813 88.728 98.1542 88.7488 97.8282V91.6053H88.3779L86.0522 92.5439L86.1707 92.8567C86.353 92.7807 86.5471 92.7373 86.7443 92.7285C86.8686 92.7213 86.9914 92.759 87.0904 92.8349C87.1906 92.9367 87.2552 93.0684 87.2743 93.2103C87.3406 93.7509 87.3656 94.2959 87.3491 94.8403V97.8282C87.3696 98.1556 87.3316 98.4841 87.2369 98.7981C87.1752 98.9508 87.0658 99.0793 86.9251 99.1642C86.6832 99.2542 86.425 99.2915 86.1676 99.2737V99.5865H89.9085V99.2737C89.6554 99.2905 89.4018 99.2499 89.1666 99.1548Z" fill="#454545"/>
<path d="M97.7214 91.8481H91.2527L91.2029 93.9944H91.5395C91.551 93.6303 91.6403 93.2728 91.8014 92.9463C91.8879 92.7688 92.0334 92.6271 92.2129 92.5458C92.5623 92.4527 92.9245 92.4167 93.2853 92.4395H95.8104L90.6885 99.2882V99.601H97.4969L97.5873 97.2232H97.3037C97.2816 97.614 97.2039 97.9996 97.073 98.3683C96.9674 98.5937 96.788 98.7759 96.5648 98.8846C96.1779 99.0105 95.7706 99.0615 95.3646 99.0347H92.5589L97.7214 92.161V91.8481Z" fill="#454545"/>
<path d="M104.942 98.6028C104.871 98.644 104.79 98.6646 104.708 98.6623C104.625 98.6627 104.545 98.6326 104.483 98.5778C104.404 98.4834 104.356 98.3663 104.346 98.243C104.304 97.7928 104.289 97.3403 104.302 96.8883V94.2571C104.334 93.7566 104.282 93.2544 104.15 92.771C104.013 92.4165 103.753 92.124 103.417 91.9481C102.892 91.6991 102.314 91.581 101.734 91.6039C100.99 91.5573 100.254 91.7719 99.6512 92.2109C99.4347 92.3623 99.2556 92.5614 99.1275 92.793C98.9995 93.0245 98.9259 93.2824 98.9124 93.5469C98.8994 93.7654 98.9709 93.9805 99.1119 94.1476C99.1748 94.2192 99.2527 94.2759 99.34 94.3138C99.4273 94.3517 99.5219 94.3697 99.6169 94.3666C99.7139 94.3711 99.8107 94.3544 99.9005 94.3176C99.9904 94.2809 100.071 94.225 100.138 94.1538C100.279 93.9884 100.351 93.774 100.337 93.5563L100.315 93.0682C100.316 92.9419 100.344 92.8172 100.398 92.7031C100.451 92.589 100.53 92.4882 100.627 92.408C100.859 92.2054 101.161 92.1021 101.469 92.1202C101.667 92.1074 101.866 92.1395 102.051 92.2143C102.235 92.289 102.401 92.4044 102.535 92.5519C102.778 92.8377 102.9 93.3664 102.9 94.1382V94.4511C101.92 94.79 100.969 95.2085 100.056 95.7025C99.5871 95.9558 99.1851 96.3185 98.8843 96.76C98.7106 97.0564 98.6232 97.3956 98.6318 97.7393C98.6086 98.2716 98.7944 98.7917 99.1493 99.1879C99.3183 99.3675 99.523 99.5093 99.7502 99.6042C99.9774 99.6991 100.222 99.7448 100.468 99.7385C100.803 99.7395 101.134 99.6669 101.438 99.5258C101.959 99.2066 102.457 98.8501 102.928 98.4589C102.901 98.8054 102.99 99.1511 103.18 99.4413C103.261 99.5358 103.362 99.6106 103.476 99.6599C103.59 99.7092 103.714 99.7318 103.838 99.726C104.412 99.726 105.01 99.3068 105.643 98.4745V98.0021C105.427 98.2226 105.192 98.4236 104.942 98.6028ZM102.912 97.9114C102.217 98.4745 101.665 98.7561 101.226 98.7561C101.066 98.7539 100.909 98.7166 100.765 98.6469C100.621 98.5771 100.494 98.4767 100.393 98.3525C100.147 98.0753 100.017 97.7131 100.032 97.342C100.032 97.0244 100.131 96.7148 100.315 96.4565C100.573 96.1303 100.899 95.8645 101.269 95.6775C101.804 95.4098 102.353 95.1697 102.912 94.9579V97.9114Z" fill="#454545"/>
<path d="M111.21 91.8857C111 91.6955 110.725 91.5945 110.443 91.6041C109.763 91.6041 109.1 92.184 108.454 93.3437V91.6041H108.098L105.767 92.5428L105.851 92.8556C106.038 92.7778 106.238 92.7344 106.44 92.7274C106.573 92.7233 106.702 92.7653 106.808 92.8462C106.917 92.9437 106.989 93.0766 107.01 93.2217C107.063 93.7571 107.08 94.2953 107.063 94.833V97.8365C107.075 98.1094 107.062 98.3828 107.023 98.6531C106.981 98.829 106.876 98.983 106.727 99.0848C106.458 99.2284 106.155 99.2935 105.851 99.2726V99.5854H109.794V99.2726C109.519 99.2884 109.244 99.2357 108.993 99.1193C108.826 99.0381 108.69 98.904 108.607 98.7376C108.482 98.4303 108.426 98.099 108.444 97.7677V94.057C108.639 93.6338 108.905 93.2474 109.23 92.9151C109.31 92.8221 109.421 92.762 109.542 92.7461C109.747 92.7875 109.935 92.8875 110.084 93.034C110.266 93.2041 110.5 93.3077 110.748 93.3281C110.846 93.3287 110.943 93.3088 111.033 93.2694C111.122 93.2301 111.203 93.1722 111.269 93.0997C111.341 93.0257 111.397 92.938 111.434 92.8418C111.472 92.7456 111.49 92.6429 111.487 92.5396C111.489 92.4172 111.465 92.2958 111.417 92.1832C111.37 92.0705 111.299 91.9692 111.21 91.8857Z" fill="#454545"/>
<path d="M119.98 98.563C119.787 98.6443 119.582 98.6929 119.372 98.707C119.257 98.706 119.146 98.6626 119.061 98.585C118.95 98.472 118.879 98.326 118.858 98.1688C118.8 97.6171 118.779 97.0621 118.796 96.5075V87.5532H118.418L116.118 88.4918L116.227 88.7859C116.411 88.7086 116.607 88.6631 116.807 88.6514C116.929 88.6479 117.049 88.6865 117.147 88.7609C117.255 88.8747 117.324 89.0207 117.343 89.177C117.402 89.7182 117.423 90.2629 117.405 90.807V92.2368C117.182 92.021 116.918 91.8523 116.629 91.7405C116.34 91.6287 116.032 91.5762 115.722 91.5861C115.196 91.5796 114.676 91.7023 114.207 91.9432C113.739 92.1842 113.337 92.5364 113.035 92.969C112.356 93.8387 111.989 94.9118 111.99 96.0163C111.948 97.0105 112.283 97.9839 112.926 98.7414C113.193 99.0713 113.53 99.3377 113.912 99.5216C114.294 99.7055 114.712 99.8023 115.136 99.8051C115.537 99.8077 115.933 99.7189 116.295 99.5454C116.711 99.3318 117.085 99.0446 117.399 98.6976V99.8051H117.789L120.083 98.8571L119.98 98.563ZM117.393 98.1125C117.214 98.3388 116.989 98.5244 116.733 98.6571C116.477 98.7898 116.196 98.8665 115.909 98.8822C115.583 98.8685 115.265 98.7795 114.979 98.6221C114.693 98.4647 114.447 98.2432 114.26 97.9749C113.764 97.3679 113.518 96.4981 113.518 95.3562C113.518 94.2142 113.773 93.3757 114.285 92.7875C114.442 92.5849 114.642 92.4201 114.871 92.3048C115.099 92.1895 115.351 92.1268 115.607 92.1211C115.894 92.1266 116.175 92.2098 116.42 92.362C116.707 92.5306 116.94 92.7782 117.09 93.0753C117.264 93.3997 117.371 93.7564 117.402 94.1235L117.393 98.1125Z" fill="#454545"/>
<path d="M119.993 87.6982V88.737H120.102C120.125 88.4887 120.236 88.2569 120.414 88.0831C120.574 87.9596 120.774 87.9005 120.975 87.9173H121.253V90.8801C121.259 90.9999 121.249 91.12 121.221 91.2368C121.199 91.2941 121.157 91.3416 121.103 91.3713C121.022 91.415 120.93 91.4356 120.838 91.4308H120.707V91.5371H122.708V91.4308H122.578C122.488 91.4365 122.399 91.4182 122.319 91.3776C122.262 91.35 122.217 91.3035 122.191 91.2462C122.16 91.1268 122.148 91.0032 122.157 90.8801V87.9173H122.443C122.571 87.9096 122.7 87.9277 122.821 87.9704C122.945 88.0245 123.053 88.1109 123.132 88.2207C123.229 88.3798 123.298 88.5545 123.335 88.737H123.435V87.6982H119.993Z" fill="#454545"/>
<path d="M128.48 87.994C128.502 87.9385 128.542 87.8915 128.592 87.8595C128.676 87.8185 128.77 87.7992 128.863 87.8032H128.988V87.6968H127.429L126.391 90.2279L125.316 87.6968H123.757V87.8032H123.878C123.968 87.7984 124.057 87.8167 124.137 87.8563C124.193 87.8829 124.237 87.9284 124.262 87.9846C124.291 88.1032 124.301 88.2257 124.293 88.3475V90.7754C124.293 90.9475 124.293 91.0445 124.293 91.0664C124.277 91.1407 124.247 91.211 124.203 91.2729C124.159 91.3252 124.102 91.3651 124.037 91.3886C123.962 91.4198 123.881 91.4337 123.8 91.4293H123.76V91.5357H125.072V91.4293C124.938 91.4409 124.803 91.4103 124.686 91.3417C124.606 91.2867 124.548 91.2045 124.524 91.1102C124.516 90.9946 124.516 90.8785 124.524 90.7629V88.0566L126.008 91.5357H126.073L127.541 88.0347V90.8787C127.548 90.9984 127.538 91.1185 127.51 91.2353C127.489 91.2914 127.449 91.3387 127.398 91.3699C127.314 91.4135 127.221 91.434 127.127 91.4293H127.002V91.5357H129V91.4293H128.876C128.787 91.4348 128.699 91.4165 128.62 91.3761C128.564 91.3485 128.518 91.3021 128.492 91.2447C128.463 91.1251 128.452 91.0016 128.461 90.8787V88.3475C128.448 88.2295 128.455 88.1101 128.48 87.994Z" fill="#454545"/>
<path d="M90.8045 52.1924C90.7236 52.9322 90.585 53.6645 90.3899 54.3825L86.7269 69.1374C83.7321 61.6765 81.4761 55.9103 79.959 51.8389H90.7671C90.7947 51.9546 90.8073 52.0734 90.8045 52.1924Z" fill="#41BC00"/>
<path d="M83.7558 78.7861H67.2896L68.1998 76.4959C69.1663 74.0597 69.9196 72.2023 70.46 70.9237L75.8687 58.0586C76.1431 58.822 76.4143 59.5416 76.673 60.2174L77.8545 63.1896C79.3322 66.9315 80.947 71.174 82.699 75.9171L83.7558 78.7861Z" fill="#E21500"/>
<path d="M75.7375 51.8389L73.4244 57.4705C73.3807 57.5706 73.3371 57.6707 73.2997 57.7834C72.3062 60.1424 71.5601 61.9216 71.0613 63.1209L68.4489 69.4221L68.3024 68.7369L67.23 63.7873C66.7001 61.347 66.3384 59.5792 66.1296 58.4873L65.4281 54.6797C65.2429 53.8221 65.1106 52.9538 65.0322 52.0798C65.0322 51.9984 65.0322 51.9233 65.0322 51.8514L75.7375 51.8389Z" fill="#11A8DB"/>
<path d="M64.2799 78.7857H58.4316V52.1919C58.4815 52.3014 58.5252 52.4265 58.5688 52.5548C58.6904 52.9303 58.8805 53.7249 59.1455 54.9451L64.2799 78.7857Z" fill="#F9E310"/>
<path d="M87 78.8389H93V51.8389C92.9488 51.95 92.9041 52.0771 92.8593 52.2073C92.7345 52.5885 92.5394 53.3953 92.2676 54.6342L87 78.8389Z" fill="#11A8DB"/>
</svg>
