<svg width="150" height="151" viewBox="0 0 150 151" fill="none" xmlns="http://www.w3.org/2000/svg">
<rect y="0.838867" width="150" height="150" rx="24" fill="#F9F9F9"/>
<path d="M123.73 79.4937L124.65 80.4651L123.73 79.4937Z" fill="#6789A1"/>
<path d="M73.9801 79.7633C74.2072 79.5619 74.3664 79.4139 74.5316 79.2747C75.2983 78.638 75.3218 77.7939 75.1213 76.9351C74.9208 76.0763 74.2013 75.8453 73.4759 75.789C70.99 75.6054 68.5012 75.7328 65.9623 75.7713C66.4577 76.0289 66.4842 76.4317 66.4812 76.8877C66.4635 79.0022 66.4635 81.1157 66.4812 83.2282C66.4812 83.6695 66.4429 84.0485 65.7617 84.2351C65.8995 84.3081 66.0449 84.3656 66.1952 84.4068C68.3095 84.4068 70.4268 84.4305 72.544 84.4068C73.0651 84.383 73.5789 84.275 74.0657 84.087C75.0122 83.7465 75.484 83.0476 75.5401 82.014C75.5932 80.8709 75.0004 80.1957 73.9801 79.7633ZM70.7364 77.2135C71.105 77.2135 71.4736 77.2402 71.8393 77.2698C72.0518 77.2769 72.2618 77.3179 72.4615 77.3912C72.6099 77.457 72.7364 77.5644 72.8258 77.7004C72.9152 77.8363 72.9638 77.9953 72.9657 78.1582C72.9865 78.3536 72.947 78.5507 72.8526 78.7228C72.7582 78.895 72.6134 79.0338 72.4379 79.1207C72.2237 79.2127 71.9952 79.2668 71.7626 79.2806C71.0136 79.3576 70.2557 79.2984 69.5067 79.3102C69.4345 79.3175 69.3616 79.3061 69.295 79.2771C69.2284 79.2481 69.1704 79.2023 69.1264 79.1444C69.0949 79.0787 69.0777 79.007 69.0762 78.9341C69.0096 78.5131 69.0216 78.0832 69.1116 77.6666C69.2708 77.2875 69.7014 77.2135 70.0759 77.2106C70.3059 77.2076 70.5241 77.2076 70.7453 77.2135H70.7364ZM72.2433 82.7129C72.1469 82.745 72.0484 82.7697 71.9484 82.7869C71.1812 82.8635 70.4091 82.8794 69.6394 82.8343C69.3623 82.8343 69.1146 82.8343 69.091 82.4997L69.0261 81.4395C69.0041 81.3158 69.0102 81.1887 69.0438 81.0677C69.0775 80.9467 69.138 80.8349 69.2207 80.7406C69.4691 80.5894 69.7614 80.5278 70.0493 80.5659H71.5238C71.7919 80.5543 72.0605 80.5772 72.3229 80.634C72.5384 80.6787 72.732 80.7963 72.8716 80.9672C73.0111 81.138 73.0881 81.3518 73.0896 81.5728C73.1107 81.8323 73.0375 82.0908 72.8836 82.3004C72.7296 82.51 72.5053 82.6565 72.2521 82.7129H72.2433Z" fill="#6789A1"/>
<path d="M37.0087 84.3467C37.1219 84.2574 37.2138 84.1437 37.2776 84.0141C37.3414 83.8844 37.3754 83.7421 37.3773 83.5975C37.3881 82.1768 37.328 80.7565 37.1974 79.3419C36.3983 80.87 35.5962 82.3951 34.7558 83.9973C33.9419 82.3803 33.1546 80.8226 32.3407 79.2087C31.975 81.1958 32.1726 83.8907 32.6857 84.2431C32.1372 84.4297 31.0609 84.4622 29.9757 84.3289C30.4741 83.6449 30.4652 77.4377 29.8784 76.7151C31.0963 76.7151 32.32 76.6914 33.5379 76.7151C33.5721 76.7121 33.6062 76.7204 33.6352 76.7388C33.6511 76.7578 33.6622 76.7804 33.6673 76.8047C33.6725 76.829 33.6716 76.8542 33.6647 76.878C33.6247 77.4633 33.7659 78.0466 34.0687 78.5483C34.2014 78.8029 34.3341 79.0636 34.4579 79.3242C34.5228 79.4574 34.5847 79.5907 34.6467 79.7269C34.6791 79.8009 34.7292 80.0438 34.8324 79.9194C35.0873 79.5892 35.3133 79.2374 35.5077 78.8681C35.7396 78.4828 35.9275 78.0725 36.068 77.645C36.1743 77.3677 36.1743 77.0606 36.068 76.7832C36.068 76.7684 37.507 76.7595 37.6486 76.7595H39.8012C39.3943 77.5443 39.4149 83.6922 39.869 84.3378L37.0087 84.3467Z" fill="#054466"/>
<path d="M27.913 83.5182C26.8396 84.3267 25.5805 84.4333 24.3066 84.4067C23.1526 84.3657 22.0079 84.1837 20.8977 83.8647C20.6655 83.7763 20.4142 83.7506 20.169 83.7901C19.9238 83.8296 19.6931 83.9329 19.5 84.0898C19.8155 83.0533 20.0691 82.233 20.364 81.2675C20.4926 81.5596 20.6924 81.8145 20.9449 82.0086C21.1974 82.2027 21.4946 82.3297 21.8089 82.3781C22.9773 82.7023 24.198 82.7909 25.4006 82.6387C25.8724 82.5617 26.3708 82.3929 26.3914 81.8243C26.412 81.2557 25.8724 81.1372 25.4625 81.0632C24.3302 80.847 23.186 80.7078 22.0478 80.5153C21.7254 80.4548 21.4116 80.3554 21.113 80.2191C19.7241 79.5943 19.3614 78.2794 20.2549 77.0385C21.1484 75.7977 22.4931 75.5341 23.9026 75.4719C25.0571 75.4452 26.2103 75.5645 27.335 75.8273C27.7832 75.9221 28.2403 76.0701 28.7917 75.848C28.429 76.615 28.0693 77.385 27.7007 78.1698C26.7659 77.2044 23.9911 76.7987 22.7997 77.4206C22.5225 77.5686 22.2837 77.7611 22.3132 78.1165C22.3282 78.2565 22.3911 78.387 22.4911 78.4858C22.5911 78.5846 22.722 78.6456 22.8617 78.6585C23.5871 78.8036 24.3361 78.9191 25.0526 79.0198C25.8464 79.0933 26.6286 79.2623 27.3822 79.5232C28.1695 79.8194 28.7799 80.3199 28.8949 81.2083C28.9633 81.6471 28.9075 82.0963 28.7338 82.5047C28.5602 82.9131 28.2758 83.2643 27.913 83.5182Z" fill="#054466"/>
<path d="M127.412 83.3702C126.486 82.4028 125.565 81.4314 124.649 80.4561L123.729 79.4848C123.729 79.5084 123.729 79.5321 123.706 79.5588C123.682 79.5854 123.679 79.6743 123.667 79.7335C123.656 79.7928 123.644 79.8638 123.632 79.9319C123.62 80.0001 123.605 80.1511 123.594 80.2695C123.497 81.4429 123.555 82.6239 123.768 83.7818C123.768 83.8262 123.791 83.8677 123.8 83.9092C123.809 83.9506 123.832 84.0187 123.847 84.0661C123.866 84.1257 123.889 84.1841 123.915 84.2408C123.921 84.2575 123.929 84.2733 123.939 84.2882C123.954 84.3147 123.971 84.3404 123.989 84.3652C123.832 84.383 123.694 84.4126 123.576 84.4156H121.052C121.621 83.5508 121.538 77.3318 120.981 76.775H125.18C124.691 77.1837 125.006 77.468 125.289 77.7671C126.103 78.62 126.911 79.4818 127.834 80.314C127.855 79.1294 128.129 77.9448 127.701 76.7603H130.447C129.987 77.5361 129.998 83.6841 130.5 84.3622H127.256C127.925 83.9861 127.722 83.693 127.412 83.3702Z" fill="#6789A1"/>
<path d="M64.5391 84.3536H61.3249C62.1299 83.4978 61.6463 82.4731 61.7377 81.5314C61.7672 81.2115 61.4429 81.2708 61.2394 81.2678C60.3017 81.2678 59.3669 81.2678 58.4321 81.2678C58.1814 81.2678 57.919 81.25 57.9219 81.6232C57.9219 82.3369 57.9219 83.0506 57.9219 83.7643C57.9219 84.0604 58.2168 84.0841 58.4203 84.3358H54.9819C55.61 84.0397 55.5157 83.5363 55.5157 83.0536C55.5157 81.3774 55.5157 79.7042 55.5157 78.0191C55.5157 77.5601 55.7251 77.0152 55.0881 76.7397H58.3879C57.5917 77.4771 58.0281 78.3863 57.9573 79.2066C57.9396 79.4169 58.1638 79.4228 58.3318 79.4228C59.3462 79.4228 60.3636 79.4228 61.3839 79.4228C61.5431 79.4228 61.7643 79.4021 61.7436 79.1889C61.6611 78.3893 62.1181 77.4949 61.2571 76.7457H64.548C64.0437 77.0418 64.1145 77.5068 64.1145 77.9569C64.1145 79.716 64.1145 81.4751 64.1145 83.2312C64.1027 83.6606 64.0378 84.096 64.5391 84.3536Z" fill="#054466"/>
<path d="M102.737 79.9024C103.749 81.3684 104.751 82.8373 105.807 84.3743H102.127C102.326 84.2903 102.484 84.1306 102.566 83.93C102.581 83.8035 102.568 83.6754 102.529 83.5543C102.49 83.4332 102.425 83.322 102.339 83.2282C102.018 82.7632 101.634 82.3042 101.363 81.8126C101.177 81.475 100.971 81.1167 100.538 81.3891C99.0631 82.3368 98.9717 83.3792 99.7178 84.318C99.6205 84.4513 99.473 84.4157 99.3433 84.4187H96.592C97.1287 83.5806 97.1022 77.4533 96.5537 76.7781H99.7295C98.9009 77.8472 99.5467 79.0555 99.4347 80.2786C100.11 79.7129 100.788 79.1532 101.458 78.5816C101.77 78.3121 102.074 78.0337 102.366 77.7406C102.658 77.4474 103.13 77.2045 102.295 76.7544H106.052C104.778 77.5125 103.935 78.4306 103.009 79.2539C102.82 79.4138 102.475 79.5352 102.737 79.9024Z" fill="#6789A1"/>
<path d="M85.0307 77.8355C85.0307 78.9075 85.0307 79.9796 85.0307 81.0516C85.0071 82.9173 84.0959 84.0427 82.2559 84.3921C81.1983 84.6047 80.106 84.5672 79.0653 84.2826C77.6145 83.8709 76.8242 82.8285 76.8065 81.3211C76.8065 80.2757 76.8065 79.2303 76.8065 78.1879C76.8065 77.6845 76.9245 77.1484 76.1489 76.7546H79.3425C79.0476 77.8029 79.1449 78.872 79.1538 79.947C79.1207 80.4783 79.1544 81.0116 79.254 81.5343C79.3317 81.8644 79.5075 82.163 79.7583 82.3902C79.9961 82.5665 80.2714 82.6851 80.5625 82.7365C80.8537 82.7878 81.1527 82.7707 81.4361 82.6863C81.68 82.6322 81.9112 82.5317 82.1173 82.3902C82.5714 82.0674 82.6304 81.5018 82.6216 80.9924C82.595 79.8078 82.6039 78.6233 82.6216 77.4387C82.6216 77.1662 82.3739 77.024 82.3945 76.7397H85.4406C84.9894 77.0092 85.0278 77.4209 85.0307 77.8355Z" fill="#6789A1"/>
<path d="M95.7359 83.6663C95.0193 83.4205 94.633 83.6811 94.229 83.8588C92.7074 84.5355 91.0079 84.6966 89.3871 84.3179C87.0988 83.8233 86.0047 82.4936 86.0549 80.311C86.0962 78.4631 87.4674 77.1186 89.623 76.7217C90.9286 76.5043 92.266 76.5802 93.539 76.9438C94.0408 77.1259 94.5836 77.1618 95.1048 77.0475L93.7955 79.6861C92.8106 78.3772 90.3602 78.1077 89.0774 79.1146C88.8625 79.2745 88.6865 79.4814 88.5627 79.7195C88.4389 79.9576 88.3704 80.2208 88.3625 80.4893C88.3545 80.7578 88.4073 81.0247 88.5168 81.2697C88.6263 81.5148 88.7898 81.7318 88.9949 81.9043C90.0623 82.8549 92.4008 82.8134 93.4535 81.8598C93.6688 81.6614 93.6098 81.3357 93.9548 81.1373L95.7359 83.6663Z" fill="#6789A1"/>
<path d="M54.0623 76.1406V78.877C53.5263 78.5686 52.9074 78.4371 52.293 78.5009C51.9804 78.5009 51.6679 78.5335 51.3582 78.569C51.0486 78.6045 51.0633 78.6934 51.0633 79.0132C51.0633 80.5206 51.0633 82.0309 51.0633 83.5413C51.0633 83.8789 51.2108 84.0743 51.5823 84.3379H48.2148C48.7515 84.0417 48.6571 83.5798 48.6601 83.1533C48.6601 81.8088 48.6394 80.4643 48.6601 79.1228C48.6601 78.6282 48.436 78.5305 47.97 78.5305C47.2122 78.5571 46.3246 78.3706 45.6641 78.8266V76.265C45.7831 76.4183 45.938 76.5399 46.1149 76.6189C46.2918 76.6979 46.4853 76.732 46.6785 76.7181C48.7928 76.6914 50.91 76.6974 53.0243 76.7181C53.2358 76.7439 53.4501 76.702 53.6365 76.5983C53.8229 76.4946 53.9719 76.3344 54.0623 76.1406Z" fill="#054466"/>
<path d="M115.137 82.0939V84.8392C114.768 84.4009 114.346 84.4127 113.916 84.4127C111.663 84.4127 109.41 84.4127 107.134 84.4127C107.549 83.4799 107.523 77.4385 107.104 76.7485H110.28C109.796 77.0802 109.849 77.4919 109.852 77.8946C109.852 79.2391 109.852 80.5865 109.852 81.931C109.852 82.393 109.991 82.5588 110.463 82.55C111.728 82.5263 112.993 82.5292 114.258 82.55C114.579 82.5648 114.812 82.4286 115.137 82.0939Z" fill="#6789A1"/>
<path d="M44.5773 84.3239H41.1714C41.714 84.161 41.6609 83.7316 41.658 83.3377C41.658 81.5283 41.658 79.7189 41.658 77.9124C41.658 77.4415 41.6579 77.0239 41.1773 76.7485H44.6923C44.0023 77.0447 44.076 77.5481 44.0789 78.0338C44.0789 79.8106 44.0789 81.5875 44.0789 83.3644C44.0878 83.7819 44.0878 84.1433 44.5773 84.3239Z" fill="#054466"/>
<path d="M119.704 84.3564H116.407C116.794 84.0958 116.844 83.7433 116.841 83.3258C116.825 81.4897 116.825 79.6506 116.841 77.8086C116.841 77.3911 116.841 77.0061 116.387 76.7603H119.899C119.694 76.8334 119.519 76.9737 119.403 77.1584C119.287 77.3432 119.236 77.5617 119.259 77.779C119.285 79.618 119.259 81.4571 119.259 83.2962C119.282 83.6871 119.135 84.1491 119.704 84.3564Z" fill="#6789A1"/>
<path d="M106.213 68.5362C106.217 68.875 106.121 69.2074 105.937 69.4916C105.754 69.7758 105.49 69.9991 105.181 70.1334C104.871 70.2677 104.529 70.307 104.197 70.2463C103.865 70.1857 103.558 70.0279 103.315 69.7926C103.073 69.5574 102.904 69.2553 102.832 68.9244C102.76 68.5934 102.787 68.2484 102.909 67.9327C103.032 67.6171 103.244 67.3448 103.521 67.1502C103.797 66.9557 104.124 66.8475 104.461 66.8393C104.688 66.8342 104.913 66.8741 105.123 66.9568C105.334 67.0395 105.527 67.1633 105.689 67.3211C105.852 67.4789 105.982 67.6675 106.072 67.8761C106.162 68.0846 106.21 68.309 106.213 68.5362Z" fill="#E84348"/>
</svg>
