<svg width="150" height="151" viewBox="0 0 150 151" fill="none" xmlns="http://www.w3.org/2000/svg">
<rect y="0.838867" width="150" height="150" rx="24" fill="#F9F9F9"/>
<path d="M96.5355 83.64C96.2657 83.7131 95.9801 83.7015 95.7172 83.6068C95.4543 83.512 95.2269 83.3386 95.0657 83.1102C93.6823 81.3244 92.2453 79.5386 90.8232 77.7736C89.0381 75.5383 87.2351 73.309 85.4322 71.0619C84.9949 71.3595 85.1853 71.7375 85.1823 72.053C85.1605 75.6068 85.1555 79.1596 85.1674 82.7114C85.1674 83.2769 85.1853 83.6758 84.3939 83.6847C83.6025 83.6936 83.5846 83.3067 83.5876 82.7322C83.5876 77.97 83.5876 73.2078 83.5876 68.4456C83.5876 67.901 83.7007 67.6778 84.2897 67.6986C84.488 67.7121 84.6807 67.77 84.8537 67.8678C85.0267 67.9657 85.1756 68.1011 85.2894 68.2641C86.9019 70.3476 88.5621 72.3953 90.1895 74.4579C91.8169 76.5206 93.4116 78.4969 95.0211 80.5178L95.3186 80.4583V73.568C95.3186 71.931 95.3395 70.294 95.3186 68.657C95.3186 68.0617 95.3514 67.7135 96.1249 67.7194C96.8984 67.7254 96.952 68.0498 96.949 68.654C96.9282 73.4579 96.9312 78.2617 96.9282 83.0686C96.9163 83.4019 96.8687 83.5746 96.5355 83.64Z" fill="#343436"/>
<path d="M77.3034 78.4446L77.1993 78.2809C77.096 78.1444 77.0266 77.9852 76.997 77.8166C76.9613 77.4654 77.351 77.3076 77.6129 77.1916C79.633 76.2986 80.6296 73.9176 80.1209 71.6377C79.6121 69.3577 77.8122 67.7922 75.5749 67.7386C73.5756 67.6939 71.5763 67.7386 69.5741 67.7178C68.9523 67.7178 68.7529 67.8993 68.7559 68.5333C68.7777 73.3292 68.7777 78.1232 68.7559 82.9151C68.7559 83.5104 68.9641 83.6741 69.5145 83.686C70.0649 83.6979 70.3922 83.5818 70.3744 82.8973C70.3297 81.4627 70.4041 80.0221 70.3565 78.5845C70.3297 77.7184 70.8682 77.8017 71.5733 77.7987H74.0962C74.396 77.7747 74.6972 77.8237 74.9739 77.9416C75.2521 78.1219 75.4778 78.3724 75.6284 78.6678L77.8895 82.302C78.1871 82.7991 78.5411 83.3259 79.0796 83.555C79.5592 83.7344 80.0875 83.7344 80.5672 83.555L77.3034 78.4446ZM75.3696 76.3344C75.0215 76.3582 74.6734 76.3611 74.3283 76.3611H71.972C71.0497 76.3611 70.2881 76.4861 70.3565 75.3611C70.4071 74.489 70.3565 73.608 70.3565 72.733H70.3416C70.3416 71.8162 70.3625 70.8995 70.3416 69.9828C70.3208 69.4024 70.4636 69.1286 71.13 69.1524C72.5641 69.203 74.004 69.1524 75.438 69.1821C77.2826 69.2357 78.6512 70.834 78.6155 72.8193C78.5887 74.2122 77.9044 75.6677 76.5061 76.123C76.14 76.2381 75.7615 76.309 75.3785 76.3344H75.3696Z" fill="#343436"/>
<path d="M58.3402 67.5977C54.2732 67.5977 50.8429 71.2437 50.8161 75.6339C50.7864 80.0985 54.1691 83.7624 58.3492 83.7654C62.4311 83.7654 65.787 80.1223 65.8019 75.6785C65.8108 71.2973 62.4281 67.6185 58.3402 67.5977ZM59.8278 82.0986C56.4213 83.057 53.2825 80.8039 52.5298 76.884C51.7325 72.6724 54.9605 68.7465 58.9055 69.1454C61.8598 69.443 64.1834 72.3361 64.1745 75.7172C64.1775 78.6579 62.3031 81.4081 59.8367 82.1016L59.8278 82.0986Z" fill="#343436"/>
<path d="M48.1056 78.8904C47.1923 81.0512 45.7255 82.6227 43.3901 83.4145C43.0687 82.3817 43.4317 81.8846 44.2201 81.3667C47.9301 78.944 48.058 72.8633 44.5176 70.2054C41.5782 67.9999 37.4963 69.2143 35.985 72.7413C34.5569 76.0688 35.6279 79.7208 38.6923 81.6316C39.2873 82.0066 39.3112 82.7656 39.1922 83.3966C38.8203 83.221 38.4067 83.1287 38.0289 82.9472C37.6509 82.7618 37.2904 82.5427 36.9519 82.2924C36.271 81.7836 35.6806 81.1638 35.2055 80.4589C34.2212 78.9913 33.7142 77.2553 33.7536 75.4884C33.772 74.8112 33.8719 74.1387 34.0511 73.4853C35.2263 69.1577 39.5462 66.607 43.4406 67.9463C47.6832 69.4077 49.9115 74.6134 48.1056 78.8904Z" fill="#343436"/>
<path d="M111.681 82.8968C111.681 82.9444 111.681 82.992 111.681 83.0367C111.685 83.1892 111.644 83.3394 111.562 83.4682C111.478 83.5436 111.378 83.5996 111.269 83.6325C111.161 83.6654 111.047 83.6743 110.934 83.6587C107.9 83.6587 104.865 83.6319 101.83 83.6587C101.096 83.6587 100.878 83.4712 100.893 82.7271C100.938 80.3728 100.908 78.0155 100.908 75.6612C100.908 73.3069 100.938 71.0299 100.908 68.7143C100.908 67.9672 101.045 67.6785 101.872 67.6934C104.749 67.744 107.626 67.6934 110.5 67.7113C110.955 67.7113 111.449 67.5714 111.467 68.372C111.485 69.1727 111.068 69.1608 110.503 69.1578C108.185 69.1399 105.865 69.1935 103.547 69.134C102.866 69.1161 102.536 69.5685 102.512 70.2114C102.482 70.9555 102.485 71.6996 102.494 72.4378C102.494 72.8098 102.494 73.1819 102.509 73.5539C102.509 73.8783 102.44 74.2593 102.631 74.5421C102.821 74.8248 103.267 74.8397 103.595 74.8397C105.552 74.7861 107.51 74.8397 109.468 74.8219C109.914 74.8219 110.31 74.7445 110.327 75.4499C110.345 76.1553 110 76.2029 109.459 76.197C107.459 76.1791 105.463 76.2207 103.464 76.1761C102.89 76.1612 102.533 76.319 102.533 76.947V81.5187C102.52 81.6669 102.547 81.8158 102.61 81.9503C102.756 82.1884 103.083 82.2152 103.363 82.2152L111.027 82.1974C111.177 82.1838 111.329 82.2127 111.464 82.2807C111.549 82.3566 111.614 82.453 111.652 82.5607C111.69 82.6685 111.7 82.7841 111.681 82.8968Z" fill="#343436"/>
<path d="M30.8739 79.504C30.3889 83.406 26.3487 85.29 22.9273 83.2661C22.4126 82.9685 22.4393 82.6708 22.6119 82.1916C22.8112 81.6529 23.2069 81.8702 23.6294 82.0428C24.3633 82.3375 25.1507 82.4754 25.9411 82.4476C26.7238 82.4781 27.4937 82.242 28.1248 81.7779C28.818 81.1975 29.0977 80.26 29.2524 79.3671C29.5648 77.5812 29.4874 75.7448 29.4874 73.9292C29.4874 71.9023 29.4874 70.307 29.4874 68.7116C29.4874 68.1163 29.5053 67.7354 30.2878 67.7443C30.981 67.7443 31.1565 67.9645 31.1386 68.6372C31.0256 72.2416 31.3231 75.8787 30.8739 79.504Z" fill="#343436"/>
<path d="M42.0951 71.4907C41.8243 75.0088 41.6042 78.5299 41.3691 82.0479H41.1014C41.0022 80.5994 40.9031 79.1489 40.8039 77.6965C40.667 75.6309 40.551 73.5653 40.3874 71.5026C40.3368 70.8597 40.5361 70.6782 41.1758 70.7169C41.744 70.7436 42.1575 70.6812 42.0951 71.4907Z" fill="#F19225"/>
<path d="M126.75 67.7715C126.351 68.4323 125.988 69.0484 125.61 69.6555C124.102 72.0753 122.594 74.5011 121.064 76.909C120.683 77.4626 120.489 78.124 120.511 78.796C120.556 80.2068 120.484 81.6206 120.538 83.0314C120.567 83.8201 120.074 83.6267 119.645 83.6654C119.217 83.7041 118.839 83.6654 118.863 83.0136C118.913 81.5254 118.863 80.0044 118.889 78.5014C118.902 77.9525 118.743 77.4134 118.434 76.9596C116.649 74.132 114.888 71.2896 113.124 68.4471C113.005 68.2537 112.802 68.0811 112.826 67.8042C113.885 67.5513 114.611 67.7328 115.206 68.8103C116.596 71.2955 118.167 73.6826 119.711 76.1857C121.222 73.7421 122.686 71.3789 124.152 69.0127C124.991 67.6763 124.986 67.6733 126.75 67.7715Z" fill="#343436"/>
</svg>
