<svg width="150" height="151" viewBox="0 0 150 151" fill="none" xmlns="http://www.w3.org/2000/svg">
<rect y="0.838867" width="150" height="150" rx="24" fill="#F9F9F9"/>
<path d="M93.2546 96.2254H92.0268V104.76H95.601V103.748H93.2015V96.2254H93.2546ZM97.5549 96.2254L95.9906 104.76H97.1712L97.4486 102.795H99.3464L99.6415 104.76H100.822L99.2047 96.2254H97.5549ZM97.6109 101.783L98.2809 97.6854H98.576L99.246 101.783H97.6109ZM84.601 104.751H85.8318V100.822H87.8417V99.81H85.8318V97.2284H88.5117V96.2164H84.601V104.751ZM106.096 101.718V101.831H105.819L104.812 96.2164H103.809L102.803 101.831H102.525L101.575 96.2164H100.459L102.076 104.751H103.086L104.089 98.9109H104.37L105.485 104.751H106.492L108 96.2164H106.881L106.096 101.718ZM79.5334 104.751H80.7612V100.822H82.7711V99.81H80.7612V97.2284H83.4411V96.2164H79.5334V104.751ZM65.5761 96.2164H63.5101V104.751H65.5761C67.0813 104.751 67.8073 104.021 67.8073 102.223V98.7447C67.8073 97.0028 67.0813 96.2728 65.5761 96.2164ZM66.5796 102.448C66.5796 102.953 66.5235 103.291 66.3021 103.516C66.0414 103.749 65.7 103.87 65.3518 103.852H64.6818V97.1927H65.3518C65.5252 97.1705 65.7014 97.1892 65.8663 97.2474C66.0313 97.3057 66.1805 97.4017 66.3021 97.5281C66.5235 97.7536 66.5796 98.1453 66.5796 98.5963V102.448ZM44.8599 100.258C44.0807 99.5845 43.2425 99.0237 43.2425 98.1245C43.222 97.8627 43.3011 97.6028 43.4639 97.3975C43.5497 97.3049 43.6533 97.2308 43.7685 97.1798C43.8837 97.1288 44.008 97.1019 44.1339 97.1007C44.5264 97.1007 44.9721 97.3975 45.0842 98.0563L46.1999 97.9435C46.0346 96.8189 45.3646 96.0889 44.3021 96.0889C42.85 96.0889 42.124 96.8189 42.124 98.1661C42.124 99.3531 42.85 100.077 43.6321 100.694C44.3582 101.368 45.1964 101.929 45.1964 102.881C45.195 103.154 45.0893 103.415 44.9012 103.611C44.6971 103.778 44.4371 103.858 44.1752 103.837C43.6174 103.837 43.2278 103.332 43.1156 102.546L42 102.715C42.1092 103.95 42.8353 104.902 44.1191 104.902C45.4591 104.902 46.3534 104.175 46.3534 102.772C46.2973 101.647 45.5712 100.917 44.8452 100.243L44.8599 100.258ZM53.7792 100.861H55.733V99.8635H53.7969V97.2818H56.3086V96.2135H52.5691V104.748H56.4532V103.736H53.7969L53.7792 100.861ZM61.0928 100.751C61.5414 100.525 62.0432 100.021 62.0432 98.6735C61.9871 96.8188 61.2611 96.258 59.6407 96.2016H57.6869V104.736H58.9147V101.086H59.0829C59.3449 101.097 59.6073 101.079 59.865 101.03H59.9772L61.0368 104.736H62.2675L60.9807 100.804L61.0928 100.751ZM60.535 99.8605C60.3107 100.139 59.9772 100.196 59.5315 100.196H58.8616V97.1927H59.5315C59.9772 97.1927 60.3107 97.2491 60.535 97.5281C60.7593 97.807 60.8301 98.1453 60.8301 98.715C60.8677 98.9226 60.8608 99.1359 60.8099 99.3406C60.759 99.5452 60.6653 99.7367 60.535 99.902V99.8605ZM49.4288 102.237V102.35H49.1336L48.018 96.2313H46.8374L48.626 104.766H49.9098L51.6955 96.2313H50.5149L49.4288 102.237ZM75.8913 96.1185C74.3861 96.1185 73.7692 97.0088 73.7161 98.2521V102.801C73.7161 103.988 74.3861 104.878 75.8913 104.932C77.3995 104.932 78.0134 104.042 78.0695 102.801V98.2521C78.0134 97.0651 77.3995 96.1185 75.8913 96.1185ZM76.8417 102.745C76.8617 103.042 76.7828 103.338 76.6174 103.585C76.5322 103.693 76.4206 103.777 76.2933 103.829C76.1661 103.881 76.0275 103.899 75.8913 103.881C75.7558 103.891 75.6198 103.87 75.4939 103.818C75.368 103.767 75.2555 103.687 75.1653 103.585C75.0021 103.337 74.9243 103.042 74.9439 102.745V98.2521C74.9243 97.9554 75.0021 97.6604 75.1653 97.4123C75.2542 97.3085 75.3664 97.2274 75.4927 97.1758C75.6189 97.1242 75.7556 97.1036 75.8913 97.1156C76.0269 97.1057 76.1629 97.1273 76.2888 97.1788C76.4147 97.2303 76.5271 97.3102 76.6174 97.4123C76.7828 97.6595 76.8617 97.9549 76.8417 98.2521V102.745ZM70.4193 96.2164H69.1916V104.751H72.7658V103.739H70.3633V96.2164H70.4193Z" fill="black"/>
<path d="M66.3413 63.2837C66.199 61.9269 65.3986 61.5891 64.7407 61.5891C63.7941 61.5891 63.2015 62.154 63.2015 63.1134C63.2015 65.7704 69.2427 67.0167 69.2427 71.2547C69.2427 73.8011 67.3495 75.2148 64.5136 75.2148C61.7469 75.2148 60.1462 73.2332 60 70.917L62.8359 70.5762C62.9821 72.1603 63.6401 72.9672 64.656 72.9672C65.6718 72.9672 66.4029 72.4592 66.4029 71.5536C66.4029 68.4423 60.3617 67.6533 60.3617 63.1851C60.3617 60.6985 62.0356 59.2848 65.0215 59.2848C67.4226 59.2848 68.8695 60.8688 69.1696 63.0715L66.3413 63.2837Z" fill="black"/>
<path d="M71.4394 74.9871V59.4397H74.4215V72.6679H79.1545V74.9871H71.4394Z" fill="black"/>
<path d="M85.1208 67.1267H90V74.987H88.5339L87.9529 73.7915C87.0794 74.7509 86.3521 75.1484 84.9668 75.1484C82.6581 75.1484 80.965 73.6212 80.965 71.1884V63.2264C80.965 61.0207 82.4195 59.2125 85.3324 59.2125C88.3146 59.2125 89.8461 61.1342 89.8461 63.4535V64.4697H87.0063C87.0063 62.1534 86.4945 61.5318 85.2593 61.5318C84.532 61.5318 83.9471 61.9263 83.9471 63.2264V71.1973C83.9471 72.2165 84.332 72.8382 85.3324 72.8382C86.5676 72.8382 87.0063 72.2165 87.0063 70.6892V69.174H85.1131L85.1208 67.1267Z" fill="black"/>
<path d="M77.5547 47.3389H71.3673V57.8562H77.5547V47.3389Z" fill="black"/>
<path d="M89.9284 47.3389H78.5731V57.8562H89.9284V47.3389Z" fill="#43AED9"/>
<path d="M77.5547 76.5715H71.3673V87.0889H77.5547V76.5715Z" fill="black"/>
<path d="M89.9284 76.5715H78.5731V87.0889H89.9284V76.5715Z" fill="#43AED9"/>
</svg>
