<svg width="150" height="151" viewBox="0 0 150 151" fill="none" xmlns="http://www.w3.org/2000/svg">
<rect y="0.838867" width="150" height="150" rx="24" fill="#F9F9F9"/>
<path d="M21.0155 98.2216V86.3077C21.0155 85.1891 20.9798 84.2483 20.9083 83.4853H16.5565C16.2608 83.4568 15.964 83.5277 15.7129 83.6867C15.6192 83.784 15.546 83.8992 15.4977 84.0255C15.4494 84.1518 15.4269 84.2865 15.4317 84.4217L15.3212 86.6501H14.4408C14.4408 85.8804 14.4274 85.1331 14.4006 84.4082C14.3739 83.6833 14.3236 82.9171 14.25 82.1094C14.6986 82.1094 15.3145 82.1094 16.1046 82.1295L18.4646 82.1732C19.2513 82.1732 19.8672 82.1933 20.3158 82.1933H24.3932C24.8418 82.1933 25.4611 82.1933 26.2544 82.1732L28.6212 82.1295C29.4079 82.1295 30.0238 82.1094 30.4724 82.1094C30.3273 83.6185 30.2592 85.134 30.2682 86.6501H29.4045L29.294 84.4217C29.2983 84.1527 29.2001 83.8923 29.0195 83.6934C28.7682 83.5285 28.4681 83.4551 28.1693 83.4853H23.8174C23.7438 84.246 23.7069 85.1868 23.7069 86.3077V98.2216C23.7069 99.3592 23.7873 100.067 23.9546 100.343C24.122 100.618 24.5103 100.742 25.133 100.769L26.4921 100.849V101.692C25.0281 101.633 23.669 101.606 22.4148 101.608C21.1003 101.608 19.7144 101.636 18.2571 101.692V100.849L19.5961 100.769C20.2288 100.742 20.6205 100.598 20.7778 100.343C20.9351 100.088 21.0155 99.3592 21.0155 98.2216Z" fill="#383838"/>
<path d="M37.2892 93.9996L40.0677 93.4895C40.0677 92.3328 39.7809 91.4379 39.2074 90.8047C38.6338 90.1715 37.7411 89.8605 36.5293 89.8717C36.09 89.854 35.6501 89.8923 35.2204 89.9858C34.9518 90.0681 34.717 90.2353 34.5509 90.4624C34.3731 90.7653 34.2121 91.0779 34.0688 91.3987L33.714 92.2645L32.9742 92.0733V90.2409L34.4705 89.3348C35.4481 88.716 36.5784 88.3825 37.7344 88.3716C38.9161 88.3716 39.8334 88.5528 40.4895 88.922C41.1591 89.3088 41.6587 89.9342 41.8888 90.6738C42.2042 91.7484 42.3455 92.8667 42.3072 93.9862V99.1444C42.2978 99.5503 42.3292 99.9562 42.401 100.356C42.4579 100.611 42.6922 100.755 43.104 100.782L44.202 100.836V101.678C43.8873 101.658 43.6128 101.645 43.3751 101.635L42.7826 101.608C42.6253 101.608 42.3909 101.608 42.0796 101.608C41.7683 101.608 41.5172 101.608 41.3565 101.608L40.7573 101.635L39.9037 101.678L40.0543 99.282L36.5762 101.705C36.1707 101.898 35.7209 101.978 35.274 101.937C34.3724 101.972 33.4925 101.654 32.8202 101.051C32.1819 100.46 31.8628 99.6187 31.8628 98.5269C31.8202 97.6542 32.0896 96.795 32.6227 96.1038C33.1286 95.4897 33.7849 95.0179 34.5275 94.7346C35.4236 94.405 36.3481 94.159 37.2892 93.9996ZM40.0677 98.1107V94.409C38.6702 94.578 37.2965 94.9068 35.9736 95.389C35.4653 95.6004 35.043 95.9776 34.7752 96.4596C34.4707 96.9326 34.3027 97.4808 34.2898 98.0436C34.2789 98.4746 34.3854 98.9004 34.5978 99.2753C34.7915 99.606 35.0671 99.8811 35.3978 100.074C35.724 100.261 36.0935 100.358 36.4691 100.356C36.8867 100.344 37.2949 100.228 37.6575 100.02C38.1823 99.7314 38.6858 99.4051 39.1639 99.0437C39.5112 98.7772 39.816 98.4592 40.0677 98.1007V98.1107Z" fill="#383838"/>
<path d="M49.857 92.7601V98.7305C49.8281 99.2801 49.8743 99.8311 49.9942 100.368C50.1114 100.606 50.4127 100.741 50.8981 100.768L52.1634 100.848V101.69C51.7171 101.67 51.2618 101.654 50.7976 101.64L49.8268 101.613C49.6561 101.613 49.2711 101.613 48.6753 101.613C48.0794 101.613 47.7045 101.613 47.5237 101.613L46.5496 101.64C46.0809 101.64 45.629 101.67 45.1904 101.69V100.848L46.4525 100.768C46.9479 100.741 47.2492 100.606 47.3563 100.368C47.4763 99.8311 47.5225 99.2801 47.4936 98.7305V92.3943C47.4936 91.4479 47.43 90.8673 47.3028 90.6458C47.1755 90.4243 46.8073 90.3438 46.2617 90.3438H45.2172V89.545C46 89.4653 46.7741 89.316 47.5304 89.0987C48.2364 88.9032 48.9305 88.6667 49.6092 88.3905L49.857 88.5147V90.9075H49.9105L51.9961 89.1054C52.2706 88.8517 52.5958 88.6595 52.9501 88.5416C53.3868 88.4264 53.8379 88.3755 54.2892 88.3905C57.3823 88.3905 58.9289 90.0271 58.9289 93.3004V98.7372C58.9 99.2868 58.9462 99.8378 59.0662 100.375C59.1666 100.613 59.4645 100.747 59.9566 100.774L61.1115 100.855V101.697C60.8002 101.677 60.4755 101.66 60.1441 101.647L59.4746 101.62C59.3741 101.62 59.1398 101.62 58.8051 101.62C58.4703 101.62 58.2159 101.62 58.1121 101.62L57.4727 101.647C57.138 101.647 56.8467 101.677 56.5555 101.697V93.6998C56.57 93.0307 56.4314 92.3671 56.1504 91.76C55.9077 91.2403 55.5115 90.808 55.0156 90.5216C54.4945 90.2374 53.9081 90.0951 53.315 90.1088C52.7447 90.1146 52.1843 90.2585 51.6814 90.5283C51.1766 90.7829 50.7281 91.1368 50.3624 91.5687C50.0609 91.8949 49.8822 92.3161 49.857 92.7601Z" fill="#383838"/>
<path d="M75.9736 90.9555H73.3793C73.6046 91.4528 73.7189 91.9934 73.714 92.5396C73.7224 93.2323 73.5493 93.915 73.2119 94.5196C72.8746 95.1202 72.4024 95.6339 71.8327 96.0197C71.4218 96.3048 70.9872 96.5541 70.5338 96.7648C70.1002 96.9694 69.6456 97.1258 69.178 97.2313C68.7563 97.3283 68.3253 97.3789 67.8926 97.3823C67.6952 97.3777 67.4984 97.3597 67.3034 97.3286C67.0389 97.5568 66.7577 97.8118 66.4598 98.087C66.333 98.1851 66.228 98.3086 66.1513 98.4495C66.0747 98.5905 66.0281 98.7459 66.0146 98.9059C65.9977 99.1048 66.0488 99.3035 66.1595 99.4694C66.2703 99.6353 66.434 99.7585 66.6238 99.8187C67.1174 99.9795 67.6349 100.054 68.1537 100.04H72.6428C73.7877 100.04 74.6246 100.399 75.1602 101.118C75.6867 101.809 75.9693 102.657 75.9636 103.527C75.9604 104.293 75.7817 105.047 75.4414 105.732C75.0733 106.479 74.5573 107.144 73.9249 107.685C73.2076 108.296 72.382 108.766 71.4912 109.071C70.478 109.426 69.4109 109.601 68.3378 109.588C67.2908 109.601 66.2503 109.422 65.2681 109.058C64.423 108.758 63.6714 108.241 63.0888 107.558C62.5695 106.941 62.2869 106.159 62.2921 105.353C62.2921 104.316 62.5599 103.567 63.0888 103.111L65.5325 101.769C64.2984 101.44 63.6813 100.88 63.6813 100.091C63.6876 99.6613 63.8373 99.2466 64.1065 98.9126L66.259 97.2346V97.1809C65.7918 97.1362 65.3374 97.0029 64.9199 96.7882C64.3662 96.512 63.895 96.0941 63.5541 95.5767C63.1375 94.9281 62.9317 94.166 62.9649 93.3953C62.945 92.6253 63.1322 91.8641 63.5068 91.1915C63.8814 90.5189 64.4296 89.9598 65.094 89.5728C65.7225 89.1673 66.4103 88.8627 67.1327 88.6701C67.7931 88.4675 68.4776 88.3546 69.168 88.3345C69.8022 88.3341 70.4326 88.4338 71.036 88.6298C71.6175 88.8089 72.1516 89.1162 72.5993 89.5292L76.5963 89.4084L76.7034 89.744L75.9736 90.9555ZM68.5219 108.722C69.4545 108.739 70.3789 108.545 71.2268 108.155C71.9653 107.82 72.6001 107.291 73.0646 106.625C73.4965 106.017 73.7303 105.29 73.7341 104.544C73.7341 103.649 73.4529 103.004 72.8905 102.608C72.3281 102.205 71.287 102.007 69.7672 102.007C68.6223 102.007 67.6315 102.044 66.7879 102.118C66.4276 102.176 66.088 102.325 65.8003 102.551C65.4089 102.831 65.0796 103.19 64.8329 103.604C64.5617 104.048 64.4213 104.56 64.4278 105.081C64.4002 105.588 64.4904 106.094 64.6914 106.56C64.8924 107.026 65.1987 107.439 65.5861 107.766C66.4218 108.421 67.4615 108.76 68.5219 108.722ZM71.3339 93.4322C71.3411 92.7465 71.2278 92.0649 70.9991 91.4186C70.7934 90.8294 70.424 90.3113 69.9346 89.9252C69.4053 89.5296 68.7565 89.3282 68.0968 89.3547C67.7018 89.3331 67.3075 89.4069 66.9469 89.5698C66.5863 89.7327 66.27 89.98 66.0246 90.291C65.5164 90.9819 65.2589 91.8262 65.2948 92.6838C65.2741 93.3899 65.4149 94.0914 65.7066 94.7344C65.9492 95.2589 66.3419 95.6993 66.8347 95.9996C67.334 96.291 67.9042 96.4374 68.4817 96.4224C68.8648 96.4338 69.246 96.3643 69.6007 96.2186C69.9553 96.073 70.2755 95.8543 70.5405 95.5767C70.8076 95.2896 71.0152 94.9522 71.1514 94.5841C71.2875 94.216 71.3496 93.8245 71.3339 93.4322Z" fill="#383838"/>
<path d="M79.9387 98.7347V92.3952C79.9387 91.4522 79.8751 90.8716 79.7479 90.6501C79.6207 90.4286 79.2357 90.3447 78.7035 90.3447H77.6624V89.5426C78.4442 89.4621 79.2172 89.3116 79.9722 89.0929C80.6796 88.8969 81.3748 88.6593 82.0544 88.3815L82.2988 88.5056V91.365H82.3557L83.8788 89.5426C84.1796 89.1677 84.5621 88.867 84.9969 88.6634C85.3862 88.4818 85.8096 88.3857 86.2389 88.3815C86.6919 88.3484 87.1439 88.4587 87.5311 88.6969L87.2833 92.0966H86.6908C86.543 91.7082 86.279 91.3752 85.935 91.1433C85.591 90.9114 85.1838 90.7919 84.7693 90.8011C84.4339 90.8111 84.1053 90.8975 83.8082 91.054C83.5112 91.2104 83.2537 91.4327 83.0553 91.7039C82.5461 92.3181 82.2772 93.097 82.2988 93.8954V98.7314C82.2715 99.2799 82.3176 99.8296 82.436 100.366C82.5398 100.604 82.9315 100.738 83.6177 100.765L85.0873 100.849V101.688L83.4738 101.644L82.4226 101.618C82.1414 101.618 81.7063 101.618 81.1204 101.618C80.5346 101.618 80.1496 101.618 79.9655 101.618L78.9914 101.644C78.5249 101.658 78.063 101.675 77.6055 101.695V100.856L78.8976 100.772C79.3897 100.745 79.691 100.611 79.8015 100.372C79.9219 99.8355 79.9681 99.2844 79.9387 98.7347Z" fill="#383838"/>
<path d="M94.439 93.9996L97.2175 93.4895C97.2175 92.3328 96.9296 91.4379 96.3539 90.8047C95.7781 90.1715 94.8854 89.8605 93.6758 89.8717C93.2364 89.854 92.7966 89.8923 92.3669 89.9858C92.0983 90.0681 91.8634 90.2353 91.6974 90.4624C91.5195 90.7653 91.3586 91.0779 91.2153 91.3987L90.8605 92.2645L90.1207 92.0733V90.2409L91.617 89.3348C92.5946 88.716 93.7248 88.3825 94.8809 88.3716C96.0626 88.3716 96.9799 88.5528 97.6326 88.922C98.3039 89.3076 98.8049 89.9334 99.0353 90.6738C99.3507 91.7484 99.492 92.8667 99.4537 93.9862V99.1444C99.4443 99.5503 99.4757 99.9562 99.5474 100.356C99.6044 100.611 99.8387 100.755 100.25 100.782L101.345 100.836V101.678C101.034 101.658 100.759 101.645 100.522 101.635L99.9291 101.608C99.7717 101.608 99.5374 101.608 99.2261 101.608C98.9148 101.608 98.6637 101.608 98.503 101.608L97.9038 101.635L97.0502 101.678L97.2008 99.282L93.7227 101.705C93.3172 101.898 92.8674 101.978 92.4204 101.937C91.5189 101.972 90.639 101.654 89.9667 101.051C89.3262 100.46 89.007 99.6187 89.0093 98.5269C88.9666 97.6542 89.2361 96.795 89.7692 96.1038C90.2751 95.4897 90.9314 95.0179 91.6739 94.7346C92.5711 94.4048 93.4968 94.1588 94.439 93.9996ZM97.2175 98.1107V94.409C95.82 94.578 94.4464 94.9068 93.1234 95.389C92.6151 95.6004 92.1928 95.9776 91.925 96.4596C91.6205 96.9326 91.4525 97.4808 91.4396 98.0436C91.4287 98.4746 91.5352 98.9004 91.7476 99.2753C91.9414 99.606 92.2169 99.8811 92.5477 100.074C92.8738 100.261 93.2433 100.358 93.6189 100.356C94.0365 100.344 94.4447 100.228 94.8073 100.02C95.3322 99.7314 95.8356 99.4051 96.3137 99.0437C96.661 98.7772 96.9658 98.4592 97.2175 98.1007V98.1107Z" fill="#383838"/>
<path d="M104.972 98.728V92.3919C104.972 91.4388 104.902 90.8582 104.758 90.6501C104.614 90.442 104.276 90.3413 103.753 90.3413H102.709V89.5426C103.501 89.4627 104.286 89.3133 105.052 89.0963C105.75 88.9097 106.434 88.673 107.098 88.3881L107.359 88.5123V90.9051L109.294 89.103C109.816 88.6264 110.639 88.3881 111.764 88.3881C113.596 88.3881 114.882 89.2641 115.62 91.0159L117.763 89.103C118.312 88.6264 119.135 88.3881 120.233 88.3881C120.781 88.383 121.325 88.4856 121.834 88.6902C122.32 88.8893 122.757 89.1915 123.116 89.5762C123.494 89.9888 123.786 90.4739 123.973 91.0025C124.189 91.621 124.293 92.2734 124.281 92.9288V98.7347C124.253 99.2844 124.3 99.8351 124.418 100.372C124.518 100.611 124.816 100.745 125.312 100.772L126.651 100.852V101.695L125.646 101.651L124.96 101.624C124.783 101.624 124.515 101.624 124.16 101.624C123.805 101.624 123.584 101.624 123.491 101.624L122.851 101.651C122.517 101.651 122.225 101.681 121.931 101.701V93.7041C121.963 92.8042 121.73 91.9147 121.261 91.1468C121.053 90.8145 120.76 90.5437 120.413 90.3621C120.066 90.1805 119.677 90.0945 119.286 90.1131C118.716 90.1189 118.155 90.2628 117.652 90.5326C117.147 90.7864 116.698 91.1404 116.334 91.573C116.031 91.9009 115.852 92.3248 115.828 92.7711V98.7415C115.799 99.2911 115.845 99.8421 115.965 100.379C116.082 100.617 116.384 100.752 116.869 100.779L118.161 100.859V101.701C117.702 101.681 117.24 101.665 116.775 101.651L115.808 101.624C115.627 101.624 115.242 101.624 114.646 101.624C114.05 101.624 113.676 101.624 113.495 101.624L112.521 101.651C112.052 101.651 111.59 101.681 111.131 101.701V100.859L112.424 100.779C112.916 100.752 113.22 100.617 113.327 100.379C113.447 99.8421 113.494 99.2911 113.465 98.7415V93.7074C113.47 93.0992 113.372 92.4945 113.177 91.9187C113.014 91.4017 112.705 90.9434 112.286 90.5998C111.872 90.2734 111.357 90.1024 110.83 90.1165C110.26 90.1227 109.699 90.2666 109.196 90.536C108.692 90.7897 108.244 91.1437 107.881 91.5763C107.577 91.9039 107.397 92.3278 107.372 92.7745V98.7448C107.345 99.2944 107.391 99.8452 107.509 100.383C107.62 100.621 107.921 100.755 108.416 100.782L109.595 100.862V101.705C109.193 101.685 108.765 101.668 108.313 101.654L107.352 101.628C107.164 101.628 106.776 101.628 106.19 101.628C105.605 101.628 105.216 101.628 105.045 101.628L104.065 101.654C103.58 101.668 103.118 101.685 102.679 101.705V100.862L103.968 100.782C104.453 100.755 104.754 100.621 104.875 100.383C104.981 99.8379 105.014 99.2814 104.972 98.728Z" fill="#383838"/>
<path d="M129.574 78.7805C131.158 78.7805 131.918 79.6598 131.918 80.7639C131.931 81.2271 131.776 81.6793 131.481 82.0359C131.186 82.3924 130.771 82.6286 130.314 82.7003L132.005 85.5261H130.95L129.347 82.7675H128.286V85.5261H127.398V78.7805H129.574ZM129.574 79.5054H128.279V82.0593H129.574C130.579 82.0593 131.004 81.519 131.004 80.7639C131.004 80.0088 130.579 79.5054 129.574 79.5054Z" fill="#383838"/>
<path d="M129.614 88.0633C128.452 88.064 127.316 87.719 126.349 87.0721C125.382 86.4252 124.629 85.5054 124.184 84.429C123.739 83.3526 123.622 82.1681 123.849 81.0253C124.075 79.8825 124.635 78.8327 125.457 78.0088C126.278 77.1848 127.326 76.6239 128.466 76.3967C129.605 76.1695 130.787 76.2865 131.861 76.7327C132.934 77.1789 133.852 77.9343 134.497 78.9034C135.142 79.8725 135.487 81.0117 135.486 82.1769C135.484 83.7375 134.865 85.2337 133.764 86.3372C132.663 87.4408 131.171 88.0615 129.614 88.0633ZM129.614 77.0321C128.599 77.0314 127.607 77.3326 126.762 77.8975C125.918 78.4624 125.26 79.2657 124.871 80.2057C124.482 81.1457 124.38 82.1803 124.577 83.1785C124.775 84.1767 125.263 85.0937 125.981 85.8136C126.698 86.5334 127.613 87.0237 128.608 87.2225C129.604 87.4213 130.636 87.3196 131.574 86.9303C132.512 86.541 133.314 85.8816 133.878 85.0355C134.442 84.1893 134.743 83.1946 134.743 82.1769C134.742 80.8132 134.201 79.5057 133.24 78.5411C132.278 77.5766 130.974 77.0338 129.614 77.0321Z" fill="#383838"/>
<path d="M129.614 88.1214C128.441 88.122 127.294 87.7739 126.319 87.1211C125.343 86.4683 124.583 85.5401 124.134 84.4539C123.684 83.3677 123.567 82.1724 123.795 81.0192C124.024 79.8659 124.589 78.8066 125.418 77.9752C126.247 77.1438 127.304 76.5776 128.454 76.3484C129.605 76.1192 130.797 76.2372 131.881 76.6875C132.964 77.1377 133.89 77.9 134.541 78.8779C135.192 79.8558 135.539 81.0054 135.539 82.1812C135.537 83.7561 134.912 85.266 133.801 86.3796C132.691 87.4932 131.184 88.1196 129.614 88.1214ZM129.614 76.3451C128.462 76.3445 127.336 76.6862 126.378 77.327C125.421 77.9679 124.674 78.8792 124.233 79.9455C123.792 81.0119 123.676 82.1854 123.9 83.3178C124.124 84.4501 124.679 85.4903 125.493 86.3068C126.307 87.1233 127.344 87.6795 128.473 87.9049C129.603 88.1304 130.773 88.015 131.837 87.5734C132.901 87.1318 133.811 86.3838 134.45 85.4239C135.09 84.4641 135.432 83.3357 135.432 82.1812C135.43 80.6345 134.816 79.1516 133.726 78.0576C132.635 76.9636 131.156 76.3478 129.614 76.3451ZM129.614 87.3763C128.588 87.377 127.585 87.0726 126.731 86.5016C125.878 85.9307 125.213 85.1188 124.82 84.1688C124.427 83.2188 124.324 82.1732 124.524 81.1645C124.724 80.1558 125.218 79.2292 125.944 78.502C126.669 77.7748 127.593 77.2796 128.599 77.0791C129.606 76.8787 130.648 76.9819 131.596 77.3757C132.544 77.7696 133.354 78.4365 133.923 79.2918C134.493 80.1472 134.796 81.1528 134.796 82.1812C134.79 83.5562 134.242 84.8731 133.271 85.8441C132.3 86.8151 130.985 87.3611 129.614 87.3629V87.3763ZM129.614 77.0902C128.609 77.0902 127.627 77.3888 126.792 77.9482C125.957 78.5076 125.306 79.3027 124.922 80.2329C124.537 81.1632 124.437 82.1869 124.633 83.1744C124.829 84.162 125.312 85.0692 126.023 85.7812C126.733 86.4932 127.638 86.978 128.623 87.1745C129.608 87.3709 130.629 87.2701 131.557 86.8847C132.485 86.4994 133.278 85.8469 133.836 85.0097C134.394 84.1725 134.692 83.1882 134.692 82.1812C134.69 80.8316 134.154 79.5376 133.202 78.5832C132.251 77.6289 130.96 77.0919 129.614 77.0902Z" fill="#383838"/>
<path d="M72.4456 56.8937L58.9917 70.348V42.8757L66.4334 50.3697L72.459 56.4105C72.4906 56.4427 72.5153 56.4809 72.5318 56.5229C72.5483 56.565 72.5561 56.6098 72.5548 56.655C72.5536 56.7001 72.5433 56.7445 72.5245 56.7855C72.5058 56.8265 72.4789 56.8633 72.4456 56.8937Z" fill="#17AADB"/>
<path d="M78.4048 49.509H67.1837C67.0596 49.5111 66.9364 49.4881 66.8214 49.4414C66.7063 49.3947 66.6019 49.3253 66.5142 49.2372L59.3872 42.0889H71.5959L78.5789 49.1029C78.6093 49.1377 78.6292 49.1804 78.6364 49.2261C78.6435 49.2717 78.6377 49.3185 78.6195 49.3609C78.6013 49.4034 78.5715 49.4399 78.5335 49.4661C78.4955 49.4922 78.4509 49.5072 78.4048 49.509Z" fill="#F85E10"/>
<path d="M78.7122 50.6119L73.5402 55.7936C73.509 55.825 73.472 55.85 73.4312 55.867C73.3904 55.8841 73.3467 55.8929 73.3025 55.8929C73.2583 55.8929 73.2145 55.8841 73.1737 55.867C73.1329 55.85 73.0959 55.825 73.0648 55.7936L67.9899 50.7059C67.9596 50.6797 67.9383 50.6446 67.929 50.6056C67.9198 50.5666 67.9229 50.5257 67.9381 50.4886C67.9533 50.4515 67.9797 50.4201 68.0136 50.3989C68.0475 50.3777 68.0872 50.3677 68.1271 50.3703H78.6151C78.6437 50.3687 78.6721 50.3761 78.6963 50.3916C78.7204 50.407 78.7392 50.4296 78.7499 50.4563C78.7606 50.4829 78.7627 50.5122 78.7559 50.5402C78.7492 50.5681 78.7339 50.5932 78.7122 50.6119Z" fill="#352EAB"/>
<path d="M87.8183 42.6803V57.1313L72.8345 42.093H87.2291C87.3063 42.0926 87.3828 42.1075 87.4543 42.1368C87.5258 42.1661 87.5907 42.2093 87.6455 42.2639C87.7003 42.3184 87.7437 42.3833 87.7734 42.4548C87.803 42.5263 87.8183 42.6029 87.8183 42.6803Z" fill="#F10090"/>
<path d="M87.0002 70.9905H59.6304L73.0207 57.5262C73.0559 57.4909 73.0976 57.4629 73.1436 57.4437C73.1895 57.4246 73.2388 57.4148 73.2885 57.4148C73.3383 57.4148 73.3875 57.4246 73.4335 57.4437C73.4794 57.4629 73.5212 57.4909 73.5563 57.5262L87.0002 70.9905Z" fill="#E5001C"/>
<path d="M87.816 58.4282V70.4863C87.8194 70.5198 87.8194 70.5535 87.816 70.587L81.9108 64.6637C81.871 64.6229 81.8486 64.5681 81.8486 64.511C81.8486 64.4539 81.871 64.399 81.9108 64.3583L87.816 58.4282Z" fill="#FEC10B"/>
<path d="M80.3587 50.8766L87.1108 57.6456C87.146 57.6814 87.1657 57.7296 87.1657 57.7798C87.1657 57.8301 87.146 57.8783 87.1108 57.9141L81.3228 63.7166C81.2992 63.7405 81.271 63.7596 81.24 63.7725C81.2089 63.7855 81.1757 63.7922 81.1421 63.7922C81.1084 63.7922 81.0751 63.7855 81.0441 63.7725C81.0131 63.7596 80.9849 63.7405 80.9613 63.7166L74.1724 56.8939C74.1389 56.8625 74.1123 56.8245 74.094 56.7824C74.0758 56.7403 74.0664 56.6948 74.0664 56.6489C74.0664 56.6029 74.0758 56.5575 74.094 56.5154C74.1123 56.4732 74.1389 56.4353 74.1724 56.4039L79.6858 50.8766C79.7763 50.7894 79.8968 50.7407 80.0223 50.7407C80.1477 50.7407 80.2683 50.7894 80.3587 50.8766Z" fill="#139740"/>
<path d="M66.4389 50.3766H66.4321V50.3699L66.4389 50.3766Z" fill="#D3D3D3"/>
</svg>
