<svg width="375" height="574" viewBox="0 0 375 574" fill="none" xmlns="http://www.w3.org/2000/svg">
<path d="M-190.85 540.809C-190.85 540.809 2.47204 426.355 154.616 305.127C306.76 183.898 368.315 244.78 519.825 124.057C671.968 2.82868 747.305 51.887 747.305 51.887" stroke="#FFE500" stroke-width="0.780723"/>
<path d="M-179.096 558.394C-179.096 558.394 -23.6511 416.596 123.588 299.275C270.827 181.955 340.245 244.475 486.87 127.643C634.11 10.3229 716.924 75.9171 716.924 75.9171" stroke="#FFB000" stroke-width="0.780723"/>
<path d="M-207.415 513.418C-207.415 513.418 16.3267 445.214 165.916 326.007C315.505 206.8 375.362 266.012 524.328 147.302C673.917 28.095 728.703 66.5276 728.703 66.5276" stroke="#ED462F" stroke-width="0.780723"/>
<path d="M-180.504 553.036C-180.504 553.036 -31.8753 399.841 118.091 280.347C268.057 160.854 367.642 256.242 516.984 137.247C666.95 17.7535 733.81 62.5628 733.81 62.5628" stroke="#1994FF" stroke-width="0.780723"/>
</svg>
