<svg width="314" height="48" viewBox="0 0 314 48" fill="none" xmlns="http://www.w3.org/2000/svg">
<path d="M31.1471 33.1086C31.1471 33.1086 22.6024 47.0064 16.165 44.4371C9.72763 41.8678 16.8001 29.1087 16.8001 29.1087C16.8001 29.1087 20.2353 22.1889 25.4603 22.0722C30.6852 21.9554 31.1471 33.1086 31.1471 33.1086Z" fill="#2C73DB"/>
<path d="M7.39 35.0657L0 48H14.3759C14.3759 47.9708 5.19609 45.8686 7.39 35.0657Z" fill="#ED462F"/>
<path d="M22.0229 47.9995C22.0229 47.9995 29.9325 45.6929 33.8584 40.2331C33.8584 40.2331 34.2915 46.6564 40.2381 47.9703L22.0229 47.9995Z" fill="#ED462F"/>
<path d="M42.3479 26.3361L54.7896 47.8543L43.185 47.9711C43.185 47.9711 45.581 47.4164 47.544 45.139C47.544 45.139 47.746 44.847 47.2264 44.9638C46.7068 45.0806 41.5396 46.0733 39.8076 40.7886L37.6425 34.0733L42.3479 26.3361Z" fill="#ED462F"/>
<path d="M35.2765 25.8686C35.2765 25.8686 33.2269 18.8905 26.0679 18.8905C18.5335 18.8905 13.5684 24.5839 13.5684 24.5839L27.4535 0L38.654 20.0584L35.2765 25.8686Z" fill="#2C73DB"/>
<path d="M73.6387 27.3026H80.9229L77.3522 18.1676L73.6387 27.3026ZM68.2971 36.0504L77.4807 14.2239L86.2788 36.0504H84.2078L81.537 28.9374H72.996L70.2252 36.0504H68.2971Z" fill="#1E1E1E"/>
<path d="M88.6354 36.0504V15.0557H90.535V34.2578H97.7049V36.0504H88.6354Z" fill="#1E1E1E"/>
<path d="M100.718 36.0504V15.0557H104.532C106.036 15.0557 107.141 15.137 107.845 15.2995C108.56 15.462 109.179 15.7297 109.702 16.1026C110.359 16.5806 110.869 17.2355 111.23 18.0672C111.592 18.899 111.773 19.8216 111.773 20.835C111.773 22.8331 111.216 24.3006 110.102 25.2376C108.988 26.1649 107.227 26.6286 104.818 26.6286H102.618V36.0504H100.718ZM102.618 24.9507H103.918C106.222 24.9507 107.769 24.6592 108.56 24.076C109.359 23.4832 109.759 22.4507 109.759 20.9784C109.759 20.357 109.669 19.7881 109.488 19.2719C109.307 18.746 109.036 18.2776 108.674 17.8665C108.303 17.4458 107.798 17.1494 107.16 16.9773C106.522 16.8053 105.441 16.7192 103.918 16.7192H102.618V24.9507Z" fill="#1E1E1E"/>
<path d="M115.344 36.0504V15.0557H117.243V23.574H128.627V15.0557H130.526V36.0504H128.627V25.2089H117.243V36.0504H115.344Z" fill="#1E1E1E"/>
<path d="M138.224 27.3026H145.509L141.938 18.1676L138.224 27.3026ZM132.883 36.0504L142.066 14.2239L150.865 36.0504H148.794L146.123 28.9374H137.582L134.811 36.0504H132.883Z" fill="#1E1E1E"/>
<path d="M161.648 36.0504V15.0557H172.003V16.8483H163.547V23.4163H172.003V25.2089H163.547V34.2578H172.003V36.0504H161.648Z" fill="#1E1E1E"/>
<path d="M176.673 36.0504V15.0557H187.028V16.8483H178.573V23.4163H186.714V25.2089H178.573V36.0504H176.673Z" fill="#1E1E1E"/>
<path d="M191.327 36.0504V15.0557H201.682V16.8483H193.227V23.4163H201.368V25.2089H193.227V36.0504H191.327Z" fill="#1E1E1E"/>
<path d="M205.981 36.0504V15.0557H207.881V36.0504H205.981Z" fill="#1E1E1E"/>
<path d="M229.89 18.899C228.852 18.0003 227.79 17.3359 226.705 16.9056C225.62 16.4754 224.477 16.2603 223.277 16.2603C220.573 16.2603 218.373 17.1208 216.679 18.8416C214.993 20.5625 214.151 22.8044 214.151 25.5674C214.151 26.9537 214.355 28.2013 214.765 29.3103C215.184 30.4193 215.817 31.404 216.664 32.2645C217.502 33.1058 218.459 33.7463 219.535 34.1861C220.621 34.6259 221.782 34.8458 223.02 34.8458C224.22 34.8458 225.391 34.6402 226.534 34.2291C227.676 33.818 228.757 33.211 229.776 32.4079V34.645C228.747 35.276 227.657 35.7588 226.505 36.0934C225.362 36.4376 224.229 36.6097 223.106 36.6097C221.592 36.6097 220.145 36.3372 218.764 35.7923C217.383 35.2473 216.198 34.4825 215.208 33.4978C214.189 32.4844 213.417 31.3084 212.894 29.97C212.37 28.6315 212.108 27.164 212.108 25.5674C212.108 23.9995 212.375 22.5367 212.908 21.1792C213.451 19.8216 214.227 18.6504 215.236 17.6657C216.217 16.7001 217.398 15.9448 218.778 15.3999C220.168 14.8549 221.611 14.5825 223.106 14.5825C224.439 14.5825 225.672 14.7689 226.805 15.1417C227.948 15.505 228.985 16.0548 229.919 16.7909L229.89 18.899Z" fill="#1E1E1E"/>
<path d="M234.003 36.0504V15.0557H235.903V36.0504H234.003Z" fill="#1E1E1E"/>
<path d="M241.116 36.0504V15.0557H251.471V16.8483H243.016V23.4163H251.471V25.2089H243.016V34.2578H251.471V36.0504H241.116Z" fill="#1E1E1E"/>
<path d="M256.141 36.0504V14.1666L270.952 31.7339V15.0557H272.723V36.6671L257.927 19.0711V36.0504H256.141Z" fill="#1E1E1E"/>
<path d="M294.733 18.899C293.695 18.0003 292.633 17.3359 291.548 16.9056C290.462 16.4754 289.32 16.2603 288.12 16.2603C285.416 16.2603 283.216 17.1208 281.521 18.8416C279.836 20.5625 278.993 22.8044 278.993 25.5674C278.993 26.9537 279.198 28.2013 279.608 29.3103C280.027 30.4193 280.66 31.404 281.507 32.2645C282.345 33.1058 283.302 33.7463 284.378 34.1861C285.463 34.6259 286.625 34.8458 287.863 34.8458C289.063 34.8458 290.234 34.6402 291.376 34.2291C292.519 33.818 293.6 33.211 294.619 32.4079V34.645C293.59 35.276 292.5 35.7588 291.348 36.0934C290.205 36.4376 289.072 36.6097 287.949 36.6097C286.435 36.6097 284.987 36.3372 283.607 35.7923C282.226 35.2473 281.041 34.4825 280.05 33.4978C279.032 32.4844 278.26 31.3084 277.737 29.97C277.213 28.6315 276.951 27.164 276.951 25.5674C276.951 23.9995 277.218 22.5367 277.751 21.1792C278.294 19.8216 279.07 18.6504 280.079 17.6657C281.06 16.7001 282.24 15.9448 283.621 15.3999C285.011 14.8549 286.454 14.5825 287.949 14.5825C289.282 14.5825 290.515 14.7689 291.648 15.1417C292.79 15.505 293.828 16.0548 294.761 16.7909L294.733 18.899Z" fill="#1E1E1E"/>
<path d="M303.331 36.0504V26.3848L296.39 15.0557H298.675L304.288 24.6783L309.929 15.0557H312.1L305.23 26.3848V36.0504H303.331Z" fill="#1E1E1E"/>
<path d="M311.086 34.8458C311.086 34.4347 311.224 34.0905 311.501 33.8133C311.786 33.5265 312.134 33.383 312.543 33.383C312.953 33.383 313.295 33.5265 313.572 33.8133C313.857 34.0905 314 34.4347 314 34.8458C314 35.2569 313.857 35.6058 313.572 35.8927C313.295 36.1699 312.953 36.3085 312.543 36.3085C312.134 36.3085 311.786 36.1699 311.501 35.8927C311.224 35.6058 311.086 35.2569 311.086 34.8458Z" fill="#1E1E1E"/>
</svg>
