<svg width="644" height="569" viewBox="0 0 644 569" fill="none" xmlns="http://www.w3.org/2000/svg">
<rect width="644" height="568.174" rx="33.2387" fill="#FAFAFA"/>
<g clip-path="url(#clip0_5_535)">
<path d="M87.5995 251.44H79.7515V201.617L87.5995 202.122V251.44Z" fill="#D3D3D3"/>
<path d="M100.447 251.44H92.599V215.906L100.447 216.349V251.44ZM96.523 205.094C98.9914 205.094 101.017 207.117 101.017 209.583C101.017 212.049 98.9914 214.073 96.523 214.073C94.0547 214.073 92.0294 212.049 92.0294 209.583C92.0294 207.117 94.0547 205.094 96.523 205.094Z" fill="#D3D3D3"/>
<path d="M119.181 223.05V230.891H113.295V251.405H105.447V212.428C105.447 206.485 110.383 201.111 116.206 201.111C118.168 201.111 119.75 201.68 120.13 201.933L119.814 209.457H116.206C114.624 209.457 113.295 210.784 113.295 212.428V223.05H119.181Z" fill="#D3D3D3"/>
<path d="M130.203 229.877H136.089V226.21C136.089 224.566 134.76 223.238 133.178 223.238C131.532 223.238 130.203 224.566 130.203 226.21V229.877ZM122.355 226.21C122.355 220.266 127.165 215.398 133.178 215.398C139.127 215.398 143.937 220.266 143.937 226.21V233.797C143.937 236.01 142.165 237.717 140.014 237.717H130.203V241.132C130.203 242.775 131.532 244.103 133.178 244.103H140.71L140.963 250.742L133.874 251.817C127.039 252.955 122.355 247.075 122.355 241.132V226.21Z" fill="#D3D3D3"/>
<path d="M150.648 251.44V201.933H155.712V216.981C157.104 216.538 159.319 216.349 160.838 216.349C166.218 216.349 170.395 221.217 170.395 226.718V251.44H165.459V226.718C165.459 223.999 163.244 221.849 160.522 221.849H155.712V251.44H150.648Z" fill="#D3D3D3"/>
<path d="M188.919 241.891V233.355H184.045C181.324 233.355 179.172 235.505 179.172 238.223V241.891C179.172 244.609 181.324 246.822 184.045 246.822C186.767 246.822 188.919 244.609 188.919 241.891ZM188.919 225.894C188.919 223.049 187.59 220.773 183.982 221.152H184.045C182.02 221.215 179.425 221.468 177.273 221.595C177.21 219.761 177.147 219.066 177.084 217.675C178.792 217.042 181.261 216.41 183.349 216.347C189.678 216.22 193.856 221.342 193.856 226.842V241.891C193.856 247.328 189.489 251.817 184.045 251.817C178.603 251.817 174.109 247.328 174.109 241.891V238.793C174.109 233.355 177.843 229.245 184.045 229.245C186.387 229.245 187.59 229.498 188.919 229.877V225.894Z" fill="#D3D3D3"/>
<path d="M208.035 216.348C213.479 216.348 217.972 220.773 217.972 226.274V226.907C216.01 226.97 214.428 226.97 212.972 227.033V226.274C212.972 223.619 210.757 221.406 208.035 221.406C205.377 221.406 203.225 223.619 203.225 226.274V242.081C203.225 244.863 205.377 246.95 208.035 246.95C210.694 246.95 212.909 244.926 212.972 242.271C215.44 242.461 217.782 242.587 217.972 242.587C217.719 247.835 213.288 252.008 208.035 252.008C202.592 252.008 198.162 247.582 198.162 242.081V226.274C198.162 220.773 202.592 216.348 208.035 216.348Z" fill="#D3D3D3"/>
<path d="M237.92 251.44L228.3 234.684C227.35 233.041 227.351 232.851 228.49 230.891L236.971 216.855H242.731L233.173 233.041L243.49 251.44H237.92ZM227.034 202.059V251.44H221.971V202.059H227.034Z" fill="#D3D3D3"/>
<path d="M249.62 231.65H259.367V226.338C259.367 223.62 257.151 221.407 254.493 221.407C251.772 221.407 249.62 223.62 249.62 226.338V231.65ZM244.556 226.338C244.556 220.838 248.987 216.349 254.493 216.349C259.936 216.349 264.367 220.838 264.367 226.338V234.116C264.367 235.57 263.227 236.645 261.835 236.645H249.62V242.019C249.62 244.738 251.772 246.951 254.493 246.951H260.886C260.949 248.594 261.012 249.733 261.139 250.871L255.063 251.819C248.86 252.894 244.556 247.52 244.556 242.019V226.338Z" fill="#D3D3D3"/>
<path d="M273.871 251.44H268.807V226.781C268.807 221.28 273.111 216.159 279.44 216.285C281.592 216.349 282.921 216.855 284.377 217.55C284.314 219.067 284.251 220.332 284.187 221.47L278.681 221.344C276.023 221.344 273.871 224.189 273.871 226.781V251.44Z" fill="#D3D3D3"/>
</g>
<g clip-path="url(#clip1_5_535)">
<path d="M343.716 253.526C337.21 253.526 334.205 258.271 334.205 262.857C334.205 267.441 337.044 272.026 343.716 272.026C346.137 272.026 348.722 271.047 350.561 269.325L353.394 272.026C350.727 274.563 347.302 275.794 343.715 275.794C334.37 275.794 330.199 269.488 330.199 262.857C330.199 256.225 334.536 249.679 343.715 249.679C347.135 249.679 350.474 250.909 353.146 253.526L350.393 256.147C348.555 254.341 346.137 253.526 343.716 253.526ZM355.733 275.219V250.006H359.901V271.45H373.417V275.218H355.733V275.219ZM389.195 275.794C380.262 275.794 376.004 269.404 376.004 262.771C376.004 255.081 381.511 249.594 389.195 249.594C398.034 249.594 402.368 255.898 402.368 262.771C402.368 269.567 398.106 275.794 389.195 275.794ZM389.268 253.281C383.35 253.281 380.096 257.368 380.096 262.856C380.177 267.277 382.848 272.103 389.195 272.103C395.613 272.103 398.28 267.684 398.28 262.856C398.28 258.188 395.528 253.361 389.268 253.281ZM415.71 275.707C409.957 275.543 405.119 271.94 405.119 264.818V250.085H409.219V264.818C409.219 269.404 411.958 271.863 415.709 272.026C419.807 272.267 422.808 269.651 422.808 264.818V250.085H426.894V264.818C426.894 272.267 421.883 275.956 415.71 275.707ZM440.498 275.219C437.414 275.219 433.819 275.219 430.736 275.219V250.006H440.498C449.265 250.006 453.262 256.146 453.339 262.367C453.511 268.751 449.422 275.219 440.498 275.219ZM440.498 253.851H434.82V271.371H440.498C446.745 271.371 449.422 266.867 449.337 262.367C449.265 258.109 446.584 253.851 440.498 253.851ZM483.383 275.299H479.705L476.285 266.374L473.532 257.944L470.693 266.461L467.361 275.301H463.781L454.425 250.085H459.016L465.533 269.488L472.201 250.085H474.866L481.631 269.488L488.053 250.085H492.643L483.383 275.299ZM514.914 275.299L512.418 269.978H498.483L496.062 275.299H491.728L503.234 250.085H507.741L519.256 275.299H514.914ZM505.48 254.262L500.074 266.297H510.912L505.48 254.262ZM530.603 264.905V275.219H526.516V264.905L516.592 250.17V250.006H521.504L528.515 261.136L535.848 250.006H540.786V250.17L530.603 264.905ZM553.131 252.87C549.699 252.87 547.207 254.262 547.207 256.716C547.207 259.175 550.046 259.832 553.451 260.318C558.711 261.059 563.81 262.445 563.81 268.094C563.81 273.746 558.549 275.87 553.131 275.87C548.206 275.87 544.452 274.399 542.118 270.142L545.205 268.094C547.034 271.121 550.208 272.266 553.204 272.266C556.291 272.266 559.723 271.287 559.723 268.094C559.723 265.392 556.711 264.413 553.131 263.92C548.044 263.266 543.208 261.953 543.208 256.552C543.208 251.314 548.452 249.351 553.131 249.351C556.796 249.351 560.551 250.247 562.724 253.608L559.477 255.655C558.216 253.937 555.798 252.87 553.131 252.87Z" fill="#D9D9D9"/>
<path d="M472.337 283.573C471.04 282.677 469.435 282.214 467.551 282.214H463.476V295.188H467.551C469.435 295.188 471.04 294.694 472.337 293.767C473.047 293.273 473.602 292.563 473.973 291.697C474.344 290.833 474.56 289.782 474.56 288.639C474.56 287.497 474.375 286.477 473.973 285.612C473.602 284.747 473.047 284.067 472.337 283.573ZM465.853 284.438H467.15C468.57 284.438 469.743 284.716 470.639 285.272C471.627 285.859 472.121 287.002 472.121 288.639C472.121 290.338 471.627 291.512 470.639 292.161C469.774 292.717 468.631 293.026 467.181 293.026H465.884V284.438H465.853Z" fill="#D9D9D9"/>
<path d="M477.03 282.091C476.629 282.091 476.289 282.245 476.042 282.492C475.764 282.77 475.641 283.079 475.641 283.481C475.641 283.882 475.795 284.222 476.042 284.5C476.32 284.778 476.659 284.902 477.061 284.902C477.463 284.902 477.802 284.748 478.08 284.5C478.358 284.222 478.481 283.882 478.481 283.481C478.481 283.079 478.327 282.74 478.08 282.492C477.771 282.214 477.432 282.091 477.03 282.091Z" fill="#D9D9D9"/>
<path d="M478.142 286.075H475.856V295.219H478.142V286.075Z" fill="#D9D9D9"/>
<path d="M486.108 286.848C485.428 286.23 484.656 285.859 483.792 285.859C482.526 285.859 481.476 286.291 480.673 287.157C479.84 288.021 479.438 289.103 479.438 290.431C479.438 291.728 479.84 292.81 480.643 293.705C481.446 294.571 482.526 295.003 483.792 295.003C484.687 295.003 485.428 294.756 486.046 294.262V294.478C486.046 295.25 485.83 295.837 485.428 296.239C485.027 296.64 484.471 296.857 483.792 296.857C482.742 296.857 482.063 296.455 481.26 295.343L479.685 296.857L479.716 296.919C480.056 297.382 480.581 297.845 481.26 298.309C481.939 298.741 482.804 298.957 483.822 298.957C485.182 298.957 486.293 298.525 487.096 297.721C487.898 296.888 488.331 295.775 488.331 294.416V286.076H486.077V286.848H486.108ZM485.49 292.223C485.088 292.686 484.564 292.903 483.916 292.903C483.267 292.903 482.742 292.686 482.341 292.223C481.939 291.759 481.754 291.173 481.754 290.431C481.754 289.689 481.939 289.072 482.341 288.608C482.742 288.145 483.267 287.929 483.916 287.929C484.564 287.929 485.088 288.145 485.49 288.608C485.891 289.072 486.108 289.659 486.108 290.431C486.108 291.173 485.891 291.759 485.49 292.223Z" fill="#D9D9D9"/>
<path d="M492.221 286.075H489.936V295.219H492.221V286.075Z" fill="#D9D9D9"/>
<path d="M491.109 282.091C490.708 282.091 490.368 282.245 490.121 282.492C489.843 282.77 489.72 283.079 489.72 283.481C489.72 283.882 489.874 284.222 490.121 284.5C490.399 284.778 490.738 284.902 491.14 284.902C491.542 284.902 491.881 284.748 492.159 284.5C492.437 284.222 492.56 283.882 492.56 283.481C492.56 283.079 492.406 282.74 492.159 282.492C491.819 282.214 491.48 282.091 491.109 282.091Z" fill="#D9D9D9"/>
<path d="M497.13 283.604H494.876V286.075H493.58V288.175H494.907V291.976C494.907 293.149 495.154 294.015 495.617 294.508C496.081 295.003 496.914 295.25 498.087 295.25C498.458 295.25 498.829 295.25 499.199 295.219H499.291V293.118L498.489 293.149C497.933 293.149 497.562 293.057 497.408 292.871C497.223 292.686 497.13 292.284 497.13 291.667V288.175H499.261V286.075H497.13V283.604Z" fill="#D9D9D9"/>
<path d="M511.765 282.245H509.481V295.219H511.765V282.245Z" fill="#D9D9D9"/>
<path d="M534.305 291.945C533.903 292.408 533.471 292.81 533.162 293.026C532.853 293.243 532.452 293.335 531.958 293.335C531.279 293.335 530.723 293.088 530.291 292.594C529.858 292.099 529.612 291.451 529.612 290.678C529.612 289.906 529.827 289.257 530.26 288.763C530.692 288.269 531.248 288.021 531.927 288.021C532.668 288.021 533.44 288.485 534.119 289.257L535.632 287.806C534.644 286.508 533.378 285.921 531.865 285.921C530.6 285.921 529.519 286.384 528.624 287.28C527.728 288.176 527.295 289.319 527.295 290.678C527.295 292.037 527.759 293.181 528.624 294.076C529.519 294.972 530.6 295.435 531.865 295.435C533.532 295.435 534.861 294.725 535.787 293.397L534.305 291.945Z" fill="#D9D9D9"/>
<path d="M543.815 287.342C543.475 286.879 543.042 286.508 542.486 286.261C541.931 285.982 541.314 285.859 540.603 285.859C539.306 285.859 538.288 286.322 537.485 287.28C536.713 288.207 536.343 289.35 536.343 290.709C536.343 292.099 536.775 293.242 537.609 294.107C538.442 294.972 539.554 295.404 540.912 295.404C542.456 295.404 543.721 294.787 544.679 293.551L544.741 293.49L543.228 292.037C543.104 292.192 542.888 292.408 542.703 292.563C542.486 292.779 542.271 292.933 542.024 293.057C541.684 293.242 541.283 293.304 540.85 293.304C540.202 293.304 539.677 293.119 539.276 292.748C538.905 292.408 538.689 291.945 538.627 291.358H544.71L544.741 290.524C544.741 289.937 544.648 289.35 544.494 288.825C544.37 288.299 544.123 287.806 543.815 287.342ZM538.782 289.505C538.905 289.072 539.09 288.701 539.368 288.423C539.677 288.115 540.079 287.96 540.572 287.96C541.128 287.96 541.56 288.115 541.838 288.423C542.116 288.701 542.271 289.072 542.302 289.505H538.782Z" fill="#D9D9D9"/>
<path d="M552.583 286.755C551.873 286.168 550.916 285.859 549.712 285.859C548.94 285.859 548.23 286.013 547.582 286.353C546.995 286.662 546.408 287.157 546.038 287.806L546.069 287.836L547.551 289.257C548.168 288.299 548.817 287.96 549.712 287.96C550.206 287.96 550.576 288.083 550.885 288.33C551.194 288.578 551.348 288.917 551.348 289.319V289.752C550.792 289.566 550.206 289.505 549.65 289.505C548.508 289.505 547.582 289.783 546.871 290.307C546.161 290.833 545.821 291.605 545.821 292.594C545.821 293.459 546.13 294.138 546.717 294.663C547.304 295.158 548.044 295.404 548.94 295.404C549.804 295.404 550.638 295.065 551.379 294.447V295.189H553.633V289.319C553.633 288.207 553.293 287.342 552.583 286.755ZM548.508 291.697C548.755 291.513 549.125 291.42 549.588 291.42C550.144 291.42 550.731 291.543 551.317 291.759V292.655C550.823 293.119 550.144 293.366 549.341 293.366C548.94 293.366 548.631 293.273 548.415 293.088C548.199 292.903 548.106 292.686 548.106 292.408C548.138 292.13 548.261 291.883 548.508 291.697Z" fill="#D9D9D9"/>
<path d="M562.186 286.94C561.537 286.23 560.642 285.859 559.499 285.859C558.604 285.859 557.863 286.107 557.307 286.631V286.076H555.053V295.22H557.338V290.153C557.338 289.474 557.493 288.917 557.832 288.516C558.141 288.115 558.604 287.929 559.19 287.929C559.716 287.929 560.117 288.083 560.395 288.454C560.673 288.794 560.827 289.288 560.827 289.906V295.189H563.112V289.906C563.143 288.639 562.803 287.651 562.186 286.94Z" fill="#D9D9D9"/>
<path d="M506.98 286.755C506.27 286.168 505.312 285.859 504.108 285.859C503.336 285.859 502.626 286.013 501.978 286.353C501.391 286.662 500.804 287.157 500.434 287.806L500.465 287.836L501.947 289.257C502.565 288.299 503.213 287.96 504.108 287.96C504.602 287.96 504.973 288.083 505.281 288.33C505.59 288.578 505.745 288.917 505.745 289.319V289.752C505.189 289.566 504.602 289.505 504.046 289.505C502.904 289.505 501.978 289.783 501.268 290.307C500.557 290.833 500.218 291.605 500.218 292.594C500.218 293.459 500.526 294.138 501.113 294.663C501.7 295.158 502.441 295.404 503.336 295.404C504.201 295.404 505.035 295.065 505.775 294.447V295.189H508.029V289.319C508.029 288.207 507.69 287.342 506.98 286.755ZM502.904 291.697C503.151 291.513 503.522 291.42 503.984 291.42C504.54 291.42 505.127 291.543 505.714 291.759V292.655C505.219 293.119 504.54 293.366 503.738 293.366C503.336 293.366 503.027 293.273 502.811 293.088C502.595 292.903 502.503 292.686 502.503 292.408C502.534 292.13 502.657 291.883 502.904 291.697Z" fill="#D9D9D9"/>
<path d="M519.701 295.404C516.026 295.404 513.031 292.408 513.031 288.732C513.031 285.055 516.026 282.059 519.701 282.059C523.375 282.059 526.37 285.055 526.37 288.732C526.37 292.408 523.406 295.404 519.701 295.404ZM519.701 284.376C517.323 284.376 515.378 286.322 515.378 288.701C515.378 291.079 517.323 293.026 519.701 293.026C522.078 293.026 524.023 291.079 524.023 288.701C524.023 286.322 522.109 284.376 519.701 284.376Z" fill="#D9D9D9"/>
<path d="M450.067 295.331C449.441 295.331 448.941 295.133 448.567 294.737V295.212H447.358V287.647H448.588V290.312C448.991 289.967 449.484 289.794 450.067 289.794C450.822 289.794 451.441 290.057 451.923 290.582C452.405 291.108 452.646 291.769 452.646 292.568C452.646 293.366 452.405 294.028 451.923 294.554C451.434 295.072 450.815 295.331 450.067 295.331ZM448.944 293.777C449.196 294.093 449.541 294.251 449.98 294.251C450.419 294.251 450.765 294.093 451.016 293.777C451.268 293.46 451.394 293.057 451.394 292.568C451.394 292.079 451.268 291.675 451.016 291.359C450.765 291.043 450.419 290.884 449.98 290.884C449.541 290.884 449.196 291.043 448.944 291.359C448.693 291.675 448.567 292.079 448.567 292.568C448.567 293.057 448.693 293.46 448.944 293.777ZM458.719 289.924L455.762 297.306H454.467L455.287 295.277L453.194 289.924H454.597L455.978 293.744L457.381 289.924H458.719Z" fill="#D9D9D9"/>
<path fill-rule="evenodd" clip-rule="evenodd" d="M432.527 225.832C431.984 225.253 431.538 224.798 431.115 224.323C429.511 222.522 428.212 220.523 427.251 218.31C427.097 217.956 426.908 217.827 426.517 217.834C425.131 217.859 423.744 217.847 422.357 217.842C421.134 217.839 420.485 217.227 420.45 216.01C420.425 215.194 420.424 214.377 420.45 213.563C420.489 212.365 421.13 211.766 422.327 211.764C423.327 211.762 424.328 211.764 425.392 211.764C425.142 209.036 425.186 206.382 425.771 203.674C425.465 203.674 425.23 203.674 424.994 203.674C412.704 203.674 400.416 203.675 388.126 203.673C386.453 203.673 385.213 202.695 384.91 201.147C384.552 199.319 385.946 197.572 387.823 197.501C388.013 197.494 388.204 197.498 388.395 197.498C401.412 197.498 414.429 197.496 427.446 197.51C427.926 197.51 428.179 197.357 428.417 196.946C430.016 194.175 432.116 191.845 434.694 189.95C434.829 189.851 434.959 189.743 435.075 189.511C434.865 189.511 434.654 189.511 434.443 189.511C424.528 189.511 414.614 189.517 404.699 189.496C404.094 189.495 403.438 189.388 402.893 189.14C401.599 188.552 400.957 187.069 401.282 185.695C401.604 184.336 402.861 183.339 404.28 183.338C408.647 183.333 413.015 183.336 417.383 183.336C425.374 183.336 433.364 183.332 441.355 183.347C441.823 183.347 442.05 183.233 442.207 182.766C443.019 180.351 444.2 178.122 445.68 176.05C445.817 175.857 445.951 175.662 446.15 175.377C445.823 175.362 445.593 175.342 445.362 175.342C433.767 175.34 422.171 175.347 410.575 175.323C409.923 175.321 409.21 175.189 408.632 174.902C407.389 174.284 406.815 172.804 407.169 171.497C407.553 170.072 408.729 169.172 410.231 169.172C424.236 169.171 438.241 169.17 452.247 169.179C452.698 169.179 453.076 169.075 453.463 168.841C457.052 166.671 460.938 165.463 465.131 165.188C477.326 164.389 488.243 172.413 491.675 184.053C491.871 184.716 492.052 185.387 492.181 186.065C492.249 186.423 492.395 186.581 492.738 186.701C500.34 189.366 505.388 194.568 507.625 202.289C511.224 214.716 504.156 227.467 492.131 231.019C490.245 231.576 488.317 231.893 486.352 231.904C477.483 231.953 468.613 231.999 459.744 232.007C442.203 232.023 424.662 232.014 407.121 232.001C406.596 232 406.036 231.927 405.553 231.735C404.19 231.191 403.477 229.77 403.748 228.304C404.003 226.929 405.251 225.883 406.701 225.832C406.857 225.827 407.012 225.83 407.169 225.83C415.35 225.83 423.531 225.83 431.712 225.83C431.933 225.832 432.154 225.832 432.527 225.832Z" fill="#D9D9D9"/>
<path fill-rule="evenodd" clip-rule="evenodd" d="M399.727 217.844C396.194 217.844 392.661 217.845 389.128 217.844C387.699 217.843 387.095 217.251 387.089 215.838C387.085 215.023 387.075 214.207 387.1 213.393C387.129 212.435 387.805 211.769 388.765 211.768C396.091 211.762 403.417 211.762 410.742 211.769C411.703 211.769 412.394 212.464 412.424 213.454C412.452 214.39 412.453 215.328 412.425 216.264C412.397 217.197 411.631 217.841 410.586 217.843C408.161 217.847 405.736 217.844 403.312 217.844C402.117 217.844 400.922 217.844 399.727 217.844Z" fill="#D9D9D9"/>
</g>
<g clip-path="url(#clip2_5_535)">
<path d="M79.7783 398.289H87.8345V416.187H104.825V398.289H112.892V442.224H104.825V423.949H87.8345V442.224H79.7783V398.289ZM138.414 427.913C138.414 431.591 135.417 434.584 131.74 434.584C128.062 434.584 125.067 431.591 125.067 427.913V408.998H117.427V427.913C117.427 435.805 123.848 442.224 131.74 442.224C139.63 442.224 146.051 435.805 146.051 427.913V408.998H138.414V427.913ZM167.379 409.219C163.589 409.219 160.944 410.319 158.389 412.827V398.289H150.724V425.232C150.724 435.317 158.016 442.224 166.208 442.224C175.315 442.224 183.295 435.194 183.295 425.722C183.295 416.37 175.937 409.219 167.379 409.219ZM167.57 435.133C162.376 435.133 158.404 430.795 158.404 425.722C158.404 420.648 162.376 416.309 167.57 416.309C171.97 416.309 175.944 420.648 175.944 425.722C175.944 430.795 171.97 435.133 167.57 435.133ZM196.168 411.15C196.168 407.297 198.735 406.076 201.546 406.076C203.809 406.076 206.803 407.787 208.757 409.866L213.767 403.999C211.263 400.637 206.191 398.314 202.035 398.314C193.722 398.314 187.732 403.143 187.732 411.15C187.732 426.002 206.008 421.294 206.008 429.608C206.008 432.172 203.503 434.436 200.632 434.436C196.107 434.436 194.64 432.236 192.562 429.912L187 435.657C190.547 439.997 194.946 442.198 200.202 442.198C208.086 442.198 214.443 437.308 214.443 429.667C214.443 413.166 196.168 418.301 196.168 411.15ZM234.621 408.789C226.43 408.789 219.137 415.691 219.137 425.779V452.792H226.802V438.184C229.357 440.69 232.001 441.792 235.792 441.792C244.349 441.792 251.708 434.642 251.708 425.29C251.708 415.817 243.726 408.789 234.621 408.789ZM235.983 434.703C230.79 434.703 226.818 430.36 226.818 425.29C226.818 420.216 230.79 415.877 235.983 415.877C240.383 415.877 244.357 420.216 244.357 425.29C244.357 430.36 240.383 434.703 235.983 434.703ZM308.127 435.133C303.606 435.133 302.322 433.178 302.322 430.182V416.92H309.35V410.198H302.322V401.335L294.563 404.818V431.832C294.563 438.739 299.328 442.224 305.865 442.224C306.843 442.224 308.189 442.16 308.923 441.98L310.818 435.013C309.963 435.072 308.985 435.133 308.127 435.133Z" fill="#D9D9D9"/>
<path d="M287.914 417.311C286.444 414.783 284.377 412.756 281.793 411.23C279.862 410.106 277.86 409.393 275.604 409.086V401.054C277.86 400.096 279.26 397.975 279.26 395.501C279.26 392.129 276.556 389.397 273.187 389.397C269.815 389.397 267.064 392.129 267.064 395.501C267.064 397.975 268.383 400.096 270.64 401.054V409.09C268.835 409.351 266.963 409.914 265.253 410.778C261.762 408.127 250.313 399.427 243.616 394.347C243.775 393.774 243.897 393.184 243.897 392.561C243.897 388.826 240.872 385.799 237.136 385.799C233.4 385.799 230.377 388.826 230.377 392.561C230.377 396.295 233.403 399.323 237.14 399.323C238.414 399.323 239.593 398.95 240.61 398.338L242.023 399.41L261.444 413.403C260.418 414.346 259.461 415.418 258.696 416.621C257.146 419.074 256.199 421.772 256.199 424.716V425.33C256.199 427.396 256.592 429.347 257.26 431.18C257.849 432.78 258.71 434.235 259.777 435.551L253.331 442.012C252.397 441.664 251.383 441.593 250.409 441.806C249.435 442.02 248.544 442.509 247.841 443.216C247.354 443.7 246.969 444.276 246.706 444.911C246.444 445.545 246.31 446.225 246.312 446.912C246.313 448.308 246.856 449.619 247.844 450.606C248.328 451.093 248.904 451.48 249.538 451.742C250.172 452.005 250.852 452.14 251.539 452.138C252.226 452.14 252.906 452.005 253.54 451.742C254.175 451.479 254.751 451.093 255.235 450.606C255.722 450.122 256.107 449.546 256.37 448.912C256.632 448.278 256.767 447.598 256.765 446.912C256.765 446.372 256.681 445.845 256.524 445.344L263.187 438.681C264.1 439.311 265.086 439.843 266.147 440.301C268.239 441.205 270.547 441.756 273.074 441.756H273.537C276.33 441.756 278.965 441.1 281.442 439.758C284.053 438.339 286.095 436.4 287.639 433.924C289.19 431.441 290.045 428.697 290.045 425.679V425.529C290.045 422.56 289.357 419.82 287.914 417.311ZM279.774 431.288C277.965 433.298 275.887 434.536 273.537 434.536H273.15C271.808 434.536 270.495 434.165 269.21 433.49C267.761 432.747 266.66 431.688 265.759 430.346C264.827 429.029 264.322 427.591 264.322 426.067V425.604C264.322 424.105 264.609 422.684 265.334 421.342C266.109 419.875 267.156 418.734 268.547 417.827C269.914 416.926 271.373 416.485 272.999 416.485H273.15C274.624 416.485 276.019 416.775 277.336 417.449C278.677 418.167 279.774 419.149 280.623 420.44C281.449 421.732 281.94 423.125 282.098 424.642C282.122 424.958 282.135 425.281 282.135 425.59C282.135 427.649 281.348 429.557 279.774 431.288Z" fill="#D9D9D9"/>
</g>
<path d="M425.892 392.868H434.493V445.967H425.892V392.868Z" fill="#D9D9D9"/>
<path d="M464.408 429.14C464.408 437.367 457.677 438.115 455.433 438.115C450.198 438.115 449.45 433.254 449.45 430.636V410.07H440.85V430.262C440.85 435.123 442.346 439.611 445.337 442.228C447.955 444.846 451.32 445.967 455.433 445.967C458.425 445.967 462.164 445.22 464.408 442.976V445.967H473.008V410.07H464.408V429.14Z" fill="#D9D9D9"/>
<path d="M489.835 396.982H481.235V410.069H474.878V418.296H481.235V445.967H489.835V418.296H496.192V410.069H489.835V396.982Z" fill="#D9D9D9"/>
<path d="M523.116 435.123C521.246 436.619 518.628 437.741 516.011 437.741C510.028 437.741 505.915 433.254 505.915 427.271C505.915 421.288 510.028 417.174 516.011 417.174C518.628 417.174 521.246 417.922 523.116 419.792L524.237 420.914L530.22 415.305L528.725 414.183C525.359 411.191 520.872 409.322 516.011 409.322C505.541 409.322 497.688 417.174 497.688 427.645C497.688 438.115 505.541 445.967 516.011 445.967C520.872 445.967 525.359 444.098 528.725 441.106L530.22 439.984L524.237 434.002L523.116 435.123Z" fill="#D9D9D9"/>
<path d="M560.509 413.061C557.891 410.443 555.274 409.322 551.161 409.322C548.169 409.322 545.178 410.07 542.934 412.313V392.868H534.333V445.967H542.934V426.149C542.934 417.922 548.543 417.174 550.787 417.174C556.022 417.174 555.648 422.036 555.648 424.653V445.593H564.248V425.027C564.248 420.166 563.127 415.679 560.509 413.061Z" fill="#D9D9D9"/>
<path d="M515.637 433.628C518.941 433.628 521.62 430.949 521.62 427.645C521.62 424.34 518.941 421.662 515.637 421.662C512.332 421.662 509.654 424.34 509.654 427.645C509.654 430.949 512.332 433.628 515.637 433.628Z" fill="#D9D9D9"/>
<path d="M413.926 432.88C410.935 435.871 406.448 437.741 401.587 437.741C392.238 437.741 385.507 430.262 385.507 420.166C385.507 410.07 392.238 402.591 401.961 402.591C406.448 402.591 410.935 404.46 414.3 407.826L415.422 408.948L421.031 403.339L419.909 402.217C415.048 397.356 408.691 394.738 401.961 394.738C387.751 394.364 377.281 405.582 377.281 420.166C377.281 434.749 387.751 445.967 401.587 445.967C408.317 445.967 415.048 443.35 419.535 438.489L420.657 437.367L415.048 431.758L413.926 432.88Z" fill="#D9D9D9"/>
<path d="M88.0722 60.6977H73.3121V70.6953H86.4726V73.022H73.3121V83.8194H70.6219V58.371H88.0722V60.6977ZM109.13 74.2581C109.13 74.4762 109.094 74.767 109.094 75.0579H93.0977C93.3885 79.0569 96.4423 81.7108 100.623 81.7108C102.95 81.7108 105.022 80.8747 106.476 79.2023L107.93 80.8747C106.222 82.9105 103.568 84.0012 100.55 84.0012C94.5882 84.0012 90.5165 79.9294 90.5165 74.2581C90.5165 68.5867 94.4792 64.5513 99.8597 64.5513C105.24 64.5513 109.13 68.514 109.13 74.2581ZM99.8597 66.769C96.1515 66.769 93.4249 69.3865 93.0977 73.1311H106.658C106.331 69.3865 103.604 66.769 99.8597 66.769ZM120.541 64.5513C125.485 64.5513 128.284 67.0235 128.284 71.9677V83.8194H125.812V80.8383C124.649 82.8015 122.395 84.0012 119.232 84.0012C114.906 84.0012 112.252 81.7472 112.252 78.4389C112.252 75.4941 114.142 73.022 119.632 73.022H125.703V71.8587C125.703 68.5867 123.849 66.8053 120.286 66.8053C117.814 66.8053 115.487 67.6778 113.924 69.0593L112.761 67.1325C114.688 65.4966 117.523 64.5513 120.541 64.5513ZM119.632 81.9653C122.54 81.9653 124.685 80.5838 125.703 78.0753V74.9488H119.705C115.996 74.9488 114.797 76.403 114.797 78.3662C114.797 80.5838 116.578 81.9653 119.632 81.9653ZM144.457 80.8019L145.365 82.656C144.347 83.5649 142.821 84.0012 141.33 84.0012C137.731 84.0012 135.731 81.9653 135.731 78.4389V66.878H132.314V64.6968H135.731V60.5159H138.313V64.6968H144.129V66.878H138.313V78.2935C138.313 80.5475 139.476 81.7835 141.621 81.7835C142.675 81.7835 143.729 81.4563 144.457 80.8019ZM164.715 64.6968H167.296V83.8194H164.824V80.3293C163.479 82.656 161.007 84.0012 157.953 84.0012C153.082 84.0012 149.883 81.2746 149.883 75.785V64.6968H152.464V75.5305C152.464 79.6022 154.572 81.6745 158.208 81.6745C162.207 81.6745 164.715 79.0933 164.715 74.7307V64.6968ZM176.998 68.4413C178.198 65.8965 180.633 64.5513 184.16 64.5513V67.0598C183.942 67.0598 183.723 67.0235 183.542 67.0235C179.543 67.0235 177.107 69.5683 177.107 74.0763V83.8194H174.526V64.6968H176.998V68.4413ZM205.343 74.2581C205.343 74.4762 205.306 74.767 205.306 75.0579H189.31C189.601 79.0569 192.655 81.7108 196.836 81.7108C199.162 81.7108 201.235 80.8747 202.689 79.2023L204.143 80.8747C202.434 82.9105 199.78 84.0012 196.763 84.0012C190.801 84.0012 186.729 79.9294 186.729 74.2581C186.729 68.5867 190.692 64.5513 196.072 64.5513C201.453 64.5513 205.343 68.514 205.343 74.2581ZM196.072 66.769C192.364 66.769 189.637 69.3865 189.31 73.1311H202.871C202.543 69.3865 199.817 66.769 196.072 66.769ZM225.466 56.8441H228.047V83.8194H225.575V80.0385C224.011 82.6197 221.358 84.0012 218.195 84.0012C212.741 84.0012 208.67 80.0385 208.67 74.2581C208.67 68.4777 212.741 64.5513 218.195 64.5513C221.248 64.5513 223.866 65.8601 225.466 68.3322V56.8441ZM218.413 81.7108C222.448 81.7108 225.502 78.7297 225.502 74.2581C225.502 69.7864 222.448 66.8053 218.413 66.8053C214.341 66.8053 211.287 69.7864 211.287 74.2581C211.287 78.7297 214.341 81.7108 218.413 81.7108ZM256.42 84.0375C248.713 84.0375 243.041 78.5116 243.041 71.0952C243.041 63.6788 248.713 58.1529 256.42 58.1529C264.055 58.1529 269.762 63.6425 269.762 71.0952C269.762 78.5479 264.055 84.0375 256.42 84.0375ZM256.42 81.6381C262.528 81.6381 267.072 77.1665 267.072 71.0952C267.072 65.0239 262.528 60.5523 256.42 60.5523C250.276 60.5523 245.695 65.0239 245.695 71.0952C245.695 77.1665 250.276 81.6381 256.42 81.6381ZM284.99 64.5513C289.644 64.5513 292.843 67.2416 292.843 72.7312V83.8194H290.262V72.9857C290.262 68.9503 288.153 66.878 284.518 66.878C280.409 66.878 277.828 69.4229 277.828 73.7855V83.8194H275.247V64.6968H277.719V68.2232C279.101 65.8965 281.682 64.5513 284.99 64.5513Z" fill="#121212"/>
<rect x="69.8555" y="119.872" width="62.3226" height="1.03871" fill="#898989"/>
<defs>
<clipPath id="clip0_5_535">
<rect width="204.626" height="51.9355" fill="white" transform="translate(79.7513 201.109)"/>
</clipPath>
<clipPath id="clip1_5_535">
<rect width="234.05" height="145.016" fill="white" transform="translate(330.199 154.569)"/>
</clipPath>
<clipPath id="clip2_5_535">
<rect width="231.052" height="67.2398" fill="white" transform="translate(79.7513 385.798)"/>
</clipPath>
</defs>
</svg>
