<svg width="1024" height="34" viewBox="0 0 1024 34" fill="none" xmlns="http://www.w3.org/2000/svg">
<path d="M514.568 23.0233C514.568 23.0233 508.72 32.5351 504.314 30.7766C499.908 29.0181 504.749 20.2857 504.749 20.2857C504.749 20.2857 507.1 15.5498 510.676 15.4699C514.252 15.3899 514.568 23.0233 514.568 23.0233Z" fill="#2C73DB"/>
<path d="M498.308 24.3627L493.25 33.2151H503.089C503.089 33.1951 496.807 31.7564 498.308 24.3627Z" fill="#ED462F"/>
<path d="M508.323 33.2147C508.323 33.2147 513.737 31.6361 516.423 27.8993C516.423 27.8993 516.72 32.2955 520.79 33.1947L508.323 33.2147Z" fill="#ED462F"/>
<path d="M522.234 18.3882L530.749 33.1154L522.807 33.1953C522.807 33.1953 524.446 32.8157 525.79 31.257C525.79 31.257 525.928 31.0572 525.573 31.1371C525.217 31.217 521.681 31.8965 520.495 28.2796L519.013 23.6836L522.234 18.3882Z" fill="#ED462F"/>
<path d="M517.394 18.0682C517.394 18.0682 515.991 13.2923 511.092 13.2923C505.935 13.2923 502.537 17.189 502.537 17.189L512.04 0.363525L519.706 14.0916L517.394 18.0682Z" fill="#2C73DB"/>
<path d="M0 21.5792L1024 21.5793" stroke="url(#paint0_linear_5_2725)" stroke-linecap="round"/>
<defs>
<linearGradient id="paint0_linear_5_2725" x1="-5.35132e-08" y1="22.5792" x2="1024" y2="22.5793" gradientUnits="userSpaceOnUse">
<stop stop-color="#1994FF" stop-opacity="0.5"/>
<stop offset="0.440197" stop-color="#1994FF" stop-opacity="0"/>
<stop offset="0.56176" stop-color="#1994FF" stop-opacity="0"/>
<stop offset="1" stop-color="#1994FF" stop-opacity="0.5"/>
</linearGradient>
</defs>
</svg>
