<svg width="335" height="268" viewBox="0 0 335 268" fill="none" xmlns="http://www.w3.org/2000/svg">
<rect y="0.838623" width="335" height="267" rx="17.2903" fill="#FAFAFA"/>
<g clip-path="url(#clip0_5_2360)">
<path d="M45.6684 121.378H41.5859V95.4609L45.6684 95.7239V121.378Z" fill="#D3D3D3"/>
<path d="M52.3514 121.378H48.2689V102.894L52.3514 103.124V121.378ZM50.3102 97.2697C51.5942 97.2697 52.6477 98.3222 52.6477 99.6049C52.6477 100.888 51.5942 101.94 50.3102 101.94C49.0262 101.94 47.9727 100.888 47.9727 99.6049C47.9727 98.3222 49.0262 97.2697 50.3102 97.2697Z" fill="#D3D3D3"/>
<path d="M62.0965 106.61V110.689H59.0346V121.36H54.9521V101.085C54.9521 97.9933 57.5201 95.1976 60.549 95.1976C61.5696 95.1976 62.3927 95.4937 62.5903 95.6251L62.4256 99.539H60.549C59.7259 99.539 59.0346 100.23 59.0346 101.085V106.61H62.0965Z" fill="#D3D3D3"/>
<path d="M67.8306 110.161H70.8924V108.254C70.8924 107.399 70.201 106.708 69.3778 106.708C68.5218 106.708 67.8306 107.399 67.8306 108.254V110.161ZM63.748 108.254C63.748 105.162 66.2501 102.63 69.3778 102.63C72.4726 102.63 74.9747 105.162 74.9747 108.254V112.201C74.9747 113.352 74.0529 114.24 72.9337 114.24H67.8306V116.016C67.8306 116.871 68.5218 117.562 69.3778 117.562H73.2958L73.4275 121.015L69.7401 121.574C66.1843 122.166 63.748 119.107 63.748 116.016V108.254Z" fill="#D3D3D3"/>
<path d="M78.4658 121.378V95.6253H81.0998V103.453C81.8241 103.223 82.9763 103.124 83.7665 103.124C86.565 103.124 88.7378 105.657 88.7378 108.518V121.378H86.1699V108.518C86.1699 107.104 85.0176 105.986 83.6019 105.986H81.0998V121.378H78.4658Z" fill="#D3D3D3"/>
<path d="M98.3733 116.411V111.971H95.8382C94.4227 111.971 93.3032 113.089 93.3032 114.503V116.411C93.3032 117.825 94.4227 118.976 95.8382 118.976C97.2541 118.976 98.3733 117.825 98.3733 116.411ZM98.3733 108.09C98.3733 106.61 97.6819 105.425 95.8053 105.623H95.8382C94.7846 105.656 93.435 105.787 92.3155 105.853C92.2827 104.899 92.2497 104.537 92.2168 103.814C93.1057 103.485 94.3896 103.156 95.4762 103.123C98.7685 103.057 100.941 105.722 100.941 108.583V116.411C100.941 119.239 98.6698 121.574 95.8382 121.574C93.007 121.574 90.6694 119.239 90.6694 116.411V114.799C90.6694 111.971 92.6118 109.833 95.8382 109.833C97.0565 109.833 97.6819 109.964 98.3733 110.162V108.09Z" fill="#D3D3D3"/>
<path d="M108.317 103.124C111.149 103.124 113.486 105.426 113.486 108.287V108.616C112.466 108.649 111.642 108.649 110.885 108.682V108.287C110.885 106.906 109.733 105.755 108.317 105.755C106.935 105.755 105.815 106.906 105.815 108.287V116.51C105.815 117.957 106.935 119.043 108.317 119.043C109.7 119.043 110.852 117.99 110.885 116.609C112.169 116.707 113.387 116.773 113.486 116.773C113.354 119.503 111.05 121.674 108.317 121.674C105.486 121.674 103.181 119.371 103.181 116.51V108.287C103.181 105.426 105.486 103.124 108.317 103.124Z" fill="#D3D3D3"/>
<path d="M123.863 121.378L118.859 112.662C118.365 111.807 118.365 111.708 118.958 110.689L123.369 103.387H126.365L121.394 111.807L126.76 121.378H123.863ZM118.2 95.691V121.378H115.566V95.691H118.2Z" fill="#D3D3D3"/>
<path d="M129.949 111.083H135.019V108.321C135.019 106.906 133.867 105.755 132.484 105.755C131.068 105.755 129.949 106.906 129.949 108.321V111.083ZM127.315 108.321C127.315 105.459 129.62 103.124 132.484 103.124C135.315 103.124 137.62 105.459 137.62 108.321V112.366C137.62 113.123 137.027 113.682 136.303 113.682H129.949V116.477C129.949 117.892 131.068 119.043 132.484 119.043H135.809C135.842 119.898 135.875 120.49 135.941 121.082L132.78 121.575C129.554 122.135 127.315 119.339 127.315 116.477V108.321Z" fill="#D3D3D3"/>
<path d="M142.564 121.378H139.93V108.551C139.93 105.69 142.169 103.026 145.461 103.091C146.581 103.124 147.272 103.387 148.029 103.749C147.996 104.538 147.964 105.196 147.931 105.788L145.066 105.723C143.683 105.723 142.564 107.203 142.564 108.551V121.378Z" fill="#D3D3D3"/>
</g>
<g clip-path="url(#clip1_5_2360)">
<path d="M178.897 122.463C175.512 122.463 173.949 124.932 173.949 127.317C173.949 129.701 175.426 132.087 178.897 132.087C180.156 132.087 181.501 131.577 182.457 130.681L183.931 132.087C182.544 133.406 180.762 134.047 178.896 134.047C174.035 134.047 171.865 130.766 171.865 127.317C171.865 123.867 174.121 120.462 178.896 120.462C180.675 120.462 182.412 121.102 183.802 122.463L182.37 123.827C181.414 122.887 180.156 122.463 178.897 122.463ZM185.148 133.748V120.632H187.316V131.787H194.347V133.747H185.148V133.748ZM202.554 134.047C197.907 134.047 195.693 130.723 195.693 127.272C195.693 123.272 198.557 120.418 202.554 120.418C207.152 120.418 209.407 123.697 209.407 127.272C209.407 130.808 207.19 134.047 202.554 134.047ZM202.592 122.336C199.514 122.336 197.821 124.462 197.821 127.317C197.863 129.616 199.253 132.127 202.554 132.127C205.893 132.127 207.28 129.828 207.28 127.317C207.28 124.888 205.849 122.378 202.592 122.336ZM216.347 134.001C213.354 133.916 210.838 132.042 210.838 128.337V120.673H212.97V128.337C212.97 130.723 214.395 132.002 216.347 132.087C218.478 132.212 220.039 130.851 220.039 128.337V120.673H222.165V128.337C222.165 132.212 219.558 134.131 216.347 134.001ZM229.242 133.748C227.637 133.748 225.767 133.748 224.163 133.748V120.632H229.242C233.802 120.632 235.881 123.826 235.921 127.062C236.011 130.383 233.884 133.748 229.242 133.748ZM229.242 122.632H226.288V131.746H229.242C232.491 131.746 233.884 129.403 233.84 127.062C233.802 124.847 232.407 122.632 229.242 122.632ZM251.549 133.789H249.636L247.857 129.147L246.425 124.761L244.949 129.192L243.215 133.79H241.353L236.486 120.673H238.874L242.264 130.766L245.733 120.673H247.119L250.638 130.766L253.979 120.673H256.366L251.549 133.789ZM267.952 133.789L266.653 131.021H259.405L258.145 133.789H255.891L261.876 120.673H264.22L270.21 133.789H267.952ZM263.044 122.846L260.232 129.107H265.87L263.044 122.846ZM276.113 128.382V133.748H273.987V128.382L268.824 120.718V120.632H271.38L275.027 126.422L278.841 120.632H281.41V120.718L276.113 128.382ZM287.832 122.122C286.046 122.122 284.75 122.846 284.75 124.123C284.75 125.402 286.227 125.743 287.998 125.996C290.734 126.382 293.387 127.103 293.387 130.041C293.387 132.981 290.65 134.086 287.832 134.086C285.27 134.086 283.317 133.321 282.103 131.107L283.709 130.041C284.66 131.616 286.311 132.212 287.87 132.212C289.475 132.212 291.26 131.702 291.26 130.041C291.26 128.636 289.694 128.126 287.832 127.87C285.186 127.53 282.67 126.847 282.67 124.038C282.67 121.312 285.398 120.291 287.832 120.291C289.738 120.291 291.691 120.757 292.822 122.506L291.133 123.571C290.477 122.677 289.219 122.122 287.832 122.122Z" fill="#D9D9D9"/>
<path d="M245.803 138.093C245.129 137.627 244.294 137.386 243.314 137.386H241.194V144.136H243.314C244.294 144.136 245.129 143.878 245.803 143.396C246.173 143.139 246.462 142.77 246.655 142.319C246.847 141.87 246.96 141.323 246.96 140.729C246.96 140.134 246.863 139.604 246.655 139.154C246.462 138.704 246.173 138.35 245.803 138.093ZM242.431 138.543H243.105C243.844 138.543 244.454 138.688 244.92 138.977C245.434 139.282 245.691 139.877 245.691 140.729C245.691 141.612 245.434 142.223 244.92 142.56C244.47 142.85 243.876 143.011 243.121 143.011H242.446V138.543H242.431Z" fill="#D9D9D9"/>
<path d="M248.245 137.322C248.036 137.322 247.86 137.403 247.731 137.531C247.587 137.676 247.522 137.836 247.522 138.045C247.522 138.254 247.603 138.431 247.731 138.575C247.876 138.72 248.052 138.785 248.261 138.785C248.47 138.785 248.647 138.704 248.791 138.575C248.936 138.431 249 138.254 249 138.045C249 137.836 248.92 137.66 248.791 137.531C248.63 137.386 248.454 137.322 248.245 137.322Z" fill="#D9D9D9"/>
<path d="M248.823 139.395H247.634V144.152H248.823V139.395Z" fill="#D9D9D9"/>
<path d="M252.967 139.797C252.614 139.475 252.212 139.282 251.762 139.282C251.104 139.282 250.558 139.507 250.14 139.958C249.706 140.407 249.498 140.97 249.498 141.661C249.498 142.336 249.706 142.898 250.124 143.364C250.542 143.814 251.104 144.039 251.762 144.039C252.228 144.039 252.614 143.911 252.935 143.654V143.766C252.935 144.168 252.822 144.473 252.614 144.682C252.405 144.891 252.116 145.003 251.762 145.003C251.216 145.003 250.863 144.795 250.445 144.216L249.626 145.003L249.642 145.036C249.819 145.277 250.092 145.518 250.445 145.759C250.799 145.984 251.248 146.096 251.778 146.096C252.485 146.096 253.063 145.871 253.481 145.453C253.898 145.019 254.123 144.441 254.123 143.734V139.395H252.951V139.797H252.967ZM252.646 142.593C252.437 142.834 252.164 142.947 251.827 142.947C251.489 142.947 251.216 142.834 251.007 142.593C250.799 142.352 250.702 142.047 250.702 141.661C250.702 141.275 250.799 140.954 251.007 140.713C251.216 140.472 251.489 140.359 251.827 140.359C252.164 140.359 252.437 140.472 252.646 140.713C252.854 140.954 252.967 141.259 252.967 141.661C252.967 142.047 252.854 142.352 252.646 142.593Z" fill="#D9D9D9"/>
<path d="M256.147 139.395H254.958V144.152H256.147V139.395Z" fill="#D9D9D9"/>
<path d="M255.569 137.322C255.36 137.322 255.183 137.403 255.055 137.531C254.91 137.676 254.846 137.836 254.846 138.045C254.846 138.254 254.927 138.431 255.055 138.575C255.2 138.72 255.376 138.785 255.585 138.785C255.794 138.785 255.97 138.704 256.115 138.575C256.259 138.431 256.324 138.254 256.324 138.045C256.324 137.836 256.243 137.66 256.115 137.531C255.938 137.386 255.762 137.322 255.569 137.322Z" fill="#D9D9D9"/>
<path d="M258.7 138.109H257.528V139.395H256.854V140.487H257.544V142.464C257.544 143.075 257.672 143.525 257.913 143.782C258.155 144.039 258.588 144.168 259.198 144.168C259.391 144.168 259.584 144.168 259.777 144.152H259.825V143.059L259.407 143.075C259.118 143.075 258.925 143.027 258.845 142.93C258.749 142.834 258.7 142.625 258.7 142.304V140.487H259.809V139.395H258.7V138.109Z" fill="#D9D9D9"/>
<path d="M266.313 137.402H265.125V144.152H266.313V137.402Z" fill="#D9D9D9"/>
<path d="M278.038 142.448C277.829 142.689 277.605 142.898 277.444 143.011C277.283 143.123 277.074 143.171 276.818 143.171C276.464 143.171 276.175 143.043 275.95 142.786C275.725 142.529 275.597 142.191 275.597 141.789C275.597 141.388 275.709 141.05 275.934 140.793C276.159 140.536 276.448 140.407 276.801 140.407C277.187 140.407 277.588 140.648 277.942 141.05L278.729 140.295C278.215 139.62 277.556 139.315 276.769 139.315C276.111 139.315 275.549 139.556 275.083 140.022C274.617 140.488 274.392 141.082 274.392 141.789C274.392 142.496 274.633 143.091 275.083 143.557C275.549 144.023 276.111 144.264 276.769 144.264C277.637 144.264 278.327 143.894 278.809 143.204L278.038 142.448Z" fill="#D9D9D9"/>
<path d="M282.985 140.054C282.809 139.813 282.584 139.62 282.295 139.492C282.006 139.347 281.684 139.282 281.315 139.282C280.64 139.282 280.111 139.524 279.693 140.022C279.291 140.504 279.099 141.099 279.099 141.806C279.099 142.529 279.324 143.123 279.757 143.573C280.191 144.023 280.769 144.248 281.476 144.248C282.279 144.248 282.937 143.926 283.435 143.284L283.467 143.252L282.68 142.496C282.616 142.577 282.504 142.689 282.407 142.77C282.295 142.882 282.182 142.962 282.054 143.027C281.877 143.123 281.668 143.155 281.443 143.155C281.106 143.155 280.833 143.059 280.625 142.866C280.432 142.689 280.319 142.448 280.287 142.143H283.451L283.467 141.709C283.467 141.404 283.419 141.099 283.339 140.825C283.275 140.552 283.146 140.295 282.985 140.054ZM280.367 141.179C280.432 140.954 280.528 140.761 280.673 140.616C280.833 140.456 281.042 140.375 281.299 140.375C281.588 140.375 281.813 140.456 281.957 140.616C282.102 140.761 282.182 140.954 282.199 141.179H280.367Z" fill="#D9D9D9"/>
<path d="M287.547 139.748C287.177 139.443 286.679 139.282 286.053 139.282C285.652 139.282 285.282 139.363 284.945 139.54C284.64 139.7 284.335 139.958 284.142 140.295L284.158 140.311L284.929 141.05C285.25 140.552 285.587 140.375 286.053 140.375C286.31 140.375 286.503 140.44 286.664 140.568C286.824 140.697 286.904 140.873 286.904 141.082V141.307C286.615 141.211 286.31 141.179 286.021 141.179C285.427 141.179 284.945 141.323 284.576 141.596C284.206 141.87 284.029 142.271 284.029 142.786C284.029 143.236 284.19 143.589 284.495 143.862C284.8 144.119 285.186 144.248 285.652 144.248C286.101 144.248 286.535 144.071 286.92 143.75V144.136H288.093V141.082C288.093 140.504 287.916 140.054 287.547 139.748ZM285.427 142.32C285.555 142.223 285.748 142.175 285.989 142.175C286.278 142.175 286.583 142.239 286.888 142.352V142.818C286.631 143.059 286.278 143.188 285.86 143.188C285.652 143.188 285.491 143.139 285.379 143.043C285.266 142.947 285.218 142.834 285.218 142.689C285.234 142.545 285.298 142.416 285.427 142.32Z" fill="#D9D9D9"/>
<path d="M292.542 139.845C292.204 139.475 291.739 139.282 291.144 139.282C290.679 139.282 290.293 139.411 290.004 139.684V139.395H288.832V144.152H290.02V141.516C290.02 141.163 290.101 140.873 290.277 140.665C290.438 140.456 290.679 140.359 290.984 140.359C291.257 140.359 291.466 140.44 291.61 140.632C291.755 140.809 291.835 141.066 291.835 141.388V144.136H293.024V141.388C293.04 140.729 292.863 140.215 292.542 139.845Z" fill="#D9D9D9"/>
<path d="M263.825 139.748C263.455 139.443 262.957 139.282 262.331 139.282C261.929 139.282 261.56 139.363 261.223 139.54C260.917 139.7 260.612 139.958 260.419 140.295L260.436 140.311L261.206 141.05C261.528 140.552 261.865 140.375 262.331 140.375C262.588 140.375 262.78 140.44 262.941 140.568C263.102 140.697 263.182 140.873 263.182 141.082V141.307C262.893 141.211 262.588 141.179 262.299 141.179C261.704 141.179 261.223 141.323 260.853 141.596C260.484 141.87 260.307 142.271 260.307 142.786C260.307 143.236 260.467 143.589 260.773 143.862C261.078 144.119 261.464 144.248 261.929 144.248C262.379 144.248 262.813 144.071 263.198 143.75V144.136H264.37V141.082C264.37 140.504 264.194 140.054 263.825 139.748ZM261.704 142.32C261.833 142.223 262.026 142.175 262.266 142.175C262.555 142.175 262.861 142.239 263.166 142.352V142.818C262.909 143.059 262.555 143.188 262.138 143.188C261.929 143.188 261.768 143.139 261.656 143.043C261.544 142.947 261.495 142.834 261.495 142.689C261.512 142.545 261.576 142.416 261.704 142.32Z" fill="#D9D9D9"/>
<path d="M270.442 144.248C268.53 144.248 266.972 142.689 266.972 140.777C266.972 138.864 268.53 137.306 270.442 137.306C272.353 137.306 273.91 138.864 273.91 140.777C273.91 142.689 272.369 144.248 270.442 144.248ZM270.442 138.511C269.205 138.511 268.193 139.523 268.193 140.761C268.193 141.998 269.205 143.011 270.442 143.011C271.678 143.011 272.69 141.998 272.69 140.761C272.69 139.523 271.694 138.511 270.442 138.511Z" fill="#D9D9D9"/>
<path d="M234.219 144.209C233.894 144.209 233.634 144.107 233.439 143.901V144.148H232.81V140.212H233.45V141.599C233.659 141.419 233.916 141.33 234.219 141.33C234.612 141.33 234.934 141.466 235.185 141.739C235.436 142.013 235.561 142.357 235.561 142.772C235.561 143.188 235.436 143.532 235.185 143.805C234.93 144.075 234.608 144.209 234.219 144.209ZM233.635 143.401C233.766 143.566 233.946 143.648 234.174 143.648C234.403 143.648 234.582 143.566 234.713 143.401C234.844 143.237 234.91 143.027 234.91 142.772C234.91 142.518 234.844 142.308 234.713 142.144C234.582 141.979 234.403 141.897 234.174 141.897C233.946 141.897 233.766 141.979 233.635 142.144C233.504 142.308 233.439 142.518 233.439 142.772C233.439 143.027 233.504 143.237 233.635 143.401ZM238.72 141.397L237.182 145.237H236.508L236.935 144.181L235.846 141.397H236.576L237.294 143.384L238.024 141.397H238.72Z" fill="#D9D9D9"/>
<path fill-rule="evenodd" clip-rule="evenodd" d="M225.095 108.057C224.813 107.756 224.581 107.519 224.36 107.272C223.526 106.335 222.85 105.296 222.35 104.145C222.27 103.96 222.172 103.893 221.969 103.897C221.248 103.91 220.526 103.904 219.805 103.901C219.168 103.899 218.831 103.581 218.813 102.948C218.8 102.524 218.799 102.099 218.813 101.675C218.833 101.052 219.166 100.74 219.789 100.739C220.309 100.738 220.83 100.739 221.384 100.739C221.254 99.3202 221.276 97.9394 221.581 96.5309C221.422 96.5309 221.299 96.5309 221.176 96.5309C214.784 96.5309 208.391 96.5312 201.998 96.5305C201.128 96.5305 200.483 96.0217 200.325 95.2164C200.139 94.2655 200.864 93.357 201.841 93.3198C201.94 93.3161 202.039 93.3185 202.138 93.3185C208.91 93.3185 215.681 93.317 222.452 93.3245C222.702 93.3246 222.834 93.2449 222.957 93.0313C223.789 91.5897 224.881 90.3778 226.223 89.392C226.293 89.3402 226.36 89.284 226.421 89.1635C226.311 89.1635 226.201 89.1635 226.092 89.1635C220.934 89.1635 215.777 89.1668 210.619 89.1557C210.305 89.155 209.964 89.0995 209.68 88.9705C209.007 88.6648 208.673 87.8933 208.842 87.1783C209.01 86.4715 209.663 85.953 210.401 85.9523C212.673 85.9498 214.945 85.9512 217.218 85.9512C221.374 85.9512 225.531 85.9491 229.687 85.957C229.931 85.9573 230.049 85.8978 230.131 85.6549C230.553 84.3988 231.167 83.239 231.937 82.1613C232.009 82.0612 232.078 81.9595 232.182 81.811C232.012 81.8033 231.892 81.7929 231.772 81.7929C225.74 81.792 219.708 81.7957 213.676 81.783C213.337 81.7823 212.966 81.7135 212.665 81.5642C212.019 81.2428 211.72 80.4727 211.904 79.7927C212.104 79.0515 212.716 78.5837 213.497 78.5837C220.782 78.5828 228.068 78.5823 235.353 78.587C235.588 78.5872 235.785 78.5329 235.986 78.4114C237.853 77.2824 239.874 76.6542 242.055 76.5113C248.399 76.0954 254.078 80.2693 255.863 86.3241C255.965 86.6691 256.059 87.0182 256.126 87.3712C256.162 87.5573 256.237 87.6393 256.416 87.702C260.37 89.0882 262.996 91.7939 264.16 95.8105C266.032 102.275 262.356 108.908 256.1 110.755C255.119 111.045 254.116 111.21 253.094 111.216C248.481 111.241 243.867 111.265 239.253 111.27C230.128 111.278 221.004 111.273 211.879 111.266C211.606 111.266 211.315 111.228 211.063 111.128C210.354 110.845 209.984 110.106 210.125 109.343C210.257 108.628 210.906 108.084 211.661 108.057C211.742 108.055 211.823 108.056 211.904 108.056C216.16 108.056 220.415 108.056 224.671 108.056C224.786 108.057 224.901 108.057 225.095 108.057Z" fill="#D9D9D9"/>
<path fill-rule="evenodd" clip-rule="evenodd" d="M208.033 103.902C206.195 103.902 204.357 103.902 202.519 103.902C201.776 103.901 201.462 103.593 201.459 102.859C201.457 102.434 201.452 102.01 201.464 101.587C201.48 101.088 201.831 100.742 202.331 100.741C206.141 100.738 209.952 100.738 213.763 100.742C214.263 100.742 214.622 101.103 214.638 101.619C214.652 102.105 214.653 102.593 214.638 103.08C214.624 103.565 214.225 103.9 213.681 103.901C212.42 103.904 211.159 103.902 209.898 103.902C209.276 103.902 208.655 103.902 208.033 103.902Z" fill="#D9D9D9"/>
</g>
<g clip-path="url(#clip2_5_2360)">
<path d="M41.6001 197.767H45.7908V207.077H54.6292V197.767H58.8253V220.621H54.6292V211.115H45.7908V220.621H41.6001V197.767ZM72.1014 213.177C72.1014 215.09 70.5427 216.647 68.63 216.647C66.7165 216.647 65.1588 215.09 65.1588 213.177V203.337H61.1845V213.177C61.1845 217.282 64.5247 220.621 68.63 220.621C72.7343 220.621 76.0742 217.282 76.0742 213.177V203.337H72.1014V213.177ZM87.1688 203.453C85.1974 203.453 83.8213 204.025 82.4924 205.329V197.767H78.5053V211.782C78.5053 217.028 82.2983 220.621 86.5597 220.621C91.2971 220.621 95.4478 216.964 95.4478 212.037C95.4478 207.173 91.6203 203.453 87.1688 203.453ZM87.2679 216.933C84.5662 216.933 82.5002 214.676 82.5002 212.037C82.5002 209.398 84.5662 207.141 87.2679 207.141C89.5571 207.141 91.6243 209.398 91.6243 212.037C91.6243 214.676 89.5571 216.933 87.2679 216.933ZM102.144 204.457C102.144 202.453 103.48 201.817 104.942 201.817C106.119 201.817 107.676 202.708 108.693 203.789L111.299 200.737C109.997 198.989 107.358 197.78 105.196 197.78C100.872 197.78 97.7563 200.292 97.7563 204.457C97.7563 212.183 107.263 209.734 107.263 214.059C107.263 215.393 105.96 216.57 104.466 216.57C102.113 216.57 101.349 215.426 100.269 214.217L97.3751 217.205C99.2202 219.463 101.509 220.608 104.243 220.608C108.344 220.608 111.651 218.064 111.651 214.09C111.651 205.506 102.144 208.177 102.144 204.457ZM122.147 203.229C117.886 203.229 114.093 206.819 114.093 212.067V226.118H118.08V218.52C119.409 219.823 120.784 220.396 122.756 220.396C127.208 220.396 131.036 216.677 131.036 211.813C131.036 206.885 126.884 203.229 122.147 203.229ZM122.856 216.709C120.154 216.709 118.088 214.45 118.088 211.813C118.088 209.173 120.154 206.916 122.856 206.916C125.144 206.916 127.212 209.173 127.212 211.813C127.212 214.45 125.144 216.709 122.856 216.709ZM160.384 216.933C158.032 216.933 157.365 215.916 157.365 214.357V207.458H161.02V203.962H157.365V199.351L153.328 201.163V215.216C153.328 218.809 155.807 220.621 159.207 220.621C159.716 220.621 160.416 220.588 160.798 220.494L161.784 216.87C161.339 216.901 160.83 216.933 160.384 216.933Z" fill="#D9D9D9"/>
<path d="M149.869 207.662C149.105 206.347 148.03 205.293 146.686 204.499C145.681 203.914 144.639 203.543 143.466 203.384V199.205C144.639 198.707 145.368 197.604 145.368 196.317C145.368 194.563 143.961 193.141 142.209 193.141C140.455 193.141 139.023 194.563 139.023 196.317C139.023 197.604 139.71 198.707 140.884 199.205V203.386C139.945 203.521 138.971 203.814 138.082 204.264C136.265 202.884 130.31 198.359 126.826 195.716C126.909 195.418 126.972 195.111 126.972 194.787C126.972 192.844 125.399 191.27 123.455 191.27C121.512 191.27 119.939 192.844 119.939 194.787C119.939 196.73 121.514 198.305 123.457 198.305C124.12 198.305 124.733 198.111 125.262 197.792L125.998 198.35L136.1 205.629C135.566 206.119 135.069 206.677 134.671 207.303C133.864 208.579 133.372 209.983 133.372 211.514V211.833C133.372 212.908 133.576 213.923 133.924 214.876C134.23 215.709 134.678 216.466 135.233 217.15L131.88 220.511C131.394 220.33 130.866 220.293 130.36 220.404C129.853 220.515 129.39 220.77 129.024 221.137C128.771 221.389 128.57 221.689 128.434 222.019C128.297 222.349 128.227 222.703 128.229 223.06C128.229 223.786 128.512 224.468 129.025 224.982C129.277 225.235 129.577 225.436 129.907 225.573C130.236 225.709 130.59 225.779 130.947 225.778C131.305 225.779 131.659 225.709 131.989 225.573C132.319 225.436 132.618 225.235 132.87 224.982C133.123 224.73 133.324 224.43 133.46 224.1C133.597 223.771 133.667 223.417 133.666 223.06C133.666 222.779 133.623 222.505 133.541 222.244L137.006 218.778C137.482 219.106 137.995 219.383 138.546 219.621C139.634 220.091 140.835 220.378 142.15 220.378H142.391C143.844 220.378 145.214 220.037 146.503 219.338C147.861 218.601 148.923 217.592 149.726 216.304C150.533 215.012 150.978 213.585 150.978 212.015V211.937C150.978 210.392 150.62 208.967 149.869 207.662ZM145.635 214.933C144.694 215.978 143.613 216.622 142.391 216.622H142.189C141.491 216.622 140.808 216.429 140.14 216.078C139.386 215.692 138.813 215.14 138.345 214.443C137.86 213.758 137.597 213.01 137.597 212.217V211.976C137.597 211.196 137.747 210.457 138.124 209.759C138.527 208.996 139.071 208.402 139.795 207.93C140.506 207.462 141.265 207.232 142.111 207.232H142.189C142.956 207.232 143.682 207.383 144.367 207.734C145.065 208.107 145.635 208.618 146.077 209.29C146.506 209.961 146.762 210.686 146.844 211.476C146.857 211.64 146.863 211.808 146.863 211.968C146.863 213.04 146.454 214.032 145.635 214.933Z" fill="#D9D9D9"/>
</g>
<path d="M221.644 194.947H226.117V222.569H221.644V194.947Z" fill="#D9D9D9"/>
<path d="M241.679 213.815C241.679 218.095 238.178 218.484 237.01 218.484C234.287 218.484 233.898 215.955 233.898 214.593V203.895H229.424V214.399C229.424 216.928 230.202 219.262 231.759 220.624C233.12 221.985 234.871 222.569 237.01 222.569C238.567 222.569 240.512 222.18 241.679 221.013V222.569H246.153V203.895H241.679V213.815Z" fill="#D9D9D9"/>
<path d="M254.906 197.087H250.432V203.895H247.125V208.174H250.432V222.569H254.906V208.174H258.212V203.895H254.906V197.087Z" fill="#D9D9D9"/>
<path d="M272.218 216.928C271.245 217.706 269.884 218.289 268.522 218.289C265.41 218.289 263.27 215.955 263.27 212.843C263.27 209.731 265.41 207.591 268.522 207.591C269.884 207.591 271.245 207.98 272.218 208.953L272.801 209.536L275.914 206.618L275.136 206.035C273.385 204.479 271.051 203.506 268.522 203.506C263.076 203.506 258.991 207.591 258.991 213.037C258.991 218.484 263.076 222.569 268.522 222.569C271.051 222.569 273.385 221.596 275.136 220.04L275.914 219.456L272.801 216.344L272.218 216.928Z" fill="#D9D9D9"/>
<path d="M291.669 205.451C290.308 204.09 288.946 203.506 286.806 203.506C285.25 203.506 283.694 203.895 282.527 205.062V194.947H278.053V222.569H282.527V212.259C282.527 207.98 285.445 207.591 286.612 207.591C289.335 207.591 289.141 210.12 289.141 211.481V222.374H293.615V211.676C293.615 209.147 293.031 206.813 291.669 205.451Z" fill="#D9D9D9"/>
<path d="M268.328 216.15C270.046 216.15 271.44 214.756 271.44 213.037C271.44 211.319 270.046 209.925 268.328 209.925C266.609 209.925 265.215 211.319 265.215 213.037C265.215 214.756 266.609 216.15 268.328 216.15Z" fill="#D9D9D9"/>
<path d="M215.419 215.761C213.863 217.317 211.529 218.289 209 218.289C204.137 218.289 200.636 214.399 200.636 209.147C200.636 203.895 204.137 200.005 209.195 200.005C211.529 200.005 213.863 200.977 215.614 202.728L216.197 203.312L219.115 200.394L218.531 199.81C216.003 197.282 212.696 195.92 209.195 195.92C201.803 195.725 196.356 201.561 196.356 209.147C196.356 216.733 201.803 222.569 209 222.569C212.501 222.569 216.003 221.207 218.337 218.678L218.92 218.095L216.003 215.177L215.419 215.761Z" fill="#D9D9D9"/>
<path d="M46.5607 32.5138H38.4407V38.0138H45.6807V39.2938H38.4407V45.2338H36.9607V31.2338H46.5607V32.5138ZM58.1454 39.9738C58.1454 40.0938 58.1254 40.2538 58.1254 40.4138H49.3254C49.4854 42.6138 51.1654 44.0738 53.4654 44.0738C54.7454 44.0738 55.8854 43.6138 56.6854 42.6938L57.4854 43.6138C56.5454 44.7338 55.0854 45.3338 53.4254 45.3338C50.1454 45.3338 47.9054 43.0938 47.9054 39.9738C47.9054 36.8538 50.0854 34.6338 53.0454 34.6338C56.0054 34.6338 58.1454 36.8138 58.1454 39.9738ZM53.0454 35.8538C51.0054 35.8538 49.5054 37.2938 49.3254 39.3538H56.7854C56.6054 37.2938 55.1054 35.8538 53.0454 35.8538ZM64.4227 34.6338C67.1427 34.6338 68.6827 35.9938 68.6827 38.7138V45.2338H67.3227V43.5938C66.6827 44.6738 65.4427 45.3338 63.7027 45.3338C61.3227 45.3338 59.8627 44.0938 59.8627 42.2738C59.8627 40.6538 60.9027 39.2938 63.9227 39.2938H67.2627V38.6538C67.2627 36.8538 66.2427 35.8738 64.2827 35.8738C62.9227 35.8738 61.6427 36.3538 60.7827 37.1138L60.1427 36.0538C61.2027 35.1538 62.7627 34.6338 64.4227 34.6338ZM63.9227 44.2138C65.5227 44.2138 66.7027 43.4538 67.2627 42.0738V40.3538H63.9627C61.9227 40.3538 61.2627 41.1538 61.2627 42.2338C61.2627 43.4538 62.2427 44.2138 63.9227 44.2138ZM77.5796 43.5738L78.0796 44.5938C77.5196 45.0938 76.6796 45.3338 75.8596 45.3338C73.8796 45.3338 72.7796 44.2138 72.7796 42.2738V35.9138H70.8996V34.7138H72.7796V32.4138H74.1996V34.7138H77.3996V35.9138H74.1996V42.1938C74.1996 43.4338 74.8396 44.1138 76.0196 44.1138C76.5996 44.1138 77.1796 43.9338 77.5796 43.5738ZM88.7246 34.7138H90.1446V45.2338H88.7846V43.3138C88.0446 44.5938 86.6846 45.3338 85.0046 45.3338C82.3246 45.3338 80.5646 43.8338 80.5646 40.8138V34.7138H81.9846V40.6738C81.9846 42.9138 83.1446 44.0538 85.1446 44.0538C87.3446 44.0538 88.7246 42.6338 88.7246 40.2338V34.7138ZM95.4816 36.7738C96.1416 35.3738 97.4816 34.6338 99.4216 34.6338V36.0138C99.3016 36.0138 99.1816 35.9938 99.0816 35.9938C96.8816 35.9938 95.5416 37.3938 95.5416 39.8738V45.2338H94.1216V34.7138H95.4816V36.7738ZM111.075 39.9738C111.075 40.0938 111.055 40.2538 111.055 40.4138H102.255C102.415 42.6138 104.095 44.0738 106.395 44.0738C107.675 44.0738 108.815 43.6138 109.615 42.6938L110.415 43.6138C109.475 44.7338 108.015 45.3338 106.355 45.3338C103.075 45.3338 100.835 43.0938 100.835 39.9738C100.835 36.8538 103.015 34.6338 105.975 34.6338C108.935 34.6338 111.075 36.8138 111.075 39.9738ZM105.975 35.8538C103.935 35.8538 102.435 37.2938 102.255 39.3538H109.715C109.535 37.2938 108.035 35.8538 105.975 35.8538ZM122.145 30.3938H123.565V45.2338H122.205V43.1538C121.345 44.5738 119.885 45.3338 118.145 45.3338C115.145 45.3338 112.905 43.1538 112.905 39.9738C112.905 36.7938 115.145 34.6338 118.145 34.6338C119.825 34.6338 121.265 35.3538 122.145 36.7138V30.3938ZM118.265 44.0738C120.485 44.0738 122.165 42.4338 122.165 39.9738C122.165 37.5138 120.485 35.8738 118.265 35.8738C116.025 35.8738 114.345 37.5138 114.345 39.9738C114.345 42.4338 116.025 44.0738 118.265 44.0738ZM139.174 45.3538C134.934 45.3538 131.814 42.3138 131.814 38.2338C131.814 34.1538 134.934 31.1138 139.174 31.1138C143.374 31.1138 146.514 34.1338 146.514 38.2338C146.514 42.3338 143.374 45.3538 139.174 45.3538ZM139.174 44.0338C142.534 44.0338 145.034 41.5738 145.034 38.2338C145.034 34.8938 142.534 32.4338 139.174 32.4338C135.794 32.4338 133.274 34.8938 133.274 38.2338C133.274 41.5738 135.794 44.0338 139.174 44.0338ZM154.892 34.6338C157.452 34.6338 159.212 36.1138 159.212 39.1338V45.2338H157.792V39.2738C157.792 37.0538 156.632 35.9138 154.632 35.9138C152.372 35.9138 150.952 37.3138 150.952 39.7138V45.2338H149.532V34.7138H150.892V36.6538C151.652 35.3738 153.072 34.6338 154.892 34.6338Z" fill="#323232"/>
<path d="M259.684 38.2279C259.686 37.4399 259.924 36.6702 260.366 36.0161C260.809 35.3619 261.437 34.8527 262.171 34.5527C262.905 34.2526 263.712 34.1753 264.49 34.3303C265.269 34.4854 265.983 34.866 266.544 35.424C267.104 35.9819 267.486 36.6923 267.64 37.4653C267.794 38.2384 267.714 39.0394 267.409 39.7672C267.105 40.495 266.59 41.117 265.93 41.5545C265.27 41.9921 264.494 42.2256 263.7 42.2256C263.172 42.2256 262.649 42.1221 262.161 41.9211C261.673 41.7201 261.229 41.4254 260.856 41.0541C260.483 40.6827 260.188 40.2419 259.987 39.7569C259.785 39.272 259.683 38.7524 259.684 38.2279Z" fill="#ED462F"/>
<path d="M271.743 38.2284C271.743 37.44 271.978 36.6692 272.42 36.0136C272.861 35.358 273.488 34.847 274.222 34.5453C274.956 34.2435 275.763 34.1646 276.542 34.3184C277.321 34.4722 278.037 34.8519 278.599 35.4095C279.16 35.967 279.543 36.6774 279.698 37.4507C279.853 38.224 279.773 39.0256 279.469 39.7541C279.165 40.4825 278.65 41.1052 277.99 41.5432C277.33 41.9813 276.553 42.2151 275.759 42.2151C274.694 42.2151 273.672 41.7951 272.919 41.0474C272.166 40.2998 271.743 39.2858 271.743 38.2284Z" fill="#FFEC00"/>
<path d="M284.081 38.2284C284.081 37.44 284.317 36.6692 284.758 36.0136C285.199 35.358 285.827 34.847 286.56 34.5453C287.294 34.2435 288.102 34.1646 288.881 34.3184C289.66 34.4722 290.375 34.8519 290.937 35.4095C291.499 35.967 291.881 36.6774 292.036 37.4507C292.191 38.224 292.112 39.0256 291.808 39.7541C291.504 40.4825 290.989 41.1052 290.328 41.5432C289.668 41.9813 288.892 42.2151 288.097 42.2151C287.032 42.2151 286.011 41.7951 285.258 41.0474C284.504 40.2998 284.081 39.2858 284.081 38.2284Z" fill="#FFB000"/>
<path d="M296.185 38.2284C296.185 37.44 296.421 36.6692 296.862 36.0136C297.304 35.358 297.931 34.847 298.665 34.5453C299.398 34.2435 300.206 34.1646 300.985 34.3184C301.764 34.4722 302.48 34.8519 303.041 35.4095C303.603 35.967 303.985 36.6774 304.14 37.4507C304.295 38.224 304.216 39.0256 303.912 39.7541C303.608 40.4825 303.093 41.1052 302.433 41.5432C301.772 41.9813 300.996 42.2151 300.201 42.2151C299.674 42.2151 299.152 42.112 298.665 41.9116C298.177 41.7113 297.735 41.4176 297.362 41.0474C296.989 40.6772 296.693 40.2377 296.491 39.7541C296.289 39.2704 296.185 38.752 296.185 38.2284Z" fill="#1994FF"/>
<defs>
<clipPath id="clip0_5_2360">
<rect width="106.444" height="27.0161" fill="white" transform="translate(41.5859 95.1968)"/>
</clipPath>
<clipPath id="clip1_5_2360">
<rect width="121.749" height="75.4356" fill="white" transform="translate(171.865 70.9871)"/>
</clipPath>
<clipPath id="clip2_5_2360">
<rect width="120.19" height="34.9772" fill="white" transform="translate(41.5859 191.269)"/>
</clipPath>
</defs>
</svg>
