<svg width="375" height="427" viewBox="0 0 375 427" fill="none" xmlns="http://www.w3.org/2000/svg">
<path d="M1527.9 189.459C1527.9 189.459 871.431 196.646 309.275 281.141C-252.882 365.635 -319.705 121.625 -879.52 205.767C-1441.68 290.262 -1560.65 56.0355 -1560.65 56.0355" stroke="#FFE500"/>
<path d="M1523.85 127.783C1523.85 127.783 923.281 259.511 379.246 341.282C-164.788 423.053 -249.116 163.409 -790.883 244.84C-1334.92 326.611 -1448.66 39.6113 -1448.66 39.6113" stroke="#FFB000"/>
<path d="M1529.8 282.981C1529.8 282.981 863.926 128.675 311.187 211.787C-241.552 294.899 -306.516 57.595 -856.952 140.361C-1409.69 223.473 -1492.18 46.1643 -1492.18 46.1643" stroke="#ED462F"/>
<path d="M1519.58 143.399C1519.58 143.399 919.615 313.93 365.504 397.216C-188.607 480.501 -301.255 93.6002 -853.057 176.539C-1407.17 259.824 -1510.9 48.7356 -1510.9 48.7356" stroke="#1994FF"/>
</svg>
