<svg width="47" height="40" viewBox="0 0 47 40" fill="none" xmlns="http://www.w3.org/2000/svg">
<path d="M26.7171 27.5905C26.7171 27.5905 19.5966 39.172 14.2321 37.0309C8.86759 34.8898 14.7613 24.2572 14.7613 24.2572C14.7613 24.2572 17.624 18.4908 21.9781 18.3935C26.3322 18.2961 26.7171 27.5905 26.7171 27.5905Z" fill="#2C73DB"/>
<path d="M6.91956 29.2214L0.76123 40H12.7411C12.7411 39.9757 5.09131 38.2238 6.91956 29.2214Z" fill="#ED462F"/>
<path d="M19.1136 39.9996C19.1136 39.9996 25.705 38.0774 28.9766 33.5275C28.9766 33.5275 29.3374 38.8803 34.293 39.9752L19.1136 39.9996Z" fill="#ED462F"/>
<path d="M36.0511 21.9467L46.4193 39.8786L36.7487 39.9759C36.7487 39.9759 38.7454 39.5137 40.3812 37.6158C40.3812 37.6158 40.5496 37.3725 40.1166 37.4699C39.6836 37.5672 35.3776 38.3944 33.9342 33.9905L32.13 28.3944L36.0511 21.9467Z" fill="#ED462F"/>
<path d="M30.1583 21.5572C30.1583 21.5572 28.4503 15.7421 22.4844 15.7421C16.2058 15.7421 12.0682 20.4866 12.0682 20.4866L23.6391 0L32.9729 16.7153L30.1583 21.5572Z" fill="#2C73DB"/>
</svg>
