<svg width="335" height="44" viewBox="0 0 335 44" fill="none" xmlns="http://www.w3.org/2000/svg">
<g clip-path="url(#clip0_5_2238)">
<path d="M17.4937 15.9056C16.4949 15.9056 15.5591 15.4858 14.7087 14.8023L14.9158 13.8374L14.9248 13.8016C15.1092 12.7743 15.6941 11.0499 17.4937 11.0499C18.8434 11.0499 19.9412 12.1399 19.9412 13.48C19.9366 14.8156 18.8389 15.9056 17.4937 15.9056ZM17.4937 8.58867C15.1946 8.58867 13.4131 10.0717 12.6889 12.5107C11.582 10.8624 10.7452 8.88352 10.2548 7.21729H7.78039V13.6095C7.78039 14.8692 6.7456 15.8966 5.47686 15.8966C4.20813 15.8966 3.17345 14.8692 3.17345 13.6095V7.21729H0.698759V13.6095C0.689756 16.2273 2.8358 18.3758 5.47218 18.3758C8.10868 18.3758 10.2547 16.2273 10.2547 13.6095V12.5375C10.7361 13.5336 11.3254 14.5386 12.0408 15.4321L10.5246 22.5077H13.0576L14.1553 17.3752C15.1181 17.9872 16.2249 18.3714 17.4936 18.3714C20.2064 18.3714 22.4155 16.1647 22.4155 13.471C22.4155 10.7819 20.2066 8.58867 17.4937 8.58867Z" fill="#6FDA44"/>
<path d="M29.9693 8.86557L31.5665 15.2578L33.3256 8.86557H35.4221L32.7183 18.1033H30.6217L28.9616 11.6708L27.3059 18.0988H25.2094L22.5054 8.86116H24.602L26.361 15.2534L27.9582 8.86116H29.9692V8.86569L29.9693 8.86557ZM40.4385 8.5886C37.7166 8.5886 35.5121 10.7818 35.5121 13.4799C35.5121 16.1825 37.7211 18.3714 40.4385 18.3714C43.1604 18.3714 45.3694 16.1825 45.3694 13.4799C45.3694 10.7774 43.1604 8.5886 40.4385 8.5886ZM40.4385 16.3612C38.8369 16.3612 37.5412 15.0746 37.5412 13.4844C37.5412 11.8941 38.8413 10.6077 40.4385 10.6077C42.0402 10.6077 43.3358 11.8941 43.3358 13.4844C43.3358 15.0702 42.0402 16.3612 40.4385 16.3612ZM51.3575 10.9338C49.9494 10.9338 48.8112 12.0684 48.8112 13.462V18.0988H46.701V8.86557H48.8112V10.2861C48.8112 10.2861 49.7109 8.86104 51.56 8.86104H52.2078V10.9338H51.3575ZM58.439 13.1226C59.937 12.2828 60.954 10.688 60.954 8.86104H58.8438C58.8438 10.4021 57.5842 11.6529 56.032 11.6529H55.7485V4.40747H53.6386V18.0987H55.7485V13.7479H56.0006C56.2075 13.7479 56.4775 13.882 56.599 14.0472L59.5952 18.0988H62.1237L58.439 13.1226Z" fill="black"/>
</g>
<line x1="0.67627" y1="25.8319" x2="62.1325" y2="25.8319" stroke="#E4E4E4" stroke-width="0.337672"/>
<path d="M10.1311 29.7151H0.67627L5.40367 32.7541L10.1311 29.7151Z" fill="#FBA0BD"/>
<path d="M10.1311 29.7151V35.7932L5.40367 38.8322L0.67627 35.7932L10.1311 29.7151Z" fill="#F1367A"/>
<path d="M0.67627 35.7932V29.7151L5.40367 32.7541L0.67627 35.7932Z" fill="#F86D9C"/>
<path d="M16.1388 31.8882V32.575H15.0083V36.1307H14.1574V32.575H13.0269V31.8882H16.1388Z" fill="black"/>
<path d="M18.7898 36.1732C18.3927 36.1732 18.028 36.08 17.6957 35.8936C17.3635 35.7072 17.1001 35.4499 16.9056 35.1217C16.7111 34.7894 16.6138 34.4146 16.6138 33.9973C16.6138 33.584 16.7111 33.2132 16.9056 32.885C17.1001 32.5527 17.3635 32.2934 17.6957 32.107C18.028 31.9206 18.3927 31.8274 18.7898 31.8274C19.1909 31.8274 19.5556 31.9206 19.8838 32.107C20.2161 32.2934 20.4775 32.5527 20.6679 32.885C20.8624 33.2132 20.9597 33.584 20.9597 33.9973C20.9597 34.4146 20.8624 34.7894 20.6679 35.1217C20.4775 35.4499 20.2161 35.7072 19.8838 35.8936C19.5516 36.08 19.1869 36.1732 18.7898 36.1732ZM18.7898 35.4135C19.0451 35.4135 19.27 35.3567 19.4645 35.2433C19.659 35.1258 19.8109 34.9596 19.9203 34.7449C20.0297 34.5301 20.0844 34.2809 20.0844 33.9973C20.0844 33.7136 20.0297 33.4665 19.9203 33.2557C19.8109 33.041 19.659 32.8769 19.4645 32.7634C19.27 32.65 19.0451 32.5932 18.7898 32.5932C18.5345 32.5932 18.3076 32.65 18.109 32.7634C17.9145 32.8769 17.7626 33.041 17.6532 33.2557C17.5438 33.4665 17.4891 33.7136 17.4891 33.9973C17.4891 34.2809 17.5438 34.5301 17.6532 34.7449C17.7626 34.9596 17.9145 35.1258 18.109 35.2433C18.3076 35.3567 18.5345 35.4135 18.7898 35.4135Z" fill="black"/>
<path d="M24.7473 33.201C24.7473 33.428 24.6926 33.6407 24.5832 33.8392C24.4778 34.0378 24.3096 34.1978 24.0787 34.3194C23.8518 34.441 23.5641 34.5018 23.2156 34.5018H22.5045V36.1307H21.6535V31.8882H23.2156C23.5438 31.8882 23.8234 31.9449 24.0544 32.0584C24.2853 32.1718 24.4575 32.3278 24.571 32.5264C24.6885 32.7249 24.7473 32.9498 24.7473 33.201ZM23.1791 33.8149C23.4141 33.8149 23.5884 33.7623 23.7018 33.6569C23.8153 33.5475 23.872 33.3955 23.872 33.201C23.872 32.7877 23.6411 32.5811 23.1791 32.5811H22.5045V33.8149H23.1791Z" fill="black"/>
<path d="M29.1094 36.1307L28.1734 34.4774H27.7722V36.1307H26.9213V31.8882H28.5137C28.842 31.8882 29.1216 31.9469 29.3525 32.0644C29.5835 32.1779 29.7557 32.3339 29.8692 32.5325C29.9867 32.727 30.0454 32.9458 30.0454 33.1889C30.0454 33.4685 29.9644 33.7217 29.8023 33.9486C29.6402 34.1715 29.3991 34.3255 29.079 34.4106L30.094 36.1307H29.1094ZM27.7722 33.8392H28.4834C28.7143 33.8392 28.8865 33.7845 29 33.6751C29.1134 33.5617 29.1702 33.4057 29.1702 33.2071C29.1702 33.0126 29.1134 32.8627 29 32.7573C28.8865 32.6479 28.7143 32.5932 28.4834 32.5932H27.7722V33.8392Z" fill="black"/>
<path d="M33.4773 35.3223H31.7876L31.508 36.1307H30.6145L32.1401 31.8821H33.1308L34.6564 36.1307H33.7569L33.4773 35.3223ZM33.2463 34.6415L32.6324 32.8667L32.0185 34.6415H33.2463Z" fill="black"/>
<path d="M38.1745 31.8882V32.575H37.044V36.1307H36.1931V32.575H35.0626V31.8882H38.1745Z" fill="black"/>
<path d="M39.7071 32.575V33.6387H41.1355V34.3133H39.7071V35.4378H41.3178V36.1307H38.8562V31.8821H41.3178V32.575H39.7071Z" fill="black"/>
<path d="M43.6349 31.8882C44.0807 31.8882 44.4717 31.9753 44.808 32.1495C45.1484 32.3238 45.4097 32.573 45.5921 32.8971C45.7785 33.2172 45.8717 33.59 45.8717 34.0155C45.8717 34.441 45.7785 34.8138 45.5921 35.1339C45.4097 35.4499 45.1484 35.6951 44.808 35.8693C44.4717 36.0436 44.0807 36.1307 43.6349 36.1307H42.1519V31.8882H43.6349ZM43.6046 35.4074C44.0503 35.4074 44.3947 35.2858 44.6378 35.0427C44.881 34.7996 45.0025 34.4572 45.0025 34.0155C45.0025 33.5738 44.881 33.2294 44.6378 32.9822C44.3947 32.731 44.0503 32.6054 43.6046 32.6054H43.0028V35.4074H43.6046Z" fill="black"/>
<path d="M51.1723 33.201C51.1723 33.428 51.1176 33.6407 51.0081 33.8392C50.9028 34.0378 50.7346 34.1978 50.5037 34.3194C50.2767 34.441 49.9891 34.5018 49.6406 34.5018H48.9294V36.1307H48.0785V31.8882H49.6406C49.9688 31.8882 50.2484 31.9449 50.4794 32.0584C50.7103 32.1718 50.8825 32.3278 50.996 32.5264C51.1135 32.7249 51.1723 32.9498 51.1723 33.201ZM49.6041 33.8149C49.8391 33.8149 50.0134 33.7623 50.1268 33.6569C50.2403 33.5475 50.297 33.3955 50.297 33.201C50.297 32.7877 50.066 32.5811 49.6041 32.5811H48.9294V33.8149H49.6041Z" fill="black"/>
<path d="M52.6881 35.456H54.0861V36.1307H51.8372V31.8882H52.6881V35.456Z" fill="black"/>
<path d="M55.5265 31.8882V34.5139C55.5265 34.8016 55.6015 35.0224 55.7514 35.1764C55.9013 35.3263 56.112 35.4013 56.3835 35.4013C56.659 35.4013 56.8718 35.3263 57.0217 35.1764C57.1716 35.0224 57.2466 34.8016 57.2466 34.5139V31.8882H58.1036V34.5078C58.1036 34.8685 58.0246 35.1744 57.8666 35.4256C57.7126 35.6728 57.5039 35.8592 57.2405 35.9848C56.9812 36.1104 56.6915 36.1732 56.3713 36.1732C56.0553 36.1732 55.7676 36.1104 55.5083 35.9848C55.253 35.8592 55.0504 35.6728 54.9005 35.4256C54.7505 35.1744 54.6756 34.8685 54.6756 34.5078V31.8882H55.5265Z" fill="black"/>
<path d="M60.4514 36.1732C60.1556 36.1732 59.8881 36.1226 59.6491 36.0213C59.414 35.92 59.2276 35.7741 59.0899 35.5837C58.9521 35.3932 58.8812 35.1683 58.8771 34.909H59.7889C59.801 35.0832 59.8618 35.221 59.9712 35.3223C60.0847 35.4236 60.2386 35.4742 60.4331 35.4742C60.6317 35.4742 60.7877 35.4276 60.9011 35.3345C61.0146 35.2372 61.0713 35.1116 61.0713 34.9576C61.0713 34.832 61.0328 34.7287 60.9558 34.6476C60.8789 34.5666 60.7816 34.5038 60.6641 34.4592C60.5506 34.4106 60.3926 34.3579 60.19 34.3012C59.9145 34.2201 59.6896 34.1411 59.5153 34.0641C59.3451 33.9831 59.1973 33.8636 59.0716 33.7055C58.9501 33.5434 58.8893 33.3287 58.8893 33.0612C58.8893 32.81 58.9521 32.5912 59.0777 32.4048C59.2033 32.2184 59.3796 32.0766 59.6065 31.9793C59.8334 31.878 60.0928 31.8274 60.3845 31.8274C60.8221 31.8274 61.1767 31.9348 61.4482 32.1495C61.7237 32.3602 61.8757 32.656 61.904 33.0369H60.968C60.9599 32.8911 60.8971 32.7715 60.7796 32.6783C60.6661 32.5811 60.5142 32.5325 60.3237 32.5325C60.1576 32.5325 60.0239 32.575 59.9226 32.6601C59.8253 32.7452 59.7767 32.8688 59.7767 33.0309C59.7767 33.1443 59.8132 33.2395 59.8861 33.3165C59.9631 33.3895 60.0563 33.4502 60.1657 33.4989C60.2792 33.5434 60.4372 33.5961 60.6398 33.6569C60.9153 33.7379 61.1402 33.819 61.3144 33.9C61.4887 33.9811 61.6386 34.1026 61.7642 34.2647C61.8898 34.4268 61.9527 34.6395 61.9527 34.9029C61.9527 35.1298 61.8939 35.3405 61.7764 35.535C61.6589 35.7295 61.4867 35.8855 61.2597 36.003C61.0328 36.1165 60.7634 36.1732 60.4514 36.1732Z" fill="black"/>
<path d="M110.124 31.3531C110.793 31.3315 111.462 31.3315 112.131 31.3531C112.649 31.3531 113.124 31.6768 113.415 32.0976C113.653 32.4644 113.663 32.9176 113.599 33.3384C113.534 33.7592 113.221 34.0937 112.886 34.3311C112.282 34.7087 111.559 34.5361 110.89 34.5792C110.826 35.2806 110.89 35.9927 110.869 36.6941C110.621 36.7156 110.372 36.7156 110.124 36.6941C110.113 34.9137 110.103 33.1334 110.124 31.3531ZM110.88 32.0976C110.836 32.6695 110.826 33.2521 110.869 33.8348C111.333 33.8348 111.797 33.8671 112.261 33.8132C112.886 33.5974 113.048 32.691 112.541 32.2702C112.056 31.9573 111.43 32.1408 110.88 32.0976ZM121.281 32.7989C121.292 32.4644 121.249 32.13 121.324 31.8063C121.561 31.8063 121.799 31.8063 122.047 31.8171C122.069 32.1408 122.047 32.4644 122.069 32.7881C122.317 32.9176 122.64 32.8205 122.932 32.8637C122.943 33.0903 122.943 33.3168 122.932 33.5542C122.64 33.565 122.349 33.5758 122.069 33.6082C122.069 34.2987 122.058 34.9893 122.069 35.6906C122.058 35.874 122.144 36.079 122.338 36.1222C122.554 36.1222 122.77 36.1222 122.986 36.1006C123.007 36.338 122.986 36.5754 122.932 36.802C122.587 36.8235 122.23 36.8667 121.885 36.7696C121.615 36.6077 121.335 36.3596 121.324 36.0251C121.249 35.2266 121.346 34.4282 121.27 33.6297C121.054 33.5974 120.828 33.565 120.612 33.5326C120.612 33.3168 120.612 33.101 120.623 32.8852C120.839 32.8421 121.076 32.8637 121.281 32.7989ZM114.246 33.5434C114.839 32.4321 116.728 32.4321 117.332 33.5434C117.505 33.9103 117.461 34.3311 117.472 34.7195C117.461 35.3777 117.483 36.0359 117.461 36.6941C117.267 36.7048 117.073 36.7048 116.879 36.6941C116.814 36.6077 116.76 36.5106 116.695 36.4243C116.253 36.7048 115.735 36.9962 115.206 36.8127C114.429 36.6941 113.836 35.8093 114.181 35.0648C114.397 34.4929 115.023 34.234 115.595 34.1908C115.994 34.1584 116.382 34.2987 116.782 34.3203C116.738 33.8563 116.393 33.4032 115.886 33.4355C115.444 33.36 115.077 33.6297 114.785 33.9319C114.57 33.8348 114.397 33.6945 114.246 33.5434ZM114.861 35.5827C114.893 35.9711 115.314 36.1869 115.67 36.1654C116.231 36.1222 116.684 35.669 116.717 35.108C116.415 34.8382 115.962 34.8166 115.584 34.849C115.206 34.8814 114.818 35.1727 114.861 35.5827ZM124.324 33.155C124.669 32.95 125.025 32.6802 125.467 32.7234C126.212 32.6587 126.881 33.3168 126.881 34.0398C126.892 34.9245 126.881 35.7985 126.881 36.6833C126.633 36.7048 126.385 36.7156 126.136 36.6941C126.104 35.8201 126.18 34.9461 126.093 34.0721C126.05 33.5111 125.359 33.3384 124.906 33.5111C124.507 33.6837 124.291 34.1153 124.281 34.5361C124.259 35.259 124.291 35.9711 124.281 36.6941C124.022 36.7156 123.773 36.7156 123.514 36.6941C123.504 35.4209 123.504 34.1369 123.514 32.8637C123.752 32.8421 123.978 32.8421 124.216 32.8745C124.248 32.9284 124.302 33.0795 124.324 33.155ZM128.23 33.0687C128.952 32.5076 130.107 32.6047 130.711 33.2953C131.089 33.7484 131.251 34.3419 131.175 34.9353C130.204 34.9677 129.222 34.9353 128.251 34.9461C128.165 35.6582 128.899 36.2409 129.578 36.1222C129.978 36.1114 130.215 35.7661 130.485 35.518C130.722 35.4964 130.916 35.669 131.11 35.7553C130.722 36.7264 129.438 37.1256 128.521 36.6509C127.172 36.0359 127.075 33.9319 128.23 33.0687ZM128.24 34.2987C128.942 34.3311 129.654 34.3311 130.366 34.2987C130.301 33.77 129.826 33.3924 129.298 33.4355C128.769 33.4032 128.391 33.8455 128.24 34.2987ZM133.171 32.7666C133.441 32.6802 133.732 32.7234 134.013 32.7666C134.034 33.0255 134.045 33.2845 134.034 33.5434C133.754 33.5326 133.463 33.4571 133.182 33.5218C132.783 33.6837 132.513 34.0721 132.524 34.5037C132.502 35.2266 132.535 35.9388 132.524 36.6617C132.276 36.6941 132.017 36.6941 131.769 36.6725C131.758 35.3993 131.758 34.1153 131.769 32.8421C131.963 32.8205 132.168 32.8205 132.362 32.8205C132.427 32.9176 132.492 33.0147 132.567 33.1118C132.772 32.9931 132.977 32.8745 133.171 32.7666ZM118.842 33.2305C119.123 33.0795 119.371 32.8313 119.706 32.8313C119.878 32.8205 120.062 32.8313 120.234 32.8421C120.245 33.0795 120.245 33.3168 120.245 33.5434C119.911 33.5974 119.511 33.5111 119.242 33.7592C119.058 33.9319 118.886 34.1584 118.886 34.4282C118.853 35.2051 118.907 35.9819 118.864 36.7696C118.627 36.7912 118.378 36.7912 118.13 36.7804C118.109 35.4964 118.109 34.2124 118.13 32.9392C118.346 32.9176 118.551 32.9284 118.767 32.9608C118.778 33.0147 118.821 33.155 118.842 33.2305Z" fill="#606469" stroke="#5F6368" stroke-width="0.0906062" stroke-miterlimit="10"/>
<path d="M84.7791 31.7631C85.5559 31.148 86.6781 31.1049 87.5844 31.4394C87.9081 31.5904 88.275 31.7739 88.4368 32.1299C88.2858 32.3026 88.1239 32.4644 87.9405 32.6047C87.6815 32.3889 87.4118 32.1623 87.0881 32.0544C86.2788 31.817 85.3186 32.0652 84.8222 32.7665C84.4014 33.2521 84.3798 33.9426 84.477 34.5576C84.6604 35.5071 85.6315 36.2085 86.5918 36.1221C87.4549 36.1329 88.3073 35.41 88.3073 34.5145C87.6815 34.4713 87.0557 34.5145 86.4299 34.4929C86.3436 34.2987 86.3328 34.0721 86.3867 33.8671C87.2607 33.7808 88.1563 33.8347 89.0302 33.8347C89.1274 34.6224 89.0087 35.4963 88.4044 36.0682C87.4334 37.104 85.6746 37.1148 84.628 36.2085C83.4303 35.1942 83.2901 33.3923 84.3151 32.1947C84.4554 32.0436 84.6064 31.8925 84.7791 31.7631ZM102.852 31.3854C103.1 31.3423 103.359 31.3315 103.607 31.3531C103.64 33.1226 103.618 34.8921 103.618 36.6616C103.37 36.748 103.111 36.7048 102.852 36.694C102.841 34.9245 102.852 33.155 102.852 31.3854ZM91.0372 32.7881C91.5874 32.6694 92.2025 32.7341 92.6664 33.0686C93.5728 33.6621 93.8209 35 93.2491 35.9064C92.9146 36.543 92.1701 36.8774 91.4687 36.8774C90.994 36.8235 90.5085 36.6616 90.174 36.3164C89.6021 35.7769 89.4187 34.8921 89.6453 34.1584C89.8071 33.4786 90.3898 32.9715 91.0372 32.7881ZM91.1343 33.5218C90.6811 33.6944 90.379 34.1152 90.3574 34.59C90.3142 35.054 90.4006 35.5935 90.7998 35.8848C91.4148 36.4243 92.5154 36.079 92.7096 35.2913C92.8067 34.795 92.8175 34.1692 92.3967 33.8023C92.1053 33.4463 91.5659 33.3815 91.1343 33.5218ZM95.3747 32.7989C95.8818 32.691 96.4428 32.7018 96.896 32.9823C97.9642 33.5326 98.2447 35.0647 97.565 36.0142C97.2197 36.5753 96.5507 36.8774 95.9034 36.8882C95.2883 36.8451 94.6517 36.5753 94.3065 36.0466C93.9612 35.5935 93.9072 35 93.9612 34.4497C94.0367 33.6729 94.6517 33.0255 95.3747 32.7989ZM95.5473 33.511C94.5331 33.8239 94.4036 35.3777 95.2452 35.9495C95.6552 36.23 96.2918 36.2301 96.6694 35.8848C97.2845 35.3992 97.3168 34.3958 96.8097 33.8239C96.4968 33.4679 95.9789 33.3815 95.5473 33.511ZM98.385 34.1476C98.59 33.3384 99.3561 32.6478 100.219 32.7342C100.64 32.7018 100.975 32.9823 101.32 33.1765C101.352 33.0686 101.385 32.9607 101.417 32.8528C101.644 32.842 101.87 32.842 102.086 32.8528C102.108 34.0829 102.086 35.3237 102.097 36.5537C102.108 37.158 101.859 37.8162 101.331 38.1506C100.867 38.4528 100.284 38.4528 99.7553 38.3988C99.1619 38.3125 98.6656 37.9025 98.4821 37.3306C98.6656 37.1903 98.8706 37.0177 99.1079 37.0609C99.3129 37.2767 99.4856 37.5248 99.7553 37.6651C100.241 37.9025 100.877 37.6975 101.19 37.2659C101.363 37.0069 101.352 36.6832 101.352 36.3919C100.953 36.6508 100.5 36.9314 100.003 36.8774C99.5072 36.8019 98.9785 36.5861 98.6979 36.1437C98.2879 35.5719 98.2124 34.8166 98.385 34.1476ZM99.7769 33.5326C98.9353 33.921 98.8274 35.1726 99.4208 35.82C99.7769 36.1761 100.316 36.2516 100.759 36.0142C101.59 35.5071 101.6 34.1152 100.791 33.5865C100.478 33.4247 100.111 33.4031 99.7769 33.5326ZM104.805 33.2736C105.161 32.896 105.657 32.7018 106.175 32.7342C106.812 32.7018 107.405 33.1118 107.729 33.6405C107.945 34.0289 107.966 34.4821 107.956 34.9245C106.995 35.0432 106.013 34.9245 105.042 34.9784C104.956 35.7121 105.744 36.3056 106.434 36.1329C106.833 36.0898 107.049 35.7445 107.287 35.4748C107.492 35.5611 107.686 35.6582 107.88 35.7445C107.751 36.3056 107.179 36.6832 106.639 36.8127C106.067 36.9853 105.452 36.8019 104.978 36.4782C104.46 36.1006 104.265 35.4316 104.201 34.8274C104.244 34.2771 104.384 33.6729 104.805 33.2736ZM105.636 33.5434C105.301 33.6621 105.15 34.0181 105.053 34.331C105.754 34.3418 106.456 34.3418 107.157 34.331C107.082 34.1045 107.028 33.8455 106.833 33.6837C106.51 33.4139 106.024 33.4031 105.636 33.5434Z" fill="#606469" stroke="#5F6368" stroke-width="0.0906062" stroke-miterlimit="10"/>
<path d="M100.984 8.05171C103.121 5.8398 106.239 4.68529 109.292 4.80397C111.084 4.92266 112.875 5.38663 114.407 6.34692C115.043 6.74614 115.68 7.16694 116.176 7.72801C115.691 8.28908 115.13 8.78541 114.612 9.3249C114.072 9.8536 113.554 10.4147 112.993 10.9218C112.119 10.1234 111.03 9.51912 109.843 9.35728C108.613 9.21701 107.307 9.27096 106.185 9.83203C104.923 10.4147 103.876 11.3642 103.175 12.5618C102.937 12.9611 102.775 13.4035 102.581 13.8243C101.33 12.9071 100.132 11.9145 98.8911 10.9757C99.3982 9.87519 100.11 8.88252 100.984 8.05171Z" fill="#EA4335"/>
<path d="M98.9023 10.9651C100.143 11.9038 101.341 12.8857 102.592 13.8136C102.409 14.7092 102.128 15.6263 102.301 16.5542C102.355 17.0613 102.506 17.5577 102.592 18.054C101.621 18.8201 100.629 19.5754 99.6576 20.3522C99.4094 20.5464 99.1505 20.7191 98.8699 20.8593C98.1902 19.5214 97.8018 18.0432 97.737 16.5434C97.6831 15.5615 97.7478 14.5689 97.942 13.5978C98.1794 12.7022 98.4276 11.7851 98.9023 10.9651Z" fill="#FBBC04"/>
<path d="M108.893 13.8997C111.936 13.8997 114.979 13.8997 118.022 13.8997C118.41 13.8997 118.798 13.8673 119.187 13.9321C119.856 17.2445 119.133 20.9023 116.932 23.5134C116.694 23.7939 116.457 24.1069 116.133 24.2903C114.914 23.3947 113.76 22.4344 112.551 21.5281C113.608 20.7404 114.418 19.5428 114.558 18.2156C112.659 18.1832 110.76 18.2264 108.861 18.194C108.807 17.0719 108.861 15.939 108.839 14.8168C108.85 14.5147 108.796 14.2018 108.893 13.8997Z" fill="#4284F4"/>
<path d="M99.6573 20.3629C100.628 19.5861 101.621 18.8308 102.592 18.0647C102.83 18.5071 102.981 19.0034 103.261 19.4242C104.146 20.87 105.549 21.9382 107.189 22.3914C108.332 22.6396 109.519 22.6396 110.652 22.3698C111.321 22.1972 111.936 21.8735 112.54 21.539C113.749 22.4454 114.903 23.4164 116.123 24.3012C115.831 24.6789 115.432 24.9378 115.044 25.2076C113.231 26.4915 110.987 26.9987 108.796 27.0526C106.584 27.0095 104.372 26.3836 102.549 25.1104C100.974 24.0315 99.7005 22.5748 98.8589 20.87C99.1502 20.7298 99.4092 20.5571 99.6573 20.3629Z" fill="#34A853"/>
<path d="M171 5.06519H173.737V21.9576H171V5.06519Z" fill="#17313B"/>
<path d="M183.253 16.6043C183.253 19.2215 181.112 19.4594 180.398 19.4594C178.733 19.4594 178.495 17.9129 178.495 17.0802V10.5374H175.759V16.9612C175.759 18.5077 176.235 19.9352 177.186 20.7679C178.019 21.6007 179.09 21.9576 180.398 21.9576C181.35 21.9576 182.54 21.7196 183.253 21.0059V21.9576H185.989V10.5374H183.253V16.6043Z" fill="#17313B"/>
<path d="M191.343 6.37375H188.607V10.5374H186.584V13.1545H188.607V21.9576H191.343V13.1545H193.365V10.5374H191.343V6.37375Z" fill="#17313B"/>
<path d="M201.93 18.5077C201.335 18.9835 200.503 19.3404 199.67 19.3404C197.767 19.3404 196.458 17.9129 196.458 16.0095C196.458 14.1062 197.767 12.7976 199.67 12.7976C200.503 12.7976 201.335 13.0355 201.93 13.6303L202.287 13.9872L204.19 12.2028L203.715 11.8459C202.644 10.8942 201.216 10.2994 199.67 10.2994C196.339 10.2994 193.841 12.7976 193.841 16.1285C193.841 19.4594 196.339 21.9576 199.67 21.9576C201.216 21.9576 202.644 21.3628 203.715 20.4111L204.19 20.0542L202.287 18.1508L201.93 18.5077Z" fill="#17313B"/>
<path d="M213.826 11.489C212.993 10.6563 212.161 10.2994 210.852 10.2994C209.901 10.2994 208.949 10.5374 208.235 11.2511V5.06519H205.499V21.9576H208.235V15.6527C208.235 13.0355 210.019 12.7976 210.733 12.7976C212.399 12.7976 212.28 14.3441 212.28 15.1768V21.8386H215.016V15.2958C215.016 13.7493 214.659 12.3218 213.826 11.489Z" fill="#17313B"/>
<path d="M199.551 18.0319C200.602 18.0319 201.454 17.1797 201.454 16.1285C201.454 15.0773 200.602 14.2251 199.551 14.2251C198.5 14.2251 197.648 15.0773 197.648 16.1285C197.648 17.1797 198.5 18.0319 199.551 18.0319Z" fill="#EF4335"/>
<path d="M167.194 17.7939C166.242 18.7456 164.815 19.3404 163.268 19.3404C160.294 19.3404 158.153 16.9612 158.153 13.7493C158.153 10.5374 160.294 8.15816 163.387 8.15816C164.815 8.15816 166.242 8.75296 167.313 9.8236L167.67 10.1805L169.454 8.39608L169.097 8.03919C167.551 6.49271 165.528 5.65999 163.387 5.65999C158.867 5.54103 155.536 9.10984 155.536 13.7493C155.536 18.3887 158.867 21.9576 163.268 21.9576C165.409 21.9576 167.551 21.1248 168.978 19.5783L169.335 19.2215L167.551 17.4371L167.194 17.7939Z" fill="#17313B"/>
<path d="M165.451 28.8389L166.497 32.0583H169.882L167.144 34.0479L168.19 37.2673L165.451 35.2776L162.713 37.2673L163.759 34.0479L161.02 32.0583H164.405L165.451 28.8389Z" fill="#FFBE00"/>
<path d="M175.725 28.8389L176.771 32.0583H180.156L177.418 34.048L178.464 37.2673L175.725 35.2777L172.987 37.2673L174.033 34.048L171.294 32.0583H174.679L175.725 28.8389Z" fill="#FFBE00"/>
<path d="M185.999 28.8389L187.045 32.0583H190.43L187.692 34.048L188.738 37.2673L185.999 35.2777L183.261 37.2673L184.307 34.048L181.568 32.0583H184.953L185.999 28.8389Z" fill="#FFBE00"/>
<path d="M196.273 28.8389L197.319 32.0583H200.704L197.966 34.048L199.012 37.2673L196.273 35.2777L193.535 37.2673L194.581 34.048L191.842 32.0583H195.227L196.273 28.8389Z" fill="#FFBE00"/>
<path d="M206.547 28.8389L207.593 32.0583H210.978L208.24 34.048L209.286 37.2673L206.547 35.2777L203.809 37.2673L204.855 34.048L202.116 32.0583H205.501L206.547 28.8389Z" fill="#FFBE00"/>
<path d="M256.773 0.779819C257.609 0.297265 258.639 0.297266 259.475 0.77982L275.489 10.0257C276.325 10.5082 276.84 11.4 276.84 12.3651V30.8569C276.84 31.822 276.325 32.7138 275.489 33.1963L259.475 42.4422C258.639 42.9247 257.609 42.9247 256.773 42.4422L240.759 33.1963C239.923 32.7138 239.409 31.822 239.409 30.8569V12.3651C239.409 11.4 239.923 10.5082 240.759 10.0257L256.773 0.779819Z" fill="white"/>
<g clip-path="url(#clip1_5_2238)">
<path d="M250.697 12.2712H251.206V13.4036H252.281V12.2712H252.792V15.0508H252.281V13.8947H251.206V15.0508H250.697V12.2712ZM254.406 14.1454C254.406 14.3781 254.217 14.5674 253.984 14.5674C253.751 14.5674 253.562 14.3781 253.562 14.1454V12.9487H253.079V14.1454C253.079 14.6447 253.485 15.0508 253.984 15.0508C254.483 15.0508 254.889 14.6447 254.889 14.1454V12.9487H254.406V14.1454ZM256.239 12.9628C255.999 12.9628 255.832 13.0323 255.67 13.191V12.2712H255.185V13.9758C255.185 14.6138 255.646 15.0508 256.165 15.0508C256.741 15.0508 257.246 14.606 257.246 14.0068C257.246 13.4152 256.78 12.9628 256.239 12.9628ZM256.251 14.6022C255.922 14.6022 255.671 14.3277 255.671 14.0068C255.671 13.6858 255.922 13.4113 256.251 13.4113C256.529 13.4113 256.781 13.6858 256.781 14.0068C256.781 14.3277 256.529 14.6022 256.251 14.6022ZM258.06 13.0849C258.06 12.8412 258.223 12.7639 258.4 12.7639C258.543 12.7639 258.733 12.8722 258.857 13.0036L259.173 12.6325C259.015 12.4198 258.694 12.2729 258.431 12.2729C257.905 12.2729 257.526 12.5783 257.526 13.0849C257.526 14.0245 258.683 13.7267 258.683 14.2527C258.683 14.4149 258.524 14.5581 258.342 14.5581C258.056 14.5581 257.963 14.4189 257.832 14.2719L257.48 14.6353C257.704 14.9099 257.983 15.0491 258.315 15.0491C258.814 15.0491 259.216 14.7398 259.216 14.2564C259.216 13.2125 258.06 13.5373 258.06 13.0849ZM260.493 12.9355C259.975 12.9355 259.513 13.3722 259.513 14.0104V15.7193H259.998V14.7952C260.16 14.9538 260.327 15.0234 260.567 15.0234C261.108 15.0234 261.574 14.5711 261.574 13.9795C261.574 13.3802 261.069 12.9355 260.493 12.9355ZM260.579 14.575C260.25 14.575 259.999 14.3002 259.999 13.9795C259.999 13.6585 260.25 13.384 260.579 13.384C260.857 13.384 261.109 13.6585 261.109 13.9795C261.109 14.3002 260.857 14.575 260.579 14.575ZM265.143 14.6022C264.857 14.6022 264.776 14.4785 264.776 14.2889V13.4499H265.22V13.0247H264.776V12.4639L264.285 12.6843V14.3934C264.285 14.8303 264.586 15.0508 265 15.0508C265.062 15.0508 265.147 15.0468 265.193 15.0353L265.313 14.5946C265.259 14.5983 265.197 14.6022 265.143 14.6022Z" fill="#45535E"/>
<path d="M263.865 13.4745C263.772 13.3146 263.641 13.1864 263.477 13.0899C263.355 13.0187 263.229 12.9736 263.086 12.9542V12.446C263.229 12.3854 263.317 12.2513 263.317 12.0948C263.317 11.8814 263.146 11.7086 262.933 11.7086C262.72 11.7086 262.546 11.8814 262.546 12.0948C262.546 12.2513 262.629 12.3854 262.772 12.446V12.9545C262.658 12.971 262.539 13.0066 262.431 13.0613C262.21 12.8935 261.486 12.3432 261.062 12.0217C261.072 11.9855 261.08 11.9481 261.08 11.9087C261.08 11.6725 260.889 11.481 260.652 11.481C260.416 11.481 260.225 11.6725 260.225 11.9087C260.225 12.145 260.416 12.3366 260.652 12.3366C260.733 12.3366 260.808 12.313 260.872 12.2742L260.961 12.342L262.19 13.2273C262.125 13.2869 262.065 13.3548 262.016 13.4309C261.918 13.5861 261.858 13.7568 261.858 13.943V13.9819C261.858 14.1126 261.883 14.236 261.925 14.352C261.963 14.4532 262.017 14.5452 262.085 14.6285L261.677 15.0372C261.618 15.0152 261.554 15.0107 261.492 15.0242C261.43 15.0377 261.374 15.0687 261.329 15.1134C261.299 15.144 261.274 15.1805 261.258 15.2206C261.241 15.2607 261.233 15.3038 261.233 15.3472C261.233 15.4355 261.267 15.5185 261.33 15.581C261.36 15.6118 261.397 15.6362 261.437 15.6528C261.477 15.6695 261.52 15.678 261.563 15.6778C261.607 15.678 261.65 15.6695 261.69 15.6528C261.73 15.6362 261.767 15.6118 261.797 15.581C261.828 15.5503 261.852 15.5139 261.869 15.4738C261.886 15.4336 261.894 15.3906 261.894 15.3472C261.894 15.313 261.889 15.2797 261.879 15.248L262.3 14.8265C262.358 14.8664 262.42 14.9 262.488 14.929C262.62 14.9862 262.766 15.021 262.926 15.021H262.955C263.132 15.021 263.299 14.9795 263.455 14.8946C263.62 14.8049 263.75 14.6822 263.847 14.5255C263.945 14.3685 263.999 14.1949 263.999 14.004V13.9944C263.999 13.8066 263.956 13.6333 263.865 13.4745ZM263.35 14.3588C263.235 14.4859 263.104 14.5642 262.955 14.5642H262.931C262.846 14.5642 262.763 14.5408 262.681 14.4981C262.59 14.4511 262.52 14.3841 262.463 14.2992C262.404 14.2159 262.372 14.1249 262.372 14.0285V13.9992C262.372 13.9044 262.39 13.8145 262.436 13.7296C262.485 13.6368 262.551 13.5646 262.639 13.5072C262.726 13.4502 262.818 13.4223 262.921 13.4223H262.931C263.024 13.4223 263.112 13.4407 263.195 13.4833C263.28 13.5287 263.35 13.5908 263.403 13.6725C263.456 13.7542 263.487 13.8423 263.497 13.9384C263.498 13.9583 263.499 13.9788 263.499 13.9983C263.499 14.1286 263.449 14.2493 263.35 14.3588Z" fill="#F8761F"/>
</g>
<path d="M257.449 3.97567C257.867 3.7344 258.381 3.7344 258.799 3.97567L273.059 12.2085C273.477 12.4498 273.734 12.8957 273.734 13.3782V29.8439C273.734 30.3265 273.477 30.7724 273.059 31.0137L258.799 39.2465C258.381 39.4878 257.867 39.4878 257.449 39.2465L243.189 31.0137C242.771 30.7724 242.514 30.3265 242.514 29.8439V13.3782C242.514 12.8957 242.771 12.4498 243.189 12.2085L257.449 3.97567Z" stroke="#45535E" stroke-width="2.70137"/>
<rect x="237.188" y="16.8835" width="41.8713" height="9.45481" rx="1.35069" fill="#F8761F" stroke="white" stroke-width="1.35069"/>
<path d="M249.203 21.9431V23.5485H248.669V19.585H250.086C250.446 19.585 250.752 19.6994 251.004 19.9282C251.259 20.157 251.387 20.4356 251.387 20.764C251.387 21.0999 251.259 21.3803 251.004 21.6055C250.756 21.8306 250.45 21.9431 250.086 21.9431H249.203ZM249.203 20.0721V21.456H250.098C250.311 21.456 250.487 21.3877 250.626 21.2512C250.77 21.1146 250.841 20.9523 250.841 20.764C250.841 20.5795 250.77 20.419 250.626 20.2824C250.487 20.1422 250.311 20.0721 250.098 20.0721H249.203Z" fill="white"/>
<path d="M252.188 22.7181C252.188 22.851 252.246 22.9617 252.363 23.0502C252.483 23.1388 252.622 23.1831 252.781 23.1831C253.005 23.1831 253.205 23.1038 253.379 22.9451C253.557 22.7864 253.646 22.6 253.646 22.386C253.48 22.2605 253.247 22.1978 252.949 22.1978C252.732 22.1978 252.55 22.2476 252.403 22.3472C252.26 22.4469 252.188 22.5705 252.188 22.7181ZM252.88 20.7474C253.275 20.7474 253.586 20.8489 253.815 21.0519C254.043 21.2512 254.157 21.5261 254.157 21.8767V23.5485H253.646V23.172H253.623C253.402 23.482 253.108 23.637 252.74 23.637C252.427 23.637 252.163 23.5485 251.95 23.3713C251.741 23.1942 251.637 22.9727 251.637 22.707C251.637 22.4266 251.747 22.2033 251.968 22.0372C252.192 21.8712 252.49 21.7881 252.862 21.7881C253.18 21.7881 253.441 21.8435 253.646 21.9542V21.838C253.646 21.6608 253.573 21.5114 253.426 21.3896C253.278 21.2641 253.106 21.2014 252.909 21.2014C252.61 21.2014 252.374 21.3213 252.2 21.5612L251.73 21.2789C251.989 20.9246 252.372 20.7474 252.88 20.7474Z" fill="white"/>
<path d="M258.152 23.5927C257.92 23.5927 257.726 23.5245 257.571 23.3879C257.42 23.2514 257.343 23.0613 257.339 22.8178V21.301H256.84V20.836H257.339V20.0057H257.873V20.836H258.57V21.301H257.873V22.6517C257.873 22.8325 257.91 22.9561 257.984 23.0226C258.057 23.0853 258.141 23.1167 258.234 23.1167C258.276 23.1167 258.317 23.113 258.356 23.1056C258.398 23.0945 258.437 23.0816 258.472 23.0669L258.64 23.5208C258.501 23.5687 258.338 23.5927 258.152 23.5927ZM254.818 20.836H255.329V21.2789H255.353C255.511 20.932 255.839 20.7585 256.334 20.7585L256.445 20.7696V21.301L256.206 21.2789C255.959 21.2789 255.753 21.3527 255.591 21.5003C255.432 21.6442 255.353 21.8287 255.353 22.0538V23.5485H254.818V20.836Z" fill="white"/>
<path d="M259.17 20.836H259.681V21.2124H259.705C259.786 21.0796 259.91 20.9689 260.076 20.8803C260.247 20.7917 260.423 20.7474 260.605 20.7474C260.953 20.7474 261.221 20.8434 261.406 21.0353C261.596 21.2235 261.691 21.4929 261.691 21.8435V23.5485H261.157V21.8767C261.145 21.4339 260.911 21.2124 260.454 21.2124C260.241 21.2124 260.063 21.2955 259.919 21.4615C259.776 21.6239 259.705 21.8195 259.705 22.0483V23.5485H259.17V20.836Z" fill="white"/>
<path d="M263.654 23.637C263.236 23.637 262.891 23.5005 262.62 23.2274C262.349 22.9543 262.214 22.6092 262.214 22.1922C262.214 21.7789 262.345 21.4357 262.609 21.1626C262.872 20.8858 263.209 20.7474 263.619 20.7474C264.041 20.7474 264.376 20.8784 264.624 21.1405C264.876 21.3988 265.002 21.7623 265.002 22.231L264.996 22.2863H262.76C262.767 22.552 262.86 22.7661 263.039 22.9285C263.217 23.0908 263.43 23.172 263.677 23.172C264.018 23.172 264.285 23.0097 264.479 22.6849L264.955 22.9063C264.827 23.1351 264.649 23.3141 264.421 23.4433C264.196 23.5724 263.941 23.637 263.654 23.637ZM262.8 21.8656H264.433C264.417 21.6774 264.336 21.5224 264.189 21.4006C264.045 21.2752 263.852 21.2124 263.608 21.2124C263.406 21.2124 263.232 21.2715 263.085 21.3896C262.942 21.5077 262.847 21.6663 262.8 21.8656Z" fill="white"/>
<path d="M266.083 23.5485H265.548V20.836H266.06V21.2789H266.083C266.137 21.1349 266.247 21.0131 266.414 20.9135C266.584 20.8102 266.751 20.7585 266.913 20.7585C267.068 20.7585 267.2 20.7807 267.308 20.8249L267.146 21.3176C267.08 21.2918 266.975 21.2789 266.832 21.2789C266.631 21.2789 266.455 21.3564 266.304 21.5114C266.156 21.6663 266.083 21.8472 266.083 22.0538V23.5485Z" fill="white"/>
<mask id="path-20-outside-1_5_2238" maskUnits="userSpaceOnUse" x="246.994" y="27.3645" width="21" height="6" fill="black">
<rect fill="white" x="246.994" y="27.3645" width="21" height="6"/>
<path d="M248.986 29.4606C248.986 29.5875 248.94 29.6895 248.847 29.7665C248.752 29.8422 248.637 29.88 248.502 29.88C248.382 29.88 248.276 29.8449 248.184 29.7746C248.092 29.7044 248.029 29.6085 247.994 29.4869L248.172 29.414C248.184 29.4572 248.201 29.4964 248.223 29.5315C248.244 29.5666 248.269 29.597 248.298 29.6227C248.327 29.647 248.36 29.6666 248.395 29.6814C248.43 29.6949 248.467 29.7017 248.506 29.7017C248.591 29.7017 248.661 29.6801 248.715 29.6368C248.769 29.5923 248.796 29.5335 248.796 29.4606C248.796 29.3998 248.774 29.3478 248.729 29.3046C248.687 29.2627 248.609 29.2222 248.494 29.183C248.378 29.1411 248.306 29.1128 248.277 29.0979C248.123 29.0196 248.046 28.9041 248.046 28.7515C248.046 28.6448 248.089 28.5536 248.174 28.478C248.26 28.4023 248.366 28.3645 248.492 28.3645C248.603 28.3645 248.699 28.3929 248.78 28.4496C248.861 28.505 248.915 28.5745 248.942 28.6583L248.768 28.7312C248.751 28.6772 248.719 28.6326 248.67 28.5975C248.623 28.561 248.565 28.5428 248.496 28.5428C248.423 28.5428 248.362 28.5631 248.312 28.6036C248.262 28.6414 248.237 28.6907 248.237 28.7515C248.237 28.8014 248.256 28.8447 248.296 28.8811C248.339 28.9176 248.433 28.9608 248.577 29.0108C248.724 29.0608 248.829 29.1222 248.891 29.1952C248.955 29.2668 248.986 29.3552 248.986 29.4606Z"/>
<path d="M250.651 29.1222C250.651 29.337 250.58 29.5166 250.437 29.6612C250.292 29.807 250.115 29.88 249.906 29.88C249.695 29.88 249.518 29.807 249.375 29.6612C249.232 29.5166 249.16 29.337 249.16 29.1222C249.16 28.9075 249.232 28.7278 249.375 28.5833C249.518 28.4374 249.695 28.3645 249.906 28.3645C250.116 28.3645 250.293 28.4381 250.437 28.5853C250.58 28.7299 250.651 28.9088 250.651 29.1222ZM249.351 29.1222C249.351 29.2897 249.403 29.4282 249.509 29.5376C249.615 29.647 249.748 29.7017 249.906 29.7017C250.064 29.7017 250.195 29.647 250.301 29.5376C250.407 29.4295 250.461 29.2911 250.461 29.1222C250.461 28.9534 250.407 28.815 250.301 28.7069C250.195 28.5975 250.064 28.5428 249.906 28.5428C249.748 28.5428 249.615 28.5975 249.509 28.7069C249.403 28.8163 249.351 28.9548 249.351 29.1222Z"/>
<path d="M251.706 29.8476H250.891V28.3969H251.078V29.6693H251.706V29.8476Z"/>
<path d="M252.406 29.88C252.245 29.88 252.115 29.8273 252.017 29.7219C251.918 29.6179 251.869 29.4802 251.869 29.3086V28.3969H252.055V29.3167C252.055 29.4356 252.086 29.5295 252.148 29.5984C252.21 29.6672 252.296 29.7017 252.406 29.7017C252.515 29.7017 252.601 29.6672 252.663 29.5984C252.725 29.5295 252.756 29.4356 252.756 29.3167V28.3969H252.942V29.3086C252.942 29.4842 252.894 29.6233 252.797 29.726C252.699 29.8286 252.569 29.88 252.406 29.88Z"/>
<path d="M253.716 28.5752V29.8476H253.529V28.5752H253.124V28.3969H254.121V28.5752H253.716Z"/>
<path d="M254.522 29.8476H254.336V28.3969H254.522V29.8476Z"/>
<path d="M256.235 29.1222C256.235 29.337 256.164 29.5166 256.02 29.6612C255.876 29.807 255.699 29.88 255.49 29.88C255.279 29.88 255.102 29.807 254.959 29.6612C254.816 29.5166 254.744 29.337 254.744 29.1222C254.744 28.9075 254.816 28.7278 254.959 28.5833C255.102 28.4374 255.279 28.3645 255.49 28.3645C255.7 28.3645 255.877 28.4381 256.02 28.5853C256.164 28.7299 256.235 28.9088 256.235 29.1222ZM254.934 29.1222C254.934 29.2897 254.987 29.4282 255.092 29.5376C255.199 29.647 255.332 29.7017 255.49 29.7017C255.648 29.7017 255.779 29.647 255.885 29.5376C255.991 29.4295 256.045 29.2911 256.045 29.1222C256.045 28.9534 255.991 28.815 255.885 28.7069C255.779 28.5975 255.648 28.5428 255.49 28.5428C255.332 28.5428 255.199 28.5975 255.092 28.7069C254.987 28.8163 254.934 28.9548 254.934 29.1222Z"/>
<path d="M256.662 29.8476H256.475V28.3969H256.702L257.407 29.5254H257.415L257.407 29.2458V28.3969H257.594V29.8476H257.399L256.662 28.6644H256.654L256.662 28.9439V29.8476Z"/>
<path d="M258.802 29.4606C258.802 29.5875 258.755 29.6895 258.662 29.7665C258.567 29.8422 258.453 29.88 258.318 29.88C258.197 29.88 258.091 29.8449 258 29.7746C257.908 29.7044 257.844 29.6085 257.809 29.4869L257.987 29.414C258 29.4572 258.016 29.4964 258.038 29.5315C258.06 29.5666 258.085 29.597 258.113 29.6227C258.143 29.647 258.175 29.6666 258.21 29.6814C258.245 29.6949 258.282 29.7017 258.322 29.7017C258.407 29.7017 258.476 29.6801 258.53 29.6368C258.584 29.5923 258.611 29.5335 258.611 29.4606C258.611 29.3998 258.589 29.3478 258.545 29.3046C258.503 29.2627 258.424 29.2222 258.309 29.183C258.193 29.1411 258.121 29.1128 258.093 29.0979C257.939 29.0196 257.862 28.9041 257.862 28.7515C257.862 28.6448 257.904 28.5536 257.989 28.478C258.076 28.4023 258.182 28.3645 258.307 28.3645C258.418 28.3645 258.514 28.3929 258.595 28.4496C258.676 28.505 258.73 28.5745 258.757 28.6583L258.583 28.7312C258.567 28.6772 258.534 28.6326 258.486 28.5975C258.438 28.561 258.38 28.5428 258.312 28.5428C258.239 28.5428 258.177 28.5631 258.127 28.6036C258.077 28.6414 258.052 28.6907 258.052 28.7515C258.052 28.8014 258.072 28.8447 258.111 28.8811C258.154 28.9176 258.248 28.9608 258.393 29.0108C258.54 29.0608 258.644 29.1222 258.707 29.1952C258.77 29.2668 258.802 29.3552 258.802 29.4606Z"/>
<path d="M259.698 29.26V29.8476H259.512V28.3969H260.006C260.132 28.3969 260.239 28.4388 260.326 28.5225C260.415 28.6063 260.46 28.7083 260.46 28.8285C260.46 28.9514 260.415 29.054 260.326 29.1364C260.24 29.2188 260.133 29.26 260.006 29.26H259.698ZM259.698 28.5752V29.0817H260.01C260.085 29.0817 260.146 29.0567 260.195 29.0068C260.245 28.9568 260.27 28.8973 260.27 28.8285C260.27 28.7609 260.245 28.7022 260.195 28.6522C260.146 28.6009 260.085 28.5752 260.01 28.5752H259.698Z"/>
<path d="M261.06 28.6259L260.823 29.2803H261.305L261.068 28.6259H261.06ZM260.618 29.8476H260.412L260.959 28.3969H261.169L261.716 29.8476H261.51L261.37 29.4545H260.76L260.618 29.8476Z"/>
<path d="M262.093 28.5752V29.0858H262.393C262.469 29.0858 262.533 29.0615 262.586 29.0128C262.638 28.9629 262.665 28.9014 262.665 28.8285C262.665 28.7609 262.64 28.7022 262.59 28.6522C262.541 28.6009 262.48 28.5752 262.405 28.5752H262.093ZM262.093 29.8476H261.907V28.3969H262.401C262.527 28.3969 262.634 28.4388 262.721 28.5225C262.81 28.6049 262.855 28.7069 262.855 28.8285C262.855 28.9284 262.822 29.0176 262.756 29.0959C262.691 29.1729 262.609 29.2222 262.509 29.2438L262.505 29.2499L262.912 29.8395V29.8476H262.691L262.3 29.26H262.093V29.8476Z"/>
<path d="M263.593 28.5752V29.8476H263.406V28.5752H263.001V28.3969H263.998V28.5752H263.593Z"/>
<path d="M264.399 29.8476H264.213V28.3969H264.44L265.145 29.5254H265.153L265.145 29.2458V28.3969H265.331V29.8476H265.137L264.399 28.6644H264.391L264.399 28.9439V29.8476Z"/>
<path d="M266.491 28.3969V28.5752H265.83V29.0351H266.426V29.2094H265.83V29.6693H266.491V29.8476H265.644V28.3969H266.491Z"/>
<path d="M266.949 28.5752V29.0858H267.248C267.324 29.0858 267.388 29.0615 267.441 29.0128C267.494 28.9629 267.52 28.9014 267.52 28.8285C267.52 28.7609 267.495 28.7022 267.445 28.6522C267.396 28.6009 267.335 28.5752 267.261 28.5752H266.949ZM266.949 29.8476H266.762V28.3969H267.256C267.382 28.3969 267.489 28.4388 267.577 28.5225C267.666 28.6049 267.71 28.7069 267.71 28.8285C267.71 28.9284 267.677 29.0176 267.611 29.0959C267.546 29.1729 267.464 29.2222 267.364 29.2438L267.36 29.2499L267.767 29.8395V29.8476H267.546L267.155 29.26H266.949V29.8476Z"/>
<path d="M253.256 31.9614V32.5489H253.069V31.0983H253.564C253.689 31.0983 253.796 31.1402 253.884 31.2239C253.973 31.3076 254.018 31.4096 254.018 31.5298C254.018 31.6528 253.973 31.7554 253.884 31.8378C253.797 31.9202 253.691 31.9614 253.564 31.9614H253.256ZM253.256 31.2766V31.7831H253.568C253.642 31.7831 253.703 31.7581 253.752 31.7081C253.802 31.6582 253.827 31.5987 253.827 31.5298C253.827 31.4623 253.802 31.4035 253.752 31.3536C253.703 31.3022 253.642 31.2766 253.568 31.2766H253.256Z"/>
<path d="M254.42 31.2766V31.7871H254.719C254.795 31.7871 254.859 31.7628 254.912 31.7142C254.965 31.6642 254.991 31.6028 254.991 31.5298C254.991 31.4623 254.966 31.4035 254.916 31.3536C254.867 31.3022 254.806 31.2766 254.732 31.2766H254.42ZM254.42 32.5489H254.233V31.0983H254.728C254.853 31.0983 254.96 31.1402 255.048 31.2239C255.137 31.3063 255.181 31.4083 255.181 31.5298C255.181 31.6298 255.148 31.7189 255.082 31.7973C255.017 31.8743 254.935 31.9236 254.835 31.9452L254.831 31.9513L255.238 32.5408V32.5489H255.017L254.626 31.9614H254.42V32.5489Z"/>
<path d="M256.845 31.8236C256.845 32.0384 256.773 32.218 256.63 32.3625C256.486 32.5084 256.309 32.5813 256.099 32.5813C255.889 32.5813 255.712 32.5084 255.569 32.3625C255.425 32.218 255.354 32.0384 255.354 31.8236C255.354 31.6089 255.425 31.4292 255.569 31.2847C255.712 31.1388 255.889 31.0659 256.099 31.0659C256.31 31.0659 256.487 31.1395 256.63 31.2867C256.773 31.4312 256.845 31.6102 256.845 31.8236ZM255.544 31.8236C255.544 31.9911 255.597 32.1295 255.702 32.2389C255.809 32.3484 255.941 32.4031 256.099 32.4031C256.257 32.4031 256.389 32.3484 256.494 32.2389C256.601 32.1309 256.655 31.9924 256.655 31.8236C256.655 31.6548 256.601 31.5163 256.494 31.4083C256.389 31.2989 256.257 31.2442 256.099 31.2442C255.941 31.2442 255.809 31.2989 255.702 31.4083C255.597 31.5177 255.544 31.6561 255.544 31.8236Z"/>
<path d="M258.461 31.8824C258.461 32.085 258.401 32.2464 258.281 32.3666C258.146 32.5098 257.968 32.5813 257.748 32.5813C257.537 32.5813 257.359 32.5084 257.213 32.3625C257.067 32.2167 256.995 32.037 256.995 31.8236C256.995 31.6102 257.067 31.4306 257.213 31.2847C257.359 31.1388 257.537 31.0659 257.748 31.0659C257.855 31.0659 257.956 31.0848 258.05 31.1226C258.145 31.1604 258.222 31.2138 258.283 31.2827L258.149 31.4164C258.105 31.3624 258.047 31.3205 257.975 31.2908C257.905 31.2597 257.829 31.2442 257.748 31.2442C257.59 31.2442 257.456 31.2989 257.347 31.4083C257.239 31.519 257.185 31.6575 257.185 31.8236C257.185 31.9897 257.239 32.1282 257.347 32.2389C257.456 32.3484 257.59 32.4031 257.748 32.4031C257.893 32.4031 258.013 32.3625 258.109 32.2815C258.205 32.2005 258.26 32.089 258.275 31.9472H257.748V31.773H258.451C258.458 31.8108 258.461 31.8472 258.461 31.8824Z"/>
<path d="M258.894 31.2766V31.7871H259.194C259.27 31.7871 259.334 31.7628 259.387 31.7142C259.439 31.6642 259.466 31.6028 259.466 31.5298C259.466 31.4623 259.441 31.4035 259.391 31.3536C259.342 31.3022 259.281 31.2766 259.206 31.2766H258.894ZM258.894 32.5489H258.708V31.0983H259.202C259.328 31.0983 259.435 31.1402 259.523 31.2239C259.612 31.3063 259.656 31.4083 259.656 31.5298C259.656 31.6298 259.623 31.7189 259.557 31.7973C259.492 31.8743 259.41 31.9236 259.31 31.9452L259.306 31.9513L259.713 32.5408V32.5489H259.492L259.101 31.9614H258.894V32.5489Z"/>
<path d="M260.426 31.3272L260.189 31.9816H260.672L260.435 31.3272H260.426ZM259.985 32.5489H259.778L260.325 31.0983H260.536L261.083 32.5489H260.876L260.736 32.1559H260.127L259.985 32.5489Z"/>
<path d="M261.46 32.5489H261.273V31.0983H261.46L261.964 31.9816H261.972L262.477 31.0983H262.663V32.5489H262.477V31.6879L262.485 31.4447H262.477L262.023 32.241H261.913L261.46 31.4447H261.452L261.46 31.6879V32.5489Z"/>
</mask>
<path d="M248.986 29.4606C248.986 29.5875 248.94 29.6895 248.847 29.7665C248.752 29.8422 248.637 29.88 248.502 29.88C248.382 29.88 248.276 29.8449 248.184 29.7746C248.092 29.7044 248.029 29.6085 247.994 29.4869L248.172 29.414C248.184 29.4572 248.201 29.4964 248.223 29.5315C248.244 29.5666 248.269 29.597 248.298 29.6227C248.327 29.647 248.36 29.6666 248.395 29.6814C248.43 29.6949 248.467 29.7017 248.506 29.7017C248.591 29.7017 248.661 29.6801 248.715 29.6368C248.769 29.5923 248.796 29.5335 248.796 29.4606C248.796 29.3998 248.774 29.3478 248.729 29.3046C248.687 29.2627 248.609 29.2222 248.494 29.183C248.378 29.1411 248.306 29.1128 248.277 29.0979C248.123 29.0196 248.046 28.9041 248.046 28.7515C248.046 28.6448 248.089 28.5536 248.174 28.478C248.26 28.4023 248.366 28.3645 248.492 28.3645C248.603 28.3645 248.699 28.3929 248.78 28.4496C248.861 28.505 248.915 28.5745 248.942 28.6583L248.768 28.7312C248.751 28.6772 248.719 28.6326 248.67 28.5975C248.623 28.561 248.565 28.5428 248.496 28.5428C248.423 28.5428 248.362 28.5631 248.312 28.6036C248.262 28.6414 248.237 28.6907 248.237 28.7515C248.237 28.8014 248.256 28.8447 248.296 28.8811C248.339 28.9176 248.433 28.9608 248.577 29.0108C248.724 29.0608 248.829 29.1222 248.891 29.1952C248.955 29.2668 248.986 29.3552 248.986 29.4606Z" fill="#45535E"/>
<path d="M250.651 29.1222C250.651 29.337 250.58 29.5166 250.437 29.6612C250.292 29.807 250.115 29.88 249.906 29.88C249.695 29.88 249.518 29.807 249.375 29.6612C249.232 29.5166 249.16 29.337 249.16 29.1222C249.16 28.9075 249.232 28.7278 249.375 28.5833C249.518 28.4374 249.695 28.3645 249.906 28.3645C250.116 28.3645 250.293 28.4381 250.437 28.5853C250.58 28.7299 250.651 28.9088 250.651 29.1222ZM249.351 29.1222C249.351 29.2897 249.403 29.4282 249.509 29.5376C249.615 29.647 249.748 29.7017 249.906 29.7017C250.064 29.7017 250.195 29.647 250.301 29.5376C250.407 29.4295 250.461 29.2911 250.461 29.1222C250.461 28.9534 250.407 28.815 250.301 28.7069C250.195 28.5975 250.064 28.5428 249.906 28.5428C249.748 28.5428 249.615 28.5975 249.509 28.7069C249.403 28.8163 249.351 28.9548 249.351 29.1222Z" fill="#45535E"/>
<path d="M251.706 29.8476H250.891V28.3969H251.078V29.6693H251.706V29.8476Z" fill="#45535E"/>
<path d="M252.406 29.88C252.245 29.88 252.115 29.8273 252.017 29.7219C251.918 29.6179 251.869 29.4802 251.869 29.3086V28.3969H252.055V29.3167C252.055 29.4356 252.086 29.5295 252.148 29.5984C252.21 29.6672 252.296 29.7017 252.406 29.7017C252.515 29.7017 252.601 29.6672 252.663 29.5984C252.725 29.5295 252.756 29.4356 252.756 29.3167V28.3969H252.942V29.3086C252.942 29.4842 252.894 29.6233 252.797 29.726C252.699 29.8286 252.569 29.88 252.406 29.88Z" fill="#45535E"/>
<path d="M253.716 28.5752V29.8476H253.529V28.5752H253.124V28.3969H254.121V28.5752H253.716Z" fill="#45535E"/>
<path d="M254.522 29.8476H254.336V28.3969H254.522V29.8476Z" fill="#45535E"/>
<path d="M256.235 29.1222C256.235 29.337 256.164 29.5166 256.02 29.6612C255.876 29.807 255.699 29.88 255.49 29.88C255.279 29.88 255.102 29.807 254.959 29.6612C254.816 29.5166 254.744 29.337 254.744 29.1222C254.744 28.9075 254.816 28.7278 254.959 28.5833C255.102 28.4374 255.279 28.3645 255.49 28.3645C255.7 28.3645 255.877 28.4381 256.02 28.5853C256.164 28.7299 256.235 28.9088 256.235 29.1222ZM254.934 29.1222C254.934 29.2897 254.987 29.4282 255.092 29.5376C255.199 29.647 255.332 29.7017 255.49 29.7017C255.648 29.7017 255.779 29.647 255.885 29.5376C255.991 29.4295 256.045 29.2911 256.045 29.1222C256.045 28.9534 255.991 28.815 255.885 28.7069C255.779 28.5975 255.648 28.5428 255.49 28.5428C255.332 28.5428 255.199 28.5975 255.092 28.7069C254.987 28.8163 254.934 28.9548 254.934 29.1222Z" fill="#45535E"/>
<path d="M256.662 29.8476H256.475V28.3969H256.702L257.407 29.5254H257.415L257.407 29.2458V28.3969H257.594V29.8476H257.399L256.662 28.6644H256.654L256.662 28.9439V29.8476Z" fill="#45535E"/>
<path d="M258.802 29.4606C258.802 29.5875 258.755 29.6895 258.662 29.7665C258.567 29.8422 258.453 29.88 258.318 29.88C258.197 29.88 258.091 29.8449 258 29.7746C257.908 29.7044 257.844 29.6085 257.809 29.4869L257.987 29.414C258 29.4572 258.016 29.4964 258.038 29.5315C258.06 29.5666 258.085 29.597 258.113 29.6227C258.143 29.647 258.175 29.6666 258.21 29.6814C258.245 29.6949 258.282 29.7017 258.322 29.7017C258.407 29.7017 258.476 29.6801 258.53 29.6368C258.584 29.5923 258.611 29.5335 258.611 29.4606C258.611 29.3998 258.589 29.3478 258.545 29.3046C258.503 29.2627 258.424 29.2222 258.309 29.183C258.193 29.1411 258.121 29.1128 258.093 29.0979C257.939 29.0196 257.862 28.9041 257.862 28.7515C257.862 28.6448 257.904 28.5536 257.989 28.478C258.076 28.4023 258.182 28.3645 258.307 28.3645C258.418 28.3645 258.514 28.3929 258.595 28.4496C258.676 28.505 258.73 28.5745 258.757 28.6583L258.583 28.7312C258.567 28.6772 258.534 28.6326 258.486 28.5975C258.438 28.561 258.38 28.5428 258.312 28.5428C258.239 28.5428 258.177 28.5631 258.127 28.6036C258.077 28.6414 258.052 28.6907 258.052 28.7515C258.052 28.8014 258.072 28.8447 258.111 28.8811C258.154 28.9176 258.248 28.9608 258.393 29.0108C258.54 29.0608 258.644 29.1222 258.707 29.1952C258.77 29.2668 258.802 29.3552 258.802 29.4606Z" fill="#45535E"/>
<path d="M259.698 29.26V29.8476H259.512V28.3969H260.006C260.132 28.3969 260.239 28.4388 260.326 28.5225C260.415 28.6063 260.46 28.7083 260.46 28.8285C260.46 28.9514 260.415 29.054 260.326 29.1364C260.24 29.2188 260.133 29.26 260.006 29.26H259.698ZM259.698 28.5752V29.0817H260.01C260.085 29.0817 260.146 29.0567 260.195 29.0068C260.245 28.9568 260.27 28.8973 260.27 28.8285C260.27 28.7609 260.245 28.7022 260.195 28.6522C260.146 28.6009 260.085 28.5752 260.01 28.5752H259.698Z" fill="#45535E"/>
<path d="M261.06 28.6259L260.823 29.2803H261.305L261.068 28.6259H261.06ZM260.618 29.8476H260.412L260.959 28.3969H261.169L261.716 29.8476H261.51L261.37 29.4545H260.76L260.618 29.8476Z" fill="#45535E"/>
<path d="M262.093 28.5752V29.0858H262.393C262.469 29.0858 262.533 29.0615 262.586 29.0128C262.638 28.9629 262.665 28.9014 262.665 28.8285C262.665 28.7609 262.64 28.7022 262.59 28.6522C262.541 28.6009 262.48 28.5752 262.405 28.5752H262.093ZM262.093 29.8476H261.907V28.3969H262.401C262.527 28.3969 262.634 28.4388 262.721 28.5225C262.81 28.6049 262.855 28.7069 262.855 28.8285C262.855 28.9284 262.822 29.0176 262.756 29.0959C262.691 29.1729 262.609 29.2222 262.509 29.2438L262.505 29.2499L262.912 29.8395V29.8476H262.691L262.3 29.26H262.093V29.8476Z" fill="#45535E"/>
<path d="M263.593 28.5752V29.8476H263.406V28.5752H263.001V28.3969H263.998V28.5752H263.593Z" fill="#45535E"/>
<path d="M264.399 29.8476H264.213V28.3969H264.44L265.145 29.5254H265.153L265.145 29.2458V28.3969H265.331V29.8476H265.137L264.399 28.6644H264.391L264.399 28.9439V29.8476Z" fill="#45535E"/>
<path d="M266.491 28.3969V28.5752H265.83V29.0351H266.426V29.2094H265.83V29.6693H266.491V29.8476H265.644V28.3969H266.491Z" fill="#45535E"/>
<path d="M266.949 28.5752V29.0858H267.248C267.324 29.0858 267.388 29.0615 267.441 29.0128C267.494 28.9629 267.52 28.9014 267.52 28.8285C267.52 28.7609 267.495 28.7022 267.445 28.6522C267.396 28.6009 267.335 28.5752 267.261 28.5752H266.949ZM266.949 29.8476H266.762V28.3969H267.256C267.382 28.3969 267.489 28.4388 267.577 28.5225C267.666 28.6049 267.71 28.7069 267.71 28.8285C267.71 28.9284 267.677 29.0176 267.611 29.0959C267.546 29.1729 267.464 29.2222 267.364 29.2438L267.36 29.2499L267.767 29.8395V29.8476H267.546L267.155 29.26H266.949V29.8476Z" fill="#45535E"/>
<path d="M253.256 31.9614V32.5489H253.069V31.0983H253.564C253.689 31.0983 253.796 31.1402 253.884 31.2239C253.973 31.3076 254.018 31.4096 254.018 31.5298C254.018 31.6528 253.973 31.7554 253.884 31.8378C253.797 31.9202 253.691 31.9614 253.564 31.9614H253.256ZM253.256 31.2766V31.7831H253.568C253.642 31.7831 253.703 31.7581 253.752 31.7081C253.802 31.6582 253.827 31.5987 253.827 31.5298C253.827 31.4623 253.802 31.4035 253.752 31.3536C253.703 31.3022 253.642 31.2766 253.568 31.2766H253.256Z" fill="#45535E"/>
<path d="M254.42 31.2766V31.7871H254.719C254.795 31.7871 254.859 31.7628 254.912 31.7142C254.965 31.6642 254.991 31.6028 254.991 31.5298C254.991 31.4623 254.966 31.4035 254.916 31.3536C254.867 31.3022 254.806 31.2766 254.732 31.2766H254.42ZM254.42 32.5489H254.233V31.0983H254.728C254.853 31.0983 254.96 31.1402 255.048 31.2239C255.137 31.3063 255.181 31.4083 255.181 31.5298C255.181 31.6298 255.148 31.7189 255.082 31.7973C255.017 31.8743 254.935 31.9236 254.835 31.9452L254.831 31.9513L255.238 32.5408V32.5489H255.017L254.626 31.9614H254.42V32.5489Z" fill="#45535E"/>
<path d="M256.845 31.8236C256.845 32.0384 256.773 32.218 256.63 32.3625C256.486 32.5084 256.309 32.5813 256.099 32.5813C255.889 32.5813 255.712 32.5084 255.569 32.3625C255.425 32.218 255.354 32.0384 255.354 31.8236C255.354 31.6089 255.425 31.4292 255.569 31.2847C255.712 31.1388 255.889 31.0659 256.099 31.0659C256.31 31.0659 256.487 31.1395 256.63 31.2867C256.773 31.4312 256.845 31.6102 256.845 31.8236ZM255.544 31.8236C255.544 31.9911 255.597 32.1295 255.702 32.2389C255.809 32.3484 255.941 32.4031 256.099 32.4031C256.257 32.4031 256.389 32.3484 256.494 32.2389C256.601 32.1309 256.655 31.9924 256.655 31.8236C256.655 31.6548 256.601 31.5163 256.494 31.4083C256.389 31.2989 256.257 31.2442 256.099 31.2442C255.941 31.2442 255.809 31.2989 255.702 31.4083C255.597 31.5177 255.544 31.6561 255.544 31.8236Z" fill="#45535E"/>
<path d="M258.461 31.8824C258.461 32.085 258.401 32.2464 258.281 32.3666C258.146 32.5098 257.968 32.5813 257.748 32.5813C257.537 32.5813 257.359 32.5084 257.213 32.3625C257.067 32.2167 256.995 32.037 256.995 31.8236C256.995 31.6102 257.067 31.4306 257.213 31.2847C257.359 31.1388 257.537 31.0659 257.748 31.0659C257.855 31.0659 257.956 31.0848 258.05 31.1226C258.145 31.1604 258.222 31.2138 258.283 31.2827L258.149 31.4164C258.105 31.3624 258.047 31.3205 257.975 31.2908C257.905 31.2597 257.829 31.2442 257.748 31.2442C257.59 31.2442 257.456 31.2989 257.347 31.4083C257.239 31.519 257.185 31.6575 257.185 31.8236C257.185 31.9897 257.239 32.1282 257.347 32.2389C257.456 32.3484 257.59 32.4031 257.748 32.4031C257.893 32.4031 258.013 32.3625 258.109 32.2815C258.205 32.2005 258.26 32.089 258.275 31.9472H257.748V31.773H258.451C258.458 31.8108 258.461 31.8472 258.461 31.8824Z" fill="#45535E"/>
<path d="M258.894 31.2766V31.7871H259.194C259.27 31.7871 259.334 31.7628 259.387 31.7142C259.439 31.6642 259.466 31.6028 259.466 31.5298C259.466 31.4623 259.441 31.4035 259.391 31.3536C259.342 31.3022 259.281 31.2766 259.206 31.2766H258.894ZM258.894 32.5489H258.708V31.0983H259.202C259.328 31.0983 259.435 31.1402 259.523 31.2239C259.612 31.3063 259.656 31.4083 259.656 31.5298C259.656 31.6298 259.623 31.7189 259.557 31.7973C259.492 31.8743 259.41 31.9236 259.31 31.9452L259.306 31.9513L259.713 32.5408V32.5489H259.492L259.101 31.9614H258.894V32.5489Z" fill="#45535E"/>
<path d="M260.426 31.3272L260.189 31.9816H260.672L260.435 31.3272H260.426ZM259.985 32.5489H259.778L260.325 31.0983H260.536L261.083 32.5489H260.876L260.736 32.1559H260.127L259.985 32.5489Z" fill="#45535E"/>
<path d="M261.46 32.5489H261.273V31.0983H261.46L261.964 31.9816H261.972L262.477 31.0983H262.663V32.5489H262.477V31.6879L262.485 31.4447H262.477L262.023 32.241H261.913L261.46 31.4447H261.452L261.46 31.6879V32.5489Z" fill="#45535E"/>
<path d="M248.986 29.4606C248.986 29.5875 248.94 29.6895 248.847 29.7665C248.752 29.8422 248.637 29.88 248.502 29.88C248.382 29.88 248.276 29.8449 248.184 29.7746C248.092 29.7044 248.029 29.6085 247.994 29.4869L248.172 29.414C248.184 29.4572 248.201 29.4964 248.223 29.5315C248.244 29.5666 248.269 29.597 248.298 29.6227C248.327 29.647 248.36 29.6666 248.395 29.6814C248.43 29.6949 248.467 29.7017 248.506 29.7017C248.591 29.7017 248.661 29.6801 248.715 29.6368C248.769 29.5923 248.796 29.5335 248.796 29.4606C248.796 29.3998 248.774 29.3478 248.729 29.3046C248.687 29.2627 248.609 29.2222 248.494 29.183C248.378 29.1411 248.306 29.1128 248.277 29.0979C248.123 29.0196 248.046 28.9041 248.046 28.7515C248.046 28.6448 248.089 28.5536 248.174 28.478C248.26 28.4023 248.366 28.3645 248.492 28.3645C248.603 28.3645 248.699 28.3929 248.78 28.4496C248.861 28.505 248.915 28.5745 248.942 28.6583L248.768 28.7312C248.751 28.6772 248.719 28.6326 248.67 28.5975C248.623 28.561 248.565 28.5428 248.496 28.5428C248.423 28.5428 248.362 28.5631 248.312 28.6036C248.262 28.6414 248.237 28.6907 248.237 28.7515C248.237 28.8014 248.256 28.8447 248.296 28.8811C248.339 28.9176 248.433 28.9608 248.577 29.0108C248.724 29.0608 248.829 29.1222 248.891 29.1952C248.955 29.2668 248.986 29.3552 248.986 29.4606Z" stroke="#45535E" stroke-width="0.0675344" mask="url(#path-20-outside-1_5_2238)"/>
<path d="M250.651 29.1222C250.651 29.337 250.58 29.5166 250.437 29.6612C250.292 29.807 250.115 29.88 249.906 29.88C249.695 29.88 249.518 29.807 249.375 29.6612C249.232 29.5166 249.16 29.337 249.16 29.1222C249.16 28.9075 249.232 28.7278 249.375 28.5833C249.518 28.4374 249.695 28.3645 249.906 28.3645C250.116 28.3645 250.293 28.4381 250.437 28.5853C250.58 28.7299 250.651 28.9088 250.651 29.1222ZM249.351 29.1222C249.351 29.2897 249.403 29.4282 249.509 29.5376C249.615 29.647 249.748 29.7017 249.906 29.7017C250.064 29.7017 250.195 29.647 250.301 29.5376C250.407 29.4295 250.461 29.2911 250.461 29.1222C250.461 28.9534 250.407 28.815 250.301 28.7069C250.195 28.5975 250.064 28.5428 249.906 28.5428C249.748 28.5428 249.615 28.5975 249.509 28.7069C249.403 28.8163 249.351 28.9548 249.351 29.1222Z" stroke="#45535E" stroke-width="0.0675344" mask="url(#path-20-outside-1_5_2238)"/>
<path d="M251.706 29.8476H250.891V28.3969H251.078V29.6693H251.706V29.8476Z" stroke="#45535E" stroke-width="0.0675344" mask="url(#path-20-outside-1_5_2238)"/>
<path d="M252.406 29.88C252.245 29.88 252.115 29.8273 252.017 29.7219C251.918 29.6179 251.869 29.4802 251.869 29.3086V28.3969H252.055V29.3167C252.055 29.4356 252.086 29.5295 252.148 29.5984C252.21 29.6672 252.296 29.7017 252.406 29.7017C252.515 29.7017 252.601 29.6672 252.663 29.5984C252.725 29.5295 252.756 29.4356 252.756 29.3167V28.3969H252.942V29.3086C252.942 29.4842 252.894 29.6233 252.797 29.726C252.699 29.8286 252.569 29.88 252.406 29.88Z" stroke="#45535E" stroke-width="0.0675344" mask="url(#path-20-outside-1_5_2238)"/>
<path d="M253.716 28.5752V29.8476H253.529V28.5752H253.124V28.3969H254.121V28.5752H253.716Z" stroke="#45535E" stroke-width="0.0675344" mask="url(#path-20-outside-1_5_2238)"/>
<path d="M254.522 29.8476H254.336V28.3969H254.522V29.8476Z" stroke="#45535E" stroke-width="0.0675344" mask="url(#path-20-outside-1_5_2238)"/>
<path d="M256.235 29.1222C256.235 29.337 256.164 29.5166 256.02 29.6612C255.876 29.807 255.699 29.88 255.49 29.88C255.279 29.88 255.102 29.807 254.959 29.6612C254.816 29.5166 254.744 29.337 254.744 29.1222C254.744 28.9075 254.816 28.7278 254.959 28.5833C255.102 28.4374 255.279 28.3645 255.49 28.3645C255.7 28.3645 255.877 28.4381 256.02 28.5853C256.164 28.7299 256.235 28.9088 256.235 29.1222ZM254.934 29.1222C254.934 29.2897 254.987 29.4282 255.092 29.5376C255.199 29.647 255.332 29.7017 255.49 29.7017C255.648 29.7017 255.779 29.647 255.885 29.5376C255.991 29.4295 256.045 29.2911 256.045 29.1222C256.045 28.9534 255.991 28.815 255.885 28.7069C255.779 28.5975 255.648 28.5428 255.49 28.5428C255.332 28.5428 255.199 28.5975 255.092 28.7069C254.987 28.8163 254.934 28.9548 254.934 29.1222Z" stroke="#45535E" stroke-width="0.0675344" mask="url(#path-20-outside-1_5_2238)"/>
<path d="M256.662 29.8476H256.475V28.3969H256.702L257.407 29.5254H257.415L257.407 29.2458V28.3969H257.594V29.8476H257.399L256.662 28.6644H256.654L256.662 28.9439V29.8476Z" stroke="#45535E" stroke-width="0.0675344" mask="url(#path-20-outside-1_5_2238)"/>
<path d="M258.802 29.4606C258.802 29.5875 258.755 29.6895 258.662 29.7665C258.567 29.8422 258.453 29.88 258.318 29.88C258.197 29.88 258.091 29.8449 258 29.7746C257.908 29.7044 257.844 29.6085 257.809 29.4869L257.987 29.414C258 29.4572 258.016 29.4964 258.038 29.5315C258.06 29.5666 258.085 29.597 258.113 29.6227C258.143 29.647 258.175 29.6666 258.21 29.6814C258.245 29.6949 258.282 29.7017 258.322 29.7017C258.407 29.7017 258.476 29.6801 258.53 29.6368C258.584 29.5923 258.611 29.5335 258.611 29.4606C258.611 29.3998 258.589 29.3478 258.545 29.3046C258.503 29.2627 258.424 29.2222 258.309 29.183C258.193 29.1411 258.121 29.1128 258.093 29.0979C257.939 29.0196 257.862 28.9041 257.862 28.7515C257.862 28.6448 257.904 28.5536 257.989 28.478C258.076 28.4023 258.182 28.3645 258.307 28.3645C258.418 28.3645 258.514 28.3929 258.595 28.4496C258.676 28.505 258.73 28.5745 258.757 28.6583L258.583 28.7312C258.567 28.6772 258.534 28.6326 258.486 28.5975C258.438 28.561 258.38 28.5428 258.312 28.5428C258.239 28.5428 258.177 28.5631 258.127 28.6036C258.077 28.6414 258.052 28.6907 258.052 28.7515C258.052 28.8014 258.072 28.8447 258.111 28.8811C258.154 28.9176 258.248 28.9608 258.393 29.0108C258.54 29.0608 258.644 29.1222 258.707 29.1952C258.77 29.2668 258.802 29.3552 258.802 29.4606Z" stroke="#45535E" stroke-width="0.0675344" mask="url(#path-20-outside-1_5_2238)"/>
<path d="M259.698 29.26V29.8476H259.512V28.3969H260.006C260.132 28.3969 260.239 28.4388 260.326 28.5225C260.415 28.6063 260.46 28.7083 260.46 28.8285C260.46 28.9514 260.415 29.054 260.326 29.1364C260.24 29.2188 260.133 29.26 260.006 29.26H259.698ZM259.698 28.5752V29.0817H260.01C260.085 29.0817 260.146 29.0567 260.195 29.0068C260.245 28.9568 260.27 28.8973 260.27 28.8285C260.27 28.7609 260.245 28.7022 260.195 28.6522C260.146 28.6009 260.085 28.5752 260.01 28.5752H259.698Z" stroke="#45535E" stroke-width="0.0675344" mask="url(#path-20-outside-1_5_2238)"/>
<path d="M261.06 28.6259L260.823 29.2803H261.305L261.068 28.6259H261.06ZM260.618 29.8476H260.412L260.959 28.3969H261.169L261.716 29.8476H261.51L261.37 29.4545H260.76L260.618 29.8476Z" stroke="#45535E" stroke-width="0.0675344" mask="url(#path-20-outside-1_5_2238)"/>
<path d="M262.093 28.5752V29.0858H262.393C262.469 29.0858 262.533 29.0615 262.586 29.0128C262.638 28.9629 262.665 28.9014 262.665 28.8285C262.665 28.7609 262.64 28.7022 262.59 28.6522C262.541 28.6009 262.48 28.5752 262.405 28.5752H262.093ZM262.093 29.8476H261.907V28.3969H262.401C262.527 28.3969 262.634 28.4388 262.721 28.5225C262.81 28.6049 262.855 28.7069 262.855 28.8285C262.855 28.9284 262.822 29.0176 262.756 29.0959C262.691 29.1729 262.609 29.2222 262.509 29.2438L262.505 29.2499L262.912 29.8395V29.8476H262.691L262.3 29.26H262.093V29.8476Z" stroke="#45535E" stroke-width="0.0675344" mask="url(#path-20-outside-1_5_2238)"/>
<path d="M263.593 28.5752V29.8476H263.406V28.5752H263.001V28.3969H263.998V28.5752H263.593Z" stroke="#45535E" stroke-width="0.0675344" mask="url(#path-20-outside-1_5_2238)"/>
<path d="M264.399 29.8476H264.213V28.3969H264.44L265.145 29.5254H265.153L265.145 29.2458V28.3969H265.331V29.8476H265.137L264.399 28.6644H264.391L264.399 28.9439V29.8476Z" stroke="#45535E" stroke-width="0.0675344" mask="url(#path-20-outside-1_5_2238)"/>
<path d="M266.491 28.3969V28.5752H265.83V29.0351H266.426V29.2094H265.83V29.6693H266.491V29.8476H265.644V28.3969H266.491Z" stroke="#45535E" stroke-width="0.0675344" mask="url(#path-20-outside-1_5_2238)"/>
<path d="M266.949 28.5752V29.0858H267.248C267.324 29.0858 267.388 29.0615 267.441 29.0128C267.494 28.9629 267.52 28.9014 267.52 28.8285C267.52 28.7609 267.495 28.7022 267.445 28.6522C267.396 28.6009 267.335 28.5752 267.261 28.5752H266.949ZM266.949 29.8476H266.762V28.3969H267.256C267.382 28.3969 267.489 28.4388 267.577 28.5225C267.666 28.6049 267.71 28.7069 267.71 28.8285C267.71 28.9284 267.677 29.0176 267.611 29.0959C267.546 29.1729 267.464 29.2222 267.364 29.2438L267.36 29.2499L267.767 29.8395V29.8476H267.546L267.155 29.26H266.949V29.8476Z" stroke="#45535E" stroke-width="0.0675344" mask="url(#path-20-outside-1_5_2238)"/>
<path d="M253.256 31.9614V32.5489H253.069V31.0983H253.564C253.689 31.0983 253.796 31.1402 253.884 31.2239C253.973 31.3076 254.018 31.4096 254.018 31.5298C254.018 31.6528 253.973 31.7554 253.884 31.8378C253.797 31.9202 253.691 31.9614 253.564 31.9614H253.256ZM253.256 31.2766V31.7831H253.568C253.642 31.7831 253.703 31.7581 253.752 31.7081C253.802 31.6582 253.827 31.5987 253.827 31.5298C253.827 31.4623 253.802 31.4035 253.752 31.3536C253.703 31.3022 253.642 31.2766 253.568 31.2766H253.256Z" stroke="#45535E" stroke-width="0.0675344" mask="url(#path-20-outside-1_5_2238)"/>
<path d="M254.42 31.2766V31.7871H254.719C254.795 31.7871 254.859 31.7628 254.912 31.7142C254.965 31.6642 254.991 31.6028 254.991 31.5298C254.991 31.4623 254.966 31.4035 254.916 31.3536C254.867 31.3022 254.806 31.2766 254.732 31.2766H254.42ZM254.42 32.5489H254.233V31.0983H254.728C254.853 31.0983 254.96 31.1402 255.048 31.2239C255.137 31.3063 255.181 31.4083 255.181 31.5298C255.181 31.6298 255.148 31.7189 255.082 31.7973C255.017 31.8743 254.935 31.9236 254.835 31.9452L254.831 31.9513L255.238 32.5408V32.5489H255.017L254.626 31.9614H254.42V32.5489Z" stroke="#45535E" stroke-width="0.0675344" mask="url(#path-20-outside-1_5_2238)"/>
<path d="M256.845 31.8236C256.845 32.0384 256.773 32.218 256.63 32.3625C256.486 32.5084 256.309 32.5813 256.099 32.5813C255.889 32.5813 255.712 32.5084 255.569 32.3625C255.425 32.218 255.354 32.0384 255.354 31.8236C255.354 31.6089 255.425 31.4292 255.569 31.2847C255.712 31.1388 255.889 31.0659 256.099 31.0659C256.31 31.0659 256.487 31.1395 256.63 31.2867C256.773 31.4312 256.845 31.6102 256.845 31.8236ZM255.544 31.8236C255.544 31.9911 255.597 32.1295 255.702 32.2389C255.809 32.3484 255.941 32.4031 256.099 32.4031C256.257 32.4031 256.389 32.3484 256.494 32.2389C256.601 32.1309 256.655 31.9924 256.655 31.8236C256.655 31.6548 256.601 31.5163 256.494 31.4083C256.389 31.2989 256.257 31.2442 256.099 31.2442C255.941 31.2442 255.809 31.2989 255.702 31.4083C255.597 31.5177 255.544 31.6561 255.544 31.8236Z" stroke="#45535E" stroke-width="0.0675344" mask="url(#path-20-outside-1_5_2238)"/>
<path d="M258.461 31.8824C258.461 32.085 258.401 32.2464 258.281 32.3666C258.146 32.5098 257.968 32.5813 257.748 32.5813C257.537 32.5813 257.359 32.5084 257.213 32.3625C257.067 32.2167 256.995 32.037 256.995 31.8236C256.995 31.6102 257.067 31.4306 257.213 31.2847C257.359 31.1388 257.537 31.0659 257.748 31.0659C257.855 31.0659 257.956 31.0848 258.05 31.1226C258.145 31.1604 258.222 31.2138 258.283 31.2827L258.149 31.4164C258.105 31.3624 258.047 31.3205 257.975 31.2908C257.905 31.2597 257.829 31.2442 257.748 31.2442C257.59 31.2442 257.456 31.2989 257.347 31.4083C257.239 31.519 257.185 31.6575 257.185 31.8236C257.185 31.9897 257.239 32.1282 257.347 32.2389C257.456 32.3484 257.59 32.4031 257.748 32.4031C257.893 32.4031 258.013 32.3625 258.109 32.2815C258.205 32.2005 258.26 32.089 258.275 31.9472H257.748V31.773H258.451C258.458 31.8108 258.461 31.8472 258.461 31.8824Z" stroke="#45535E" stroke-width="0.0675344" mask="url(#path-20-outside-1_5_2238)"/>
<path d="M258.894 31.2766V31.7871H259.194C259.27 31.7871 259.334 31.7628 259.387 31.7142C259.439 31.6642 259.466 31.6028 259.466 31.5298C259.466 31.4623 259.441 31.4035 259.391 31.3536C259.342 31.3022 259.281 31.2766 259.206 31.2766H258.894ZM258.894 32.5489H258.708V31.0983H259.202C259.328 31.0983 259.435 31.1402 259.523 31.2239C259.612 31.3063 259.656 31.4083 259.656 31.5298C259.656 31.6298 259.623 31.7189 259.557 31.7973C259.492 31.8743 259.41 31.9236 259.31 31.9452L259.306 31.9513L259.713 32.5408V32.5489H259.492L259.101 31.9614H258.894V32.5489Z" stroke="#45535E" stroke-width="0.0675344" mask="url(#path-20-outside-1_5_2238)"/>
<path d="M260.426 31.3272L260.189 31.9816H260.672L260.435 31.3272H260.426ZM259.985 32.5489H259.778L260.325 31.0983H260.536L261.083 32.5489H260.876L260.736 32.1559H260.127L259.985 32.5489Z" stroke="#45535E" stroke-width="0.0675344" mask="url(#path-20-outside-1_5_2238)"/>
<path d="M261.46 32.5489H261.273V31.0983H261.46L261.964 31.9816H261.972L262.477 31.0983H262.663V32.5489H262.477V31.6879L262.485 31.4447H262.477L262.023 32.241H261.913L261.46 31.4447H261.452L261.46 31.6879V32.5489Z" stroke="#45535E" stroke-width="0.0675344" mask="url(#path-20-outside-1_5_2238)"/>
<rect x="301.232" y="5.06519" width="33.0918" height="33.0918" rx="3.37672" fill="#421983"/>
<path d="M331.96 16.5461H317.44C318.115 18.5722 317.102 18.9098 311.362 24.9879L323.518 37.1441C329.731 31.2011 329.596 30.053 331.96 31.066V16.5461Z" fill="#6B30C7"/>
<g clip-path="url(#clip2_5_2238)">
<path d="M322.118 10.0315C322.118 9.53277 321.848 9.17432 321.348 9.17432H319.701V11.7614H320.241V10.8731H320.876L321.497 11.7614H322.104V11.6991L321.497 10.8575C321.888 10.764 322.118 10.4367 322.118 10.0315ZM321.281 10.3432H320.241V9.7042H321.281C321.47 9.7042 321.591 9.82888 321.591 10.0315C321.605 10.2341 321.483 10.3432 321.281 10.3432Z" fill="white"/>
<path d="M330.272 9.15869H329.772V10.1405H328.409V9.15869H327.869V11.7458H328.409V10.7328H329.772V11.7458H330.272V9.15869Z" fill="white"/>
<path d="M318.257 9.15869L317.663 11.325H317.636L317.028 9.15869H316.07V11.7458H316.583V9.62624H316.61L317.204 11.7458H318.027L318.635 9.62624H318.662V11.7458H319.188V9.15869H318.257Z" fill="white"/>
<path d="M312.384 10.2185C312.195 10.203 311.844 10.1562 311.642 10.1406C311.453 10.125 311.345 10.0471 311.345 9.90685C311.345 9.76658 311.466 9.65749 311.925 9.65749C312.33 9.65749 312.708 9.76658 313.046 9.93802V9.36138C312.722 9.17436 312.357 9.09644 311.898 9.09644C311.264 9.09644 310.818 9.40813 310.818 9.92243C310.818 10.3588 311.075 10.6082 311.601 10.6705C311.79 10.7017 312.114 10.7328 312.33 10.7484C312.573 10.764 312.641 10.8575 312.641 10.9822C312.641 11.1536 312.465 11.2627 312.047 11.2627C311.615 11.2627 311.169 11.0913 310.845 10.8731V11.4653C311.102 11.6679 311.534 11.8238 312.033 11.8238C312.722 11.8238 313.167 11.5121 313.167 10.9666C313.167 10.5458 312.938 10.2809 312.384 10.2185Z" fill="white"/>
<path d="M313.532 9.15869V11.7458H315.611V11.2159H314.045V10.686H315.584V10.1561H314.045V9.68858H315.611V9.15869H313.532Z" fill="white"/>
<path d="M326.748 10.2185C326.559 10.203 326.208 10.1562 326.006 10.1406C325.817 10.125 325.709 10.0471 325.709 9.90685C325.709 9.76658 325.83 9.65749 326.289 9.65749C326.694 9.65749 327.072 9.751 327.41 9.93802V9.36138C327.086 9.17436 326.721 9.09644 326.262 9.09644C325.628 9.09644 325.182 9.40813 325.182 9.92243C325.182 10.3588 325.439 10.6082 325.965 10.6705C326.154 10.7017 326.478 10.7328 326.694 10.7484C326.937 10.764 327.005 10.8575 327.005 10.9822C327.005 11.1536 326.829 11.2627 326.411 11.2627C325.979 11.2627 325.533 11.0913 325.209 10.8731V11.4653C325.466 11.6679 325.898 11.8238 326.397 11.8238C327.086 11.8238 327.531 11.5121 327.531 10.9666C327.531 10.5458 327.288 10.2809 326.748 10.2185Z" fill="white"/>
<path d="M324.278 9.15869V10.4834C324.278 10.9821 324.008 11.2626 323.616 11.2626C323.211 11.2626 322.955 10.9977 322.955 10.4834V9.15869H322.415V10.4211C322.415 11.3562 322.928 11.8237 323.616 11.8237C324.291 11.8237 324.804 11.3717 324.804 10.4522V9.15869H324.278Z" fill="white"/>
<path d="M308.982 10.4368C308.982 10.5614 308.928 10.577 308.793 10.577C308.645 10.577 308.618 10.5458 308.604 10.4212C308.577 10.0939 308.388 9.81336 308.064 9.79778C307.97 9.78219 307.943 9.75102 307.943 9.59517C307.943 9.45491 307.956 9.39257 308.051 9.39257C308.591 9.40816 308.982 9.92246 308.982 10.4368ZM309.779 10.4368C309.779 9.47049 309.212 8.44189 307.889 8.44189H305.283C305.229 8.44189 305.189 8.47306 305.189 8.5354C305.189 8.56657 305.202 8.59774 305.229 8.61333C305.324 8.70684 305.459 8.80035 305.648 8.90944C305.823 9.01853 305.972 9.08087 306.107 9.14321C306.161 9.17438 306.188 9.20555 306.188 9.23672C306.188 9.28348 306.161 9.33023 306.093 9.33023H304.028C303.96 9.31465 303.933 9.3614 303.933 9.40816C303.933 9.45491 303.947 9.48608 303.974 9.51725C304.136 9.71985 304.406 9.96921 304.797 10.2497C305.135 10.4991 305.567 10.764 305.904 10.9511C305.958 10.9822 305.985 11.0134 305.985 11.0601C305.985 11.1069 305.958 11.1381 305.891 11.1381H304.932C304.878 11.1381 304.851 11.1692 304.851 11.216C304.851 11.2472 304.865 11.2783 304.892 11.3095C305.108 11.5433 305.459 11.7771 305.918 12.0108C306.539 12.3069 307.16 12.494 307.862 12.494C309.198 12.494 309.779 11.3407 309.779 10.4368ZM308.037 11.8238C307.389 11.8238 306.836 11.216 306.836 10.4368C306.836 9.68868 307.376 9.08087 308.037 9.08087C308.712 9.08087 309.239 9.68868 309.239 10.4368C309.239 11.2004 308.712 11.8238 308.037 11.8238Z" fill="#FF642D"/>
</g>
<path d="M306.48 18.7346L306.929 18.8479C306.835 19.2162 306.665 19.4974 306.42 19.6916C306.177 19.8842 305.879 19.9805 305.526 19.9805C305.16 19.9805 304.863 19.9065 304.633 19.7586C304.405 19.6091 304.231 19.3934 304.111 19.1114C303.992 18.8294 303.933 18.5266 303.933 18.203C303.933 17.8501 304 17.5427 304.134 17.2807C304.27 17.0172 304.462 16.8176 304.71 16.682C304.959 16.5449 305.234 16.4763 305.533 16.4763C305.872 16.4763 306.157 16.5626 306.388 16.7352C306.619 16.9078 306.78 17.1505 306.871 17.4633L306.429 17.5673C306.351 17.3208 306.237 17.1413 306.087 17.0288C305.938 16.9163 305.75 16.86 305.523 16.86C305.263 16.86 305.045 16.9224 304.869 17.0473C304.695 17.1721 304.573 17.34 304.502 17.5512C304.431 17.7607 304.395 17.9772 304.395 18.2007C304.395 18.4888 304.437 18.7408 304.52 18.9565C304.605 19.1707 304.736 19.331 304.913 19.4373C305.09 19.5436 305.282 19.5968 305.489 19.5968C305.74 19.5968 305.953 19.5244 306.127 19.3795C306.301 19.2347 306.419 19.0197 306.48 18.7346Z" fill="white"/>
<path d="M309.158 19.1322L309.588 19.1854C309.52 19.4365 309.395 19.6315 309.211 19.7702C309.028 19.9089 308.794 19.9782 308.509 19.9782C308.15 19.9782 307.864 19.868 307.653 19.6477C307.444 19.4258 307.339 19.1153 307.339 18.7161C307.339 18.3032 307.445 17.9826 307.658 17.7546C307.871 17.5265 308.146 17.4125 308.486 17.4125C308.814 17.4125 309.082 17.5242 309.29 17.7476C309.498 17.9711 309.602 18.2854 309.602 18.6907C309.602 18.7154 309.601 18.7523 309.6 18.8017H307.769C307.784 19.0713 307.861 19.2778 307.998 19.4211C308.135 19.5644 308.306 19.6361 308.511 19.6361C308.663 19.6361 308.794 19.596 308.902 19.5159C309.009 19.4358 309.095 19.3079 309.158 19.1322ZM307.792 18.4596H309.163C309.144 18.2531 309.092 18.0982 309.006 17.995C308.873 17.8347 308.701 17.7546 308.49 17.7546C308.299 17.7546 308.138 17.8185 308.007 17.9464C307.878 18.0743 307.806 18.2454 307.792 18.4596Z" fill="white"/>
<path d="M310.156 19.9227V17.4679H310.53V17.8401C310.626 17.666 310.713 17.5512 310.793 17.4957C310.875 17.4402 310.965 17.4125 311.062 17.4125C311.202 17.4125 311.344 17.4572 311.489 17.5465L311.346 17.9325C311.244 17.8724 311.143 17.8424 311.041 17.8424C310.95 17.8424 310.868 17.8701 310.796 17.9256C310.723 17.9795 310.672 18.0551 310.641 18.1521C310.595 18.3001 310.572 18.4619 310.572 18.6375V19.9227H310.156Z" fill="white"/>
<path d="M312.692 19.5506L312.752 19.9181C312.635 19.9428 312.53 19.9551 312.438 19.9551C312.287 19.9551 312.17 19.9312 312.087 19.8834C312.003 19.8357 311.945 19.7733 311.911 19.6962C311.877 19.6176 311.86 19.4535 311.86 19.2039V17.7915H311.555V17.4679H311.86V16.86L312.274 16.6104V17.4679H312.692V17.7915H312.274V19.227C312.274 19.3456 312.281 19.4219 312.295 19.4558C312.31 19.4897 312.334 19.5167 312.366 19.5367C312.4 19.5567 312.448 19.5668 312.51 19.5668C312.556 19.5668 312.617 19.5614 312.692 19.5506Z" fill="white"/>
<path d="M313.151 17.0126V16.5341H313.567V17.0126H313.151ZM313.151 19.9227V17.4679H313.567V19.9227H313.151Z" fill="white"/>
<path d="M314.35 19.9227V17.7915H313.982V17.4679H314.35V17.2067C314.35 17.0419 314.364 16.9194 314.393 16.8392C314.434 16.7314 314.504 16.6443 314.604 16.578C314.705 16.5102 314.847 16.4763 315.029 16.4763C315.146 16.4763 315.276 16.4902 315.417 16.5179L315.355 16.8808C315.269 16.8654 315.187 16.8577 315.11 16.8577C314.984 16.8577 314.894 16.8847 314.842 16.9386C314.789 16.9925 314.763 17.0935 314.763 17.2414V17.4679H315.242V17.7915H314.763V19.9227H314.35Z" fill="white"/>
<path d="M315.617 17.0126V16.5341H316.033V17.0126H315.617ZM315.617 19.9227V17.4679H316.033V19.9227H315.617Z" fill="white"/>
<path d="M318.397 19.1322L318.827 19.1854C318.759 19.4365 318.633 19.6315 318.45 19.7702C318.267 19.9089 318.032 19.9782 317.747 19.9782C317.388 19.9782 317.103 19.868 316.892 19.6477C316.682 19.4258 316.578 19.1153 316.578 18.7161C316.578 18.3032 316.684 17.9826 316.897 17.7546C317.109 17.5265 317.385 17.4125 317.724 17.4125C318.052 17.4125 318.321 17.5242 318.529 17.7476C318.737 17.9711 318.841 18.2854 318.841 18.6907C318.841 18.7154 318.84 18.7523 318.838 18.8017H317.008C317.023 19.0713 317.099 19.2778 317.236 19.4211C317.374 19.5644 317.545 19.6361 317.75 19.6361C317.902 19.6361 318.032 19.596 318.14 19.5159C318.248 19.4358 318.334 19.3079 318.397 19.1322ZM317.031 18.4596H318.401C318.383 18.2531 318.331 18.0982 318.244 17.995C318.112 17.8347 317.94 17.7546 317.729 17.7546C317.538 17.7546 317.377 17.8185 317.246 17.9464C317.116 18.0743 317.045 18.2454 317.031 18.4596Z" fill="white"/>
<path d="M320.991 19.9227V19.613C320.836 19.8565 320.607 19.9782 320.305 19.9782C320.109 19.9782 319.929 19.9243 319.764 19.8164C319.601 19.7085 319.474 19.5583 319.383 19.3657C319.293 19.1715 319.249 18.9488 319.249 18.6976C319.249 18.4526 319.289 18.2307 319.371 18.0319C319.453 17.8316 319.575 17.6783 319.739 17.572C319.902 17.4656 320.085 17.4125 320.286 17.4125C320.434 17.4125 320.566 17.4441 320.682 17.5072C320.797 17.5689 320.891 17.6498 320.964 17.7499V16.5341H321.377V19.9227H320.991ZM319.676 18.6976C319.676 19.012 319.742 19.247 319.875 19.4026C320.007 19.5583 320.164 19.6361 320.344 19.6361C320.526 19.6361 320.68 19.5621 320.806 19.4142C320.934 19.2647 320.998 19.0374 320.998 18.7323C320.998 18.3964 320.934 18.1498 320.804 17.9926C320.675 17.8355 320.515 17.7569 320.326 17.7569C320.141 17.7569 319.986 17.8324 319.861 17.9834C319.738 18.1344 319.676 18.3725 319.676 18.6976Z" fill="white"/>
<path d="M309.295 26.6761H308.121L307.655 25.4623H305.519L305.078 26.6761H303.933L306.014 21.3325H307.155L309.295 26.6761ZM307.308 24.562L306.572 22.5791L305.85 24.562H307.308Z" fill="white"/>
<path d="M309.843 26.9313L311.013 27.0734C311.033 27.2095 311.078 27.3031 311.148 27.3541C311.246 27.427 311.399 27.4634 311.608 27.4634C311.875 27.4634 312.075 27.4233 312.209 27.3432C312.299 27.2897 312.367 27.2034 312.413 27.0844C312.445 26.9993 312.461 26.8426 312.461 26.6141V26.0492C312.154 26.4671 311.768 26.6761 311.301 26.6761C310.781 26.6761 310.37 26.4562 310.066 26.0164C309.828 25.6689 309.709 25.2363 309.709 24.7187C309.709 24.0699 309.864 23.5742 310.175 23.2316C310.489 22.8889 310.877 22.7176 311.342 22.7176C311.82 22.7176 312.215 22.9278 312.526 23.3482V22.8051H313.485V26.2788C313.485 26.7357 313.447 27.0771 313.372 27.3031C313.296 27.529 313.191 27.7064 313.055 27.8352C312.919 27.964 312.736 28.0649 312.508 28.1378C312.282 28.2107 311.995 28.2471 311.648 28.2471C310.992 28.2471 310.526 28.1341 310.252 27.9081C309.977 27.6846 309.84 27.4003 309.84 27.0552C309.84 27.0212 309.841 26.9799 309.843 26.9313ZM310.758 24.6604C310.758 25.0711 310.837 25.3724 310.995 25.5644C311.156 25.7539 311.352 25.8487 311.586 25.8487C311.836 25.8487 312.047 25.7515 312.22 25.5571C312.393 25.3603 312.479 25.0699 312.479 24.6859C312.479 24.285 312.396 23.9873 312.231 23.7929C312.066 23.5985 311.857 23.5013 311.604 23.5013C311.359 23.5013 311.156 23.5973 310.995 23.7893C310.837 23.9788 310.758 24.2692 310.758 24.6604Z" fill="white"/>
<path d="M316.818 25.4441L317.839 25.6154C317.707 25.9896 317.5 26.2752 317.215 26.472C316.934 26.6664 316.58 26.7636 316.155 26.7636C315.482 26.7636 314.983 26.5437 314.66 26.1038C314.405 25.7515 314.278 25.3068 314.278 24.7698C314.278 24.1282 314.445 23.6265 314.781 23.2644C315.116 22.8999 315.54 22.7176 316.053 22.7176C316.629 22.7176 317.083 22.9084 317.416 23.2899C317.749 23.669 317.908 24.251 317.893 25.0359H315.327C315.335 25.3396 315.417 25.5765 315.575 25.7466C315.733 25.9143 315.93 25.9981 316.166 25.9981C316.326 25.9981 316.461 25.9544 316.57 25.8669C316.68 25.7794 316.762 25.6385 316.818 25.4441ZM316.876 24.4089C316.869 24.1125 316.793 23.8877 316.647 23.7346C316.501 23.5791 316.324 23.5013 316.115 23.5013C315.891 23.5013 315.706 23.5827 315.561 23.7455C315.415 23.9083 315.343 24.1295 315.346 24.4089H316.876Z" fill="white"/>
<path d="M322.327 26.6761H321.303V24.7005C321.303 24.2826 321.281 24.0128 321.238 23.8913C321.194 23.7674 321.122 23.6714 321.023 23.6034C320.925 23.5353 320.807 23.5013 320.669 23.5013C320.492 23.5013 320.332 23.5499 320.191 23.6471C320.051 23.7443 319.953 23.8731 319.9 24.0335C319.849 24.1939 319.823 24.4903 319.823 24.9229V26.6761H318.799V22.8051H319.75V23.3737C320.088 22.9363 320.513 22.7176 321.026 22.7176C321.252 22.7176 321.459 22.7589 321.646 22.8416C321.833 22.9217 321.974 23.025 322.069 23.1514C322.166 23.2777 322.233 23.4211 322.269 23.5815C322.308 23.7419 322.327 23.9715 322.327 24.2704V26.6761Z" fill="white"/>
<path d="M326.82 23.9496L325.81 24.1319C325.776 23.9302 325.698 23.7783 325.577 23.6763C325.458 23.5742 325.302 23.5232 325.11 23.5232C324.855 23.5232 324.651 23.6119 324.498 23.7893C324.347 23.9642 324.272 24.2583 324.272 24.6714C324.272 25.1306 324.349 25.455 324.502 25.6446C324.657 25.8341 324.865 25.9289 325.125 25.9289C325.319 25.9289 325.479 25.8742 325.602 25.7649C325.726 25.6531 325.814 25.4623 325.865 25.1926L326.871 25.3639C326.766 25.8256 326.566 26.1743 326.269 26.41C325.973 26.6457 325.576 26.7636 325.078 26.7636C324.511 26.7636 324.059 26.585 323.722 26.2278C323.386 25.8706 323.219 25.3761 323.219 24.7443C323.219 24.1052 323.387 23.6082 323.725 23.2534C324.063 22.8962 324.52 22.7176 325.096 22.7176C325.567 22.7176 325.941 22.8197 326.218 23.0238C326.498 23.2255 326.698 23.5341 326.82 23.9496Z" fill="white"/>
<path d="M327.19 22.8051H328.28L329.205 25.5534L330.109 22.8051H331.17L329.803 26.5303L329.559 27.2046C329.469 27.4306 329.383 27.6032 329.3 27.7222C329.22 27.8413 329.126 27.9373 329.02 28.0102C328.915 28.0855 328.785 28.1438 328.63 28.1852C328.476 28.2265 328.303 28.2471 328.108 28.2471C327.911 28.2471 327.718 28.2265 327.529 28.1852L327.438 27.3832C327.598 27.4148 327.743 27.4306 327.871 27.4306C328.11 27.4306 328.286 27.3602 328.4 27.2192C328.514 27.0807 328.602 26.9033 328.662 26.687L327.19 22.8051Z" fill="white"/>
<path d="M304.476 34.1049V28.7613H306.208C306.864 28.7613 307.291 28.788 307.491 28.8415C307.797 28.9217 308.053 29.0966 308.26 29.3664C308.466 29.6337 308.57 29.98 308.57 30.4052C308.57 30.7333 308.51 31.0091 308.391 31.2326C308.272 31.4562 308.12 31.6324 307.935 31.7611C307.753 31.8875 307.567 31.9713 307.378 32.0127C307.12 32.0637 306.747 32.0892 306.259 32.0892H305.555V34.1049H304.476ZM305.555 29.6653V31.1816H306.146C306.571 31.1816 306.855 31.1536 306.999 31.0978C307.142 31.0419 307.254 30.9544 307.334 30.8353C307.417 30.7162 307.458 30.5777 307.458 30.4198C307.458 30.2254 307.401 30.065 307.287 29.9386C307.172 29.8123 307.028 29.7333 306.853 29.7017C306.724 29.6774 306.465 29.6653 306.076 29.6653H305.555Z" fill="white"/>
<path d="M310.288 31.4149L309.359 31.2472C309.463 30.873 309.643 30.596 309.898 30.4161C310.153 30.2363 310.532 30.1464 311.035 30.1464C311.492 30.1464 311.832 30.2011 312.056 30.3104C312.28 30.4174 312.436 30.5546 312.526 30.7223C312.619 30.8876 312.665 31.1925 312.665 31.6372L312.654 32.8328C312.654 33.173 312.67 33.4245 312.701 33.5873C312.735 33.7477 312.797 33.9202 312.887 34.1049H311.874C311.847 34.0369 311.814 33.936 311.775 33.8024C311.758 33.7416 311.746 33.7015 311.739 33.6821C311.564 33.8522 311.377 33.9797 311.178 34.0648C310.978 34.1498 310.766 34.1924 310.54 34.1924C310.141 34.1924 309.826 34.0842 309.596 33.868C309.367 33.6517 309.253 33.3783 309.253 33.0478C309.253 32.8291 309.305 32.6347 309.41 32.4646C309.514 32.2921 309.66 32.1609 309.847 32.071C310.037 31.9786 310.309 31.8984 310.664 31.8304C311.142 31.7405 311.474 31.6567 311.659 31.5789V31.4768C311.659 31.28 311.61 31.1403 311.513 31.0577C311.416 30.9726 311.232 30.9301 310.962 30.9301C310.78 30.9301 310.638 30.9665 310.536 31.0394C310.434 31.1099 310.351 31.2351 310.288 31.4149ZM311.659 32.2459C311.527 32.2897 311.32 32.3419 311.035 32.4027C310.751 32.4634 310.565 32.523 310.478 32.5813C310.344 32.676 310.277 32.7963 310.277 32.9421C310.277 33.0855 310.331 33.2094 310.438 33.3139C310.544 33.4184 310.681 33.4707 310.846 33.4707C311.03 33.4707 311.207 33.4099 311.374 33.2884C311.498 33.1961 311.58 33.0831 311.619 32.9494C311.645 32.8619 311.659 32.6955 311.659 32.4501V32.2459Z" fill="white"/>
<path d="M314.733 34.1049H313.709V30.2339H314.66V30.7843C314.823 30.5243 314.969 30.353 315.098 30.2703C315.229 30.1877 315.377 30.1464 315.542 30.1464C315.776 30.1464 316 30.2108 316.217 30.3396L315.9 31.2326C315.727 31.1208 315.567 31.0649 315.418 31.0649C315.275 31.0649 315.154 31.105 315.054 31.1852C314.954 31.263 314.875 31.4052 314.817 31.6117C314.761 31.8183 314.733 32.2508 314.733 32.9093V34.1049Z" fill="white"/>
<path d="M318.511 30.2339V31.0504H317.811V32.6104C317.811 32.9263 317.817 33.111 317.83 33.1645C317.844 33.2155 317.874 33.258 317.921 33.2921C317.969 33.3261 318.028 33.3431 318.096 33.3431C318.19 33.3431 318.328 33.3103 318.507 33.2447L318.595 34.0393C318.357 34.1413 318.087 34.1924 317.786 34.1924C317.601 34.1924 317.435 34.162 317.286 34.1013C317.138 34.0381 317.029 33.9579 316.958 33.8607C316.89 33.761 316.843 33.6274 316.816 33.4597C316.794 33.3407 316.783 33.1001 316.783 32.738V31.0504H316.313V30.2339H316.783V29.4648L317.811 28.867V30.2339H318.511Z" fill="white"/>
<path d="M322.818 34.1049H321.793V32.1293C321.793 31.7113 321.772 31.4416 321.728 31.3201C321.684 31.1962 321.612 31.1002 321.513 31.0321C321.416 30.9641 321.298 30.9301 321.159 30.9301C320.982 30.9301 320.823 30.9787 320.682 31.0759C320.541 31.1731 320.444 31.3019 320.39 31.4623C320.339 31.6226 320.314 31.9191 320.314 32.3516V34.1049H319.289V30.2339H320.241V30.8025C320.578 30.3651 321.004 30.1464 321.516 30.1464C321.742 30.1464 321.949 30.1877 322.136 30.2703C322.323 30.3505 322.464 30.4538 322.559 30.5802C322.656 30.7065 322.723 30.8499 322.759 31.0103C322.798 31.1707 322.818 31.4003 322.818 31.6992V34.1049Z" fill="white"/>
<path d="M326.176 32.8729L327.197 33.0442C327.066 33.4184 326.858 33.7039 326.574 33.9008C326.292 34.0952 325.938 34.1924 325.513 34.1924C324.84 34.1924 324.342 33.9725 324.019 33.5326C323.763 33.1803 323.636 32.7356 323.636 32.1986C323.636 31.557 323.804 31.0552 324.139 30.6932C324.474 30.3287 324.898 30.1464 325.411 30.1464C325.987 30.1464 326.441 30.3372 326.774 30.7187C327.107 31.0978 327.266 31.6797 327.252 32.4646H324.686C324.693 32.7684 324.776 33.0053 324.934 33.1754C325.091 33.3431 325.288 33.4269 325.524 33.4269C325.684 33.4269 325.819 33.3832 325.929 33.2957C326.038 33.2082 326.121 33.0673 326.176 32.8729ZM326.235 31.8377C326.227 31.5412 326.151 31.3165 326.005 31.1634C325.859 31.0078 325.682 30.9301 325.473 30.9301C325.249 30.9301 325.065 31.0115 324.919 31.1743C324.773 31.3371 324.701 31.5582 324.704 31.8377H326.235Z" fill="white"/>
<path d="M329.145 34.1049H328.121V30.2339H329.072V30.7843C329.235 30.5243 329.381 30.353 329.51 30.2703C329.641 30.1877 329.789 30.1464 329.954 30.1464C330.188 30.1464 330.413 30.2108 330.629 30.3396L330.312 31.2326C330.139 31.1208 329.979 31.0649 329.831 31.0649C329.687 31.0649 329.566 31.105 329.466 31.1852C329.366 31.263 329.287 31.4052 329.229 31.6117C329.173 31.8183 329.145 32.2508 329.145 32.9093V34.1049Z" fill="white"/>
<defs>
<clipPath id="clip0_5_2238">
<rect width="61.4563" height="18.2343" fill="white" transform="translate(0.67627 4.38965)"/>
</clipPath>
<clipPath id="clip1_5_2238">
<rect width="14.6173" height="4.25388" fill="white" transform="translate(250.695 11.481)"/>
</clipPath>
<clipPath id="clip2_5_2238">
<rect width="26.3384" height="4.05206" fill="white" transform="translate(303.933 8.44189)"/>
</clipPath>
</defs>
</svg>
