<svg width="35" height="34" viewBox="0 0 35 34" fill="none" xmlns="http://www.w3.org/2000/svg">
<path fill-rule="evenodd" clip-rule="evenodd" d="M21.1458 31.8528C25.1401 33.9966 29.8014 34.5375 34.1802 33.3635L33.8886 32.2757C29.7868 33.3754 25.4203 32.8688 21.6784 30.8605L15.4934 27.541C10.7524 24.9965 5.26371 24.2126 0 25.3282L0.233511 26.43C5.23694 25.3695 10.4542 26.1147 14.9608 28.5333L21.1458 31.8528Z" fill="#FFB000"/>
<path d="M18.168 27.8923C18.6763 28.7726 18.3746 29.8983 17.4943 30.4065C16.614 30.9148 15.4884 30.6132 14.9801 29.7328C14.4719 28.8525 14.7735 27.7269 15.6538 27.2186C16.5341 26.7104 17.6598 27.012 18.168 27.8923Z" fill="#1994FF"/>
<path fill-rule="evenodd" clip-rule="evenodd" d="M13.303 9.3351C14.0741 8.72635 14.8239 8.04099 15.5736 7.35564C16.5998 6.43496 16.6411 5.357 15.7401 4.27508C15.4842 3.97143 15.2137 3.69206 14.9432 3.41269C14.6727 3.13332 14.4022 2.85395 14.1463 2.5503C13.8505 2.25691 13.5746 1.95839 13.2988 1.65987C13.0229 1.36135 12.747 1.06283 12.4512 0.769448C11.5132 -0.138753 10.3685 -0.254929 9.34224 0.665745C8.5925 1.35112 7.84276 2.03649 7.07162 2.64527C6.38032 3.23352 5.99265 3.98999 5.80742 4.85862C5.61225 6.30449 5.91744 7.70382 6.38226 9.06209C7.33331 11.8552 8.82175 14.4281 10.6879 16.8218C13.2099 20.032 16.322 22.5979 19.9229 24.4634C21.5423 25.3606 23.2572 25.987 25.2059 26.2248C26.5316 26.3765 27.6492 26.0892 28.5956 25.189C28.9306 24.8566 29.2762 24.5625 29.6219 24.2684C29.9675 23.9742 30.3132 23.6801 30.6481 23.3477C31.6744 22.427 31.6943 21.2725 30.836 20.3438C29.7326 19.1497 28.6292 17.9556 27.5471 16.8382C26.6091 15.93 25.4644 15.8138 24.4381 16.7345C24.0633 17.0772 23.683 17.4007 23.3028 17.7242C22.9226 18.0478 22.5424 18.3713 22.1675 18.714C21.9494 18.8522 21.7898 18.8932 21.566 18.7045C21.2851 18.5062 20.9789 18.3501 20.6579 18.1865C20.4917 18.1018 20.3216 18.015 20.149 17.9194C18.1403 16.5476 16.4667 14.8433 14.9897 12.9243C14.2911 11.9545 13.5925 10.9847 13.1919 9.85628C13.1277 9.62648 13.1648 9.45275 13.303 9.3351ZM20.6006 19.8956C20.4823 19.8154 20.3384 19.7339 20.1387 19.6301C20.0849 19.6021 20.0215 19.5698 19.9519 19.5343C19.7759 19.4445 19.5606 19.3347 19.3632 19.2254L19.2985 19.1896L19.2377 19.148C17.0622 17.6622 15.275 15.8334 13.7256 13.8202L13.7109 13.8012L13.697 13.7818C13.6815 13.7603 13.666 13.7388 13.6503 13.7171C12.9814 12.7888 12.1761 11.6713 11.7043 10.3426L11.6874 10.2951L11.6739 10.2466C11.5171 9.685 11.5233 8.83399 12.2604 8.2068L12.2821 8.18828L12.3046 8.17054C13.0238 7.60274 13.7319 6.95643 14.4897 6.2637L14.495 6.25882L14.5004 6.25398C14.7953 5.98948 14.8082 5.83706 14.8099 5.80359C14.8123 5.75553 14.803 5.56639 14.5151 5.21967C14.2995 4.96413 14.0667 4.72286 13.792 4.43918L13.7778 4.42455C13.5295 4.1681 13.2453 3.87463 12.9691 3.55134C12.6678 3.25002 12.3888 2.94809 12.1324 2.6706L12.123 2.6604C11.8462 2.36095 11.5947 2.08906 11.3291 1.82527C11.0584 1.56517 10.8874 1.53978 10.8453 1.5376C10.8232 1.53644 10.6828 1.52903 10.4201 1.76322L10.4056 1.77641C9.67766 2.4419 8.90204 3.15094 8.09588 3.7894C7.7326 4.10546 7.4918 4.5241 7.35872 5.10792C7.22187 6.21354 7.44925 7.34654 7.87533 8.59159L7.87607 8.59374C8.76437 11.2026 10.1624 13.63 11.9445 15.9161C14.3317 18.9542 17.2705 21.3756 20.6695 23.1364L20.6892 23.1467L20.7087 23.1574C22.1775 23.9712 23.6925 24.519 25.3979 24.7281C26.3204 24.8326 26.9315 24.6437 27.4791 24.1277C27.852 23.7589 28.2308 23.4365 28.5625 23.1543L28.5792 23.1401C28.931 22.8407 29.2319 22.5838 29.5184 22.2995L29.5459 22.2721L29.5749 22.2461C29.8483 22.0009 29.8762 21.8331 29.8791 21.7766C29.882 21.718 29.8682 21.5693 29.6602 21.3443C28.5611 20.1549 27.4766 18.9814 26.4154 17.8848C26.1502 17.6333 25.9827 17.6085 25.9412 17.6063C25.9191 17.6052 25.7787 17.5977 25.5159 17.832C25.1227 18.1912 24.7271 18.5278 24.3547 18.8447L24.3455 18.8525C23.9621 19.1788 23.6027 19.4848 23.2515 19.8059L23.1502 19.8985L23.0334 19.9724C22.8853 20.0663 22.4853 20.3157 21.9366 20.3384C21.3487 20.3628 20.8979 20.1269 20.6006 19.8956Z" fill="#1994FF"/>
</svg>
