<svg width="153" height="135" viewBox="0 0 153 135" fill="none" xmlns="http://www.w3.org/2000/svg">
<path fill-rule="evenodd" clip-rule="evenodd" d="M42.5418 0.838379L76.2769 0.838491L46.8332 59.5953C63.7072 63.5277 76.2773 78.6562 76.2773 96.719C76.2773 117.771 59.202 134.838 38.1386 134.838C17.0752 134.838 -3.68284e-06 117.771 0 96.719C1.25109e-06 89.5674 1.9705 82.8758 5.39844 77.1569L42.5418 0.838379ZM139.264 0.838379L173 0.838491L143.556 59.5953C160.43 63.5277 173 78.6562 173 96.719C173 117.771 155.925 134.838 134.861 134.838C113.798 134.838 96.7226 117.771 96.7227 96.719C96.7227 89.5674 98.6932 82.8758 102.121 77.1569L139.264 0.838379Z" fill="#F9F9F9"/>
</svg>
